<?xml version="1.0" encoding="utf-8" standalone="no"?>
<!DOCTYPE svg PUBLIC "-//W3C//DTD SVG 1.1//EN"
  "http://www.w3.org/Graphics/SVG/1.1/DTD/svg11.dtd">
<svg xmlns:xlink="http://www.w3.org/1999/xlink" width="720pt" height="432pt" viewBox="0 0 720 432" xmlns="http://www.w3.org/2000/svg" version="1.1">
 <metadata>
  <rdf:RDF xmlns:dc="http://purl.org/dc/elements/1.1/" xmlns:cc="http://creativecommons.org/ns#" xmlns:rdf="http://www.w3.org/1999/02/22-rdf-syntax-ns#">
   <cc:Work>
    <dc:type rdf:resource="http://purl.org/dc/dcmitype/StillImage"/>
    <dc:date>2026-03-09T13:16:50.773288</dc:date>
    <dc:format>image/svg+xml</dc:format>
    <dc:creator>
     <cc:Agent>
      <dc:title>Matplotlib v3.10.3, https://matplotlib.org/</dc:title>
     </cc:Agent>
    </dc:creator>
   </cc:Work>
  </rdf:RDF>
 </metadata>
 <defs>
  <style type="text/css">*{stroke-linejoin: round; stroke-linecap: butt}</style>
 </defs>
 <g id="figure_1">
  <g id="patch_1">
   <path d="M 0 432 
L 720 432 
L 720 0 
L 0 0 
z
" style="fill: #ffffff"/>
  </g>
  <g id="axes_1">
   <g id="patch_2">
    <path d="M 90 384.48 
L 648 384.48 
L 648 51.84 
L 90 51.84 
z
" style="fill: #ffffff"/>
   </g>
   <g id="matplotlib.axis_1">
    <g id="xtick_1">
     <g id="line2d_1">
      <path d="M 115.363636 384.48 
L 115.363636 51.84 
" clip-path="url(#p5585b3c454)" style="fill: none; stroke-dasharray: 2.96,1.28; stroke-dashoffset: 0; stroke: #b0b0b0; stroke-width: 0.8"/>
     </g>
     <g id="line2d_2">
      <defs>
       <path id="ma7d4ac46c6" d="M 0 0 
L 0 3.5 
" style="stroke: #000000; stroke-width: 0.8"/>
      </defs>
      <g>
       <use xlink:href="#ma7d4ac46c6" x="115.363636" y="384.48" style="stroke: #000000; stroke-width: 0.8"/>
      </g>
     </g>
     <g id="text_1">
      <!-- 0 -->
      <g transform="translate(112.182386 399.078438) scale(0.1 -0.1)">
       <defs>
        <path id="DejaVuSans-30" d="M 2034 4250 
Q 1547 4250 1301 3770 
Q 1056 3291 1056 2328 
Q 1056 1369 1301 889 
Q 1547 409 2034 409 
Q 2525 409 2770 889 
Q 3016 1369 3016 2328 
Q 3016 3291 2770 3770 
Q 2525 4250 2034 4250 
z
M 2034 4750 
Q 2819 4750 3233 4129 
Q 3647 3509 3647 2328 
Q 3647 1150 3233 529 
Q 2819 -91 2034 -91 
Q 1250 -91 836 529 
Q 422 1150 422 2328 
Q 422 3509 836 4129 
Q 1250 4750 2034 4750 
z
" transform="scale(0.015625)"/>
       </defs>
       <use xlink:href="#DejaVuSans-30"/>
      </g>
     </g>
    </g>
    <g id="xtick_2">
     <g id="line2d_3">
      <path d="M 213.863195 384.48 
L 213.863195 51.84 
" clip-path="url(#p5585b3c454)" style="fill: none; stroke-dasharray: 2.96,1.28; stroke-dashoffset: 0; stroke: #b0b0b0; stroke-width: 0.8"/>
     </g>
     <g id="line2d_4">
      <g>
       <use xlink:href="#ma7d4ac46c6" x="213.863195" y="384.48" style="stroke: #000000; stroke-width: 0.8"/>
      </g>
     </g>
     <g id="text_2">
      <!-- 100 -->
      <g transform="translate(204.319445 399.078438) scale(0.1 -0.1)">
       <defs>
        <path id="DejaVuSans-31" d="M 794 531 
L 1825 531 
L 1825 4091 
L 703 3866 
L 703 4441 
L 1819 4666 
L 2450 4666 
L 2450 531 
L 3481 531 
L 3481 0 
L 794 0 
L 794 531 
z
" transform="scale(0.015625)"/>
       </defs>
       <use xlink:href="#DejaVuSans-31"/>
       <use xlink:href="#DejaVuSans-30" transform="translate(63.623047 0)"/>
       <use xlink:href="#DejaVuSans-30" transform="translate(127.246094 0)"/>
      </g>
     </g>
    </g>
    <g id="xtick_3">
     <g id="line2d_5">
      <path d="M 312.362754 384.48 
L 312.362754 51.84 
" clip-path="url(#p5585b3c454)" style="fill: none; stroke-dasharray: 2.96,1.28; stroke-dashoffset: 0; stroke: #b0b0b0; stroke-width: 0.8"/>
     </g>
     <g id="line2d_6">
      <g>
       <use xlink:href="#ma7d4ac46c6" x="312.362754" y="384.48" style="stroke: #000000; stroke-width: 0.8"/>
      </g>
     </g>
     <g id="text_3">
      <!-- 200 -->
      <g transform="translate(302.819004 399.078438) scale(0.1 -0.1)">
       <defs>
        <path id="DejaVuSans-32" d="M 1228 531 
L 3431 531 
L 3431 0 
L 469 0 
L 469 531 
Q 828 903 1448 1529 
Q 2069 2156 2228 2338 
Q 2531 2678 2651 2914 
Q 2772 3150 2772 3378 
Q 2772 3750 2511 3984 
Q 2250 4219 1831 4219 
Q 1534 4219 1204 4116 
Q 875 4013 500 3803 
L 500 4441 
Q 881 4594 1212 4672 
Q 1544 4750 1819 4750 
Q 2544 4750 2975 4387 
Q 3406 4025 3406 3419 
Q 3406 3131 3298 2873 
Q 3191 2616 2906 2266 
Q 2828 2175 2409 1742 
Q 1991 1309 1228 531 
z
" transform="scale(0.015625)"/>
       </defs>
       <use xlink:href="#DejaVuSans-32"/>
       <use xlink:href="#DejaVuSans-30" transform="translate(63.623047 0)"/>
       <use xlink:href="#DejaVuSans-30" transform="translate(127.246094 0)"/>
      </g>
     </g>
    </g>
    <g id="xtick_4">
     <g id="line2d_7">
      <path d="M 410.862312 384.48 
L 410.862312 51.84 
" clip-path="url(#p5585b3c454)" style="fill: none; stroke-dasharray: 2.96,1.28; stroke-dashoffset: 0; stroke: #b0b0b0; stroke-width: 0.8"/>
     </g>
     <g id="line2d_8">
      <g>
       <use xlink:href="#ma7d4ac46c6" x="410.862312" y="384.48" style="stroke: #000000; stroke-width: 0.8"/>
      </g>
     </g>
     <g id="text_4">
      <!-- 300 -->
      <g transform="translate(401.318562 399.078438) scale(0.1 -0.1)">
       <defs>
        <path id="DejaVuSans-33" d="M 2597 2516 
Q 3050 2419 3304 2112 
Q 3559 1806 3559 1356 
Q 3559 666 3084 287 
Q 2609 -91 1734 -91 
Q 1441 -91 1130 -33 
Q 819 25 488 141 
L 488 750 
Q 750 597 1062 519 
Q 1375 441 1716 441 
Q 2309 441 2620 675 
Q 2931 909 2931 1356 
Q 2931 1769 2642 2001 
Q 2353 2234 1838 2234 
L 1294 2234 
L 1294 2753 
L 1863 2753 
Q 2328 2753 2575 2939 
Q 2822 3125 2822 3475 
Q 2822 3834 2567 4026 
Q 2313 4219 1838 4219 
Q 1578 4219 1281 4162 
Q 984 4106 628 3988 
L 628 4550 
Q 988 4650 1302 4700 
Q 1616 4750 1894 4750 
Q 2613 4750 3031 4423 
Q 3450 4097 3450 3541 
Q 3450 3153 3228 2886 
Q 3006 2619 2597 2516 
z
" transform="scale(0.015625)"/>
       </defs>
       <use xlink:href="#DejaVuSans-33"/>
       <use xlink:href="#DejaVuSans-30" transform="translate(63.623047 0)"/>
       <use xlink:href="#DejaVuSans-30" transform="translate(127.246094 0)"/>
      </g>
     </g>
    </g>
    <g id="xtick_5">
     <g id="line2d_9">
      <path d="M 509.361871 384.48 
L 509.361871 51.84 
" clip-path="url(#p5585b3c454)" style="fill: none; stroke-dasharray: 2.96,1.28; stroke-dashoffset: 0; stroke: #b0b0b0; stroke-width: 0.8"/>
     </g>
     <g id="line2d_10">
      <g>
       <use xlink:href="#ma7d4ac46c6" x="509.361871" y="384.48" style="stroke: #000000; stroke-width: 0.8"/>
      </g>
     </g>
     <g id="text_5">
      <!-- 400 -->
      <g transform="translate(499.818121 399.078438) scale(0.1 -0.1)">
       <defs>
        <path id="DejaVuSans-34" d="M 2419 4116 
L 825 1625 
L 2419 1625 
L 2419 4116 
z
M 2253 4666 
L 3047 4666 
L 3047 1625 
L 3713 1625 
L 3713 1100 
L 3047 1100 
L 3047 0 
L 2419 0 
L 2419 1100 
L 313 1100 
L 313 1709 
L 2253 4666 
z
" transform="scale(0.015625)"/>
       </defs>
       <use xlink:href="#DejaVuSans-34"/>
       <use xlink:href="#DejaVuSans-30" transform="translate(63.623047 0)"/>
       <use xlink:href="#DejaVuSans-30" transform="translate(127.246094 0)"/>
      </g>
     </g>
    </g>
    <g id="xtick_6">
     <g id="line2d_11">
      <path d="M 607.86143 384.48 
L 607.86143 51.84 
" clip-path="url(#p5585b3c454)" style="fill: none; stroke-dasharray: 2.96,1.28; stroke-dashoffset: 0; stroke: #b0b0b0; stroke-width: 0.8"/>
     </g>
     <g id="line2d_12">
      <g>
       <use xlink:href="#ma7d4ac46c6" x="607.86143" y="384.48" style="stroke: #000000; stroke-width: 0.8"/>
      </g>
     </g>
     <g id="text_6">
      <!-- 500 -->
      <g transform="translate(598.31768 399.078438) scale(0.1 -0.1)">
       <defs>
        <path id="DejaVuSans-35" d="M 691 4666 
L 3169 4666 
L 3169 4134 
L 1269 4134 
L 1269 2991 
Q 1406 3038 1543 3061 
Q 1681 3084 1819 3084 
Q 2600 3084 3056 2656 
Q 3513 2228 3513 1497 
Q 3513 744 3044 326 
Q 2575 -91 1722 -91 
Q 1428 -91 1123 -41 
Q 819 9 494 109 
L 494 744 
Q 775 591 1075 516 
Q 1375 441 1709 441 
Q 2250 441 2565 725 
Q 2881 1009 2881 1497 
Q 2881 1984 2565 2268 
Q 2250 2553 1709 2553 
Q 1456 2553 1204 2497 
Q 953 2441 691 2322 
L 691 4666 
z
" transform="scale(0.015625)"/>
       </defs>
       <use xlink:href="#DejaVuSans-35"/>
       <use xlink:href="#DejaVuSans-30" transform="translate(63.623047 0)"/>
       <use xlink:href="#DejaVuSans-30" transform="translate(127.246094 0)"/>
      </g>
     </g>
    </g>
    <g id="text_7">
     <!-- Epoch -->
     <g transform="translate(353.689062 412.756563) scale(0.1 -0.1)">
      <defs>
       <path id="DejaVuSans-45" d="M 628 4666 
L 3578 4666 
L 3578 4134 
L 1259 4134 
L 1259 2753 
L 3481 2753 
L 3481 2222 
L 1259 2222 
L 1259 531 
L 3634 531 
L 3634 0 
L 628 0 
L 628 4666 
z
" transform="scale(0.015625)"/>
       <path id="DejaVuSans-70" d="M 1159 525 
L 1159 -1331 
L 581 -1331 
L 581 3500 
L 1159 3500 
L 1159 2969 
Q 1341 3281 1617 3432 
Q 1894 3584 2278 3584 
Q 2916 3584 3314 3078 
Q 3713 2572 3713 1747 
Q 3713 922 3314 415 
Q 2916 -91 2278 -91 
Q 1894 -91 1617 61 
Q 1341 213 1159 525 
z
M 3116 1747 
Q 3116 2381 2855 2742 
Q 2594 3103 2138 3103 
Q 1681 3103 1420 2742 
Q 1159 2381 1159 1747 
Q 1159 1113 1420 752 
Q 1681 391 2138 391 
Q 2594 391 2855 752 
Q 3116 1113 3116 1747 
z
" transform="scale(0.015625)"/>
       <path id="DejaVuSans-6f" d="M 1959 3097 
Q 1497 3097 1228 2736 
Q 959 2375 959 1747 
Q 959 1119 1226 758 
Q 1494 397 1959 397 
Q 2419 397 2687 759 
Q 2956 1122 2956 1747 
Q 2956 2369 2687 2733 
Q 2419 3097 1959 3097 
z
M 1959 3584 
Q 2709 3584 3137 3096 
Q 3566 2609 3566 1747 
Q 3566 888 3137 398 
Q 2709 -91 1959 -91 
Q 1206 -91 779 398 
Q 353 888 353 1747 
Q 353 2609 779 3096 
Q 1206 3584 1959 3584 
z
" transform="scale(0.015625)"/>
       <path id="DejaVuSans-63" d="M 3122 3366 
L 3122 2828 
Q 2878 2963 2633 3030 
Q 2388 3097 2138 3097 
Q 1578 3097 1268 2742 
Q 959 2388 959 1747 
Q 959 1106 1268 751 
Q 1578 397 2138 397 
Q 2388 397 2633 464 
Q 2878 531 3122 666 
L 3122 134 
Q 2881 22 2623 -34 
Q 2366 -91 2075 -91 
Q 1284 -91 818 406 
Q 353 903 353 1747 
Q 353 2603 823 3093 
Q 1294 3584 2113 3584 
Q 2378 3584 2631 3529 
Q 2884 3475 3122 3366 
z
" transform="scale(0.015625)"/>
       <path id="DejaVuSans-68" d="M 3513 2113 
L 3513 0 
L 2938 0 
L 2938 2094 
Q 2938 2591 2744 2837 
Q 2550 3084 2163 3084 
Q 1697 3084 1428 2787 
Q 1159 2491 1159 1978 
L 1159 0 
L 581 0 
L 581 4863 
L 1159 4863 
L 1159 2956 
Q 1366 3272 1645 3428 
Q 1925 3584 2291 3584 
Q 2894 3584 3203 3211 
Q 3513 2838 3513 2113 
z
" transform="scale(0.015625)"/>
      </defs>
      <use xlink:href="#DejaVuSans-45"/>
      <use xlink:href="#DejaVuSans-70" transform="translate(63.183594 0)"/>
      <use xlink:href="#DejaVuSans-6f" transform="translate(126.660156 0)"/>
      <use xlink:href="#DejaVuSans-63" transform="translate(187.841797 0)"/>
      <use xlink:href="#DejaVuSans-68" transform="translate(242.822266 0)"/>
     </g>
    </g>
   </g>
   <g id="matplotlib.axis_2">
    <g id="ytick_1">
     <g id="line2d_13">
      <path d="M 90 356.964731 
L 648 356.964731 
" clip-path="url(#p5585b3c454)" style="fill: none; stroke-dasharray: 2.96,1.28; stroke-dashoffset: 0; stroke: #b0b0b0; stroke-width: 0.8"/>
     </g>
     <g id="line2d_14">
      <defs>
       <path id="m657733a407" d="M 0 0 
L -3.5 0 
" style="stroke: #000000; stroke-width: 0.8"/>
      </defs>
      <g>
       <use xlink:href="#m657733a407" x="90" y="356.964731" style="stroke: #000000; stroke-width: 0.8"/>
      </g>
     </g>
     <g id="text_8">
      <!-- $\mathdefault{10^{-6}}$ -->
      <g transform="translate(59.5 360.76395) scale(0.1 -0.1)">
       <defs>
        <path id="DejaVuSans-2212" d="M 678 2272 
L 4684 2272 
L 4684 1741 
L 678 1741 
L 678 2272 
z
" transform="scale(0.015625)"/>
        <path id="DejaVuSans-36" d="M 2113 2584 
Q 1688 2584 1439 2293 
Q 1191 2003 1191 1497 
Q 1191 994 1439 701 
Q 1688 409 2113 409 
Q 2538 409 2786 701 
Q 3034 994 3034 1497 
Q 3034 2003 2786 2293 
Q 2538 2584 2113 2584 
z
M 3366 4563 
L 3366 3988 
Q 3128 4100 2886 4159 
Q 2644 4219 2406 4219 
Q 1781 4219 1451 3797 
Q 1122 3375 1075 2522 
Q 1259 2794 1537 2939 
Q 1816 3084 2150 3084 
Q 2853 3084 3261 2657 
Q 3669 2231 3669 1497 
Q 3669 778 3244 343 
Q 2819 -91 2113 -91 
Q 1303 -91 875 529 
Q 447 1150 447 2328 
Q 447 3434 972 4092 
Q 1497 4750 2381 4750 
Q 2619 4750 2861 4703 
Q 3103 4656 3366 4563 
z
" transform="scale(0.015625)"/>
       </defs>
       <use xlink:href="#DejaVuSans-31" transform="translate(0 0.765625)"/>
       <use xlink:href="#DejaVuSans-30" transform="translate(63.623047 0.765625)"/>
       <use xlink:href="#DejaVuSans-2212" transform="translate(128.203125 39.046875) scale(0.7)"/>
       <use xlink:href="#DejaVuSans-36" transform="translate(186.855469 39.046875) scale(0.7)"/>
      </g>
     </g>
    </g>
    <g id="ytick_2">
     <g id="line2d_15">
      <path d="M 90 293.42499 
L 648 293.42499 
" clip-path="url(#p5585b3c454)" style="fill: none; stroke-dasharray: 2.96,1.28; stroke-dashoffset: 0; stroke: #b0b0b0; stroke-width: 0.8"/>
     </g>
     <g id="line2d_16">
      <g>
       <use xlink:href="#m657733a407" x="90" y="293.42499" style="stroke: #000000; stroke-width: 0.8"/>
      </g>
     </g>
     <g id="text_9">
      <!-- $\mathdefault{10^{-5}}$ -->
      <g transform="translate(59.5 297.224208) scale(0.1 -0.1)">
       <use xlink:href="#DejaVuSans-31" transform="translate(0 0.684375)"/>
       <use xlink:href="#DejaVuSans-30" transform="translate(63.623047 0.684375)"/>
       <use xlink:href="#DejaVuSans-2212" transform="translate(128.203125 38.965625) scale(0.7)"/>
       <use xlink:href="#DejaVuSans-35" transform="translate(186.855469 38.965625) scale(0.7)"/>
      </g>
     </g>
    </g>
    <g id="ytick_3">
     <g id="line2d_17">
      <path d="M 90 229.885248 
L 648 229.885248 
" clip-path="url(#p5585b3c454)" style="fill: none; stroke-dasharray: 2.96,1.28; stroke-dashoffset: 0; stroke: #b0b0b0; stroke-width: 0.8"/>
     </g>
     <g id="line2d_18">
      <g>
       <use xlink:href="#m657733a407" x="90" y="229.885248" style="stroke: #000000; stroke-width: 0.8"/>
      </g>
     </g>
     <g id="text_10">
      <!-- $\mathdefault{10^{-4}}$ -->
      <g transform="translate(59.5 233.684467) scale(0.1 -0.1)">
       <use xlink:href="#DejaVuSans-31" transform="translate(0 0.684375)"/>
       <use xlink:href="#DejaVuSans-30" transform="translate(63.623047 0.684375)"/>
       <use xlink:href="#DejaVuSans-2212" transform="translate(128.203125 38.965625) scale(0.7)"/>
       <use xlink:href="#DejaVuSans-34" transform="translate(186.855469 38.965625) scale(0.7)"/>
      </g>
     </g>
    </g>
    <g id="ytick_4">
     <g id="line2d_19">
      <path d="M 90 166.345506 
L 648 166.345506 
" clip-path="url(#p5585b3c454)" style="fill: none; stroke-dasharray: 2.96,1.28; stroke-dashoffset: 0; stroke: #b0b0b0; stroke-width: 0.8"/>
     </g>
     <g id="line2d_20">
      <g>
       <use xlink:href="#m657733a407" x="90" y="166.345506" style="stroke: #000000; stroke-width: 0.8"/>
      </g>
     </g>
     <g id="text_11">
      <!-- $\mathdefault{10^{-3}}$ -->
      <g transform="translate(59.5 170.144725) scale(0.1 -0.1)">
       <use xlink:href="#DejaVuSans-31" transform="translate(0 0.765625)"/>
       <use xlink:href="#DejaVuSans-30" transform="translate(63.623047 0.765625)"/>
       <use xlink:href="#DejaVuSans-2212" transform="translate(128.203125 39.046875) scale(0.7)"/>
       <use xlink:href="#DejaVuSans-33" transform="translate(186.855469 39.046875) scale(0.7)"/>
      </g>
     </g>
    </g>
    <g id="ytick_5">
     <g id="line2d_21">
      <path d="M 90 102.805764 
L 648 102.805764 
" clip-path="url(#p5585b3c454)" style="fill: none; stroke-dasharray: 2.96,1.28; stroke-dashoffset: 0; stroke: #b0b0b0; stroke-width: 0.8"/>
     </g>
     <g id="line2d_22">
      <g>
       <use xlink:href="#m657733a407" x="90" y="102.805764" style="stroke: #000000; stroke-width: 0.8"/>
      </g>
     </g>
     <g id="text_12">
      <!-- $\mathdefault{10^{-2}}$ -->
      <g transform="translate(59.5 106.604983) scale(0.1 -0.1)">
       <use xlink:href="#DejaVuSans-31" transform="translate(0 0.765625)"/>
       <use xlink:href="#DejaVuSans-30" transform="translate(63.623047 0.765625)"/>
       <use xlink:href="#DejaVuSans-2212" transform="translate(128.203125 39.046875) scale(0.7)"/>
       <use xlink:href="#DejaVuSans-32" transform="translate(186.855469 39.046875) scale(0.7)"/>
      </g>
     </g>
    </g>
    <g id="ytick_6">
     <g id="line2d_23">
      <path d="M 90 382.249737 
L 648 382.249737 
" clip-path="url(#p5585b3c454)" style="fill: none; stroke-dasharray: 2.96,1.28; stroke-dashoffset: 0; stroke: #b0b0b0; stroke-width: 0.8"/>
     </g>
     <g id="line2d_24">
      <defs>
       <path id="mf8a9b96f8f" d="M 0 0 
L -2 0 
" style="stroke: #000000; stroke-width: 0.6"/>
      </defs>
      <g>
       <use xlink:href="#mf8a9b96f8f" x="90" y="382.249737" style="stroke: #000000; stroke-width: 0.6"/>
      </g>
     </g>
    </g>
    <g id="ytick_7">
     <g id="line2d_25">
      <path d="M 90 376.0921 
L 648 376.0921 
" clip-path="url(#p5585b3c454)" style="fill: none; stroke-dasharray: 2.96,1.28; stroke-dashoffset: 0; stroke: #b0b0b0; stroke-width: 0.8"/>
     </g>
     <g id="line2d_26">
      <g>
       <use xlink:href="#mf8a9b96f8f" x="90" y="376.0921" style="stroke: #000000; stroke-width: 0.6"/>
      </g>
     </g>
    </g>
    <g id="ytick_8">
     <g id="line2d_27">
      <path d="M 90 371.060944 
L 648 371.060944 
" clip-path="url(#p5585b3c454)" style="fill: none; stroke-dasharray: 2.96,1.28; stroke-dashoffset: 0; stroke: #b0b0b0; stroke-width: 0.8"/>
     </g>
     <g id="line2d_28">
      <g>
       <use xlink:href="#mf8a9b96f8f" x="90" y="371.060944" style="stroke: #000000; stroke-width: 0.6"/>
      </g>
     </g>
    </g>
    <g id="ytick_9">
     <g id="line2d_29">
      <path d="M 90 366.807162 
L 648 366.807162 
" clip-path="url(#p5585b3c454)" style="fill: none; stroke-dasharray: 2.96,1.28; stroke-dashoffset: 0; stroke: #b0b0b0; stroke-width: 0.8"/>
     </g>
     <g id="line2d_30">
      <g>
       <use xlink:href="#mf8a9b96f8f" x="90" y="366.807162" style="stroke: #000000; stroke-width: 0.6"/>
      </g>
     </g>
    </g>
    <g id="ytick_10">
     <g id="line2d_31">
      <path d="M 90 363.122369 
L 648 363.122369 
" clip-path="url(#p5585b3c454)" style="fill: none; stroke-dasharray: 2.96,1.28; stroke-dashoffset: 0; stroke: #b0b0b0; stroke-width: 0.8"/>
     </g>
     <g id="line2d_32">
      <g>
       <use xlink:href="#mf8a9b96f8f" x="90" y="363.122369" style="stroke: #000000; stroke-width: 0.6"/>
      </g>
     </g>
    </g>
    <g id="ytick_11">
     <g id="line2d_33">
      <path d="M 90 359.872151 
L 648 359.872151 
" clip-path="url(#p5585b3c454)" style="fill: none; stroke-dasharray: 2.96,1.28; stroke-dashoffset: 0; stroke: #b0b0b0; stroke-width: 0.8"/>
     </g>
     <g id="line2d_34">
      <g>
       <use xlink:href="#mf8a9b96f8f" x="90" y="359.872151" style="stroke: #000000; stroke-width: 0.6"/>
      </g>
     </g>
    </g>
    <g id="ytick_12">
     <g id="line2d_35">
      <path d="M 90 337.837363 
L 648 337.837363 
" clip-path="url(#p5585b3c454)" style="fill: none; stroke-dasharray: 2.96,1.28; stroke-dashoffset: 0; stroke: #b0b0b0; stroke-width: 0.8"/>
     </g>
     <g id="line2d_36">
      <g>
       <use xlink:href="#mf8a9b96f8f" x="90" y="337.837363" style="stroke: #000000; stroke-width: 0.6"/>
      </g>
     </g>
    </g>
    <g id="ytick_13">
     <g id="line2d_37">
      <path d="M 90 326.64857 
L 648 326.64857 
" clip-path="url(#p5585b3c454)" style="fill: none; stroke-dasharray: 2.96,1.28; stroke-dashoffset: 0; stroke: #b0b0b0; stroke-width: 0.8"/>
     </g>
     <g id="line2d_38">
      <g>
       <use xlink:href="#mf8a9b96f8f" x="90" y="326.64857" style="stroke: #000000; stroke-width: 0.6"/>
      </g>
     </g>
    </g>
    <g id="ytick_14">
     <g id="line2d_39">
      <path d="M 90 318.709995 
L 648 318.709995 
" clip-path="url(#p5585b3c454)" style="fill: none; stroke-dasharray: 2.96,1.28; stroke-dashoffset: 0; stroke: #b0b0b0; stroke-width: 0.8"/>
     </g>
     <g id="line2d_40">
      <g>
       <use xlink:href="#mf8a9b96f8f" x="90" y="318.709995" style="stroke: #000000; stroke-width: 0.6"/>
      </g>
     </g>
    </g>
    <g id="ytick_15">
     <g id="line2d_41">
      <path d="M 90 312.552358 
L 648 312.552358 
" clip-path="url(#p5585b3c454)" style="fill: none; stroke-dasharray: 2.96,1.28; stroke-dashoffset: 0; stroke: #b0b0b0; stroke-width: 0.8"/>
     </g>
     <g id="line2d_42">
      <g>
       <use xlink:href="#mf8a9b96f8f" x="90" y="312.552358" style="stroke: #000000; stroke-width: 0.6"/>
      </g>
     </g>
    </g>
    <g id="ytick_16">
     <g id="line2d_43">
      <path d="M 90 307.521202 
L 648 307.521202 
" clip-path="url(#p5585b3c454)" style="fill: none; stroke-dasharray: 2.96,1.28; stroke-dashoffset: 0; stroke: #b0b0b0; stroke-width: 0.8"/>
     </g>
     <g id="line2d_44">
      <g>
       <use xlink:href="#mf8a9b96f8f" x="90" y="307.521202" style="stroke: #000000; stroke-width: 0.6"/>
      </g>
     </g>
    </g>
    <g id="ytick_17">
     <g id="line2d_45">
      <path d="M 90 303.26742 
L 648 303.26742 
" clip-path="url(#p5585b3c454)" style="fill: none; stroke-dasharray: 2.96,1.28; stroke-dashoffset: 0; stroke: #b0b0b0; stroke-width: 0.8"/>
     </g>
     <g id="line2d_46">
      <g>
       <use xlink:href="#mf8a9b96f8f" x="90" y="303.26742" style="stroke: #000000; stroke-width: 0.6"/>
      </g>
     </g>
    </g>
    <g id="ytick_18">
     <g id="line2d_47">
      <path d="M 90 299.582627 
L 648 299.582627 
" clip-path="url(#p5585b3c454)" style="fill: none; stroke-dasharray: 2.96,1.28; stroke-dashoffset: 0; stroke: #b0b0b0; stroke-width: 0.8"/>
     </g>
     <g id="line2d_48">
      <g>
       <use xlink:href="#mf8a9b96f8f" x="90" y="299.582627" style="stroke: #000000; stroke-width: 0.6"/>
      </g>
     </g>
    </g>
    <g id="ytick_19">
     <g id="line2d_49">
      <path d="M 90 296.332409 
L 648 296.332409 
" clip-path="url(#p5585b3c454)" style="fill: none; stroke-dasharray: 2.96,1.28; stroke-dashoffset: 0; stroke: #b0b0b0; stroke-width: 0.8"/>
     </g>
     <g id="line2d_50">
      <g>
       <use xlink:href="#mf8a9b96f8f" x="90" y="296.332409" style="stroke: #000000; stroke-width: 0.6"/>
      </g>
     </g>
    </g>
    <g id="ytick_20">
     <g id="line2d_51">
      <path d="M 90 274.297621 
L 648 274.297621 
" clip-path="url(#p5585b3c454)" style="fill: none; stroke-dasharray: 2.96,1.28; stroke-dashoffset: 0; stroke: #b0b0b0; stroke-width: 0.8"/>
     </g>
     <g id="line2d_52">
      <g>
       <use xlink:href="#mf8a9b96f8f" x="90" y="274.297621" style="stroke: #000000; stroke-width: 0.6"/>
      </g>
     </g>
    </g>
    <g id="ytick_21">
     <g id="line2d_53">
      <path d="M 90 263.108828 
L 648 263.108828 
" clip-path="url(#p5585b3c454)" style="fill: none; stroke-dasharray: 2.96,1.28; stroke-dashoffset: 0; stroke: #b0b0b0; stroke-width: 0.8"/>
     </g>
     <g id="line2d_54">
      <g>
       <use xlink:href="#mf8a9b96f8f" x="90" y="263.108828" style="stroke: #000000; stroke-width: 0.6"/>
      </g>
     </g>
    </g>
    <g id="ytick_22">
     <g id="line2d_55">
      <path d="M 90 255.170253 
L 648 255.170253 
" clip-path="url(#p5585b3c454)" style="fill: none; stroke-dasharray: 2.96,1.28; stroke-dashoffset: 0; stroke: #b0b0b0; stroke-width: 0.8"/>
     </g>
     <g id="line2d_56">
      <g>
       <use xlink:href="#mf8a9b96f8f" x="90" y="255.170253" style="stroke: #000000; stroke-width: 0.6"/>
      </g>
     </g>
    </g>
    <g id="ytick_23">
     <g id="line2d_57">
      <path d="M 90 249.012616 
L 648 249.012616 
" clip-path="url(#p5585b3c454)" style="fill: none; stroke-dasharray: 2.96,1.28; stroke-dashoffset: 0; stroke: #b0b0b0; stroke-width: 0.8"/>
     </g>
     <g id="line2d_58">
      <g>
       <use xlink:href="#mf8a9b96f8f" x="90" y="249.012616" style="stroke: #000000; stroke-width: 0.6"/>
      </g>
     </g>
    </g>
    <g id="ytick_24">
     <g id="line2d_59">
      <path d="M 90 243.98146 
L 648 243.98146 
" clip-path="url(#p5585b3c454)" style="fill: none; stroke-dasharray: 2.96,1.28; stroke-dashoffset: 0; stroke: #b0b0b0; stroke-width: 0.8"/>
     </g>
     <g id="line2d_60">
      <g>
       <use xlink:href="#mf8a9b96f8f" x="90" y="243.98146" style="stroke: #000000; stroke-width: 0.6"/>
      </g>
     </g>
    </g>
    <g id="ytick_25">
     <g id="line2d_61">
      <path d="M 90 239.727678 
L 648 239.727678 
" clip-path="url(#p5585b3c454)" style="fill: none; stroke-dasharray: 2.96,1.28; stroke-dashoffset: 0; stroke: #b0b0b0; stroke-width: 0.8"/>
     </g>
     <g id="line2d_62">
      <g>
       <use xlink:href="#mf8a9b96f8f" x="90" y="239.727678" style="stroke: #000000; stroke-width: 0.6"/>
      </g>
     </g>
    </g>
    <g id="ytick_26">
     <g id="line2d_63">
      <path d="M 90 236.042885 
L 648 236.042885 
" clip-path="url(#p5585b3c454)" style="fill: none; stroke-dasharray: 2.96,1.28; stroke-dashoffset: 0; stroke: #b0b0b0; stroke-width: 0.8"/>
     </g>
     <g id="line2d_64">
      <g>
       <use xlink:href="#mf8a9b96f8f" x="90" y="236.042885" style="stroke: #000000; stroke-width: 0.6"/>
      </g>
     </g>
    </g>
    <g id="ytick_27">
     <g id="line2d_65">
      <path d="M 90 232.792667 
L 648 232.792667 
" clip-path="url(#p5585b3c454)" style="fill: none; stroke-dasharray: 2.96,1.28; stroke-dashoffset: 0; stroke: #b0b0b0; stroke-width: 0.8"/>
     </g>
     <g id="line2d_66">
      <g>
       <use xlink:href="#mf8a9b96f8f" x="90" y="232.792667" style="stroke: #000000; stroke-width: 0.6"/>
      </g>
     </g>
    </g>
    <g id="ytick_28">
     <g id="line2d_67">
      <path d="M 90 210.75788 
L 648 210.75788 
" clip-path="url(#p5585b3c454)" style="fill: none; stroke-dasharray: 2.96,1.28; stroke-dashoffset: 0; stroke: #b0b0b0; stroke-width: 0.8"/>
     </g>
     <g id="line2d_68">
      <g>
       <use xlink:href="#mf8a9b96f8f" x="90" y="210.75788" style="stroke: #000000; stroke-width: 0.6"/>
      </g>
     </g>
    </g>
    <g id="ytick_29">
     <g id="line2d_69">
      <path d="M 90 199.569087 
L 648 199.569087 
" clip-path="url(#p5585b3c454)" style="fill: none; stroke-dasharray: 2.96,1.28; stroke-dashoffset: 0; stroke: #b0b0b0; stroke-width: 0.8"/>
     </g>
     <g id="line2d_70">
      <g>
       <use xlink:href="#mf8a9b96f8f" x="90" y="199.569087" style="stroke: #000000; stroke-width: 0.6"/>
      </g>
     </g>
    </g>
    <g id="ytick_30">
     <g id="line2d_71">
      <path d="M 90 191.630511 
L 648 191.630511 
" clip-path="url(#p5585b3c454)" style="fill: none; stroke-dasharray: 2.96,1.28; stroke-dashoffset: 0; stroke: #b0b0b0; stroke-width: 0.8"/>
     </g>
     <g id="line2d_72">
      <g>
       <use xlink:href="#mf8a9b96f8f" x="90" y="191.630511" style="stroke: #000000; stroke-width: 0.6"/>
      </g>
     </g>
    </g>
    <g id="ytick_31">
     <g id="line2d_73">
      <path d="M 90 185.472874 
L 648 185.472874 
" clip-path="url(#p5585b3c454)" style="fill: none; stroke-dasharray: 2.96,1.28; stroke-dashoffset: 0; stroke: #b0b0b0; stroke-width: 0.8"/>
     </g>
     <g id="line2d_74">
      <g>
       <use xlink:href="#mf8a9b96f8f" x="90" y="185.472874" style="stroke: #000000; stroke-width: 0.6"/>
      </g>
     </g>
    </g>
    <g id="ytick_32">
     <g id="line2d_75">
      <path d="M 90 180.441718 
L 648 180.441718 
" clip-path="url(#p5585b3c454)" style="fill: none; stroke-dasharray: 2.96,1.28; stroke-dashoffset: 0; stroke: #b0b0b0; stroke-width: 0.8"/>
     </g>
     <g id="line2d_76">
      <g>
       <use xlink:href="#mf8a9b96f8f" x="90" y="180.441718" style="stroke: #000000; stroke-width: 0.6"/>
      </g>
     </g>
    </g>
    <g id="ytick_33">
     <g id="line2d_77">
      <path d="M 90 176.187937 
L 648 176.187937 
" clip-path="url(#p5585b3c454)" style="fill: none; stroke-dasharray: 2.96,1.28; stroke-dashoffset: 0; stroke: #b0b0b0; stroke-width: 0.8"/>
     </g>
     <g id="line2d_78">
      <g>
       <use xlink:href="#mf8a9b96f8f" x="90" y="176.187937" style="stroke: #000000; stroke-width: 0.6"/>
      </g>
     </g>
    </g>
    <g id="ytick_34">
     <g id="line2d_79">
      <path d="M 90 172.503143 
L 648 172.503143 
" clip-path="url(#p5585b3c454)" style="fill: none; stroke-dasharray: 2.96,1.28; stroke-dashoffset: 0; stroke: #b0b0b0; stroke-width: 0.8"/>
     </g>
     <g id="line2d_80">
      <g>
       <use xlink:href="#mf8a9b96f8f" x="90" y="172.503143" style="stroke: #000000; stroke-width: 0.6"/>
      </g>
     </g>
    </g>
    <g id="ytick_35">
     <g id="line2d_81">
      <path d="M 90 169.252925 
L 648 169.252925 
" clip-path="url(#p5585b3c454)" style="fill: none; stroke-dasharray: 2.96,1.28; stroke-dashoffset: 0; stroke: #b0b0b0; stroke-width: 0.8"/>
     </g>
     <g id="line2d_82">
      <g>
       <use xlink:href="#mf8a9b96f8f" x="90" y="169.252925" style="stroke: #000000; stroke-width: 0.6"/>
      </g>
     </g>
    </g>
    <g id="ytick_36">
     <g id="line2d_83">
      <path d="M 90 147.218138 
L 648 147.218138 
" clip-path="url(#p5585b3c454)" style="fill: none; stroke-dasharray: 2.96,1.28; stroke-dashoffset: 0; stroke: #b0b0b0; stroke-width: 0.8"/>
     </g>
     <g id="line2d_84">
      <g>
       <use xlink:href="#mf8a9b96f8f" x="90" y="147.218138" style="stroke: #000000; stroke-width: 0.6"/>
      </g>
     </g>
    </g>
    <g id="ytick_37">
     <g id="line2d_85">
      <path d="M 90 136.029345 
L 648 136.029345 
" clip-path="url(#p5585b3c454)" style="fill: none; stroke-dasharray: 2.96,1.28; stroke-dashoffset: 0; stroke: #b0b0b0; stroke-width: 0.8"/>
     </g>
     <g id="line2d_86">
      <g>
       <use xlink:href="#mf8a9b96f8f" x="90" y="136.029345" style="stroke: #000000; stroke-width: 0.6"/>
      </g>
     </g>
    </g>
    <g id="ytick_38">
     <g id="line2d_87">
      <path d="M 90 128.09077 
L 648 128.09077 
" clip-path="url(#p5585b3c454)" style="fill: none; stroke-dasharray: 2.96,1.28; stroke-dashoffset: 0; stroke: #b0b0b0; stroke-width: 0.8"/>
     </g>
     <g id="line2d_88">
      <g>
       <use xlink:href="#mf8a9b96f8f" x="90" y="128.09077" style="stroke: #000000; stroke-width: 0.6"/>
      </g>
     </g>
    </g>
    <g id="ytick_39">
     <g id="line2d_89">
      <path d="M 90 121.933132 
L 648 121.933132 
" clip-path="url(#p5585b3c454)" style="fill: none; stroke-dasharray: 2.96,1.28; stroke-dashoffset: 0; stroke: #b0b0b0; stroke-width: 0.8"/>
     </g>
     <g id="line2d_90">
      <g>
       <use xlink:href="#mf8a9b96f8f" x="90" y="121.933132" style="stroke: #000000; stroke-width: 0.6"/>
      </g>
     </g>
    </g>
    <g id="ytick_40">
     <g id="line2d_91">
      <path d="M 90 116.901977 
L 648 116.901977 
" clip-path="url(#p5585b3c454)" style="fill: none; stroke-dasharray: 2.96,1.28; stroke-dashoffset: 0; stroke: #b0b0b0; stroke-width: 0.8"/>
     </g>
     <g id="line2d_92">
      <g>
       <use xlink:href="#mf8a9b96f8f" x="90" y="116.901977" style="stroke: #000000; stroke-width: 0.6"/>
      </g>
     </g>
    </g>
    <g id="ytick_41">
     <g id="line2d_93">
      <path d="M 90 112.648195 
L 648 112.648195 
" clip-path="url(#p5585b3c454)" style="fill: none; stroke-dasharray: 2.96,1.28; stroke-dashoffset: 0; stroke: #b0b0b0; stroke-width: 0.8"/>
     </g>
     <g id="line2d_94">
      <g>
       <use xlink:href="#mf8a9b96f8f" x="90" y="112.648195" style="stroke: #000000; stroke-width: 0.6"/>
      </g>
     </g>
    </g>
    <g id="ytick_42">
     <g id="line2d_95">
      <path d="M 90 108.963401 
L 648 108.963401 
" clip-path="url(#p5585b3c454)" style="fill: none; stroke-dasharray: 2.96,1.28; stroke-dashoffset: 0; stroke: #b0b0b0; stroke-width: 0.8"/>
     </g>
     <g id="line2d_96">
      <g>
       <use xlink:href="#mf8a9b96f8f" x="90" y="108.963401" style="stroke: #000000; stroke-width: 0.6"/>
      </g>
     </g>
    </g>
    <g id="ytick_43">
     <g id="line2d_97">
      <path d="M 90 105.713183 
L 648 105.713183 
" clip-path="url(#p5585b3c454)" style="fill: none; stroke-dasharray: 2.96,1.28; stroke-dashoffset: 0; stroke: #b0b0b0; stroke-width: 0.8"/>
     </g>
     <g id="line2d_98">
      <g>
       <use xlink:href="#mf8a9b96f8f" x="90" y="105.713183" style="stroke: #000000; stroke-width: 0.6"/>
      </g>
     </g>
    </g>
    <g id="ytick_44">
     <g id="line2d_99">
      <path d="M 90 83.678396 
L 648 83.678396 
" clip-path="url(#p5585b3c454)" style="fill: none; stroke-dasharray: 2.96,1.28; stroke-dashoffset: 0; stroke: #b0b0b0; stroke-width: 0.8"/>
     </g>
     <g id="line2d_100">
      <g>
       <use xlink:href="#mf8a9b96f8f" x="90" y="83.678396" style="stroke: #000000; stroke-width: 0.6"/>
      </g>
     </g>
    </g>
    <g id="ytick_45">
     <g id="line2d_101">
      <path d="M 90 72.489603 
L 648 72.489603 
" clip-path="url(#p5585b3c454)" style="fill: none; stroke-dasharray: 2.96,1.28; stroke-dashoffset: 0; stroke: #b0b0b0; stroke-width: 0.8"/>
     </g>
     <g id="line2d_102">
      <g>
       <use xlink:href="#mf8a9b96f8f" x="90" y="72.489603" style="stroke: #000000; stroke-width: 0.6"/>
      </g>
     </g>
    </g>
    <g id="ytick_46">
     <g id="line2d_103">
      <path d="M 90 64.551028 
L 648 64.551028 
" clip-path="url(#p5585b3c454)" style="fill: none; stroke-dasharray: 2.96,1.28; stroke-dashoffset: 0; stroke: #b0b0b0; stroke-width: 0.8"/>
     </g>
     <g id="line2d_104">
      <g>
       <use xlink:href="#mf8a9b96f8f" x="90" y="64.551028" style="stroke: #000000; stroke-width: 0.6"/>
      </g>
     </g>
    </g>
    <g id="ytick_47">
     <g id="line2d_105">
      <path d="M 90 58.393391 
L 648 58.393391 
" clip-path="url(#p5585b3c454)" style="fill: none; stroke-dasharray: 2.96,1.28; stroke-dashoffset: 0; stroke: #b0b0b0; stroke-width: 0.8"/>
     </g>
     <g id="line2d_106">
      <g>
       <use xlink:href="#mf8a9b96f8f" x="90" y="58.393391" style="stroke: #000000; stroke-width: 0.6"/>
      </g>
     </g>
    </g>
    <g id="ytick_48">
     <g id="line2d_107">
      <path d="M 90 53.362235 
L 648 53.362235 
" clip-path="url(#p5585b3c454)" style="fill: none; stroke-dasharray: 2.96,1.28; stroke-dashoffset: 0; stroke: #b0b0b0; stroke-width: 0.8"/>
     </g>
     <g id="line2d_108">
      <g>
       <use xlink:href="#mf8a9b96f8f" x="90" y="53.362235" style="stroke: #000000; stroke-width: 0.6"/>
      </g>
     </g>
    </g>
    <g id="text_13">
     <!-- Huber Loss (Normalized) -->
     <g transform="translate(53.420312 279.7975) rotate(-90) scale(0.1 -0.1)">
      <defs>
       <path id="DejaVuSans-48" d="M 628 4666 
L 1259 4666 
L 1259 2753 
L 3553 2753 
L 3553 4666 
L 4184 4666 
L 4184 0 
L 3553 0 
L 3553 2222 
L 1259 2222 
L 1259 0 
L 628 0 
L 628 4666 
z
" transform="scale(0.015625)"/>
       <path id="DejaVuSans-75" d="M 544 1381 
L 544 3500 
L 1119 3500 
L 1119 1403 
Q 1119 906 1312 657 
Q 1506 409 1894 409 
Q 2359 409 2629 706 
Q 2900 1003 2900 1516 
L 2900 3500 
L 3475 3500 
L 3475 0 
L 2900 0 
L 2900 538 
Q 2691 219 2414 64 
Q 2138 -91 1772 -91 
Q 1169 -91 856 284 
Q 544 659 544 1381 
z
M 1991 3584 
L 1991 3584 
z
" transform="scale(0.015625)"/>
       <path id="DejaVuSans-62" d="M 3116 1747 
Q 3116 2381 2855 2742 
Q 2594 3103 2138 3103 
Q 1681 3103 1420 2742 
Q 1159 2381 1159 1747 
Q 1159 1113 1420 752 
Q 1681 391 2138 391 
Q 2594 391 2855 752 
Q 3116 1113 3116 1747 
z
M 1159 2969 
Q 1341 3281 1617 3432 
Q 1894 3584 2278 3584 
Q 2916 3584 3314 3078 
Q 3713 2572 3713 1747 
Q 3713 922 3314 415 
Q 2916 -91 2278 -91 
Q 1894 -91 1617 61 
Q 1341 213 1159 525 
L 1159 0 
L 581 0 
L 581 4863 
L 1159 4863 
L 1159 2969 
z
" transform="scale(0.015625)"/>
       <path id="DejaVuSans-65" d="M 3597 1894 
L 3597 1613 
L 953 1613 
Q 991 1019 1311 708 
Q 1631 397 2203 397 
Q 2534 397 2845 478 
Q 3156 559 3463 722 
L 3463 178 
Q 3153 47 2828 -22 
Q 2503 -91 2169 -91 
Q 1331 -91 842 396 
Q 353 884 353 1716 
Q 353 2575 817 3079 
Q 1281 3584 2069 3584 
Q 2775 3584 3186 3129 
Q 3597 2675 3597 1894 
z
M 3022 2063 
Q 3016 2534 2758 2815 
Q 2500 3097 2075 3097 
Q 1594 3097 1305 2825 
Q 1016 2553 972 2059 
L 3022 2063 
z
" transform="scale(0.015625)"/>
       <path id="DejaVuSans-72" d="M 2631 2963 
Q 2534 3019 2420 3045 
Q 2306 3072 2169 3072 
Q 1681 3072 1420 2755 
Q 1159 2438 1159 1844 
L 1159 0 
L 581 0 
L 581 3500 
L 1159 3500 
L 1159 2956 
Q 1341 3275 1631 3429 
Q 1922 3584 2338 3584 
Q 2397 3584 2469 3576 
Q 2541 3569 2628 3553 
L 2631 2963 
z
" transform="scale(0.015625)"/>
       <path id="DejaVuSans-20" transform="scale(0.015625)"/>
       <path id="DejaVuSans-4c" d="M 628 4666 
L 1259 4666 
L 1259 531 
L 3531 531 
L 3531 0 
L 628 0 
L 628 4666 
z
" transform="scale(0.015625)"/>
       <path id="DejaVuSans-73" d="M 2834 3397 
L 2834 2853 
Q 2591 2978 2328 3040 
Q 2066 3103 1784 3103 
Q 1356 3103 1142 2972 
Q 928 2841 928 2578 
Q 928 2378 1081 2264 
Q 1234 2150 1697 2047 
L 1894 2003 
Q 2506 1872 2764 1633 
Q 3022 1394 3022 966 
Q 3022 478 2636 193 
Q 2250 -91 1575 -91 
Q 1294 -91 989 -36 
Q 684 19 347 128 
L 347 722 
Q 666 556 975 473 
Q 1284 391 1588 391 
Q 1994 391 2212 530 
Q 2431 669 2431 922 
Q 2431 1156 2273 1281 
Q 2116 1406 1581 1522 
L 1381 1569 
Q 847 1681 609 1914 
Q 372 2147 372 2553 
Q 372 3047 722 3315 
Q 1072 3584 1716 3584 
Q 2034 3584 2315 3537 
Q 2597 3491 2834 3397 
z
" transform="scale(0.015625)"/>
       <path id="DejaVuSans-28" d="M 1984 4856 
Q 1566 4138 1362 3434 
Q 1159 2731 1159 2009 
Q 1159 1288 1364 580 
Q 1569 -128 1984 -844 
L 1484 -844 
Q 1016 -109 783 600 
Q 550 1309 550 2009 
Q 550 2706 781 3412 
Q 1013 4119 1484 4856 
L 1984 4856 
z
" transform="scale(0.015625)"/>
       <path id="DejaVuSans-4e" d="M 628 4666 
L 1478 4666 
L 3547 763 
L 3547 4666 
L 4159 4666 
L 4159 0 
L 3309 0 
L 1241 3903 
L 1241 0 
L 628 0 
L 628 4666 
z
" transform="scale(0.015625)"/>
       <path id="DejaVuSans-6d" d="M 3328 2828 
Q 3544 3216 3844 3400 
Q 4144 3584 4550 3584 
Q 5097 3584 5394 3201 
Q 5691 2819 5691 2113 
L 5691 0 
L 5113 0 
L 5113 2094 
Q 5113 2597 4934 2840 
Q 4756 3084 4391 3084 
Q 3944 3084 3684 2787 
Q 3425 2491 3425 1978 
L 3425 0 
L 2847 0 
L 2847 2094 
Q 2847 2600 2669 2842 
Q 2491 3084 2119 3084 
Q 1678 3084 1418 2786 
Q 1159 2488 1159 1978 
L 1159 0 
L 581 0 
L 581 3500 
L 1159 3500 
L 1159 2956 
Q 1356 3278 1631 3431 
Q 1906 3584 2284 3584 
Q 2666 3584 2933 3390 
Q 3200 3197 3328 2828 
z
" transform="scale(0.015625)"/>
       <path id="DejaVuSans-61" d="M 2194 1759 
Q 1497 1759 1228 1600 
Q 959 1441 959 1056 
Q 959 750 1161 570 
Q 1363 391 1709 391 
Q 2188 391 2477 730 
Q 2766 1069 2766 1631 
L 2766 1759 
L 2194 1759 
z
M 3341 1997 
L 3341 0 
L 2766 0 
L 2766 531 
Q 2569 213 2275 61 
Q 1981 -91 1556 -91 
Q 1019 -91 701 211 
Q 384 513 384 1019 
Q 384 1609 779 1909 
Q 1175 2209 1959 2209 
L 2766 2209 
L 2766 2266 
Q 2766 2663 2505 2880 
Q 2244 3097 1772 3097 
Q 1472 3097 1187 3025 
Q 903 2953 641 2809 
L 641 3341 
Q 956 3463 1253 3523 
Q 1550 3584 1831 3584 
Q 2591 3584 2966 3190 
Q 3341 2797 3341 1997 
z
" transform="scale(0.015625)"/>
       <path id="DejaVuSans-6c" d="M 603 4863 
L 1178 4863 
L 1178 0 
L 603 0 
L 603 4863 
z
" transform="scale(0.015625)"/>
       <path id="DejaVuSans-69" d="M 603 3500 
L 1178 3500 
L 1178 0 
L 603 0 
L 603 3500 
z
M 603 4863 
L 1178 4863 
L 1178 4134 
L 603 4134 
L 603 4863 
z
" transform="scale(0.015625)"/>
       <path id="DejaVuSans-7a" d="M 353 3500 
L 3084 3500 
L 3084 2975 
L 922 459 
L 3084 459 
L 3084 0 
L 275 0 
L 275 525 
L 2438 3041 
L 353 3041 
L 353 3500 
z
" transform="scale(0.015625)"/>
       <path id="DejaVuSans-64" d="M 2906 2969 
L 2906 4863 
L 3481 4863 
L 3481 0 
L 2906 0 
L 2906 525 
Q 2725 213 2448 61 
Q 2172 -91 1784 -91 
Q 1150 -91 751 415 
Q 353 922 353 1747 
Q 353 2572 751 3078 
Q 1150 3584 1784 3584 
Q 2172 3584 2448 3432 
Q 2725 3281 2906 2969 
z
M 947 1747 
Q 947 1113 1208 752 
Q 1469 391 1925 391 
Q 2381 391 2643 752 
Q 2906 1113 2906 1747 
Q 2906 2381 2643 2742 
Q 2381 3103 1925 3103 
Q 1469 3103 1208 2742 
Q 947 2381 947 1747 
z
" transform="scale(0.015625)"/>
       <path id="DejaVuSans-29" d="M 513 4856 
L 1013 4856 
Q 1481 4119 1714 3412 
Q 1947 2706 1947 2009 
Q 1947 1309 1714 600 
Q 1481 -109 1013 -844 
L 513 -844 
Q 928 -128 1133 580 
Q 1338 1288 1338 2009 
Q 1338 2731 1133 3434 
Q 928 4138 513 4856 
z
" transform="scale(0.015625)"/>
      </defs>
      <use xlink:href="#DejaVuSans-48"/>
      <use xlink:href="#DejaVuSans-75" transform="translate(75.195312 0)"/>
      <use xlink:href="#DejaVuSans-62" transform="translate(138.574219 0)"/>
      <use xlink:href="#DejaVuSans-65" transform="translate(202.050781 0)"/>
      <use xlink:href="#DejaVuSans-72" transform="translate(263.574219 0)"/>
      <use xlink:href="#DejaVuSans-20" transform="translate(304.6875 0)"/>
      <use xlink:href="#DejaVuSans-4c" transform="translate(336.474609 0)"/>
      <use xlink:href="#DejaVuSans-6f" transform="translate(390.4375 0)"/>
      <use xlink:href="#DejaVuSans-73" transform="translate(451.619141 0)"/>
      <use xlink:href="#DejaVuSans-73" transform="translate(503.71875 0)"/>
      <use xlink:href="#DejaVuSans-20" transform="translate(555.818359 0)"/>
      <use xlink:href="#DejaVuSans-28" transform="translate(587.605469 0)"/>
      <use xlink:href="#DejaVuSans-4e" transform="translate(626.619141 0)"/>
      <use xlink:href="#DejaVuSans-6f" transform="translate(701.423828 0)"/>
      <use xlink:href="#DejaVuSans-72" transform="translate(762.605469 0)"/>
      <use xlink:href="#DejaVuSans-6d" transform="translate(801.96875 0)"/>
      <use xlink:href="#DejaVuSans-61" transform="translate(899.380859 0)"/>
      <use xlink:href="#DejaVuSans-6c" transform="translate(960.660156 0)"/>
      <use xlink:href="#DejaVuSans-69" transform="translate(988.443359 0)"/>
      <use xlink:href="#DejaVuSans-7a" transform="translate(1016.226562 0)"/>
      <use xlink:href="#DejaVuSans-65" transform="translate(1068.716797 0)"/>
      <use xlink:href="#DejaVuSans-64" transform="translate(1130.240234 0)"/>
      <use xlink:href="#DejaVuSans-29" transform="translate(1193.716797 0)"/>
     </g>
    </g>
   </g>
   <g id="line2d_109">
    <path d="M 115.363636 66.96 
L 116.348632 161.816587 
L 117.333628 185.957564 
L 118.318623 199.086076 
L 120.288614 211.056557 
L 121.27361 210.638814 
L 122.258605 207.409039 
L 123.243601 216.997984 
L 124.228597 216.442755 
L 125.213592 222.481461 
L 126.198588 216.068438 
L 127.183583 197.716302 
L 128.168579 212.089483 
L 130.13857 221.219004 
L 131.123566 228.216839 
L 132.108561 230.420703 
L 133.093557 220.945361 
L 134.078553 227.816267 
L 135.063548 225.553917 
L 136.048544 212.376737 
L 138.018535 229.212794 
L 139.00353 227.368903 
L 139.988526 222.956706 
L 140.973522 210.127707 
L 141.958517 208.597577 
L 142.943513 232.842564 
L 143.928508 230.600016 
L 144.913504 232.127814 
L 145.8985 238.324394 
L 146.883495 235.457448 
L 147.868491 213.831769 
L 148.853486 226.201116 
L 149.838482 260.429566 
L 150.823477 228.646514 
L 151.808473 218.246418 
L 152.793469 200.393642 
L 153.778464 250.143299 
L 154.76346 258.352683 
L 155.748455 254.820131 
L 156.733451 235.126604 
L 157.718447 187.854088 
L 158.703442 240.960279 
L 159.688438 261.745216 
L 160.673433 261.911293 
L 161.658429 247.657087 
L 162.643425 242.13909 
L 163.62842 239.474571 
L 164.613416 253.606955 
L 165.598411 222.160502 
L 166.583407 230.181048 
L 167.568402 199.68868 
L 169.538394 270.024637 
L 170.523389 270.138921 
L 171.508385 256.321958 
L 172.49338 257.140129 
L 173.478376 246.820667 
L 174.463372 224.794994 
L 175.448367 211.131309 
L 176.433363 254.95482 
L 177.418358 266.698329 
L 178.403354 226.912714 
L 179.38835 240.669278 
L 180.373345 236.955675 
L 181.358341 246.206337 
L 182.343336 270.878252 
L 183.328332 253.183767 
L 184.313327 203.154984 
L 185.298323 227.974243 
L 186.283319 264.836072 
L 187.268314 253.804949 
L 188.25331 247.606175 
L 189.238305 270.150302 
L 190.223301 244.974117 
L 191.208297 242.489623 
L 192.193292 251.206651 
L 193.178288 248.36574 
L 194.163283 250.26851 
L 195.148279 242.846318 
L 196.133274 257.519972 
L 197.11827 260.839344 
L 198.103266 229.264394 
L 199.088261 238.927412 
L 200.073257 246.78058 
L 201.058252 230.290269 
L 202.043248 237.030074 
L 203.028244 257.551574 
L 204.013239 273.511656 
L 204.998235 259.757437 
L 205.98323 204.071754 
L 206.968226 228.432464 
L 207.953222 279.676032 
L 208.938217 264.648791 
L 209.923213 261.912233 
L 210.908208 276.164721 
L 211.893204 272.827077 
L 212.878199 268.058964 
L 213.863195 254.919922 
L 214.848191 239.316385 
L 215.833186 270.219805 
L 216.818182 255.946759 
L 217.803177 232.496083 
L 218.788173 256.589931 
L 219.773169 274.019584 
L 220.758164 277.417018 
L 221.74316 216.28703 
L 222.728155 245.45091 
L 223.713151 256.799178 
L 224.698147 282.537736 
L 225.683142 286.166389 
L 226.668138 268.104355 
L 227.653133 270.98906 
L 228.638129 244.047812 
L 229.623124 256.860077 
L 230.60812 254.251864 
L 231.593116 217.902474 
L 232.578111 231.120761 
L 233.563107 281.392026 
L 235.533098 297.643074 
L 236.518094 294.444072 
L 237.503089 279.564649 
L 238.488085 278.341732 
L 239.47308 251.66374 
L 240.458076 259.080801 
L 241.443071 263.222409 
L 242.428067 261.162723 
L 243.413063 248.402802 
L 244.398058 241.49688 
L 245.383054 226.557983 
L 246.368049 263.904279 
L 247.353045 284.740716 
L 248.338041 280.37055 
L 249.323036 285.854846 
L 250.308032 279.952808 
L 251.293027 249.959115 
L 252.278023 256.59769 
L 253.263019 277.953985 
L 254.248014 265.206134 
L 255.23301 250.327583 
L 256.218005 228.388756 
L 257.203001 274.373431 
L 258.187996 291.904524 
L 259.172992 288.878231 
L 260.157988 275.828828 
L 261.142983 254.001891 
L 262.127979 266.005777 
L 263.112974 265.957926 
L 264.09797 260.281865 
L 265.082966 267.222687 
L 266.067961 259.082068 
L 267.052957 258.138864 
L 268.037952 238.821419 
L 269.022948 279.240696 
L 270.007944 296.555239 
L 270.992939 276.283228 
L 271.977935 261.519113 
L 273.947926 235.781822 
L 274.932921 245.810522 
L 275.917917 295.650744 
L 276.902913 297.479087 
L 277.887908 309.684809 
L 278.872904 286.036491 
L 279.857899 244.717079 
L 280.842895 218.355089 
L 281.827891 278.854241 
L 282.812886 309.20488 
L 283.797882 316.143216 
L 284.782877 317.205895 
L 285.767873 304.418429 
L 286.752868 305.197772 
L 287.737864 302.381076 
L 288.72286 290.828827 
L 289.707855 244.827168 
L 290.692851 205.980771 
L 291.677846 275.630649 
L 292.662842 312.508661 
L 293.647838 307.288079 
L 294.632833 327.67074 
L 295.617829 327.002288 
L 296.602824 320.864623 
L 297.58782 319.640639 
L 298.572816 307.021868 
L 299.557811 276.354691 
L 300.542807 287.996817 
L 301.527802 297.288201 
L 302.512798 276.089063 
L 303.497793 280.398654 
L 304.482789 214.907948 
L 305.467785 207.718669 
L 306.45278 299.636943 
L 307.437776 318.453288 
L 308.422771 324.691835 
L 309.407767 332.673132 
L 310.392763 318.60738 
L 311.377758 331.688031 
L 312.362754 330.871458 
L 313.347749 317.04033 
L 314.332745 316.699394 
L 315.317741 299.769011 
L 316.302736 285.557949 
L 317.287732 252.087373 
L 318.272727 254.746439 
L 319.257723 263.107626 
L 320.242718 285.099611 
L 321.227714 312.559067 
L 322.21271 305.240676 
L 323.197705 290.942664 
L 324.182701 306.130344 
L 325.167696 301.561955 
L 326.152692 272.413201 
L 327.137688 270.158461 
L 328.122683 269.289643 
L 329.107679 242.279943 
L 330.092674 259.591701 
L 331.07767 266.801628 
L 332.062665 312.430752 
L 333.047661 300.739992 
L 334.032657 287.705314 
L 335.017652 249.336619 
L 336.002648 255.671002 
L 336.987643 307.202152 
L 337.972639 322.519773 
L 338.957635 311.347155 
L 339.94263 269.871304 
L 340.927626 280.479376 
L 341.912621 302.745755 
L 342.897617 255.758215 
L 343.882613 285.984683 
L 344.867608 281.728084 
L 345.852604 261.180408 
L 346.837599 288.668529 
L 347.822595 281.371382 
L 348.80759 303.182385 
L 349.792586 311.686241 
L 350.777582 308.77569 
L 351.762577 257.833466 
L 352.747573 235.635732 
L 354.717564 318.164706 
L 355.70256 322.950522 
L 356.687555 307.963316 
L 357.672551 308.316572 
L 358.657546 284.707294 
L 359.642542 290.891247 
L 360.627538 271.464915 
L 361.612533 256.896078 
L 362.597529 274.05236 
L 363.582524 303.986795 
L 364.56752 310.137143 
L 365.552515 303.895659 
L 366.537511 244.93608 
L 367.522507 254.184782 
L 368.507502 298.339892 
L 369.492498 325.387137 
L 370.477493 299.288549 
L 371.462489 297.708719 
L 372.447485 293.144483 
L 373.43248 294.378775 
L 374.417476 295.985154 
L 375.402471 274.248838 
L 377.372462 294.609624 
L 378.357458 285.842433 
L 379.342454 263.510154 
L 380.327449 291.47498 
L 381.312445 330.314473 
L 382.29744 299.011064 
L 383.282436 231.052117 
L 384.267432 245.014208 
L 385.252427 317.560134 
L 386.237423 337.832061 
L 387.222418 343.359614 
L 388.207414 343.611854 
L 389.19241 331.083046 
L 390.177405 311.580034 
L 391.162401 311.763188 
L 392.147396 307.069548 
L 393.132392 317.157353 
L 394.117387 292.980138 
L 395.102383 277.504843 
L 396.087379 285.289896 
L 397.072374 319.97041 
L 398.05737 324.762454 
L 399.042365 308.470056 
L 400.027361 276.752391 
L 401.012357 271.129096 
L 401.997352 268.533842 
L 402.982348 288.406783 
L 403.967343 284.263832 
L 404.952339 268.152372 
L 405.937335 291.041431 
L 406.92233 296.373275 
L 407.907326 304.031145 
L 408.892321 305.613762 
L 410.862312 281.224019 
L 411.847308 285.747073 
L 412.832304 297.745432 
L 413.817299 292.07392 
L 414.802295 253.31777 
L 415.78729 287.425737 
L 417.757282 297.655637 
L 418.742277 294.666445 
L 419.727273 327.090587 
L 420.712268 323.434625 
L 421.697264 307.145108 
L 422.682259 294.612492 
L 423.667255 273.590271 
L 424.652251 289.245521 
L 425.637246 300.150209 
L 426.622242 274.923516 
L 427.607237 298.725856 
L 429.577229 274.152639 
L 430.562224 280.593201 
L 431.54722 291.548411 
L 433.517211 332.272927 
L 434.502207 312.422363 
L 436.472198 257.075836 
L 437.457193 288.601381 
L 438.442189 298.768995 
L 439.427184 328.531576 
L 440.41218 337.080088 
L 441.397176 304.336981 
L 442.382171 225.945766 
L 443.367167 265.285575 
L 444.352162 332.155063 
L 445.337158 344.413059 
L 447.307149 355.171542 
L 448.292145 359.934884 
L 449.27714 349.31848 
L 450.262136 354.755622 
L 451.247132 348.019481 
L 452.232127 330.264495 
L 453.217123 318.558441 
L 454.202118 265.344183 
L 455.187114 279.580725 
L 456.172109 295.738738 
L 457.157105 320.191004 
L 458.142101 338.827215 
L 459.127096 339.939362 
L 460.112092 319.779309 
L 461.097087 289.720498 
L 462.082083 287.949059 
L 463.067079 304.623057 
L 464.052074 288.229734 
L 465.03707 286.384156 
L 466.022065 246.73376 
L 467.007061 301.292865 
L 467.992056 335.089392 
L 468.977052 351.285428 
L 469.962048 348.348002 
L 470.947043 335.486221 
L 471.932039 338.748809 
L 472.917034 333.158964 
L 473.90203 296.736754 
L 474.887026 290.33799 
L 475.872021 292.777328 
L 476.857017 309.211858 
L 477.842012 288.07911 
L 478.827008 294.29097 
L 479.812004 290.008323 
L 480.796999 289.74022 
L 481.781995 300.855719 
L 482.76699 324.608675 
L 483.751986 300.595656 
L 484.736981 314.550945 
L 485.721977 304.339186 
L 486.706973 309.896261 
L 487.691968 290.835866 
L 488.676964 284.067577 
L 489.661959 250.606846 
L 490.646955 309.715873 
L 491.631951 332.03857 
L 492.616946 336.311145 
L 493.601942 333.383116 
L 494.586937 331.38646 
L 495.571933 309.186624 
L 496.556929 323.709023 
L 497.541924 328.449548 
L 498.52692 276.252404 
L 499.511915 301.946931 
L 500.496911 314.917712 
L 501.481906 337.154924 
L 502.466902 319.922669 
L 503.451898 319.221317 
L 504.436893 312.503618 
L 505.421889 297.173335 
L 506.406884 298.490764 
L 507.39188 295.014277 
L 508.376876 284.940932 
L 509.361871 304.42228 
L 510.346867 336.951874 
L 511.331862 320.840309 
L 512.316858 272.861495 
L 513.301853 322.336354 
L 514.286849 345.835048 
L 515.271845 300.323073 
L 516.25684 299.403296 
L 517.241836 337.638554 
L 518.226831 315.671436 
L 519.211827 251.278249 
L 520.196823 275.543677 
L 521.181818 339.471892 
L 522.166814 361.761034 
L 523.151809 347.600201 
L 524.136805 367.842042 
L 525.121801 367.018672 
L 526.106796 354.157174 
L 527.091792 347.501603 
L 529.061783 304.231439 
L 530.046778 305.32134 
L 531.031774 299.839481 
L 532.01677 309.118832 
L 533.001765 320.613921 
L 533.986761 320.781144 
L 534.971756 328.142878 
L 535.956752 297.566359 
L 536.941748 292.210067 
L 537.926743 318.048758 
L 538.911739 317.708238 
L 539.896734 286.485625 
L 540.88173 308.17663 
L 541.866726 322.556508 
L 542.851721 327.065394 
L 543.836717 337.322637 
L 544.821712 312.675502 
L 545.806708 290.921842 
L 546.791703 305.337777 
L 547.776699 309.523448 
L 548.761695 303.768075 
L 549.74669 320.284468 
L 550.731686 333.173697 
L 551.716681 310.760345 
L 552.701677 295.671631 
L 553.686673 295.021972 
L 554.671668 279.745361 
L 555.656664 324.576292 
L 556.641659 340.134352 
L 557.626655 334.156469 
L 558.61165 349.008432 
L 559.596646 307.477933 
L 560.581642 270.875338 
L 561.566637 321.280286 
L 562.551633 352.549877 
L 563.536628 345.175193 
L 564.521624 348.151089 
L 565.50662 348.794112 
L 566.491615 347.599284 
L 567.476611 327.195874 
L 568.461606 311.730048 
L 569.446602 283.51867 
L 570.431598 278.791036 
L 572.401589 358.943096 
L 574.37158 342.815452 
L 575.356575 323.979149 
L 576.341571 333.225542 
L 577.326567 339.266163 
L 578.311562 349.296909 
L 579.296558 323.702014 
L 580.281553 294.175469 
L 581.266549 318.034557 
L 582.251545 323.314314 
L 583.23654 309.156398 
L 584.221536 299.844692 
L 585.206531 314.70985 
L 586.191527 326.697293 
L 587.176523 323.403571 
L 588.161518 343.186082 
L 589.146514 332.204655 
L 590.131509 342.195893 
L 591.116505 311.22398 
L 592.1015 313.033112 
L 593.086496 347.104147 
L 595.056487 286.348249 
L 596.041483 317.914227 
L 597.026478 328.394933 
L 598.011474 343.685487 
L 598.99647 349.579091 
L 599.981465 352.150504 
L 600.966461 284.89762 
L 601.951456 297.040337 
L 602.936452 353.450228 
L 603.921447 350.920113 
L 604.906443 357.653027 
L 605.891439 345.681973 
L 606.876434 338.421236 
L 607.86143 305.208021 
L 608.846425 317.877868 
L 609.831421 313.807783 
L 610.816417 324.368147 
L 611.801412 311.155833 
L 612.786408 325.05721 
L 613.771403 336.189435 
L 614.756399 344.465312 
L 615.741395 347.443451 
L 616.72639 339.762791 
L 617.711386 297.485482 
L 618.696381 298.920951 
L 619.681377 345.247953 
L 620.666372 329.384657 
L 621.651368 340.156096 
L 622.636364 344.981856 
L 622.636364 344.981856 
" clip-path="url(#p5585b3c454)" style="fill: none; stroke: #0000ff; stroke-width: 1.5; stroke-linecap: square"/>
   </g>
   <g id="line2d_110">
    <path d="M 115.363636 145.037419 
L 116.348632 172.929699 
L 117.333628 196.944891 
L 118.318623 198.724245 
L 119.303619 208.984623 
L 120.288614 198.369991 
L 121.27361 213.594247 
L 122.258605 222.393413 
L 123.243601 218.851001 
L 124.228597 237.705434 
L 125.213592 225.012896 
L 126.198588 223.224662 
L 127.183583 217.812457 
L 128.168579 219.69611 
L 129.153575 231.967907 
L 130.13857 220.516618 
L 131.123566 234.141722 
L 132.108561 242.712518 
L 133.093557 214.147748 
L 134.078553 243.101542 
L 135.063548 228.625223 
L 136.048544 208.194014 
L 137.033539 243.947874 
L 138.018535 233.081297 
L 139.00353 199.955145 
L 139.988526 250.512951 
L 140.973522 192.776802 
L 141.958517 203.065405 
L 142.943513 227.350687 
L 143.928508 222.265354 
L 144.913504 232.003227 
L 145.8985 239.077121 
L 146.883495 231.751674 
L 147.868491 234.206165 
L 148.853486 239.836314 
L 149.838482 250.125741 
L 150.823477 208.721151 
L 151.808473 192.908274 
L 152.793469 249.227372 
L 153.778464 260.399916 
L 154.76346 260.470598 
L 155.748455 243.637796 
L 156.733451 241.158247 
L 157.718447 210.165288 
L 158.703442 263.314656 
L 159.688438 235.252047 
L 160.673433 284.451314 
L 162.643425 226.763725 
L 163.62842 262.751317 
L 164.613416 248.864759 
L 165.598411 220.865128 
L 166.583407 253.448862 
L 167.568402 217.765944 
L 168.553398 251.665686 
L 169.538394 275.492746 
L 170.523389 275.188014 
L 171.508385 255.048551 
L 172.49338 246.719283 
L 174.463372 196.154762 
L 175.448367 243.256726 
L 176.433363 276.02258 
L 177.418358 256.679618 
L 178.403354 221.297014 
L 179.38835 263.051736 
L 180.373345 243.947798 
L 182.343336 285.592848 
L 183.328332 242.341257 
L 184.313327 185.713158 
L 185.298323 259.955714 
L 186.283319 255.967807 
L 187.268314 217.993409 
L 188.25331 272.746364 
L 189.238305 274.857203 
L 190.223301 221.086634 
L 191.208297 267.24467 
L 192.193292 231.167667 
L 193.178288 264.576354 
L 194.163283 252.012889 
L 195.148279 260.281354 
L 196.133274 255.04791 
L 197.11827 228.09706 
L 198.103266 226.399348 
L 199.088261 249.141951 
L 200.073257 228.448703 
L 201.058252 214.128284 
L 202.043248 250.358291 
L 203.028244 271.615032 
L 204.013239 256.224635 
L 204.998235 248.045113 
L 205.98323 221.642026 
L 206.968226 254.299504 
L 207.953222 296.455451 
L 208.938217 282.691481 
L 209.923213 275.626775 
L 210.908208 263.88654 
L 211.893204 282.6625 
L 212.878199 251.82513 
L 213.863195 206.989411 
L 214.848191 274.799119 
L 215.833186 278.337819 
L 216.818182 198.902445 
L 217.803177 239.465602 
L 218.788173 266.564907 
L 219.773169 287.526668 
L 220.758164 263.752161 
L 221.74316 230.442843 
L 222.728155 241.137788 
L 223.713151 291.088076 
L 224.698147 286.836043 
L 225.683142 277.901899 
L 226.668138 273.081525 
L 227.653133 239.718596 
L 228.638129 258.05195 
L 229.623124 258.490048 
L 230.60812 247.870924 
L 231.593116 211.690297 
L 232.578111 274.923099 
L 233.563107 285.048534 
L 234.548102 306.137404 
L 235.533098 304.278717 
L 236.518094 301.464562 
L 237.503089 272.715987 
L 238.488085 272.321832 
L 239.47308 263.118276 
L 240.458076 279.454064 
L 241.443071 274.845886 
L 242.428067 253.7852 
L 243.413063 241.196123 
L 244.398058 226.825845 
L 245.383054 246.00012 
L 246.368049 287.979285 
L 247.353045 243.046049 
L 248.338041 280.25441 
L 249.323036 289.044184 
L 251.293027 249.276502 
L 252.278023 287.042139 
L 253.263019 240.986011 
L 254.248014 282.899931 
L 255.23301 227.273326 
L 256.218005 246.897655 
L 257.203001 305.390712 
L 258.187996 291.625597 
L 259.172992 273.567282 
L 261.142983 267.698714 
L 262.127979 288.784127 
L 263.112974 259.645309 
L 264.09797 247.807124 
L 265.082966 260.692968 
L 266.067961 262.76071 
L 267.052957 239.250078 
L 268.037952 266.311628 
L 269.022948 272.451496 
L 270.007944 293.846793 
L 270.992939 265.540064 
L 271.977935 255.228896 
L 272.96293 230.142071 
L 273.947926 228.194626 
L 274.932921 299.676188 
L 275.917917 287.216812 
L 276.902913 302.39041 
L 277.887908 321.207397 
L 278.872904 256.570257 
L 279.857899 238.330628 
L 280.842895 250.182272 
L 282.812886 322.413524 
L 283.797882 321.080286 
L 284.782877 304.20588 
L 285.767873 299.542924 
L 286.752868 311.041916 
L 287.737864 297.706462 
L 288.72286 290.756284 
L 289.707855 231.029054 
L 290.692851 250.638277 
L 291.677846 295.310088 
L 292.662842 317.926174 
L 293.647838 306.712721 
L 294.632833 324.347646 
L 295.617829 312.597738 
L 296.602824 321.265291 
L 297.58782 306.057869 
L 298.572816 271.715205 
L 299.557811 289.657902 
L 300.542807 290.503599 
L 301.527802 289.781681 
L 302.512798 291.530544 
L 303.497793 263.829688 
L 304.482789 175.0692 
L 305.467785 280.087752 
L 306.45278 324.75455 
L 307.437776 314.765093 
L 308.422771 322.728893 
L 309.407767 329.030854 
L 310.392763 328.195927 
L 311.377758 336.473676 
L 312.362754 322.874666 
L 313.347749 321.158154 
L 314.332745 300.238089 
L 315.317741 309.399062 
L 316.302736 271.035731 
L 317.287732 250.265129 
L 318.272727 265.943911 
L 319.257723 262.965552 
L 320.242718 315.354573 
L 321.227714 306.24603 
L 322.21271 292.925484 
L 323.197705 295.020796 
L 324.182701 300.286668 
L 325.167696 286.023098 
L 326.152692 250.694751 
L 327.137688 278.867595 
L 328.122683 279.16176 
L 329.107679 251.230288 
L 330.092674 252.051894 
L 331.07767 312.696667 
L 332.062665 318.951121 
L 333.047661 279.074519 
L 334.032657 286.339159 
L 335.017652 239.73863 
L 336.002648 271.714431 
L 336.987643 328.217719 
L 337.972639 328.073104 
L 338.957635 286.202062 
L 339.94263 250.626024 
L 340.927626 296.047803 
L 341.912621 286.42548 
L 342.897617 255.297412 
L 343.882613 306.425273 
L 344.867608 280.615295 
L 345.852604 262.96652 
L 346.837599 285.250885 
L 347.822595 301.096162 
L 348.80759 300.349186 
L 349.792586 310.94175 
L 350.777582 312.841524 
L 351.762577 254.567648 
L 352.747573 242.813546 
L 353.732568 296.331417 
L 354.717564 321.063969 
L 355.70256 318.249845 
L 356.687555 291.730762 
L 357.672551 309.520743 
L 358.657546 284.671241 
L 359.642542 297.747655 
L 360.627538 259.575372 
L 361.612533 254.059807 
L 362.597529 307.002697 
L 363.582524 298.818327 
L 364.56752 309.326807 
L 365.552515 288.473847 
L 366.537511 230.508102 
L 367.522507 297.277127 
L 368.507502 329.110225 
L 369.492498 318.630681 
L 370.477493 297.325109 
L 371.462489 291.249445 
L 372.447485 293.489183 
L 373.43248 299.226783 
L 374.417476 290.407327 
L 375.402471 265.652214 
L 376.387467 301.509651 
L 377.372462 305.266457 
L 378.357458 267.070474 
L 379.342454 261.430465 
L 380.327449 317.250246 
L 381.312445 328.632028 
L 383.282436 223.459589 
L 384.267432 294.290334 
L 385.252427 333.110895 
L 386.237423 339.567826 
L 387.222418 348.789585 
L 388.207414 345.116249 
L 389.19241 287.162863 
L 390.177405 310.436229 
L 391.162401 305.915142 
L 392.147396 313.863184 
L 393.132392 309.438336 
L 394.117387 297.639597 
L 395.102383 284.267872 
L 396.087379 297.062497 
L 397.072374 325.418203 
L 398.05737 338.980607 
L 399.042365 280.800187 
L 400.027361 272.004802 
L 401.012357 268.619359 
L 401.997352 287.885739 
L 402.982348 303.095845 
L 403.967343 273.251784 
L 404.952339 282.642696 
L 405.937335 302.575529 
L 406.92233 284.618541 
L 407.907326 322.477448 
L 408.892321 314.176812 
L 410.862312 274.871797 
L 411.847308 298.404203 
L 412.832304 290.556373 
L 413.817299 252.325963 
L 414.802295 277.27945 
L 415.78729 292.67285 
L 416.772286 296.546768 
L 417.757282 286.313878 
L 418.742277 324.761545 
L 419.727273 331.928304 
L 420.712268 304.510024 
L 421.697264 305.568929 
L 422.682259 277.196954 
L 423.667255 274.761142 
L 424.652251 297.739987 
L 425.637246 276.032237 
L 426.622242 281.463873 
L 427.607237 310.111798 
L 428.592233 264.015406 
L 429.577229 290.371293 
L 430.562224 284.881178 
L 431.54722 296.96308 
L 432.532215 330.168504 
L 433.517211 343.149928 
L 434.502207 319.480939 
L 435.487202 282.02521 
L 436.472198 257.956546 
L 437.457193 310.564876 
L 438.442189 309.60077 
L 439.427184 341.8612 
L 440.41218 327.335188 
L 441.397176 296.787597 
L 442.382171 226.438676 
L 443.367167 324.46839 
L 444.352162 333.637642 
L 445.337158 348.542867 
L 446.322154 340.287897 
L 447.307149 356.632912 
L 448.292145 349.543615 
L 449.27714 353.527582 
L 450.262136 349.592161 
L 451.247132 347.385275 
L 452.232127 302.658963 
L 453.217123 282.004526 
L 454.202118 280.182731 
L 455.187114 297.35237 
L 456.172109 299.10184 
L 457.157105 331.130633 
L 458.142101 340.321113 
L 459.127096 340.879338 
L 460.112092 289.96428 
L 461.097087 273.712872 
L 462.082083 304.005368 
L 463.067079 311.976822 
L 464.052074 288.178413 
L 465.03707 254.443738 
L 466.022065 286.709098 
L 467.007061 340.09656 
L 467.992056 350.282247 
L 469.962048 341.353399 
L 470.947043 331.988721 
L 471.932039 337.089357 
L 472.917034 305.644177 
L 473.90203 283.031298 
L 474.887026 288.498384 
L 475.872021 309.76927 
L 476.857017 319.693068 
L 477.842012 285.687713 
L 478.827008 299.091768 
L 479.812004 284.291078 
L 480.796999 313.376991 
L 481.781995 319.520298 
L 482.76699 312.183689 
L 483.751986 303.997238 
L 484.736981 305.674839 
L 485.721977 312.744111 
L 486.706973 307.482287 
L 487.691968 297.305471 
L 488.676964 275.644712 
L 489.661959 281.761748 
L 490.646955 341.781701 
L 491.631951 325.50984 
L 492.616946 337.750226 
L 493.601942 339.252272 
L 494.586937 310.318305 
L 495.571933 310.792164 
L 496.556929 347.424698 
L 497.541924 306.372171 
L 498.52692 284.876493 
L 499.511915 311.72215 
L 500.496911 328.223694 
L 501.481906 319.017582 
L 502.466902 318.012023 
L 503.451898 325.800728 
L 504.436893 287.895536 
L 505.421889 308.478718 
L 506.406884 308.085116 
L 507.39188 294.708101 
L 508.376876 268.737961 
L 509.361871 327.452522 
L 510.346867 333.959615 
L 511.331862 288.623073 
L 512.316858 289.584761 
L 513.301853 344.709438 
L 514.286849 309.094777 
L 515.271845 280.370639 
L 516.25684 334.938043 
L 517.241836 340.358322 
L 518.226831 288.261065 
L 519.211827 267.700612 
L 520.196823 332.147472 
L 521.181818 346.649999 
L 522.166814 346.810853 
L 523.151809 356.540089 
L 524.136805 369.36 
L 525.121801 348.718912 
L 526.106796 345.283256 
L 527.091792 349.723816 
L 528.076787 333.039567 
L 529.061783 299.36022 
L 530.046778 306.822525 
L 531.031774 305.608995 
L 532.01677 327.793237 
L 533.001765 317.799701 
L 533.986761 301.195346 
L 534.971756 321.01203 
L 535.956752 293.476062 
L 536.941748 312.018965 
L 537.926743 313.355303 
L 538.911739 294.141987 
L 539.896734 286.349376 
L 540.88173 297.818772 
L 541.866726 337.054227 
L 542.851721 332.875924 
L 543.836717 329.599534 
L 544.821712 315.791775 
L 545.806708 306.102187 
L 546.791703 312.849762 
L 547.776699 306.475963 
L 548.761695 329.280506 
L 550.731686 322.957218 
L 551.716681 316.740782 
L 552.701677 315.452683 
L 553.686673 285.858045 
L 554.671668 297.438774 
L 555.656664 351.101052 
L 556.641659 325.187646 
L 557.626655 352.962303 
L 558.61165 349.98323 
L 559.596646 271.533176 
L 560.581642 302.431136 
L 561.566637 344.383098 
L 562.551633 340.950028 
L 563.536628 357.061305 
L 564.521624 353.755045 
L 565.50662 348.204382 
L 566.491615 348.162007 
L 567.476611 315.644713 
L 568.461606 317.044921 
L 569.446602 267.570266 
L 570.431598 293.879469 
L 571.416593 356.089279 
L 572.401589 346.915077 
L 573.386584 345.300461 
L 574.37158 321.79956 
L 575.356575 332.592217 
L 576.341571 341.777097 
L 577.326567 337.687195 
L 578.311562 352.83326 
L 579.296558 310.591445 
L 580.281553 299.425754 
L 581.266549 331.203684 
L 582.251545 315.230463 
L 583.23654 294.4788 
L 584.221536 318.966848 
L 585.206531 333.427844 
L 586.191527 329.078255 
L 587.176523 326.386248 
L 588.161518 352.241783 
L 589.146514 340.965226 
L 590.131509 347.95329 
L 591.116505 305.961031 
L 592.1015 338.385754 
L 594.071492 329.304787 
L 595.056487 308.505974 
L 596.041483 328.83314 
L 597.026478 335.368867 
L 598.011474 333.401664 
L 598.99647 359.855075 
L 599.981465 349.068582 
L 600.966461 286.39855 
L 601.951456 332.622058 
L 602.936452 355.612617 
L 603.921447 348.90244 
L 604.906443 347.313558 
L 605.891439 355.961103 
L 606.876434 331.204206 
L 607.86143 317.491607 
L 608.846425 325.072641 
L 609.831421 331.639048 
L 610.816417 312.560196 
L 611.801412 330.392854 
L 612.786408 327.20805 
L 613.771403 336.449959 
L 614.756399 341.573073 
L 615.741395 349.44048 
L 616.72639 334.891334 
L 617.711386 278.140934 
L 618.696381 333.310783 
L 619.681377 345.458777 
L 620.666372 323.91985 
L 621.651368 341.434167 
L 622.636364 345.592184 
L 622.636364 345.592184 
" clip-path="url(#p5585b3c454)" style="fill: none; stroke: #ff0000; stroke-width: 1.5; stroke-linecap: square"/>
   </g>
   <g id="patch_3">
    <path d="M 90 384.48 
L 90 51.84 
" style="fill: none; stroke: #000000; stroke-width: 0.8; stroke-linejoin: miter; stroke-linecap: square"/>
   </g>
   <g id="patch_4">
    <path d="M 648 384.48 
L 648 51.84 
" style="fill: none; stroke: #000000; stroke-width: 0.8; stroke-linejoin: miter; stroke-linecap: square"/>
   </g>
   <g id="patch_5">
    <path d="M 90 384.48 
L 648 384.48 
" style="fill: none; stroke: #000000; stroke-width: 0.8; stroke-linejoin: miter; stroke-linecap: square"/>
   </g>
   <g id="patch_6">
    <path d="M 90 51.84 
L 648 51.84 
" style="fill: none; stroke: #000000; stroke-width: 0.8; stroke-linejoin: miter; stroke-linecap: square"/>
   </g>
   <g id="text_14">
    <!-- Training and Validation Loss Over Time -->
    <g transform="translate(252.60375 45.84) scale(0.12 -0.12)">
     <defs>
      <path id="DejaVuSans-54" d="M -19 4666 
L 3928 4666 
L 3928 4134 
L 2272 4134 
L 2272 0 
L 1638 0 
L 1638 4134 
L -19 4134 
L -19 4666 
z
" transform="scale(0.015625)"/>
      <path id="DejaVuSans-6e" d="M 3513 2113 
L 3513 0 
L 2938 0 
L 2938 2094 
Q 2938 2591 2744 2837 
Q 2550 3084 2163 3084 
Q 1697 3084 1428 2787 
Q 1159 2491 1159 1978 
L 1159 0 
L 581 0 
L 581 3500 
L 1159 3500 
L 1159 2956 
Q 1366 3272 1645 3428 
Q 1925 3584 2291 3584 
Q 2894 3584 3203 3211 
Q 3513 2838 3513 2113 
z
" transform="scale(0.015625)"/>
      <path id="DejaVuSans-67" d="M 2906 1791 
Q 2906 2416 2648 2759 
Q 2391 3103 1925 3103 
Q 1463 3103 1205 2759 
Q 947 2416 947 1791 
Q 947 1169 1205 825 
Q 1463 481 1925 481 
Q 2391 481 2648 825 
Q 2906 1169 2906 1791 
z
M 3481 434 
Q 3481 -459 3084 -895 
Q 2688 -1331 1869 -1331 
Q 1566 -1331 1297 -1286 
Q 1028 -1241 775 -1147 
L 775 -588 
Q 1028 -725 1275 -790 
Q 1522 -856 1778 -856 
Q 2344 -856 2625 -561 
Q 2906 -266 2906 331 
L 2906 616 
Q 2728 306 2450 153 
Q 2172 0 1784 0 
Q 1141 0 747 490 
Q 353 981 353 1791 
Q 353 2603 747 3093 
Q 1141 3584 1784 3584 
Q 2172 3584 2450 3431 
Q 2728 3278 2906 2969 
L 2906 3500 
L 3481 3500 
L 3481 434 
z
" transform="scale(0.015625)"/>
      <path id="DejaVuSans-56" d="M 1831 0 
L 50 4666 
L 709 4666 
L 2188 738 
L 3669 4666 
L 4325 4666 
L 2547 0 
L 1831 0 
z
" transform="scale(0.015625)"/>
      <path id="DejaVuSans-74" d="M 1172 4494 
L 1172 3500 
L 2356 3500 
L 2356 3053 
L 1172 3053 
L 1172 1153 
Q 1172 725 1289 603 
Q 1406 481 1766 481 
L 2356 481 
L 2356 0 
L 1766 0 
Q 1100 0 847 248 
Q 594 497 594 1153 
L 594 3053 
L 172 3053 
L 172 3500 
L 594 3500 
L 594 4494 
L 1172 4494 
z
" transform="scale(0.015625)"/>
      <path id="DejaVuSans-4f" d="M 2522 4238 
Q 1834 4238 1429 3725 
Q 1025 3213 1025 2328 
Q 1025 1447 1429 934 
Q 1834 422 2522 422 
Q 3209 422 3611 934 
Q 4013 1447 4013 2328 
Q 4013 3213 3611 3725 
Q 3209 4238 2522 4238 
z
M 2522 4750 
Q 3503 4750 4090 4092 
Q 4678 3434 4678 2328 
Q 4678 1225 4090 567 
Q 3503 -91 2522 -91 
Q 1538 -91 948 565 
Q 359 1222 359 2328 
Q 359 3434 948 4092 
Q 1538 4750 2522 4750 
z
" transform="scale(0.015625)"/>
      <path id="DejaVuSans-76" d="M 191 3500 
L 800 3500 
L 1894 563 
L 2988 3500 
L 3597 3500 
L 2284 0 
L 1503 0 
L 191 3500 
z
" transform="scale(0.015625)"/>
     </defs>
     <use xlink:href="#DejaVuSans-54"/>
     <use xlink:href="#DejaVuSans-72" transform="translate(46.333984 0)"/>
     <use xlink:href="#DejaVuSans-61" transform="translate(87.447266 0)"/>
     <use xlink:href="#DejaVuSans-69" transform="translate(148.726562 0)"/>
     <use xlink:href="#DejaVuSans-6e" transform="translate(176.509766 0)"/>
     <use xlink:href="#DejaVuSans-69" transform="translate(239.888672 0)"/>
     <use xlink:href="#DejaVuSans-6e" transform="translate(267.671875 0)"/>
     <use xlink:href="#DejaVuSans-67" transform="translate(331.050781 0)"/>
     <use xlink:href="#DejaVuSans-20" transform="translate(394.527344 0)"/>
     <use xlink:href="#DejaVuSans-61" transform="translate(426.314453 0)"/>
     <use xlink:href="#DejaVuSans-6e" transform="translate(487.59375 0)"/>
     <use xlink:href="#DejaVuSans-64" transform="translate(550.972656 0)"/>
     <use xlink:href="#DejaVuSans-20" transform="translate(614.449219 0)"/>
     <use xlink:href="#DejaVuSans-56" transform="translate(646.236328 0)"/>
     <use xlink:href="#DejaVuSans-61" transform="translate(706.894531 0)"/>
     <use xlink:href="#DejaVuSans-6c" transform="translate(768.173828 0)"/>
     <use xlink:href="#DejaVuSans-69" transform="translate(795.957031 0)"/>
     <use xlink:href="#DejaVuSans-64" transform="translate(823.740234 0)"/>
     <use xlink:href="#DejaVuSans-61" transform="translate(887.216797 0)"/>
     <use xlink:href="#DejaVuSans-74" transform="translate(948.496094 0)"/>
     <use xlink:href="#DejaVuSans-69" transform="translate(987.705078 0)"/>
     <use xlink:href="#DejaVuSans-6f" transform="translate(1015.488281 0)"/>
     <use xlink:href="#DejaVuSans-6e" transform="translate(1076.669922 0)"/>
     <use xlink:href="#DejaVuSans-20" transform="translate(1140.048828 0)"/>
     <use xlink:href="#DejaVuSans-4c" transform="translate(1171.835938 0)"/>
     <use xlink:href="#DejaVuSans-6f" transform="translate(1225.798828 0)"/>
     <use xlink:href="#DejaVuSans-73" transform="translate(1286.980469 0)"/>
     <use xlink:href="#DejaVuSans-73" transform="translate(1339.080078 0)"/>
     <use xlink:href="#DejaVuSans-20" transform="translate(1391.179688 0)"/>
     <use xlink:href="#DejaVuSans-4f" transform="translate(1422.966797 0)"/>
     <use xlink:href="#DejaVuSans-76" transform="translate(1501.677734 0)"/>
     <use xlink:href="#DejaVuSans-65" transform="translate(1560.857422 0)"/>
     <use xlink:href="#DejaVuSans-72" transform="translate(1622.380859 0)"/>
     <use xlink:href="#DejaVuSans-20" transform="translate(1663.494141 0)"/>
     <use xlink:href="#DejaVuSans-54" transform="translate(1695.28125 0)"/>
     <use xlink:href="#DejaVuSans-69" transform="translate(1753.240234 0)"/>
     <use xlink:href="#DejaVuSans-6d" transform="translate(1781.023438 0)"/>
     <use xlink:href="#DejaVuSans-65" transform="translate(1878.435547 0)"/>
    </g>
   </g>
   <g id="legend_1">
    <g id="patch_7">
     <path d="M 534.50625 89.19625 
L 641 89.19625 
Q 643 89.19625 643 87.19625 
L 643 58.84 
Q 643 56.84 641 56.84 
L 534.50625 56.84 
Q 532.50625 56.84 532.50625 58.84 
L 532.50625 87.19625 
Q 532.50625 89.19625 534.50625 89.19625 
z
" style="fill: #ffffff; opacity: 0.8; stroke: #cccccc; stroke-linejoin: miter"/>
    </g>
    <g id="line2d_111">
     <path d="M 536.50625 64.938437 
L 546.50625 64.938437 
L 556.50625 64.938437 
" style="fill: none; stroke: #0000ff; stroke-width: 1.5; stroke-linecap: square"/>
    </g>
    <g id="text_15">
     <!-- Training Loss -->
     <g transform="translate(564.50625 68.438437) scale(0.1 -0.1)">
      <use xlink:href="#DejaVuSans-54"/>
      <use xlink:href="#DejaVuSans-72" transform="translate(46.333984 0)"/>
      <use xlink:href="#DejaVuSans-61" transform="translate(87.447266 0)"/>
      <use xlink:href="#DejaVuSans-69" transform="translate(148.726562 0)"/>
      <use xlink:href="#DejaVuSans-6e" transform="translate(176.509766 0)"/>
      <use xlink:href="#DejaVuSans-69" transform="translate(239.888672 0)"/>
      <use xlink:href="#DejaVuSans-6e" transform="translate(267.671875 0)"/>
      <use xlink:href="#DejaVuSans-67" transform="translate(331.050781 0)"/>
      <use xlink:href="#DejaVuSans-20" transform="translate(394.527344 0)"/>
      <use xlink:href="#DejaVuSans-4c" transform="translate(426.314453 0)"/>
      <use xlink:href="#DejaVuSans-6f" transform="translate(480.277344 0)"/>
      <use xlink:href="#DejaVuSans-73" transform="translate(541.458984 0)"/>
      <use xlink:href="#DejaVuSans-73" transform="translate(593.558594 0)"/>
     </g>
    </g>
    <g id="line2d_112">
     <path d="M 536.50625 79.616562 
L 546.50625 79.616562 
L 556.50625 79.616562 
" style="fill: none; stroke: #ff0000; stroke-width: 1.5; stroke-linecap: square"/>
    </g>
    <g id="text_16">
     <!-- Validation Loss -->
     <g transform="translate(564.50625 83.116562) scale(0.1 -0.1)">
      <use xlink:href="#DejaVuSans-56"/>
      <use xlink:href="#DejaVuSans-61" transform="translate(60.658203 0)"/>
      <use xlink:href="#DejaVuSans-6c" transform="translate(121.9375 0)"/>
      <use xlink:href="#DejaVuSans-69" transform="translate(149.720703 0)"/>
      <use xlink:href="#DejaVuSans-64" transform="translate(177.503906 0)"/>
      <use xlink:href="#DejaVuSans-61" transform="translate(240.980469 0)"/>
      <use xlink:href="#DejaVuSans-74" transform="translate(302.259766 0)"/>
      <use xlink:href="#DejaVuSans-69" transform="translate(341.46875 0)"/>
      <use xlink:href="#DejaVuSans-6f" transform="translate(369.251953 0)"/>
      <use xlink:href="#DejaVuSans-6e" transform="translate(430.433594 0)"/>
      <use xlink:href="#DejaVuSans-20" transform="translate(493.8125 0)"/>
      <use xlink:href="#DejaVuSans-4c" transform="translate(525.599609 0)"/>
      <use xlink:href="#DejaVuSans-6f" transform="translate(579.5625 0)"/>
      <use xlink:href="#DejaVuSans-73" transform="translate(640.744141 0)"/>
      <use xlink:href="#DejaVuSans-73" transform="translate(692.84375 0)"/>
     </g>
    </g>
   </g>
  </g>
 </g>
 <defs>
  <clipPath id="p5585b3c454">
   <rect x="90" y="51.84" width="558" height="332.64"/>
  </clipPath>
 </defs>
</svg>
