<?xml version="1.0" encoding="utf-8" standalone="no"?>
<!DOCTYPE svg PUBLIC "-//W3C//DTD SVG 1.1//EN"
  "http://www.w3.org/Graphics/SVG/1.1/DTD/svg11.dtd">
<svg xmlns:xlink="http://www.w3.org/1999/xlink" width="720pt" height="432pt" viewBox="0 0 720 432" xmlns="http://www.w3.org/2000/svg" version="1.1">
 <metadata>
  <rdf:RDF xmlns:dc="http://purl.org/dc/elements/1.1/" xmlns:cc="http://creativecommons.org/ns#" xmlns:rdf="http://www.w3.org/1999/02/22-rdf-syntax-ns#">
   <cc:Work>
    <dc:type rdf:resource="http://purl.org/dc/dcmitype/StillImage"/>
    <dc:date>2026-04-01T00:50:48.174851</dc:date>
    <dc:format>image/svg+xml</dc:format>
    <dc:creator>
     <cc:Agent>
      <dc:title>Matplotlib v3.10.3, https://matplotlib.org/</dc:title>
     </cc:Agent>
    </dc:creator>
   </cc:Work>
  </rdf:RDF>
 </metadata>
 <defs>
  <style type="text/css">*{stroke-linejoin: round; stroke-linecap: butt}</style>
 </defs>
 <g id="figure_1">
  <g id="patch_1">
   <path d="M 0 432 
L 720 432 
L 720 0 
L 0 0 
z
" style="fill: #ffffff"/>
  </g>
  <g id="axes_1">
   <g id="patch_2">
    <path d="M 90 384.48 
L 648 384.48 
L 648 51.84 
L 90 51.84 
z
" style="fill: #ffffff"/>
   </g>
   <g id="matplotlib.axis_1">
    <g id="xtick_1">
     <g id="line2d_1">
      <path d="M 115.363636 384.48 
L 115.363636 51.84 
" clip-path="url(#p447a163953)" style="fill: none; stroke-dasharray: 2.96,1.28; stroke-dashoffset: 0; stroke: #b0b0b0; stroke-width: 0.8"/>
     </g>
     <g id="line2d_2">
      <defs>
       <path id="ma0936e882e" d="M 0 0 
L 0 3.5 
" style="stroke: #000000; stroke-width: 0.8"/>
      </defs>
      <g>
       <use xlink:href="#ma0936e882e" x="115.363636" y="384.48" style="stroke: #000000; stroke-width: 0.8"/>
      </g>
     </g>
     <g id="text_1">
      <!-- 0 -->
      <g transform="translate(112.182386 399.078438) scale(0.1 -0.1)">
       <defs>
        <path id="DejaVuSans-30" d="M 2034 4250 
Q 1547 4250 1301 3770 
Q 1056 3291 1056 2328 
Q 1056 1369 1301 889 
Q 1547 409 2034 409 
Q 2525 409 2770 889 
Q 3016 1369 3016 2328 
Q 3016 3291 2770 3770 
Q 2525 4250 2034 4250 
z
M 2034 4750 
Q 2819 4750 3233 4129 
Q 3647 3509 3647 2328 
Q 3647 1150 3233 529 
Q 2819 -91 2034 -91 
Q 1250 -91 836 529 
Q 422 1150 422 2328 
Q 422 3509 836 4129 
Q 1250 4750 2034 4750 
z
" transform="scale(0.015625)"/>
       </defs>
       <use xlink:href="#DejaVuSans-30"/>
      </g>
     </g>
    </g>
    <g id="xtick_2">
     <g id="line2d_3">
      <path d="M 216.818182 384.48 
L 216.818182 51.84 
" clip-path="url(#p447a163953)" style="fill: none; stroke-dasharray: 2.96,1.28; stroke-dashoffset: 0; stroke: #b0b0b0; stroke-width: 0.8"/>
     </g>
     <g id="line2d_4">
      <g>
       <use xlink:href="#ma0936e882e" x="216.818182" y="384.48" style="stroke: #000000; stroke-width: 0.8"/>
      </g>
     </g>
     <g id="text_2">
      <!-- 100 -->
      <g transform="translate(207.274432 399.078438) scale(0.1 -0.1)">
       <defs>
        <path id="DejaVuSans-31" d="M 794 531 
L 1825 531 
L 1825 4091 
L 703 3866 
L 703 4441 
L 1819 4666 
L 2450 4666 
L 2450 531 
L 3481 531 
L 3481 0 
L 794 0 
L 794 531 
z
" transform="scale(0.015625)"/>
       </defs>
       <use xlink:href="#DejaVuSans-31"/>
       <use xlink:href="#DejaVuSans-30" transform="translate(63.623047 0)"/>
       <use xlink:href="#DejaVuSans-30" transform="translate(127.246094 0)"/>
      </g>
     </g>
    </g>
    <g id="xtick_3">
     <g id="line2d_5">
      <path d="M 318.272727 384.48 
L 318.272727 51.84 
" clip-path="url(#p447a163953)" style="fill: none; stroke-dasharray: 2.96,1.28; stroke-dashoffset: 0; stroke: #b0b0b0; stroke-width: 0.8"/>
     </g>
     <g id="line2d_6">
      <g>
       <use xlink:href="#ma0936e882e" x="318.272727" y="384.48" style="stroke: #000000; stroke-width: 0.8"/>
      </g>
     </g>
     <g id="text_3">
      <!-- 200 -->
      <g transform="translate(308.728977 399.078438) scale(0.1 -0.1)">
       <defs>
        <path id="DejaVuSans-32" d="M 1228 531 
L 3431 531 
L 3431 0 
L 469 0 
L 469 531 
Q 828 903 1448 1529 
Q 2069 2156 2228 2338 
Q 2531 2678 2651 2914 
Q 2772 3150 2772 3378 
Q 2772 3750 2511 3984 
Q 2250 4219 1831 4219 
Q 1534 4219 1204 4116 
Q 875 4013 500 3803 
L 500 4441 
Q 881 4594 1212 4672 
Q 1544 4750 1819 4750 
Q 2544 4750 2975 4387 
Q 3406 4025 3406 3419 
Q 3406 3131 3298 2873 
Q 3191 2616 2906 2266 
Q 2828 2175 2409 1742 
Q 1991 1309 1228 531 
z
" transform="scale(0.015625)"/>
       </defs>
       <use xlink:href="#DejaVuSans-32"/>
       <use xlink:href="#DejaVuSans-30" transform="translate(63.623047 0)"/>
       <use xlink:href="#DejaVuSans-30" transform="translate(127.246094 0)"/>
      </g>
     </g>
    </g>
    <g id="xtick_4">
     <g id="line2d_7">
      <path d="M 419.727273 384.48 
L 419.727273 51.84 
" clip-path="url(#p447a163953)" style="fill: none; stroke-dasharray: 2.96,1.28; stroke-dashoffset: 0; stroke: #b0b0b0; stroke-width: 0.8"/>
     </g>
     <g id="line2d_8">
      <g>
       <use xlink:href="#ma0936e882e" x="419.727273" y="384.48" style="stroke: #000000; stroke-width: 0.8"/>
      </g>
     </g>
     <g id="text_4">
      <!-- 300 -->
      <g transform="translate(410.183523 399.078438) scale(0.1 -0.1)">
       <defs>
        <path id="DejaVuSans-33" d="M 2597 2516 
Q 3050 2419 3304 2112 
Q 3559 1806 3559 1356 
Q 3559 666 3084 287 
Q 2609 -91 1734 -91 
Q 1441 -91 1130 -33 
Q 819 25 488 141 
L 488 750 
Q 750 597 1062 519 
Q 1375 441 1716 441 
Q 2309 441 2620 675 
Q 2931 909 2931 1356 
Q 2931 1769 2642 2001 
Q 2353 2234 1838 2234 
L 1294 2234 
L 1294 2753 
L 1863 2753 
Q 2328 2753 2575 2939 
Q 2822 3125 2822 3475 
Q 2822 3834 2567 4026 
Q 2313 4219 1838 4219 
Q 1578 4219 1281 4162 
Q 984 4106 628 3988 
L 628 4550 
Q 988 4650 1302 4700 
Q 1616 4750 1894 4750 
Q 2613 4750 3031 4423 
Q 3450 4097 3450 3541 
Q 3450 3153 3228 2886 
Q 3006 2619 2597 2516 
z
" transform="scale(0.015625)"/>
       </defs>
       <use xlink:href="#DejaVuSans-33"/>
       <use xlink:href="#DejaVuSans-30" transform="translate(63.623047 0)"/>
       <use xlink:href="#DejaVuSans-30" transform="translate(127.246094 0)"/>
      </g>
     </g>
    </g>
    <g id="xtick_5">
     <g id="line2d_9">
      <path d="M 521.181818 384.48 
L 521.181818 51.84 
" clip-path="url(#p447a163953)" style="fill: none; stroke-dasharray: 2.96,1.28; stroke-dashoffset: 0; stroke: #b0b0b0; stroke-width: 0.8"/>
     </g>
     <g id="line2d_10">
      <g>
       <use xlink:href="#ma0936e882e" x="521.181818" y="384.48" style="stroke: #000000; stroke-width: 0.8"/>
      </g>
     </g>
     <g id="text_5">
      <!-- 400 -->
      <g transform="translate(511.638068 399.078438) scale(0.1 -0.1)">
       <defs>
        <path id="DejaVuSans-34" d="M 2419 4116 
L 825 1625 
L 2419 1625 
L 2419 4116 
z
M 2253 4666 
L 3047 4666 
L 3047 1625 
L 3713 1625 
L 3713 1100 
L 3047 1100 
L 3047 0 
L 2419 0 
L 2419 1100 
L 313 1100 
L 313 1709 
L 2253 4666 
z
" transform="scale(0.015625)"/>
       </defs>
       <use xlink:href="#DejaVuSans-34"/>
       <use xlink:href="#DejaVuSans-30" transform="translate(63.623047 0)"/>
       <use xlink:href="#DejaVuSans-30" transform="translate(127.246094 0)"/>
      </g>
     </g>
    </g>
    <g id="xtick_6">
     <g id="line2d_11">
      <path d="M 622.636364 384.48 
L 622.636364 51.84 
" clip-path="url(#p447a163953)" style="fill: none; stroke-dasharray: 2.96,1.28; stroke-dashoffset: 0; stroke: #b0b0b0; stroke-width: 0.8"/>
     </g>
     <g id="line2d_12">
      <g>
       <use xlink:href="#ma0936e882e" x="622.636364" y="384.48" style="stroke: #000000; stroke-width: 0.8"/>
      </g>
     </g>
     <g id="text_6">
      <!-- 500 -->
      <g transform="translate(613.092614 399.078438) scale(0.1 -0.1)">
       <defs>
        <path id="DejaVuSans-35" d="M 691 4666 
L 3169 4666 
L 3169 4134 
L 1269 4134 
L 1269 2991 
Q 1406 3038 1543 3061 
Q 1681 3084 1819 3084 
Q 2600 3084 3056 2656 
Q 3513 2228 3513 1497 
Q 3513 744 3044 326 
Q 2575 -91 1722 -91 
Q 1428 -91 1123 -41 
Q 819 9 494 109 
L 494 744 
Q 775 591 1075 516 
Q 1375 441 1709 441 
Q 2250 441 2565 725 
Q 2881 1009 2881 1497 
Q 2881 1984 2565 2268 
Q 2250 2553 1709 2553 
Q 1456 2553 1204 2497 
Q 953 2441 691 2322 
L 691 4666 
z
" transform="scale(0.015625)"/>
       </defs>
       <use xlink:href="#DejaVuSans-35"/>
       <use xlink:href="#DejaVuSans-30" transform="translate(63.623047 0)"/>
       <use xlink:href="#DejaVuSans-30" transform="translate(127.246094 0)"/>
      </g>
     </g>
    </g>
    <g id="text_7">
     <!-- Epoch -->
     <g transform="translate(353.689062 412.756563) scale(0.1 -0.1)">
      <defs>
       <path id="DejaVuSans-45" d="M 628 4666 
L 3578 4666 
L 3578 4134 
L 1259 4134 
L 1259 2753 
L 3481 2753 
L 3481 2222 
L 1259 2222 
L 1259 531 
L 3634 531 
L 3634 0 
L 628 0 
L 628 4666 
z
" transform="scale(0.015625)"/>
       <path id="DejaVuSans-70" d="M 1159 525 
L 1159 -1331 
L 581 -1331 
L 581 3500 
L 1159 3500 
L 1159 2969 
Q 1341 3281 1617 3432 
Q 1894 3584 2278 3584 
Q 2916 3584 3314 3078 
Q 3713 2572 3713 1747 
Q 3713 922 3314 415 
Q 2916 -91 2278 -91 
Q 1894 -91 1617 61 
Q 1341 213 1159 525 
z
M 3116 1747 
Q 3116 2381 2855 2742 
Q 2594 3103 2138 3103 
Q 1681 3103 1420 2742 
Q 1159 2381 1159 1747 
Q 1159 1113 1420 752 
Q 1681 391 2138 391 
Q 2594 391 2855 752 
Q 3116 1113 3116 1747 
z
" transform="scale(0.015625)"/>
       <path id="DejaVuSans-6f" d="M 1959 3097 
Q 1497 3097 1228 2736 
Q 959 2375 959 1747 
Q 959 1119 1226 758 
Q 1494 397 1959 397 
Q 2419 397 2687 759 
Q 2956 1122 2956 1747 
Q 2956 2369 2687 2733 
Q 2419 3097 1959 3097 
z
M 1959 3584 
Q 2709 3584 3137 3096 
Q 3566 2609 3566 1747 
Q 3566 888 3137 398 
Q 2709 -91 1959 -91 
Q 1206 -91 779 398 
Q 353 888 353 1747 
Q 353 2609 779 3096 
Q 1206 3584 1959 3584 
z
" transform="scale(0.015625)"/>
       <path id="DejaVuSans-63" d="M 3122 3366 
L 3122 2828 
Q 2878 2963 2633 3030 
Q 2388 3097 2138 3097 
Q 1578 3097 1268 2742 
Q 959 2388 959 1747 
Q 959 1106 1268 751 
Q 1578 397 2138 397 
Q 2388 397 2633 464 
Q 2878 531 3122 666 
L 3122 134 
Q 2881 22 2623 -34 
Q 2366 -91 2075 -91 
Q 1284 -91 818 406 
Q 353 903 353 1747 
Q 353 2603 823 3093 
Q 1294 3584 2113 3584 
Q 2378 3584 2631 3529 
Q 2884 3475 3122 3366 
z
" transform="scale(0.015625)"/>
       <path id="DejaVuSans-68" d="M 3513 2113 
L 3513 0 
L 2938 0 
L 2938 2094 
Q 2938 2591 2744 2837 
Q 2550 3084 2163 3084 
Q 1697 3084 1428 2787 
Q 1159 2491 1159 1978 
L 1159 0 
L 581 0 
L 581 4863 
L 1159 4863 
L 1159 2956 
Q 1366 3272 1645 3428 
Q 1925 3584 2291 3584 
Q 2894 3584 3203 3211 
Q 3513 2838 3513 2113 
z
" transform="scale(0.015625)"/>
      </defs>
      <use xlink:href="#DejaVuSans-45"/>
      <use xlink:href="#DejaVuSans-70" transform="translate(63.183594 0)"/>
      <use xlink:href="#DejaVuSans-6f" transform="translate(126.660156 0)"/>
      <use xlink:href="#DejaVuSans-63" transform="translate(187.841797 0)"/>
      <use xlink:href="#DejaVuSans-68" transform="translate(242.822266 0)"/>
     </g>
    </g>
   </g>
   <g id="matplotlib.axis_2">
    <g id="ytick_1">
     <g id="line2d_13">
      <path d="M 90 348.008948 
L 648 348.008948 
" clip-path="url(#p447a163953)" style="fill: none; stroke-dasharray: 2.96,1.28; stroke-dashoffset: 0; stroke: #b0b0b0; stroke-width: 0.8"/>
     </g>
     <g id="line2d_14">
      <defs>
       <path id="mbe8ebf34b5" d="M 0 0 
L -3.5 0 
" style="stroke: #000000; stroke-width: 0.8"/>
      </defs>
      <g>
       <use xlink:href="#mbe8ebf34b5" x="90" y="348.008948" style="stroke: #000000; stroke-width: 0.8"/>
      </g>
     </g>
     <g id="text_8">
      <!-- $\mathdefault{10^{-5}}$ -->
      <g transform="translate(59.5 351.808166) scale(0.1 -0.1)">
       <defs>
        <path id="DejaVuSans-2212" d="M 678 2272 
L 4684 2272 
L 4684 1741 
L 678 1741 
L 678 2272 
z
" transform="scale(0.015625)"/>
       </defs>
       <use xlink:href="#DejaVuSans-31" transform="translate(0 0.684375)"/>
       <use xlink:href="#DejaVuSans-30" transform="translate(63.623047 0.684375)"/>
       <use xlink:href="#DejaVuSans-2212" transform="translate(128.203125 38.965625) scale(0.7)"/>
       <use xlink:href="#DejaVuSans-35" transform="translate(186.855469 38.965625) scale(0.7)"/>
      </g>
     </g>
    </g>
    <g id="ytick_2">
     <g id="line2d_15">
      <path d="M 90 280.365562 
L 648 280.365562 
" clip-path="url(#p447a163953)" style="fill: none; stroke-dasharray: 2.96,1.28; stroke-dashoffset: 0; stroke: #b0b0b0; stroke-width: 0.8"/>
     </g>
     <g id="line2d_16">
      <g>
       <use xlink:href="#mbe8ebf34b5" x="90" y="280.365562" style="stroke: #000000; stroke-width: 0.8"/>
      </g>
     </g>
     <g id="text_9">
      <!-- $\mathdefault{10^{-4}}$ -->
      <g transform="translate(59.5 284.16478) scale(0.1 -0.1)">
       <use xlink:href="#DejaVuSans-31" transform="translate(0 0.684375)"/>
       <use xlink:href="#DejaVuSans-30" transform="translate(63.623047 0.684375)"/>
       <use xlink:href="#DejaVuSans-2212" transform="translate(128.203125 38.965625) scale(0.7)"/>
       <use xlink:href="#DejaVuSans-34" transform="translate(186.855469 38.965625) scale(0.7)"/>
      </g>
     </g>
    </g>
    <g id="ytick_3">
     <g id="line2d_17">
      <path d="M 90 212.722176 
L 648 212.722176 
" clip-path="url(#p447a163953)" style="fill: none; stroke-dasharray: 2.96,1.28; stroke-dashoffset: 0; stroke: #b0b0b0; stroke-width: 0.8"/>
     </g>
     <g id="line2d_18">
      <g>
       <use xlink:href="#mbe8ebf34b5" x="90" y="212.722176" style="stroke: #000000; stroke-width: 0.8"/>
      </g>
     </g>
     <g id="text_10">
      <!-- $\mathdefault{10^{-3}}$ -->
      <g transform="translate(59.5 216.521394) scale(0.1 -0.1)">
       <use xlink:href="#DejaVuSans-31" transform="translate(0 0.765625)"/>
       <use xlink:href="#DejaVuSans-30" transform="translate(63.623047 0.765625)"/>
       <use xlink:href="#DejaVuSans-2212" transform="translate(128.203125 39.046875) scale(0.7)"/>
       <use xlink:href="#DejaVuSans-33" transform="translate(186.855469 39.046875) scale(0.7)"/>
      </g>
     </g>
    </g>
    <g id="ytick_4">
     <g id="line2d_19">
      <path d="M 90 145.07879 
L 648 145.07879 
" clip-path="url(#p447a163953)" style="fill: none; stroke-dasharray: 2.96,1.28; stroke-dashoffset: 0; stroke: #b0b0b0; stroke-width: 0.8"/>
     </g>
     <g id="line2d_20">
      <g>
       <use xlink:href="#mbe8ebf34b5" x="90" y="145.07879" style="stroke: #000000; stroke-width: 0.8"/>
      </g>
     </g>
     <g id="text_11">
      <!-- $\mathdefault{10^{-2}}$ -->
      <g transform="translate(59.5 148.878008) scale(0.1 -0.1)">
       <use xlink:href="#DejaVuSans-31" transform="translate(0 0.765625)"/>
       <use xlink:href="#DejaVuSans-30" transform="translate(63.623047 0.765625)"/>
       <use xlink:href="#DejaVuSans-2212" transform="translate(128.203125 39.046875) scale(0.7)"/>
       <use xlink:href="#DejaVuSans-32" transform="translate(186.855469 39.046875) scale(0.7)"/>
      </g>
     </g>
    </g>
    <g id="ytick_5">
     <g id="line2d_21">
      <path d="M 90 77.435404 
L 648 77.435404 
" clip-path="url(#p447a163953)" style="fill: none; stroke-dasharray: 2.96,1.28; stroke-dashoffset: 0; stroke: #b0b0b0; stroke-width: 0.8"/>
     </g>
     <g id="line2d_22">
      <g>
       <use xlink:href="#mbe8ebf34b5" x="90" y="77.435404" style="stroke: #000000; stroke-width: 0.8"/>
      </g>
     </g>
     <g id="text_12">
      <!-- $\mathdefault{10^{-1}}$ -->
      <g transform="translate(59.5 81.234622) scale(0.1 -0.1)">
       <use xlink:href="#DejaVuSans-31" transform="translate(0 0.684375)"/>
       <use xlink:href="#DejaVuSans-30" transform="translate(63.623047 0.684375)"/>
       <use xlink:href="#DejaVuSans-2212" transform="translate(128.203125 38.965625) scale(0.7)"/>
       <use xlink:href="#DejaVuSans-31" transform="translate(186.855469 38.965625) scale(0.7)"/>
      </g>
     </g>
    </g>
    <g id="ytick_6">
     <g id="line2d_23">
      <path d="M 90 383.378237 
L 648 383.378237 
" clip-path="url(#p447a163953)" style="fill: none; stroke-dasharray: 2.96,1.28; stroke-dashoffset: 0; stroke: #b0b0b0; stroke-width: 0.8"/>
     </g>
     <g id="line2d_24">
      <defs>
       <path id="m9aa967c9a2" d="M 0 0 
L -2 0 
" style="stroke: #000000; stroke-width: 0.6"/>
      </defs>
      <g>
       <use xlink:href="#m9aa967c9a2" x="90" y="383.378237" style="stroke: #000000; stroke-width: 0.6"/>
      </g>
     </g>
    </g>
    <g id="ytick_7">
     <g id="line2d_25">
      <path d="M 90 374.926957 
L 648 374.926957 
" clip-path="url(#p447a163953)" style="fill: none; stroke-dasharray: 2.96,1.28; stroke-dashoffset: 0; stroke: #b0b0b0; stroke-width: 0.8"/>
     </g>
     <g id="line2d_26">
      <g>
       <use xlink:href="#m9aa967c9a2" x="90" y="374.926957" style="stroke: #000000; stroke-width: 0.6"/>
      </g>
     </g>
    </g>
    <g id="ytick_8">
     <g id="line2d_27">
      <path d="M 90 368.371636 
L 648 368.371636 
" clip-path="url(#p447a163953)" style="fill: none; stroke-dasharray: 2.96,1.28; stroke-dashoffset: 0; stroke: #b0b0b0; stroke-width: 0.8"/>
     </g>
     <g id="line2d_28">
      <g>
       <use xlink:href="#m9aa967c9a2" x="90" y="368.371636" style="stroke: #000000; stroke-width: 0.6"/>
      </g>
     </g>
    </g>
    <g id="ytick_9">
     <g id="line2d_29">
      <path d="M 90 363.015548 
L 648 363.015548 
" clip-path="url(#p447a163953)" style="fill: none; stroke-dasharray: 2.96,1.28; stroke-dashoffset: 0; stroke: #b0b0b0; stroke-width: 0.8"/>
     </g>
     <g id="line2d_30">
      <g>
       <use xlink:href="#m9aa967c9a2" x="90" y="363.015548" style="stroke: #000000; stroke-width: 0.6"/>
      </g>
     </g>
    </g>
    <g id="ytick_10">
     <g id="line2d_31">
      <path d="M 90 358.487041 
L 648 358.487041 
" clip-path="url(#p447a163953)" style="fill: none; stroke-dasharray: 2.96,1.28; stroke-dashoffset: 0; stroke: #b0b0b0; stroke-width: 0.8"/>
     </g>
     <g id="line2d_32">
      <g>
       <use xlink:href="#m9aa967c9a2" x="90" y="358.487041" style="stroke: #000000; stroke-width: 0.6"/>
      </g>
     </g>
    </g>
    <g id="ytick_11">
     <g id="line2d_33">
      <path d="M 90 354.564269 
L 648 354.564269 
" clip-path="url(#p447a163953)" style="fill: none; stroke-dasharray: 2.96,1.28; stroke-dashoffset: 0; stroke: #b0b0b0; stroke-width: 0.8"/>
     </g>
     <g id="line2d_34">
      <g>
       <use xlink:href="#m9aa967c9a2" x="90" y="354.564269" style="stroke: #000000; stroke-width: 0.6"/>
      </g>
     </g>
    </g>
    <g id="ytick_12">
     <g id="line2d_35">
      <path d="M 90 351.104139 
L 648 351.104139 
" clip-path="url(#p447a163953)" style="fill: none; stroke-dasharray: 2.96,1.28; stroke-dashoffset: 0; stroke: #b0b0b0; stroke-width: 0.8"/>
     </g>
     <g id="line2d_36">
      <g>
       <use xlink:href="#m9aa967c9a2" x="90" y="351.104139" style="stroke: #000000; stroke-width: 0.6"/>
      </g>
     </g>
    </g>
    <g id="ytick_13">
     <g id="line2d_37">
      <path d="M 90 327.64626 
L 648 327.64626 
" clip-path="url(#p447a163953)" style="fill: none; stroke-dasharray: 2.96,1.28; stroke-dashoffset: 0; stroke: #b0b0b0; stroke-width: 0.8"/>
     </g>
     <g id="line2d_38">
      <g>
       <use xlink:href="#m9aa967c9a2" x="90" y="327.64626" style="stroke: #000000; stroke-width: 0.6"/>
      </g>
     </g>
    </g>
    <g id="ytick_14">
     <g id="line2d_39">
      <path d="M 90 315.734851 
L 648 315.734851 
" clip-path="url(#p447a163953)" style="fill: none; stroke-dasharray: 2.96,1.28; stroke-dashoffset: 0; stroke: #b0b0b0; stroke-width: 0.8"/>
     </g>
     <g id="line2d_40">
      <g>
       <use xlink:href="#m9aa967c9a2" x="90" y="315.734851" style="stroke: #000000; stroke-width: 0.6"/>
      </g>
     </g>
    </g>
    <g id="ytick_15">
     <g id="line2d_41">
      <path d="M 90 307.283571 
L 648 307.283571 
" clip-path="url(#p447a163953)" style="fill: none; stroke-dasharray: 2.96,1.28; stroke-dashoffset: 0; stroke: #b0b0b0; stroke-width: 0.8"/>
     </g>
     <g id="line2d_42">
      <g>
       <use xlink:href="#m9aa967c9a2" x="90" y="307.283571" style="stroke: #000000; stroke-width: 0.6"/>
      </g>
     </g>
    </g>
    <g id="ytick_16">
     <g id="line2d_43">
      <path d="M 90 300.72825 
L 648 300.72825 
" clip-path="url(#p447a163953)" style="fill: none; stroke-dasharray: 2.96,1.28; stroke-dashoffset: 0; stroke: #b0b0b0; stroke-width: 0.8"/>
     </g>
     <g id="line2d_44">
      <g>
       <use xlink:href="#m9aa967c9a2" x="90" y="300.72825" style="stroke: #000000; stroke-width: 0.6"/>
      </g>
     </g>
    </g>
    <g id="ytick_17">
     <g id="line2d_45">
      <path d="M 90 295.372162 
L 648 295.372162 
" clip-path="url(#p447a163953)" style="fill: none; stroke-dasharray: 2.96,1.28; stroke-dashoffset: 0; stroke: #b0b0b0; stroke-width: 0.8"/>
     </g>
     <g id="line2d_46">
      <g>
       <use xlink:href="#m9aa967c9a2" x="90" y="295.372162" style="stroke: #000000; stroke-width: 0.6"/>
      </g>
     </g>
    </g>
    <g id="ytick_18">
     <g id="line2d_47">
      <path d="M 90 290.843655 
L 648 290.843655 
" clip-path="url(#p447a163953)" style="fill: none; stroke-dasharray: 2.96,1.28; stroke-dashoffset: 0; stroke: #b0b0b0; stroke-width: 0.8"/>
     </g>
     <g id="line2d_48">
      <g>
       <use xlink:href="#m9aa967c9a2" x="90" y="290.843655" style="stroke: #000000; stroke-width: 0.6"/>
      </g>
     </g>
    </g>
    <g id="ytick_19">
     <g id="line2d_49">
      <path d="M 90 286.920883 
L 648 286.920883 
" clip-path="url(#p447a163953)" style="fill: none; stroke-dasharray: 2.96,1.28; stroke-dashoffset: 0; stroke: #b0b0b0; stroke-width: 0.8"/>
     </g>
     <g id="line2d_50">
      <g>
       <use xlink:href="#m9aa967c9a2" x="90" y="286.920883" style="stroke: #000000; stroke-width: 0.6"/>
      </g>
     </g>
    </g>
    <g id="ytick_20">
     <g id="line2d_51">
      <path d="M 90 283.460753 
L 648 283.460753 
" clip-path="url(#p447a163953)" style="fill: none; stroke-dasharray: 2.96,1.28; stroke-dashoffset: 0; stroke: #b0b0b0; stroke-width: 0.8"/>
     </g>
     <g id="line2d_52">
      <g>
       <use xlink:href="#m9aa967c9a2" x="90" y="283.460753" style="stroke: #000000; stroke-width: 0.6"/>
      </g>
     </g>
    </g>
    <g id="ytick_21">
     <g id="line2d_53">
      <path d="M 90 260.002873 
L 648 260.002873 
" clip-path="url(#p447a163953)" style="fill: none; stroke-dasharray: 2.96,1.28; stroke-dashoffset: 0; stroke: #b0b0b0; stroke-width: 0.8"/>
     </g>
     <g id="line2d_54">
      <g>
       <use xlink:href="#m9aa967c9a2" x="90" y="260.002873" style="stroke: #000000; stroke-width: 0.6"/>
      </g>
     </g>
    </g>
    <g id="ytick_22">
     <g id="line2d_55">
      <path d="M 90 248.091464 
L 648 248.091464 
" clip-path="url(#p447a163953)" style="fill: none; stroke-dasharray: 2.96,1.28; stroke-dashoffset: 0; stroke: #b0b0b0; stroke-width: 0.8"/>
     </g>
     <g id="line2d_56">
      <g>
       <use xlink:href="#m9aa967c9a2" x="90" y="248.091464" style="stroke: #000000; stroke-width: 0.6"/>
      </g>
     </g>
    </g>
    <g id="ytick_23">
     <g id="line2d_57">
      <path d="M 90 239.640185 
L 648 239.640185 
" clip-path="url(#p447a163953)" style="fill: none; stroke-dasharray: 2.96,1.28; stroke-dashoffset: 0; stroke: #b0b0b0; stroke-width: 0.8"/>
     </g>
     <g id="line2d_58">
      <g>
       <use xlink:href="#m9aa967c9a2" x="90" y="239.640185" style="stroke: #000000; stroke-width: 0.6"/>
      </g>
     </g>
    </g>
    <g id="ytick_24">
     <g id="line2d_59">
      <path d="M 90 233.084864 
L 648 233.084864 
" clip-path="url(#p447a163953)" style="fill: none; stroke-dasharray: 2.96,1.28; stroke-dashoffset: 0; stroke: #b0b0b0; stroke-width: 0.8"/>
     </g>
     <g id="line2d_60">
      <g>
       <use xlink:href="#m9aa967c9a2" x="90" y="233.084864" style="stroke: #000000; stroke-width: 0.6"/>
      </g>
     </g>
    </g>
    <g id="ytick_25">
     <g id="line2d_61">
      <path d="M 90 227.728776 
L 648 227.728776 
" clip-path="url(#p447a163953)" style="fill: none; stroke-dasharray: 2.96,1.28; stroke-dashoffset: 0; stroke: #b0b0b0; stroke-width: 0.8"/>
     </g>
     <g id="line2d_62">
      <g>
       <use xlink:href="#m9aa967c9a2" x="90" y="227.728776" style="stroke: #000000; stroke-width: 0.6"/>
      </g>
     </g>
    </g>
    <g id="ytick_26">
     <g id="line2d_63">
      <path d="M 90 223.200269 
L 648 223.200269 
" clip-path="url(#p447a163953)" style="fill: none; stroke-dasharray: 2.96,1.28; stroke-dashoffset: 0; stroke: #b0b0b0; stroke-width: 0.8"/>
     </g>
     <g id="line2d_64">
      <g>
       <use xlink:href="#m9aa967c9a2" x="90" y="223.200269" style="stroke: #000000; stroke-width: 0.6"/>
      </g>
     </g>
    </g>
    <g id="ytick_27">
     <g id="line2d_65">
      <path d="M 90 219.277497 
L 648 219.277497 
" clip-path="url(#p447a163953)" style="fill: none; stroke-dasharray: 2.96,1.28; stroke-dashoffset: 0; stroke: #b0b0b0; stroke-width: 0.8"/>
     </g>
     <g id="line2d_66">
      <g>
       <use xlink:href="#m9aa967c9a2" x="90" y="219.277497" style="stroke: #000000; stroke-width: 0.6"/>
      </g>
     </g>
    </g>
    <g id="ytick_28">
     <g id="line2d_67">
      <path d="M 90 215.817367 
L 648 215.817367 
" clip-path="url(#p447a163953)" style="fill: none; stroke-dasharray: 2.96,1.28; stroke-dashoffset: 0; stroke: #b0b0b0; stroke-width: 0.8"/>
     </g>
     <g id="line2d_68">
      <g>
       <use xlink:href="#m9aa967c9a2" x="90" y="215.817367" style="stroke: #000000; stroke-width: 0.6"/>
      </g>
     </g>
    </g>
    <g id="ytick_29">
     <g id="line2d_69">
      <path d="M 90 192.359487 
L 648 192.359487 
" clip-path="url(#p447a163953)" style="fill: none; stroke-dasharray: 2.96,1.28; stroke-dashoffset: 0; stroke: #b0b0b0; stroke-width: 0.8"/>
     </g>
     <g id="line2d_70">
      <g>
       <use xlink:href="#m9aa967c9a2" x="90" y="192.359487" style="stroke: #000000; stroke-width: 0.6"/>
      </g>
     </g>
    </g>
    <g id="ytick_30">
     <g id="line2d_71">
      <path d="M 90 180.448078 
L 648 180.448078 
" clip-path="url(#p447a163953)" style="fill: none; stroke-dasharray: 2.96,1.28; stroke-dashoffset: 0; stroke: #b0b0b0; stroke-width: 0.8"/>
     </g>
     <g id="line2d_72">
      <g>
       <use xlink:href="#m9aa967c9a2" x="90" y="180.448078" style="stroke: #000000; stroke-width: 0.6"/>
      </g>
     </g>
    </g>
    <g id="ytick_31">
     <g id="line2d_73">
      <path d="M 90 171.996799 
L 648 171.996799 
" clip-path="url(#p447a163953)" style="fill: none; stroke-dasharray: 2.96,1.28; stroke-dashoffset: 0; stroke: #b0b0b0; stroke-width: 0.8"/>
     </g>
     <g id="line2d_74">
      <g>
       <use xlink:href="#m9aa967c9a2" x="90" y="171.996799" style="stroke: #000000; stroke-width: 0.6"/>
      </g>
     </g>
    </g>
    <g id="ytick_32">
     <g id="line2d_75">
      <path d="M 90 165.441478 
L 648 165.441478 
" clip-path="url(#p447a163953)" style="fill: none; stroke-dasharray: 2.96,1.28; stroke-dashoffset: 0; stroke: #b0b0b0; stroke-width: 0.8"/>
     </g>
     <g id="line2d_76">
      <g>
       <use xlink:href="#m9aa967c9a2" x="90" y="165.441478" style="stroke: #000000; stroke-width: 0.6"/>
      </g>
     </g>
    </g>
    <g id="ytick_33">
     <g id="line2d_77">
      <path d="M 90 160.08539 
L 648 160.08539 
" clip-path="url(#p447a163953)" style="fill: none; stroke-dasharray: 2.96,1.28; stroke-dashoffset: 0; stroke: #b0b0b0; stroke-width: 0.8"/>
     </g>
     <g id="line2d_78">
      <g>
       <use xlink:href="#m9aa967c9a2" x="90" y="160.08539" style="stroke: #000000; stroke-width: 0.6"/>
      </g>
     </g>
    </g>
    <g id="ytick_34">
     <g id="line2d_79">
      <path d="M 90 155.556883 
L 648 155.556883 
" clip-path="url(#p447a163953)" style="fill: none; stroke-dasharray: 2.96,1.28; stroke-dashoffset: 0; stroke: #b0b0b0; stroke-width: 0.8"/>
     </g>
     <g id="line2d_80">
      <g>
       <use xlink:href="#m9aa967c9a2" x="90" y="155.556883" style="stroke: #000000; stroke-width: 0.6"/>
      </g>
     </g>
    </g>
    <g id="ytick_35">
     <g id="line2d_81">
      <path d="M 90 151.634111 
L 648 151.634111 
" clip-path="url(#p447a163953)" style="fill: none; stroke-dasharray: 2.96,1.28; stroke-dashoffset: 0; stroke: #b0b0b0; stroke-width: 0.8"/>
     </g>
     <g id="line2d_82">
      <g>
       <use xlink:href="#m9aa967c9a2" x="90" y="151.634111" style="stroke: #000000; stroke-width: 0.6"/>
      </g>
     </g>
    </g>
    <g id="ytick_36">
     <g id="line2d_83">
      <path d="M 90 148.173981 
L 648 148.173981 
" clip-path="url(#p447a163953)" style="fill: none; stroke-dasharray: 2.96,1.28; stroke-dashoffset: 0; stroke: #b0b0b0; stroke-width: 0.8"/>
     </g>
     <g id="line2d_84">
      <g>
       <use xlink:href="#m9aa967c9a2" x="90" y="148.173981" style="stroke: #000000; stroke-width: 0.6"/>
      </g>
     </g>
    </g>
    <g id="ytick_37">
     <g id="line2d_85">
      <path d="M 90 124.716101 
L 648 124.716101 
" clip-path="url(#p447a163953)" style="fill: none; stroke-dasharray: 2.96,1.28; stroke-dashoffset: 0; stroke: #b0b0b0; stroke-width: 0.8"/>
     </g>
     <g id="line2d_86">
      <g>
       <use xlink:href="#m9aa967c9a2" x="90" y="124.716101" style="stroke: #000000; stroke-width: 0.6"/>
      </g>
     </g>
    </g>
    <g id="ytick_38">
     <g id="line2d_87">
      <path d="M 90 112.804692 
L 648 112.804692 
" clip-path="url(#p447a163953)" style="fill: none; stroke-dasharray: 2.96,1.28; stroke-dashoffset: 0; stroke: #b0b0b0; stroke-width: 0.8"/>
     </g>
     <g id="line2d_88">
      <g>
       <use xlink:href="#m9aa967c9a2" x="90" y="112.804692" style="stroke: #000000; stroke-width: 0.6"/>
      </g>
     </g>
    </g>
    <g id="ytick_39">
     <g id="line2d_89">
      <path d="M 90 104.353413 
L 648 104.353413 
" clip-path="url(#p447a163953)" style="fill: none; stroke-dasharray: 2.96,1.28; stroke-dashoffset: 0; stroke: #b0b0b0; stroke-width: 0.8"/>
     </g>
     <g id="line2d_90">
      <g>
       <use xlink:href="#m9aa967c9a2" x="90" y="104.353413" style="stroke: #000000; stroke-width: 0.6"/>
      </g>
     </g>
    </g>
    <g id="ytick_40">
     <g id="line2d_91">
      <path d="M 90 97.798092 
L 648 97.798092 
" clip-path="url(#p447a163953)" style="fill: none; stroke-dasharray: 2.96,1.28; stroke-dashoffset: 0; stroke: #b0b0b0; stroke-width: 0.8"/>
     </g>
     <g id="line2d_92">
      <g>
       <use xlink:href="#m9aa967c9a2" x="90" y="97.798092" style="stroke: #000000; stroke-width: 0.6"/>
      </g>
     </g>
    </g>
    <g id="ytick_41">
     <g id="line2d_93">
      <path d="M 90 92.442004 
L 648 92.442004 
" clip-path="url(#p447a163953)" style="fill: none; stroke-dasharray: 2.96,1.28; stroke-dashoffset: 0; stroke: #b0b0b0; stroke-width: 0.8"/>
     </g>
     <g id="line2d_94">
      <g>
       <use xlink:href="#m9aa967c9a2" x="90" y="92.442004" style="stroke: #000000; stroke-width: 0.6"/>
      </g>
     </g>
    </g>
    <g id="ytick_42">
     <g id="line2d_95">
      <path d="M 90 87.913497 
L 648 87.913497 
" clip-path="url(#p447a163953)" style="fill: none; stroke-dasharray: 2.96,1.28; stroke-dashoffset: 0; stroke: #b0b0b0; stroke-width: 0.8"/>
     </g>
     <g id="line2d_96">
      <g>
       <use xlink:href="#m9aa967c9a2" x="90" y="87.913497" style="stroke: #000000; stroke-width: 0.6"/>
      </g>
     </g>
    </g>
    <g id="ytick_43">
     <g id="line2d_97">
      <path d="M 90 83.990725 
L 648 83.990725 
" clip-path="url(#p447a163953)" style="fill: none; stroke-dasharray: 2.96,1.28; stroke-dashoffset: 0; stroke: #b0b0b0; stroke-width: 0.8"/>
     </g>
     <g id="line2d_98">
      <g>
       <use xlink:href="#m9aa967c9a2" x="90" y="83.990725" style="stroke: #000000; stroke-width: 0.6"/>
      </g>
     </g>
    </g>
    <g id="ytick_44">
     <g id="line2d_99">
      <path d="M 90 80.530595 
L 648 80.530595 
" clip-path="url(#p447a163953)" style="fill: none; stroke-dasharray: 2.96,1.28; stroke-dashoffset: 0; stroke: #b0b0b0; stroke-width: 0.8"/>
     </g>
     <g id="line2d_100">
      <g>
       <use xlink:href="#m9aa967c9a2" x="90" y="80.530595" style="stroke: #000000; stroke-width: 0.6"/>
      </g>
     </g>
    </g>
    <g id="ytick_45">
     <g id="line2d_101">
      <path d="M 90 57.072715 
L 648 57.072715 
" clip-path="url(#p447a163953)" style="fill: none; stroke-dasharray: 2.96,1.28; stroke-dashoffset: 0; stroke: #b0b0b0; stroke-width: 0.8"/>
     </g>
     <g id="line2d_102">
      <g>
       <use xlink:href="#m9aa967c9a2" x="90" y="57.072715" style="stroke: #000000; stroke-width: 0.6"/>
      </g>
     </g>
    </g>
    <g id="text_13">
     <!-- Huber Loss (Normalized) -->
     <g transform="translate(53.420312 279.7975) rotate(-90) scale(0.1 -0.1)">
      <defs>
       <path id="DejaVuSans-48" d="M 628 4666 
L 1259 4666 
L 1259 2753 
L 3553 2753 
L 3553 4666 
L 4184 4666 
L 4184 0 
L 3553 0 
L 3553 2222 
L 1259 2222 
L 1259 0 
L 628 0 
L 628 4666 
z
" transform="scale(0.015625)"/>
       <path id="DejaVuSans-75" d="M 544 1381 
L 544 3500 
L 1119 3500 
L 1119 1403 
Q 1119 906 1312 657 
Q 1506 409 1894 409 
Q 2359 409 2629 706 
Q 2900 1003 2900 1516 
L 2900 3500 
L 3475 3500 
L 3475 0 
L 2900 0 
L 2900 538 
Q 2691 219 2414 64 
Q 2138 -91 1772 -91 
Q 1169 -91 856 284 
Q 544 659 544 1381 
z
M 1991 3584 
L 1991 3584 
z
" transform="scale(0.015625)"/>
       <path id="DejaVuSans-62" d="M 3116 1747 
Q 3116 2381 2855 2742 
Q 2594 3103 2138 3103 
Q 1681 3103 1420 2742 
Q 1159 2381 1159 1747 
Q 1159 1113 1420 752 
Q 1681 391 2138 391 
Q 2594 391 2855 752 
Q 3116 1113 3116 1747 
z
M 1159 2969 
Q 1341 3281 1617 3432 
Q 1894 3584 2278 3584 
Q 2916 3584 3314 3078 
Q 3713 2572 3713 1747 
Q 3713 922 3314 415 
Q 2916 -91 2278 -91 
Q 1894 -91 1617 61 
Q 1341 213 1159 525 
L 1159 0 
L 581 0 
L 581 4863 
L 1159 4863 
L 1159 2969 
z
" transform="scale(0.015625)"/>
       <path id="DejaVuSans-65" d="M 3597 1894 
L 3597 1613 
L 953 1613 
Q 991 1019 1311 708 
Q 1631 397 2203 397 
Q 2534 397 2845 478 
Q 3156 559 3463 722 
L 3463 178 
Q 3153 47 2828 -22 
Q 2503 -91 2169 -91 
Q 1331 -91 842 396 
Q 353 884 353 1716 
Q 353 2575 817 3079 
Q 1281 3584 2069 3584 
Q 2775 3584 3186 3129 
Q 3597 2675 3597 1894 
z
M 3022 2063 
Q 3016 2534 2758 2815 
Q 2500 3097 2075 3097 
Q 1594 3097 1305 2825 
Q 1016 2553 972 2059 
L 3022 2063 
z
" transform="scale(0.015625)"/>
       <path id="DejaVuSans-72" d="M 2631 2963 
Q 2534 3019 2420 3045 
Q 2306 3072 2169 3072 
Q 1681 3072 1420 2755 
Q 1159 2438 1159 1844 
L 1159 0 
L 581 0 
L 581 3500 
L 1159 3500 
L 1159 2956 
Q 1341 3275 1631 3429 
Q 1922 3584 2338 3584 
Q 2397 3584 2469 3576 
Q 2541 3569 2628 3553 
L 2631 2963 
z
" transform="scale(0.015625)"/>
       <path id="DejaVuSans-20" transform="scale(0.015625)"/>
       <path id="DejaVuSans-4c" d="M 628 4666 
L 1259 4666 
L 1259 531 
L 3531 531 
L 3531 0 
L 628 0 
L 628 4666 
z
" transform="scale(0.015625)"/>
       <path id="DejaVuSans-73" d="M 2834 3397 
L 2834 2853 
Q 2591 2978 2328 3040 
Q 2066 3103 1784 3103 
Q 1356 3103 1142 2972 
Q 928 2841 928 2578 
Q 928 2378 1081 2264 
Q 1234 2150 1697 2047 
L 1894 2003 
Q 2506 1872 2764 1633 
Q 3022 1394 3022 966 
Q 3022 478 2636 193 
Q 2250 -91 1575 -91 
Q 1294 -91 989 -36 
Q 684 19 347 128 
L 347 722 
Q 666 556 975 473 
Q 1284 391 1588 391 
Q 1994 391 2212 530 
Q 2431 669 2431 922 
Q 2431 1156 2273 1281 
Q 2116 1406 1581 1522 
L 1381 1569 
Q 847 1681 609 1914 
Q 372 2147 372 2553 
Q 372 3047 722 3315 
Q 1072 3584 1716 3584 
Q 2034 3584 2315 3537 
Q 2597 3491 2834 3397 
z
" transform="scale(0.015625)"/>
       <path id="DejaVuSans-28" d="M 1984 4856 
Q 1566 4138 1362 3434 
Q 1159 2731 1159 2009 
Q 1159 1288 1364 580 
Q 1569 -128 1984 -844 
L 1484 -844 
Q 1016 -109 783 600 
Q 550 1309 550 2009 
Q 550 2706 781 3412 
Q 1013 4119 1484 4856 
L 1984 4856 
z
" transform="scale(0.015625)"/>
       <path id="DejaVuSans-4e" d="M 628 4666 
L 1478 4666 
L 3547 763 
L 3547 4666 
L 4159 4666 
L 4159 0 
L 3309 0 
L 1241 3903 
L 1241 0 
L 628 0 
L 628 4666 
z
" transform="scale(0.015625)"/>
       <path id="DejaVuSans-6d" d="M 3328 2828 
Q 3544 3216 3844 3400 
Q 4144 3584 4550 3584 
Q 5097 3584 5394 3201 
Q 5691 2819 5691 2113 
L 5691 0 
L 5113 0 
L 5113 2094 
Q 5113 2597 4934 2840 
Q 4756 3084 4391 3084 
Q 3944 3084 3684 2787 
Q 3425 2491 3425 1978 
L 3425 0 
L 2847 0 
L 2847 2094 
Q 2847 2600 2669 2842 
Q 2491 3084 2119 3084 
Q 1678 3084 1418 2786 
Q 1159 2488 1159 1978 
L 1159 0 
L 581 0 
L 581 3500 
L 1159 3500 
L 1159 2956 
Q 1356 3278 1631 3431 
Q 1906 3584 2284 3584 
Q 2666 3584 2933 3390 
Q 3200 3197 3328 2828 
z
" transform="scale(0.015625)"/>
       <path id="DejaVuSans-61" d="M 2194 1759 
Q 1497 1759 1228 1600 
Q 959 1441 959 1056 
Q 959 750 1161 570 
Q 1363 391 1709 391 
Q 2188 391 2477 730 
Q 2766 1069 2766 1631 
L 2766 1759 
L 2194 1759 
z
M 3341 1997 
L 3341 0 
L 2766 0 
L 2766 531 
Q 2569 213 2275 61 
Q 1981 -91 1556 -91 
Q 1019 -91 701 211 
Q 384 513 384 1019 
Q 384 1609 779 1909 
Q 1175 2209 1959 2209 
L 2766 2209 
L 2766 2266 
Q 2766 2663 2505 2880 
Q 2244 3097 1772 3097 
Q 1472 3097 1187 3025 
Q 903 2953 641 2809 
L 641 3341 
Q 956 3463 1253 3523 
Q 1550 3584 1831 3584 
Q 2591 3584 2966 3190 
Q 3341 2797 3341 1997 
z
" transform="scale(0.015625)"/>
       <path id="DejaVuSans-6c" d="M 603 4863 
L 1178 4863 
L 1178 0 
L 603 0 
L 603 4863 
z
" transform="scale(0.015625)"/>
       <path id="DejaVuSans-69" d="M 603 3500 
L 1178 3500 
L 1178 0 
L 603 0 
L 603 3500 
z
M 603 4863 
L 1178 4863 
L 1178 4134 
L 603 4134 
L 603 4863 
z
" transform="scale(0.015625)"/>
       <path id="DejaVuSans-7a" d="M 353 3500 
L 3084 3500 
L 3084 2975 
L 922 459 
L 3084 459 
L 3084 0 
L 275 0 
L 275 525 
L 2438 3041 
L 353 3041 
L 353 3500 
z
" transform="scale(0.015625)"/>
       <path id="DejaVuSans-64" d="M 2906 2969 
L 2906 4863 
L 3481 4863 
L 3481 0 
L 2906 0 
L 2906 525 
Q 2725 213 2448 61 
Q 2172 -91 1784 -91 
Q 1150 -91 751 415 
Q 353 922 353 1747 
Q 353 2572 751 3078 
Q 1150 3584 1784 3584 
Q 2172 3584 2448 3432 
Q 2725 3281 2906 2969 
z
M 947 1747 
Q 947 1113 1208 752 
Q 1469 391 1925 391 
Q 2381 391 2643 752 
Q 2906 1113 2906 1747 
Q 2906 2381 2643 2742 
Q 2381 3103 1925 3103 
Q 1469 3103 1208 2742 
Q 947 2381 947 1747 
z
" transform="scale(0.015625)"/>
       <path id="DejaVuSans-29" d="M 513 4856 
L 1013 4856 
Q 1481 4119 1714 3412 
Q 1947 2706 1947 2009 
Q 1947 1309 1714 600 
Q 1481 -109 1013 -844 
L 513 -844 
Q 928 -128 1133 580 
Q 1338 1288 1338 2009 
Q 1338 2731 1133 3434 
Q 928 4138 513 4856 
z
" transform="scale(0.015625)"/>
      </defs>
      <use xlink:href="#DejaVuSans-48"/>
      <use xlink:href="#DejaVuSans-75" transform="translate(75.195312 0)"/>
      <use xlink:href="#DejaVuSans-62" transform="translate(138.574219 0)"/>
      <use xlink:href="#DejaVuSans-65" transform="translate(202.050781 0)"/>
      <use xlink:href="#DejaVuSans-72" transform="translate(263.574219 0)"/>
      <use xlink:href="#DejaVuSans-20" transform="translate(304.6875 0)"/>
      <use xlink:href="#DejaVuSans-4c" transform="translate(336.474609 0)"/>
      <use xlink:href="#DejaVuSans-6f" transform="translate(390.4375 0)"/>
      <use xlink:href="#DejaVuSans-73" transform="translate(451.619141 0)"/>
      <use xlink:href="#DejaVuSans-73" transform="translate(503.71875 0)"/>
      <use xlink:href="#DejaVuSans-20" transform="translate(555.818359 0)"/>
      <use xlink:href="#DejaVuSans-28" transform="translate(587.605469 0)"/>
      <use xlink:href="#DejaVuSans-4e" transform="translate(626.619141 0)"/>
      <use xlink:href="#DejaVuSans-6f" transform="translate(701.423828 0)"/>
      <use xlink:href="#DejaVuSans-72" transform="translate(762.605469 0)"/>
      <use xlink:href="#DejaVuSans-6d" transform="translate(801.96875 0)"/>
      <use xlink:href="#DejaVuSans-61" transform="translate(899.380859 0)"/>
      <use xlink:href="#DejaVuSans-6c" transform="translate(960.660156 0)"/>
      <use xlink:href="#DejaVuSans-69" transform="translate(988.443359 0)"/>
      <use xlink:href="#DejaVuSans-7a" transform="translate(1016.226562 0)"/>
      <use xlink:href="#DejaVuSans-65" transform="translate(1068.716797 0)"/>
      <use xlink:href="#DejaVuSans-64" transform="translate(1130.240234 0)"/>
      <use xlink:href="#DejaVuSans-29" transform="translate(1193.716797 0)"/>
     </g>
    </g>
   </g>
   <g id="line2d_103">
    <path d="M 115.363636 66.96 
L 116.378182 146.414778 
L 117.392727 173.122866 
L 118.407273 186.537689 
L 119.421818 198.071923 
L 120.436364 204.901452 
L 121.450909 214.484301 
L 123.48 230.709773 
L 124.494545 234.702636 
L 125.509091 235.791523 
L 127.538182 243.649908 
L 128.552727 243.455481 
L 129.567273 249.198605 
L 130.581818 253.437918 
L 131.596364 251.030989 
L 132.610909 252.574719 
L 133.625455 250.965476 
L 134.64 255.557421 
L 135.654545 254.970765 
L 136.669091 252.066716 
L 137.683636 250.54542 
L 138.698182 246.975511 
L 139.712727 240.338262 
L 140.727273 251.930475 
L 141.741818 256.888386 
L 142.756364 239.639994 
L 143.770909 249.751766 
L 144.785455 256.508306 
L 145.8 261.932035 
L 146.814545 263.142861 
L 148.843636 268.36885 
L 149.858182 256.056401 
L 150.872727 261.883799 
L 151.887273 254.984818 
L 153.916364 236.254239 
L 154.930909 258.940588 
L 155.945455 273.727807 
L 156.96 264.562189 
L 157.974545 252.391653 
L 158.989091 247.591252 
L 160.003636 251.222036 
L 161.018182 261.8126 
L 162.032727 270.912553 
L 163.047273 267.99407 
L 164.061818 270.557912 
L 165.076364 273.524967 
L 166.090909 254.158242 
L 167.105455 261.116854 
L 168.12 248.416396 
L 169.134545 253.232097 
L 170.149091 260.976168 
L 171.163636 280.390993 
L 172.178182 281.901258 
L 173.192727 258.824172 
L 174.207273 255.128192 
L 175.221818 259.239086 
L 176.236364 265.304874 
L 177.250909 276.881586 
L 178.265455 269.73769 
L 179.28 250.248496 
L 180.294545 259.332864 
L 181.309091 267.16772 
L 182.323636 278.373803 
L 183.338182 286.175022 
L 184.352727 288.70513 
L 185.367273 288.22987 
L 186.381818 287.100995 
L 187.396364 265.849279 
L 188.410909 263.204659 
L 189.425455 279.602471 
L 190.44 269.300962 
L 191.454545 248.098601 
L 192.469091 268.256003 
L 193.483636 267.772997 
L 194.498182 269.04382 
L 195.512727 255.293979 
L 196.527273 257.107581 
L 197.541818 277.161773 
L 198.556364 285.035561 
L 199.570909 261.037328 
L 200.585455 278.388759 
L 201.6 287.837307 
L 202.614545 288.417733 
L 203.629091 257.423537 
L 204.643636 247.775677 
L 205.658182 257.5717 
L 206.672727 242.336943 
L 207.687273 229.65727 
L 208.701818 250.747814 
L 209.716364 275.227421 
L 210.730909 291.726704 
L 211.745455 297.600048 
L 212.76 300.298329 
L 213.774545 294.290121 
L 214.789091 299.869228 
L 215.803636 278.532479 
L 216.818182 277.406349 
L 217.832727 274.264345 
L 218.847273 267.74808 
L 219.861818 230.366982 
L 220.876364 218.077722 
L 221.890909 252.17259 
L 222.905455 263.413699 
L 223.92 271.079294 
L 224.934545 274.135732 
L 225.949091 286.888868 
L 226.963636 288.798449 
L 227.978182 293.810208 
L 228.992727 302.366388 
L 230.007273 302.729042 
L 231.021818 294.514553 
L 232.036364 259.31024 
L 233.050909 285.164718 
L 234.065455 283.150559 
L 235.08 288.986007 
L 236.094545 236.839993 
L 237.109091 258.46363 
L 238.123636 274.782947 
L 239.138182 294.79178 
L 240.152727 299.988889 
L 241.167273 303.694171 
L 242.181818 296.206525 
L 243.196364 304.506994 
L 244.210909 303.333172 
L 245.225455 279.162988 
L 246.24 263.742161 
L 247.254545 267.073351 
L 248.269091 269.130255 
L 249.283636 261.794805 
L 251.312727 264.237707 
L 252.327273 268.601108 
L 253.341818 274.506565 
L 254.356364 284.868907 
L 255.370909 269.256622 
L 256.385455 292.961449 
L 257.4 291.242197 
L 258.414545 288.587287 
L 259.429091 282.965354 
L 260.443636 273.935579 
L 261.458182 295.690537 
L 262.472727 281.912937 
L 263.487273 212.874841 
L 264.501818 229.708019 
L 265.516364 273.844287 
L 266.530909 284.702071 
L 267.545455 302.186508 
L 268.56 301.766891 
L 270.589091 312.396518 
L 271.603636 318.443088 
L 272.618182 318.340645 
L 273.632727 316.358696 
L 274.647273 310.14881 
L 275.661818 311.003855 
L 276.676364 309.971976 
L 277.690909 306.678422 
L 278.705455 308.658463 
L 279.72 304.520324 
L 280.734545 303.817003 
L 281.749091 294.319015 
L 283.778182 309.404586 
L 284.792727 283.620798 
L 285.807273 248.276546 
L 286.821818 253.990567 
L 287.836364 235.75551 
L 288.850909 241.867119 
L 289.865455 235.317547 
L 290.88 255.486933 
L 291.894545 256.04282 
L 292.909091 280.617333 
L 293.923636 299.113519 
L 294.938182 310.128645 
L 295.952727 318.78737 
L 296.967273 319.898964 
L 297.981818 318.419518 
L 298.996364 297.318969 
L 300.010909 319.857215 
L 301.025455 317.606828 
L 302.04 312.157865 
L 303.054545 315.293233 
L 304.069091 304.041137 
L 305.083636 309.514314 
L 306.098182 305.419966 
L 307.112727 298.693251 
L 308.127273 298.336038 
L 309.141818 305.812239 
L 311.170909 288.091417 
L 312.185455 302.954693 
L 313.2 262.580779 
L 314.214545 250.476871 
L 315.229091 280.331142 
L 316.243636 294.001439 
L 317.258182 305.468164 
L 318.272727 310.82665 
L 319.287273 291.439712 
L 320.301818 288.720777 
L 321.316364 299.764252 
L 322.330909 298.766464 
L 323.345455 298.932292 
L 324.36 279.800795 
L 325.374545 273.305233 
L 326.389091 273.236049 
L 327.403636 283.672268 
L 328.418182 289.372817 
L 329.432727 279.813601 
L 330.447273 273.617252 
L 331.461818 268.563483 
L 332.476364 241.868965 
L 333.490909 242.325846 
L 335.52 296.588522 
L 336.534545 283.697326 
L 337.549091 292.198529 
L 338.563636 313.645053 
L 339.578182 329.851066 
L 340.592727 335.744677 
L 341.607273 332.636581 
L 342.621818 332.899694 
L 343.636364 329.019927 
L 344.650909 307.744371 
L 345.665455 305.418045 
L 346.68 289.36812 
L 347.694545 289.07259 
L 348.709091 298.108732 
L 349.723636 312.064226 
L 350.738182 302.289468 
L 351.752727 302.008895 
L 352.767273 301.910005 
L 353.781818 301.380772 
L 354.796364 309.275917 
L 355.810909 300.225515 
L 356.825455 285.682901 
L 357.84 241.345552 
L 358.854545 254.447888 
L 359.869091 263.136459 
L 360.883636 275.054055 
L 361.898182 275.329101 
L 362.912727 281.526501 
L 363.927273 289.823078 
L 364.941818 307.237722 
L 365.956364 292.628582 
L 366.970909 290.303332 
L 367.985455 292.452126 
L 369 300.215281 
L 370.014545 294.09038 
L 371.029091 282.44073 
L 372.043636 297.853722 
L 373.058182 302.961117 
L 374.072727 316.813655 
L 375.087273 315.033503 
L 376.101818 306.877299 
L 377.116364 294.750905 
L 378.130909 294.074397 
L 379.145455 298.078038 
L 380.16 308.684003 
L 381.174545 306.619969 
L 382.189091 308.827537 
L 383.203636 320.433033 
L 384.218182 300.933357 
L 385.232727 273.440071 
L 386.247273 273.879047 
L 387.261818 276.103786 
L 388.276364 290.910272 
L 389.290909 293.315152 
L 390.305455 311.268083 
L 391.32 310.505575 
L 392.334545 300.993911 
L 393.349091 302.839698 
L 394.363636 297.219487 
L 395.378182 294.465212 
L 396.392727 275.643918 
L 397.407273 279.269479 
L 398.421818 288.503783 
L 400.450909 262.416574 
L 401.465455 282.775645 
L 402.48 292.242384 
L 403.494545 310.112943 
L 404.509091 313.404579 
L 405.523636 273.617677 
L 406.538182 260.971839 
L 408.567273 285.839503 
L 409.581818 287.622557 
L 411.610909 321.018192 
L 412.625455 325.353585 
L 413.64 320.959322 
L 414.654545 321.353671 
L 415.669091 321.46447 
L 416.683636 324.733416 
L 417.698182 317.014479 
L 418.712727 303.180925 
L 419.727273 283.355796 
L 420.741818 293.204814 
L 421.756364 304.983812 
L 422.770909 320.882941 
L 423.785455 320.033716 
L 424.8 318.559182 
L 425.814545 286.560221 
L 426.829091 298.220073 
L 427.843636 292.426974 
L 428.858182 283.941901 
L 429.872727 284.839521 
L 430.887273 303.295625 
L 431.901818 317.752534 
L 432.916364 319.113699 
L 433.930909 313.552033 
L 434.945455 321.984611 
L 435.96 312.287548 
L 436.974545 290.932041 
L 437.989091 290.692646 
L 439.003636 315.903644 
L 440.018182 294.921181 
L 441.032727 301.730052 
L 442.047273 298.095216 
L 443.061818 297.530068 
L 444.076364 298.411009 
L 445.090909 292.153209 
L 446.105455 269.343589 
L 447.12 281.715391 
L 448.134545 301.983057 
L 449.149091 302.57827 
L 450.163636 317.854728 
L 451.178182 329.077168 
L 452.192727 320.193575 
L 453.207273 332.390195 
L 454.221818 337.55896 
L 455.236364 336.536321 
L 456.250909 330.210207 
L 457.265455 327.153325 
L 458.28 326.060523 
L 459.294545 323.454751 
L 460.309091 327.079355 
L 461.323636 326.545683 
L 462.338182 309.465673 
L 463.352727 308.352571 
L 464.367273 305.740364 
L 465.381818 313.188059 
L 466.396364 299.837071 
L 467.410909 283.984408 
L 468.425455 279.283513 
L 469.44 297.030255 
L 470.454545 290.407773 
L 471.469091 287.009525 
L 472.483636 304.422702 
L 473.498182 312.821144 
L 474.512727 309.324965 
L 475.527273 321.72454 
L 476.541818 300.09131 
L 477.556364 270.815549 
L 478.570909 300.015364 
L 479.585455 323.514375 
L 480.6 313.864272 
L 481.614545 314.49356 
L 482.629091 316.451075 
L 483.643636 313.474737 
L 484.658182 323.365376 
L 485.672727 337.266786 
L 486.687273 322.502408 
L 487.701818 313.399448 
L 489.730909 251.58762 
L 490.745455 256.587911 
L 491.76 260.388185 
L 492.774545 276.614924 
L 493.789091 300.366598 
L 494.803636 313.803563 
L 495.818182 321.181415 
L 496.832727 340.085484 
L 497.847273 348.210627 
L 498.861818 342.226485 
L 499.876364 347.99517 
L 500.890909 343.572987 
L 501.905455 342.67097 
L 502.92 339.923553 
L 503.934545 334.014036 
L 504.949091 324.727417 
L 505.963636 323.058279 
L 506.978182 329.203201 
L 507.992727 341.12225 
L 509.007273 334.866611 
L 510.021818 313.912993 
L 511.036364 316.099964 
L 512.050909 319.400429 
L 513.065455 323.401848 
L 514.08 318.290554 
L 515.094545 318.192608 
L 516.109091 330.709749 
L 517.123636 335.669395 
L 518.138182 321.468856 
L 519.152727 320.198947 
L 520.167273 332.427538 
L 521.181818 315.347868 
L 522.196364 286.439326 
L 523.210909 299.770802 
L 524.225455 297.958602 
L 525.24 300.512584 
L 527.269091 327.973976 
L 528.283636 329.887262 
L 529.298182 333.843629 
L 530.312727 304.788996 
L 531.327273 309.199261 
L 532.341818 322.248297 
L 533.356364 330.181204 
L 534.370909 345.892665 
L 535.385455 346.537055 
L 536.4 352.883369 
L 537.414545 343.637318 
L 538.429091 338.503961 
L 539.443636 335.478107 
L 540.458182 327.928384 
L 541.472727 338.790204 
L 542.487273 313.828151 
L 544.516364 343.722832 
L 545.530909 339.672283 
L 546.545455 314.100091 
L 547.56 334.316568 
L 548.574545 351.885193 
L 549.589091 328.180115 
L 550.603636 315.304157 
L 551.618182 311.581117 
L 552.632727 317.695163 
L 553.647273 325.509394 
L 554.661818 328.343093 
L 556.690909 263.396548 
L 557.705455 269.580336 
L 558.72 270.485357 
L 559.734545 273.971435 
L 560.749091 299.737157 
L 561.763636 318.560461 
L 562.778182 335.218277 
L 563.792727 336.064512 
L 564.807273 333.469591 
L 565.821818 314.033651 
L 566.836364 327.422237 
L 567.850909 329.53507 
L 568.865455 335.731103 
L 569.88 343.616771 
L 570.894545 353.091422 
L 572.923636 369.36 
L 573.938182 364.33 
L 574.952727 356.766646 
L 575.967273 360.206296 
L 576.981818 364.933091 
L 577.996364 357.245278 
L 579.010909 321.43934 
L 581.04 297.198081 
L 582.054545 297.372236 
L 583.069091 294.070362 
L 584.083636 304.413481 
L 585.098182 312.075872 
L 586.112727 327.463584 
L 588.141818 337.906785 
L 589.156364 331.048052 
L 590.170909 325.417127 
L 591.185455 330.695745 
L 592.2 317.852248 
L 593.214545 317.373702 
L 594.229091 331.714056 
L 595.243636 322.755815 
L 596.258182 346.056387 
L 597.272727 359.922823 
L 598.287273 358.568256 
L 599.301818 356.452854 
L 600.316364 344.734611 
L 601.330909 356.956899 
L 603.36 337.216357 
L 604.374545 346.347132 
L 605.389091 353.680519 
L 606.403636 349.439335 
L 607.418182 334.46078 
L 609.447273 344.17451 
L 610.461818 340.045393 
L 611.476364 330.850316 
L 612.490909 308.421376 
L 613.505455 305.948848 
L 614.52 294.372891 
L 615.534545 306.074728 
L 616.549091 323.388318 
L 617.563636 329.933012 
L 618.578182 338.091217 
L 620.607273 358.45607 
L 621.621818 358.749388 
L 622.636364 361.036221 
L 622.636364 361.036221 
" clip-path="url(#p447a163953)" style="fill: none; stroke: #0000ff; stroke-width: 1.5; stroke-linecap: square"/>
   </g>
   <g id="line2d_104">
    <path d="M 115.363636 126.133732 
L 116.378182 165.064238 
L 117.392727 180.036721 
L 118.407273 189.477415 
L 119.421818 197.119922 
L 120.436364 212.398737 
L 121.450909 213.393021 
L 122.465455 225.596943 
L 123.48 232.523573 
L 124.494545 230.973348 
L 125.509091 239.090317 
L 126.523636 243.080622 
L 127.538182 242.206641 
L 128.552727 245.536018 
L 129.567273 251.404912 
L 130.581818 254.136102 
L 131.596364 246.114883 
L 132.610909 246.753176 
L 133.625455 247.908701 
L 134.64 252.975809 
L 135.654545 256.249253 
L 136.669091 255.013511 
L 137.683636 248.211464 
L 138.698182 249.412463 
L 139.712727 244.101723 
L 140.727273 248.754371 
L 141.741818 250.424726 
L 142.756364 240.53141 
L 143.770909 247.409226 
L 144.785455 250.088408 
L 145.8 268.398386 
L 146.814545 259.846978 
L 147.829091 265.248994 
L 148.843636 254.655656 
L 149.858182 264.172818 
L 150.872727 241.417338 
L 151.887273 244.055892 
L 152.901818 218.657811 
L 153.916364 255.257573 
L 154.930909 256.336365 
L 155.945455 267.940715 
L 156.96 258.561367 
L 157.974545 257.472933 
L 158.989091 231.940992 
L 160.003636 258.697919 
L 161.018182 268.368362 
L 162.032727 265.931638 
L 163.047273 264.566395 
L 164.061818 262.460071 
L 165.076364 249.518335 
L 166.090909 261.71612 
L 167.105455 238.818165 
L 168.12 237.004687 
L 169.134545 265.769921 
L 170.149091 268.670335 
L 171.163636 280.705069 
L 173.192727 235.672435 
L 174.207273 265.250691 
L 175.221818 261.402751 
L 176.236364 274.266573 
L 177.250909 269.073276 
L 178.265455 257.114292 
L 179.28 262.660097 
L 180.294545 256.885182 
L 181.309091 260.358664 
L 183.338182 282.615314 
L 184.352727 283.002163 
L 185.367273 279.766273 
L 186.381818 280.329931 
L 187.396364 256.926889 
L 188.410909 276.632661 
L 189.425455 276.071792 
L 190.44 260.138327 
L 191.454545 264.047943 
L 192.469091 270.59525 
L 193.483636 265.173647 
L 194.498182 263.752847 
L 195.512727 247.98688 
L 196.527273 269.22648 
L 197.541818 284.362685 
L 198.556364 262.034264 
L 199.570909 264.181627 
L 200.585455 285.334635 
L 201.6 291.015569 
L 202.614545 283.338649 
L 203.629091 222.875254 
L 204.643636 258.950037 
L 205.658182 253.685682 
L 206.672727 241.378742 
L 207.687273 239.513896 
L 208.701818 261.195545 
L 209.716364 273.632015 
L 210.730909 294.233685 
L 211.745455 298.496233 
L 212.76 288.021209 
L 213.774545 290.688612 
L 214.789091 274.227757 
L 215.803636 286.20671 
L 216.818182 274.730006 
L 217.832727 275.141225 
L 218.847273 258.626622 
L 219.861818 204.794943 
L 220.876364 235.341342 
L 221.890909 259.626261 
L 222.905455 261.716063 
L 223.92 262.411315 
L 224.934545 281.58834 
L 225.949091 290.865462 
L 226.963636 277.541253 
L 227.978182 293.371902 
L 228.992727 287.780454 
L 230.007273 300.622306 
L 231.021818 270.411691 
L 232.036364 263.507788 
L 233.050909 294.369446 
L 234.065455 291.808438 
L 235.08 277.434255 
L 236.094545 232.488344 
L 237.109091 271.930253 
L 238.123636 285.810561 
L 239.138182 288.740956 
L 240.152727 303.063295 
L 241.167273 289.818074 
L 242.181818 295.329138 
L 243.196364 297.387407 
L 244.210909 290.838364 
L 245.225455 282.813996 
L 246.24 241.793456 
L 247.254545 273.051118 
L 248.269091 249.264977 
L 249.283636 241.16616 
L 250.298182 260.781703 
L 251.312727 259.546743 
L 252.327273 269.724741 
L 253.341818 275.251004 
L 254.356364 279.567064 
L 255.370909 276.164235 
L 256.385455 298.066839 
L 257.4 290.566499 
L 258.414545 260.334864 
L 259.429091 274.54612 
L 260.443636 281.514331 
L 261.458182 277.412581 
L 262.472727 254.139301 
L 263.487273 210.626197 
L 264.501818 263.160021 
L 265.516364 280.004148 
L 266.530909 286.650878 
L 267.545455 306.977703 
L 268.56 294.261296 
L 269.574545 298.567012 
L 270.589091 308.955051 
L 271.603636 313.974286 
L 273.632727 301.74325 
L 274.647273 296.503442 
L 275.661818 313.586071 
L 276.676364 292.648734 
L 277.690909 306.790236 
L 278.705455 299.273198 
L 279.72 290.8706 
L 280.734545 300.85806 
L 281.749091 278.368599 
L 282.763636 306.752595 
L 283.778182 277.532836 
L 284.792727 235.888319 
L 285.807273 245.30788 
L 286.821818 252.577154 
L 287.836364 232.310267 
L 288.850909 218.684647 
L 289.865455 245.10063 
L 290.88 234.785369 
L 291.894545 264.869951 
L 292.909091 289.139523 
L 293.923636 296.451623 
L 294.938182 305.417666 
L 295.952727 316.900409 
L 296.967273 314.02108 
L 297.981818 283.630885 
L 298.996364 307.233546 
L 300.010909 313.123129 
L 301.025455 305.270182 
L 302.04 316.210724 
L 303.054545 289.33016 
L 304.069091 297.650496 
L 305.083636 294.537483 
L 306.098182 299.751191 
L 307.112727 285.871935 
L 308.127273 302.756752 
L 309.141818 302.463352 
L 310.156364 295.587882 
L 311.170909 294.003357 
L 312.185455 273.165583 
L 313.2 226.30069 
L 314.214545 263.338083 
L 315.229091 292.44496 
L 316.243636 299.066293 
L 317.258182 314.790749 
L 318.272727 306.357055 
L 319.287273 284.24459 
L 320.301818 293.099643 
L 321.316364 288.314071 
L 322.330909 309.857401 
L 323.345455 293.153107 
L 324.36 285.369555 
L 325.374545 264.393459 
L 326.389091 282.445201 
L 327.403636 282.09698 
L 328.418182 277.291123 
L 329.432727 277.874197 
L 330.447273 264.702313 
L 331.461818 234.758792 
L 332.476364 228.017359 
L 334.505455 280.098623 
L 335.52 296.000804 
L 336.534545 284.378369 
L 337.549091 295.583087 
L 338.563636 317.746592 
L 340.592727 325.006406 
L 341.607273 324.075181 
L 342.621818 317.091356 
L 343.636364 315.446919 
L 344.650909 291.601469 
L 345.665455 283.320971 
L 346.68 262.0731 
L 347.694545 282.146999 
L 348.709091 294.701965 
L 349.723636 292.229 
L 350.738182 290.585995 
L 351.752727 303.942923 
L 352.767273 296.748884 
L 353.781818 302.801481 
L 354.796364 290.54101 
L 355.810909 297.422965 
L 356.825455 286.264783 
L 357.84 236.289748 
L 358.854545 256.854686 
L 359.869091 255.30363 
L 360.883636 264.414716 
L 361.898182 277.537281 
L 362.912727 300.953972 
L 363.927273 298.134744 
L 364.941818 291.854263 
L 365.956364 284.434784 
L 366.970909 294.442753 
L 367.985455 283.996432 
L 369 293.215245 
L 370.014545 285.354504 
L 371.029091 283.328183 
L 372.043636 283.905116 
L 373.058182 313.715336 
L 375.087273 298.632772 
L 376.101818 302.518388 
L 377.116364 289.908094 
L 378.130909 284.919644 
L 379.145455 303.770946 
L 380.16 311.078917 
L 381.174545 289.167032 
L 382.189091 323.385063 
L 383.203636 319.08326 
L 384.218182 286.351074 
L 385.232727 270.712514 
L 387.261818 293.123492 
L 388.276364 298.196944 
L 389.290909 299.532784 
L 390.305455 306.33338 
L 391.32 297.005407 
L 392.334545 305.908513 
L 393.349091 287.308878 
L 394.363636 288.102555 
L 395.378182 278.543269 
L 396.392727 245.964445 
L 397.407273 266.656491 
L 398.421818 283.09755 
L 399.436364 244.903838 
L 400.450909 270.596561 
L 401.465455 293.169984 
L 402.48 299.449955 
L 403.494545 307.865879 
L 405.523636 238.664862 
L 406.538182 272.600438 
L 407.552727 273.201313 
L 408.567273 277.704469 
L 409.581818 294.457061 
L 410.596364 297.500476 
L 411.610909 325.953003 
L 412.625455 315.399275 
L 413.64 318.585453 
L 414.654545 315.510817 
L 415.669091 322.264863 
L 416.683636 308.861561 
L 417.698182 306.354884 
L 419.727273 284.675273 
L 420.741818 290.678064 
L 421.756364 305.094141 
L 422.770909 321.907654 
L 423.785455 315.452641 
L 424.8 288.380793 
L 425.814545 299.322755 
L 426.829091 292.225434 
L 427.843636 302.257114 
L 428.858182 271.766488 
L 429.872727 294.358118 
L 430.887273 307.856349 
L 431.901818 310.891135 
L 433.930909 320.15411 
L 434.945455 312.622411 
L 435.96 290.42425 
L 436.974545 292.135599 
L 437.989091 300.474981 
L 439.003636 310.184115 
L 440.018182 286.607462 
L 441.032727 301.393551 
L 442.047273 297.052289 
L 443.061818 289.97203 
L 444.076364 291.785181 
L 445.090909 286.959904 
L 446.105455 276.992833 
L 447.12 291.362105 
L 448.134545 288.793839 
L 449.149091 306.488974 
L 450.163636 317.595464 
L 451.178182 314.874641 
L 452.192727 313.717316 
L 453.207273 330.215906 
L 454.221818 327.631904 
L 455.236364 312.480266 
L 456.250909 325.311369 
L 457.265455 318.414632 
L 458.28 321.369166 
L 459.294545 317.857508 
L 460.309091 315.768144 
L 461.323636 314.128776 
L 462.338182 301.715676 
L 463.352727 305.736684 
L 464.367273 299.682119 
L 465.381818 288.27989 
L 466.396364 302.65807 
L 467.410909 266.44148 
L 468.425455 293.496974 
L 469.44 272.259315 
L 470.454545 282.923426 
L 471.469091 296.97834 
L 472.483636 315.361557 
L 473.498182 291.333617 
L 474.512727 317.948371 
L 475.527273 311.733983 
L 476.541818 274.638781 
L 477.556364 275.188979 
L 478.570909 311.989114 
L 479.585455 312.286868 
L 480.6 297.173066 
L 481.614545 318.748613 
L 483.643636 307.743948 
L 484.658182 312.935138 
L 485.672727 322.800994 
L 486.687273 313.511194 
L 487.701818 299.324026 
L 488.716364 254.569968 
L 489.730909 235.660755 
L 490.745455 253.364192 
L 491.76 267.954915 
L 492.774545 291.564858 
L 493.789091 301.371419 
L 495.818182 315.976561 
L 496.832727 334.171017 
L 497.847273 332.684969 
L 498.861818 329.868305 
L 499.876364 324.881793 
L 500.890909 327.041052 
L 501.905455 323.219062 
L 502.92 322.183163 
L 503.934545 322.57005 
L 504.949091 319.014086 
L 505.963636 319.286247 
L 506.978182 329.258584 
L 507.992727 333.385538 
L 509.007273 301.991871 
L 510.021818 321.486576 
L 511.036364 312.71972 
L 512.050909 313.465804 
L 513.065455 322.744307 
L 514.08 302.285398 
L 515.094545 316.744382 
L 516.109091 320.620614 
L 517.123636 313.179481 
L 518.138182 307.166043 
L 519.152727 317.777577 
L 520.167273 319.411721 
L 521.181818 267.41128 
L 522.196364 285.80211 
L 523.210909 296.606286 
L 524.225455 302.332025 
L 525.24 299.44246 
L 526.254545 315.267212 
L 527.269091 300.79777 
L 528.283636 330.906863 
L 529.298182 304.677156 
L 530.312727 306.060638 
L 531.327273 306.357557 
L 532.341818 316.132478 
L 533.356364 333.007829 
L 534.370909 329.901727 
L 535.385455 332.115337 
L 536.4 328.708821 
L 537.414545 322.768268 
L 538.429091 311.217812 
L 539.443636 322.801241 
L 540.458182 317.451508 
L 541.472727 314.07213 
L 542.487273 304.776063 
L 543.501818 324.033892 
L 544.516364 329.778602 
L 545.530909 306.966592 
L 546.545455 315.046814 
L 547.56 331.287269 
L 548.574545 320.517088 
L 549.589091 320.644847 
L 550.603636 299.041357 
L 551.618182 309.422589 
L 552.632727 311.261544 
L 553.647273 320.703348 
L 554.661818 305.829628 
L 555.676364 272.13832 
L 556.690909 257.632374 
L 557.705455 270.604056 
L 558.72 273.342971 
L 559.734545 290.449823 
L 560.749091 304.094573 
L 561.763636 322.292745 
L 562.778182 328.667118 
L 563.792727 313.057563 
L 564.807273 308.128191 
L 565.821818 321.008213 
L 566.836364 316.536176 
L 567.850909 326.443398 
L 568.865455 317.898315 
L 569.88 336.027649 
L 570.894545 339.509135 
L 571.909091 342.086575 
L 572.923636 340.813554 
L 573.938182 324.977737 
L 574.952727 334.409781 
L 575.967273 338.76837 
L 576.981818 336.642295 
L 577.996364 336.258664 
L 579.010909 293.618 
L 580.025455 291.038999 
L 581.04 283.524775 
L 582.054545 295.235021 
L 583.069091 288.378935 
L 584.083636 293.241149 
L 585.098182 323.747759 
L 586.112727 320.588044 
L 587.127273 318.985375 
L 588.141818 330.430149 
L 589.156364 319.493572 
L 590.170909 325.480167 
L 591.185455 315.548237 
L 592.2 317.529611 
L 593.214545 315.145017 
L 594.229091 315.764994 
L 595.243636 318.231056 
L 596.258182 335.908244 
L 597.272727 339.246571 
L 598.287273 343.325704 
L 599.301818 334.802583 
L 600.316364 335.881344 
L 601.330909 341.078966 
L 602.345455 329.408287 
L 603.36 328.267534 
L 604.374545 332.075567 
L 605.389091 339.956478 
L 606.403636 323.112436 
L 607.418182 317.851485 
L 608.432727 336.79324 
L 609.447273 326.694465 
L 610.461818 321.741944 
L 611.476364 309.054614 
L 612.490909 305.530324 
L 613.505455 277.97735 
L 614.52 290.353496 
L 615.534545 306.556446 
L 616.549091 320.635582 
L 617.563636 324.811645 
L 618.578182 334.261907 
L 619.592727 336.206771 
L 620.607273 339.173087 
L 621.621818 337.871235 
L 622.636364 345.170234 
L 622.636364 345.170234 
" clip-path="url(#p447a163953)" style="fill: none; stroke: #ff0000; stroke-width: 1.5; stroke-linecap: square"/>
   </g>
   <g id="patch_3">
    <path d="M 90 384.48 
L 90 51.84 
" style="fill: none; stroke: #000000; stroke-width: 0.8; stroke-linejoin: miter; stroke-linecap: square"/>
   </g>
   <g id="patch_4">
    <path d="M 648 384.48 
L 648 51.84 
" style="fill: none; stroke: #000000; stroke-width: 0.8; stroke-linejoin: miter; stroke-linecap: square"/>
   </g>
   <g id="patch_5">
    <path d="M 90 384.48 
L 648 384.48 
" style="fill: none; stroke: #000000; stroke-width: 0.8; stroke-linejoin: miter; stroke-linecap: square"/>
   </g>
   <g id="patch_6">
    <path d="M 90 51.84 
L 648 51.84 
" style="fill: none; stroke: #000000; stroke-width: 0.8; stroke-linejoin: miter; stroke-linecap: square"/>
   </g>
   <g id="text_14">
    <!-- Training and Validation Loss Over Time -->
    <g transform="translate(252.60375 45.84) scale(0.12 -0.12)">
     <defs>
      <path id="DejaVuSans-54" d="M -19 4666 
L 3928 4666 
L 3928 4134 
L 2272 4134 
L 2272 0 
L 1638 0 
L 1638 4134 
L -19 4134 
L -19 4666 
z
" transform="scale(0.015625)"/>
      <path id="DejaVuSans-6e" d="M 3513 2113 
L 3513 0 
L 2938 0 
L 2938 2094 
Q 2938 2591 2744 2837 
Q 2550 3084 2163 3084 
Q 1697 3084 1428 2787 
Q 1159 2491 1159 1978 
L 1159 0 
L 581 0 
L 581 3500 
L 1159 3500 
L 1159 2956 
Q 1366 3272 1645 3428 
Q 1925 3584 2291 3584 
Q 2894 3584 3203 3211 
Q 3513 2838 3513 2113 
z
" transform="scale(0.015625)"/>
      <path id="DejaVuSans-67" d="M 2906 1791 
Q 2906 2416 2648 2759 
Q 2391 3103 1925 3103 
Q 1463 3103 1205 2759 
Q 947 2416 947 1791 
Q 947 1169 1205 825 
Q 1463 481 1925 481 
Q 2391 481 2648 825 
Q 2906 1169 2906 1791 
z
M 3481 434 
Q 3481 -459 3084 -895 
Q 2688 -1331 1869 -1331 
Q 1566 -1331 1297 -1286 
Q 1028 -1241 775 -1147 
L 775 -588 
Q 1028 -725 1275 -790 
Q 1522 -856 1778 -856 
Q 2344 -856 2625 -561 
Q 2906 -266 2906 331 
L 2906 616 
Q 2728 306 2450 153 
Q 2172 0 1784 0 
Q 1141 0 747 490 
Q 353 981 353 1791 
Q 353 2603 747 3093 
Q 1141 3584 1784 3584 
Q 2172 3584 2450 3431 
Q 2728 3278 2906 2969 
L 2906 3500 
L 3481 3500 
L 3481 434 
z
" transform="scale(0.015625)"/>
      <path id="DejaVuSans-56" d="M 1831 0 
L 50 4666 
L 709 4666 
L 2188 738 
L 3669 4666 
L 4325 4666 
L 2547 0 
L 1831 0 
z
" transform="scale(0.015625)"/>
      <path id="DejaVuSans-74" d="M 1172 4494 
L 1172 3500 
L 2356 3500 
L 2356 3053 
L 1172 3053 
L 1172 1153 
Q 1172 725 1289 603 
Q 1406 481 1766 481 
L 2356 481 
L 2356 0 
L 1766 0 
Q 1100 0 847 248 
Q 594 497 594 1153 
L 594 3053 
L 172 3053 
L 172 3500 
L 594 3500 
L 594 4494 
L 1172 4494 
z
" transform="scale(0.015625)"/>
      <path id="DejaVuSans-4f" d="M 2522 4238 
Q 1834 4238 1429 3725 
Q 1025 3213 1025 2328 
Q 1025 1447 1429 934 
Q 1834 422 2522 422 
Q 3209 422 3611 934 
Q 4013 1447 4013 2328 
Q 4013 3213 3611 3725 
Q 3209 4238 2522 4238 
z
M 2522 4750 
Q 3503 4750 4090 4092 
Q 4678 3434 4678 2328 
Q 4678 1225 4090 567 
Q 3503 -91 2522 -91 
Q 1538 -91 948 565 
Q 359 1222 359 2328 
Q 359 3434 948 4092 
Q 1538 4750 2522 4750 
z
" transform="scale(0.015625)"/>
      <path id="DejaVuSans-76" d="M 191 3500 
L 800 3500 
L 1894 563 
L 2988 3500 
L 3597 3500 
L 2284 0 
L 1503 0 
L 191 3500 
z
" transform="scale(0.015625)"/>
     </defs>
     <use xlink:href="#DejaVuSans-54"/>
     <use xlink:href="#DejaVuSans-72" transform="translate(46.333984 0)"/>
     <use xlink:href="#DejaVuSans-61" transform="translate(87.447266 0)"/>
     <use xlink:href="#DejaVuSans-69" transform="translate(148.726562 0)"/>
     <use xlink:href="#DejaVuSans-6e" transform="translate(176.509766 0)"/>
     <use xlink:href="#DejaVuSans-69" transform="translate(239.888672 0)"/>
     <use xlink:href="#DejaVuSans-6e" transform="translate(267.671875 0)"/>
     <use xlink:href="#DejaVuSans-67" transform="translate(331.050781 0)"/>
     <use xlink:href="#DejaVuSans-20" transform="translate(394.527344 0)"/>
     <use xlink:href="#DejaVuSans-61" transform="translate(426.314453 0)"/>
     <use xlink:href="#DejaVuSans-6e" transform="translate(487.59375 0)"/>
     <use xlink:href="#DejaVuSans-64" transform="translate(550.972656 0)"/>
     <use xlink:href="#DejaVuSans-20" transform="translate(614.449219 0)"/>
     <use xlink:href="#DejaVuSans-56" transform="translate(646.236328 0)"/>
     <use xlink:href="#DejaVuSans-61" transform="translate(706.894531 0)"/>
     <use xlink:href="#DejaVuSans-6c" transform="translate(768.173828 0)"/>
     <use xlink:href="#DejaVuSans-69" transform="translate(795.957031 0)"/>
     <use xlink:href="#DejaVuSans-64" transform="translate(823.740234 0)"/>
     <use xlink:href="#DejaVuSans-61" transform="translate(887.216797 0)"/>
     <use xlink:href="#DejaVuSans-74" transform="translate(948.496094 0)"/>
     <use xlink:href="#DejaVuSans-69" transform="translate(987.705078 0)"/>
     <use xlink:href="#DejaVuSans-6f" transform="translate(1015.488281 0)"/>
     <use xlink:href="#DejaVuSans-6e" transform="translate(1076.669922 0)"/>
     <use xlink:href="#DejaVuSans-20" transform="translate(1140.048828 0)"/>
     <use xlink:href="#DejaVuSans-4c" transform="translate(1171.835938 0)"/>
     <use xlink:href="#DejaVuSans-6f" transform="translate(1225.798828 0)"/>
     <use xlink:href="#DejaVuSans-73" transform="translate(1286.980469 0)"/>
     <use xlink:href="#DejaVuSans-73" transform="translate(1339.080078 0)"/>
     <use xlink:href="#DejaVuSans-20" transform="translate(1391.179688 0)"/>
     <use xlink:href="#DejaVuSans-4f" transform="translate(1422.966797 0)"/>
     <use xlink:href="#DejaVuSans-76" transform="translate(1501.677734 0)"/>
     <use xlink:href="#DejaVuSans-65" transform="translate(1560.857422 0)"/>
     <use xlink:href="#DejaVuSans-72" transform="translate(1622.380859 0)"/>
     <use xlink:href="#DejaVuSans-20" transform="translate(1663.494141 0)"/>
     <use xlink:href="#DejaVuSans-54" transform="translate(1695.28125 0)"/>
     <use xlink:href="#DejaVuSans-69" transform="translate(1753.240234 0)"/>
     <use xlink:href="#DejaVuSans-6d" transform="translate(1781.023438 0)"/>
     <use xlink:href="#DejaVuSans-65" transform="translate(1878.435547 0)"/>
    </g>
   </g>
   <g id="legend_1">
    <g id="patch_7">
     <path d="M 534.50625 89.19625 
L 641 89.19625 
Q 643 89.19625 643 87.19625 
L 643 58.84 
Q 643 56.84 641 56.84 
L 534.50625 56.84 
Q 532.50625 56.84 532.50625 58.84 
L 532.50625 87.19625 
Q 532.50625 89.19625 534.50625 89.19625 
z
" style="fill: #ffffff; opacity: 0.8; stroke: #cccccc; stroke-linejoin: miter"/>
    </g>
    <g id="line2d_105">
     <path d="M 536.50625 64.938437 
L 546.50625 64.938437 
L 556.50625 64.938437 
" style="fill: none; stroke: #0000ff; stroke-width: 1.5; stroke-linecap: square"/>
    </g>
    <g id="text_15">
     <!-- Training Loss -->
     <g transform="translate(564.50625 68.438437) scale(0.1 -0.1)">
      <use xlink:href="#DejaVuSans-54"/>
      <use xlink:href="#DejaVuSans-72" transform="translate(46.333984 0)"/>
      <use xlink:href="#DejaVuSans-61" transform="translate(87.447266 0)"/>
      <use xlink:href="#DejaVuSans-69" transform="translate(148.726562 0)"/>
      <use xlink:href="#DejaVuSans-6e" transform="translate(176.509766 0)"/>
      <use xlink:href="#DejaVuSans-69" transform="translate(239.888672 0)"/>
      <use xlink:href="#DejaVuSans-6e" transform="translate(267.671875 0)"/>
      <use xlink:href="#DejaVuSans-67" transform="translate(331.050781 0)"/>
      <use xlink:href="#DejaVuSans-20" transform="translate(394.527344 0)"/>
      <use xlink:href="#DejaVuSans-4c" transform="translate(426.314453 0)"/>
      <use xlink:href="#DejaVuSans-6f" transform="translate(480.277344 0)"/>
      <use xlink:href="#DejaVuSans-73" transform="translate(541.458984 0)"/>
      <use xlink:href="#DejaVuSans-73" transform="translate(593.558594 0)"/>
     </g>
    </g>
    <g id="line2d_106">
     <path d="M 536.50625 79.616562 
L 546.50625 79.616562 
L 556.50625 79.616562 
" style="fill: none; stroke: #ff0000; stroke-width: 1.5; stroke-linecap: square"/>
    </g>
    <g id="text_16">
     <!-- Validation Loss -->
     <g transform="translate(564.50625 83.116562) scale(0.1 -0.1)">
      <use xlink:href="#DejaVuSans-56"/>
      <use xlink:href="#DejaVuSans-61" transform="translate(60.658203 0)"/>
      <use xlink:href="#DejaVuSans-6c" transform="translate(121.9375 0)"/>
      <use xlink:href="#DejaVuSans-69" transform="translate(149.720703 0)"/>
      <use xlink:href="#DejaVuSans-64" transform="translate(177.503906 0)"/>
      <use xlink:href="#DejaVuSans-61" transform="translate(240.980469 0)"/>
      <use xlink:href="#DejaVuSans-74" transform="translate(302.259766 0)"/>
      <use xlink:href="#DejaVuSans-69" transform="translate(341.46875 0)"/>
      <use xlink:href="#DejaVuSans-6f" transform="translate(369.251953 0)"/>
      <use xlink:href="#DejaVuSans-6e" transform="translate(430.433594 0)"/>
      <use xlink:href="#DejaVuSans-20" transform="translate(493.8125 0)"/>
      <use xlink:href="#DejaVuSans-4c" transform="translate(525.599609 0)"/>
      <use xlink:href="#DejaVuSans-6f" transform="translate(579.5625 0)"/>
      <use xlink:href="#DejaVuSans-73" transform="translate(640.744141 0)"/>
      <use xlink:href="#DejaVuSans-73" transform="translate(692.84375 0)"/>
     </g>
    </g>
   </g>
  </g>
 </g>
 <defs>
  <clipPath id="p447a163953">
   <rect x="90" y="51.84" width="558" height="332.64"/>
  </clipPath>
 </defs>
</svg>
