<?xml version="1.0" encoding="utf-8" standalone="no"?>
<!DOCTYPE svg PUBLIC "-//W3C//DTD SVG 1.1//EN"
  "http://www.w3.org/Graphics/SVG/1.1/DTD/svg11.dtd">
<svg xmlns:xlink="http://www.w3.org/1999/xlink" width="720pt" height="432pt" viewBox="0 0 720 432" xmlns="http://www.w3.org/2000/svg" version="1.1">
 <metadata>
  <rdf:RDF xmlns:dc="http://purl.org/dc/elements/1.1/" xmlns:cc="http://creativecommons.org/ns#" xmlns:rdf="http://www.w3.org/1999/02/22-rdf-syntax-ns#">
   <cc:Work>
    <dc:type rdf:resource="http://purl.org/dc/dcmitype/StillImage"/>
    <dc:date>2026-04-01T00:49:26.147247</dc:date>
    <dc:format>image/svg+xml</dc:format>
    <dc:creator>
     <cc:Agent>
      <dc:title>Matplotlib v3.10.3, https://matplotlib.org/</dc:title>
     </cc:Agent>
    </dc:creator>
   </cc:Work>
  </rdf:RDF>
 </metadata>
 <defs>
  <style type="text/css">*{stroke-linejoin: round; stroke-linecap: butt}</style>
 </defs>
 <g id="figure_1">
  <g id="patch_1">
   <path d="M 0 432 
L 720 432 
L 720 0 
L 0 0 
z
" style="fill: #ffffff"/>
  </g>
  <g id="axes_1">
   <g id="patch_2">
    <path d="M 90 384.48 
L 648 384.48 
L 648 51.84 
L 90 51.84 
z
" style="fill: #ffffff"/>
   </g>
   <g id="matplotlib.axis_1">
    <g id="xtick_1">
     <g id="line2d_1">
      <path d="M 115.363636 384.48 
L 115.363636 51.84 
" clip-path="url(#p26fc47c05b)" style="fill: none; stroke-dasharray: 2.96,1.28; stroke-dashoffset: 0; stroke: #b0b0b0; stroke-width: 0.8"/>
     </g>
     <g id="line2d_2">
      <defs>
       <path id="mc901faef19" d="M 0 0 
L 0 3.5 
" style="stroke: #000000; stroke-width: 0.8"/>
      </defs>
      <g>
       <use xlink:href="#mc901faef19" x="115.363636" y="384.48" style="stroke: #000000; stroke-width: 0.8"/>
      </g>
     </g>
     <g id="text_1">
      <!-- 0 -->
      <g transform="translate(112.182386 399.078438) scale(0.1 -0.1)">
       <defs>
        <path id="DejaVuSans-30" d="M 2034 4250 
Q 1547 4250 1301 3770 
Q 1056 3291 1056 2328 
Q 1056 1369 1301 889 
Q 1547 409 2034 409 
Q 2525 409 2770 889 
Q 3016 1369 3016 2328 
Q 3016 3291 2770 3770 
Q 2525 4250 2034 4250 
z
M 2034 4750 
Q 2819 4750 3233 4129 
Q 3647 3509 3647 2328 
Q 3647 1150 3233 529 
Q 2819 -91 2034 -91 
Q 1250 -91 836 529 
Q 422 1150 422 2328 
Q 422 3509 836 4129 
Q 1250 4750 2034 4750 
z
" transform="scale(0.015625)"/>
       </defs>
       <use xlink:href="#DejaVuSans-30"/>
      </g>
     </g>
    </g>
    <g id="xtick_2">
     <g id="line2d_3">
      <path d="M 199.909091 384.48 
L 199.909091 51.84 
" clip-path="url(#p26fc47c05b)" style="fill: none; stroke-dasharray: 2.96,1.28; stroke-dashoffset: 0; stroke: #b0b0b0; stroke-width: 0.8"/>
     </g>
     <g id="line2d_4">
      <g>
       <use xlink:href="#mc901faef19" x="199.909091" y="384.48" style="stroke: #000000; stroke-width: 0.8"/>
      </g>
     </g>
     <g id="text_2">
      <!-- 50 -->
      <g transform="translate(193.546591 399.078438) scale(0.1 -0.1)">
       <defs>
        <path id="DejaVuSans-35" d="M 691 4666 
L 3169 4666 
L 3169 4134 
L 1269 4134 
L 1269 2991 
Q 1406 3038 1543 3061 
Q 1681 3084 1819 3084 
Q 2600 3084 3056 2656 
Q 3513 2228 3513 1497 
Q 3513 744 3044 326 
Q 2575 -91 1722 -91 
Q 1428 -91 1123 -41 
Q 819 9 494 109 
L 494 744 
Q 775 591 1075 516 
Q 1375 441 1709 441 
Q 2250 441 2565 725 
Q 2881 1009 2881 1497 
Q 2881 1984 2565 2268 
Q 2250 2553 1709 2553 
Q 1456 2553 1204 2497 
Q 953 2441 691 2322 
L 691 4666 
z
" transform="scale(0.015625)"/>
       </defs>
       <use xlink:href="#DejaVuSans-35"/>
       <use xlink:href="#DejaVuSans-30" transform="translate(63.623047 0)"/>
      </g>
     </g>
    </g>
    <g id="xtick_3">
     <g id="line2d_5">
      <path d="M 284.454545 384.48 
L 284.454545 51.84 
" clip-path="url(#p26fc47c05b)" style="fill: none; stroke-dasharray: 2.96,1.28; stroke-dashoffset: 0; stroke: #b0b0b0; stroke-width: 0.8"/>
     </g>
     <g id="line2d_6">
      <g>
       <use xlink:href="#mc901faef19" x="284.454545" y="384.48" style="stroke: #000000; stroke-width: 0.8"/>
      </g>
     </g>
     <g id="text_3">
      <!-- 100 -->
      <g transform="translate(274.910795 399.078438) scale(0.1 -0.1)">
       <defs>
        <path id="DejaVuSans-31" d="M 794 531 
L 1825 531 
L 1825 4091 
L 703 3866 
L 703 4441 
L 1819 4666 
L 2450 4666 
L 2450 531 
L 3481 531 
L 3481 0 
L 794 0 
L 794 531 
z
" transform="scale(0.015625)"/>
       </defs>
       <use xlink:href="#DejaVuSans-31"/>
       <use xlink:href="#DejaVuSans-30" transform="translate(63.623047 0)"/>
       <use xlink:href="#DejaVuSans-30" transform="translate(127.246094 0)"/>
      </g>
     </g>
    </g>
    <g id="xtick_4">
     <g id="line2d_7">
      <path d="M 369 384.48 
L 369 51.84 
" clip-path="url(#p26fc47c05b)" style="fill: none; stroke-dasharray: 2.96,1.28; stroke-dashoffset: 0; stroke: #b0b0b0; stroke-width: 0.8"/>
     </g>
     <g id="line2d_8">
      <g>
       <use xlink:href="#mc901faef19" x="369" y="384.48" style="stroke: #000000; stroke-width: 0.8"/>
      </g>
     </g>
     <g id="text_4">
      <!-- 150 -->
      <g transform="translate(359.45625 399.078438) scale(0.1 -0.1)">
       <use xlink:href="#DejaVuSans-31"/>
       <use xlink:href="#DejaVuSans-35" transform="translate(63.623047 0)"/>
       <use xlink:href="#DejaVuSans-30" transform="translate(127.246094 0)"/>
      </g>
     </g>
    </g>
    <g id="xtick_5">
     <g id="line2d_9">
      <path d="M 453.545455 384.48 
L 453.545455 51.84 
" clip-path="url(#p26fc47c05b)" style="fill: none; stroke-dasharray: 2.96,1.28; stroke-dashoffset: 0; stroke: #b0b0b0; stroke-width: 0.8"/>
     </g>
     <g id="line2d_10">
      <g>
       <use xlink:href="#mc901faef19" x="453.545455" y="384.48" style="stroke: #000000; stroke-width: 0.8"/>
      </g>
     </g>
     <g id="text_5">
      <!-- 200 -->
      <g transform="translate(444.001705 399.078438) scale(0.1 -0.1)">
       <defs>
        <path id="DejaVuSans-32" d="M 1228 531 
L 3431 531 
L 3431 0 
L 469 0 
L 469 531 
Q 828 903 1448 1529 
Q 2069 2156 2228 2338 
Q 2531 2678 2651 2914 
Q 2772 3150 2772 3378 
Q 2772 3750 2511 3984 
Q 2250 4219 1831 4219 
Q 1534 4219 1204 4116 
Q 875 4013 500 3803 
L 500 4441 
Q 881 4594 1212 4672 
Q 1544 4750 1819 4750 
Q 2544 4750 2975 4387 
Q 3406 4025 3406 3419 
Q 3406 3131 3298 2873 
Q 3191 2616 2906 2266 
Q 2828 2175 2409 1742 
Q 1991 1309 1228 531 
z
" transform="scale(0.015625)"/>
       </defs>
       <use xlink:href="#DejaVuSans-32"/>
       <use xlink:href="#DejaVuSans-30" transform="translate(63.623047 0)"/>
       <use xlink:href="#DejaVuSans-30" transform="translate(127.246094 0)"/>
      </g>
     </g>
    </g>
    <g id="xtick_6">
     <g id="line2d_11">
      <path d="M 538.090909 384.48 
L 538.090909 51.84 
" clip-path="url(#p26fc47c05b)" style="fill: none; stroke-dasharray: 2.96,1.28; stroke-dashoffset: 0; stroke: #b0b0b0; stroke-width: 0.8"/>
     </g>
     <g id="line2d_12">
      <g>
       <use xlink:href="#mc901faef19" x="538.090909" y="384.48" style="stroke: #000000; stroke-width: 0.8"/>
      </g>
     </g>
     <g id="text_6">
      <!-- 250 -->
      <g transform="translate(528.547159 399.078438) scale(0.1 -0.1)">
       <use xlink:href="#DejaVuSans-32"/>
       <use xlink:href="#DejaVuSans-35" transform="translate(63.623047 0)"/>
       <use xlink:href="#DejaVuSans-30" transform="translate(127.246094 0)"/>
      </g>
     </g>
    </g>
    <g id="xtick_7">
     <g id="line2d_13">
      <path d="M 622.636364 384.48 
L 622.636364 51.84 
" clip-path="url(#p26fc47c05b)" style="fill: none; stroke-dasharray: 2.96,1.28; stroke-dashoffset: 0; stroke: #b0b0b0; stroke-width: 0.8"/>
     </g>
     <g id="line2d_14">
      <g>
       <use xlink:href="#mc901faef19" x="622.636364" y="384.48" style="stroke: #000000; stroke-width: 0.8"/>
      </g>
     </g>
     <g id="text_7">
      <!-- 300 -->
      <g transform="translate(613.092614 399.078438) scale(0.1 -0.1)">
       <defs>
        <path id="DejaVuSans-33" d="M 2597 2516 
Q 3050 2419 3304 2112 
Q 3559 1806 3559 1356 
Q 3559 666 3084 287 
Q 2609 -91 1734 -91 
Q 1441 -91 1130 -33 
Q 819 25 488 141 
L 488 750 
Q 750 597 1062 519 
Q 1375 441 1716 441 
Q 2309 441 2620 675 
Q 2931 909 2931 1356 
Q 2931 1769 2642 2001 
Q 2353 2234 1838 2234 
L 1294 2234 
L 1294 2753 
L 1863 2753 
Q 2328 2753 2575 2939 
Q 2822 3125 2822 3475 
Q 2822 3834 2567 4026 
Q 2313 4219 1838 4219 
Q 1578 4219 1281 4162 
Q 984 4106 628 3988 
L 628 4550 
Q 988 4650 1302 4700 
Q 1616 4750 1894 4750 
Q 2613 4750 3031 4423 
Q 3450 4097 3450 3541 
Q 3450 3153 3228 2886 
Q 3006 2619 2597 2516 
z
" transform="scale(0.015625)"/>
       </defs>
       <use xlink:href="#DejaVuSans-33"/>
       <use xlink:href="#DejaVuSans-30" transform="translate(63.623047 0)"/>
       <use xlink:href="#DejaVuSans-30" transform="translate(127.246094 0)"/>
      </g>
     </g>
    </g>
    <g id="text_8">
     <!-- Epoch -->
     <g transform="translate(353.689062 412.756563) scale(0.1 -0.1)">
      <defs>
       <path id="DejaVuSans-45" d="M 628 4666 
L 3578 4666 
L 3578 4134 
L 1259 4134 
L 1259 2753 
L 3481 2753 
L 3481 2222 
L 1259 2222 
L 1259 531 
L 3634 531 
L 3634 0 
L 628 0 
L 628 4666 
z
" transform="scale(0.015625)"/>
       <path id="DejaVuSans-70" d="M 1159 525 
L 1159 -1331 
L 581 -1331 
L 581 3500 
L 1159 3500 
L 1159 2969 
Q 1341 3281 1617 3432 
Q 1894 3584 2278 3584 
Q 2916 3584 3314 3078 
Q 3713 2572 3713 1747 
Q 3713 922 3314 415 
Q 2916 -91 2278 -91 
Q 1894 -91 1617 61 
Q 1341 213 1159 525 
z
M 3116 1747 
Q 3116 2381 2855 2742 
Q 2594 3103 2138 3103 
Q 1681 3103 1420 2742 
Q 1159 2381 1159 1747 
Q 1159 1113 1420 752 
Q 1681 391 2138 391 
Q 2594 391 2855 752 
Q 3116 1113 3116 1747 
z
" transform="scale(0.015625)"/>
       <path id="DejaVuSans-6f" d="M 1959 3097 
Q 1497 3097 1228 2736 
Q 959 2375 959 1747 
Q 959 1119 1226 758 
Q 1494 397 1959 397 
Q 2419 397 2687 759 
Q 2956 1122 2956 1747 
Q 2956 2369 2687 2733 
Q 2419 3097 1959 3097 
z
M 1959 3584 
Q 2709 3584 3137 3096 
Q 3566 2609 3566 1747 
Q 3566 888 3137 398 
Q 2709 -91 1959 -91 
Q 1206 -91 779 398 
Q 353 888 353 1747 
Q 353 2609 779 3096 
Q 1206 3584 1959 3584 
z
" transform="scale(0.015625)"/>
       <path id="DejaVuSans-63" d="M 3122 3366 
L 3122 2828 
Q 2878 2963 2633 3030 
Q 2388 3097 2138 3097 
Q 1578 3097 1268 2742 
Q 959 2388 959 1747 
Q 959 1106 1268 751 
Q 1578 397 2138 397 
Q 2388 397 2633 464 
Q 2878 531 3122 666 
L 3122 134 
Q 2881 22 2623 -34 
Q 2366 -91 2075 -91 
Q 1284 -91 818 406 
Q 353 903 353 1747 
Q 353 2603 823 3093 
Q 1294 3584 2113 3584 
Q 2378 3584 2631 3529 
Q 2884 3475 3122 3366 
z
" transform="scale(0.015625)"/>
       <path id="DejaVuSans-68" d="M 3513 2113 
L 3513 0 
L 2938 0 
L 2938 2094 
Q 2938 2591 2744 2837 
Q 2550 3084 2163 3084 
Q 1697 3084 1428 2787 
Q 1159 2491 1159 1978 
L 1159 0 
L 581 0 
L 581 4863 
L 1159 4863 
L 1159 2956 
Q 1366 3272 1645 3428 
Q 1925 3584 2291 3584 
Q 2894 3584 3203 3211 
Q 3513 2838 3513 2113 
z
" transform="scale(0.015625)"/>
      </defs>
      <use xlink:href="#DejaVuSans-45"/>
      <use xlink:href="#DejaVuSans-70" transform="translate(63.183594 0)"/>
      <use xlink:href="#DejaVuSans-6f" transform="translate(126.660156 0)"/>
      <use xlink:href="#DejaVuSans-63" transform="translate(187.841797 0)"/>
      <use xlink:href="#DejaVuSans-68" transform="translate(242.822266 0)"/>
     </g>
    </g>
   </g>
   <g id="matplotlib.axis_2">
    <g id="ytick_1">
     <g id="line2d_15">
      <path d="M 90 383.158091 
L 648 383.158091 
" clip-path="url(#p26fc47c05b)" style="fill: none; stroke-dasharray: 2.96,1.28; stroke-dashoffset: 0; stroke: #b0b0b0; stroke-width: 0.8"/>
     </g>
     <g id="line2d_16">
      <defs>
       <path id="m34dc5e31f9" d="M 0 0 
L -3.5 0 
" style="stroke: #000000; stroke-width: 0.8"/>
      </defs>
      <g>
       <use xlink:href="#m34dc5e31f9" x="90" y="383.158091" style="stroke: #000000; stroke-width: 0.8"/>
      </g>
     </g>
     <g id="text_9">
      <!-- $\mathdefault{10^{-5}}$ -->
      <g transform="translate(59.5 386.95731) scale(0.1 -0.1)">
       <defs>
        <path id="DejaVuSans-2212" d="M 678 2272 
L 4684 2272 
L 4684 1741 
L 678 1741 
L 678 2272 
z
" transform="scale(0.015625)"/>
       </defs>
       <use xlink:href="#DejaVuSans-31" transform="translate(0 0.684375)"/>
       <use xlink:href="#DejaVuSans-30" transform="translate(63.623047 0.684375)"/>
       <use xlink:href="#DejaVuSans-2212" transform="translate(128.203125 38.965625) scale(0.7)"/>
       <use xlink:href="#DejaVuSans-35" transform="translate(186.855469 38.965625) scale(0.7)"/>
      </g>
     </g>
    </g>
    <g id="ytick_2">
     <g id="line2d_17">
      <path d="M 90 307.054944 
L 648 307.054944 
" clip-path="url(#p26fc47c05b)" style="fill: none; stroke-dasharray: 2.96,1.28; stroke-dashoffset: 0; stroke: #b0b0b0; stroke-width: 0.8"/>
     </g>
     <g id="line2d_18">
      <g>
       <use xlink:href="#m34dc5e31f9" x="90" y="307.054944" style="stroke: #000000; stroke-width: 0.8"/>
      </g>
     </g>
     <g id="text_10">
      <!-- $\mathdefault{10^{-4}}$ -->
      <g transform="translate(59.5 310.854162) scale(0.1 -0.1)">
       <defs>
        <path id="DejaVuSans-34" d="M 2419 4116 
L 825 1625 
L 2419 1625 
L 2419 4116 
z
M 2253 4666 
L 3047 4666 
L 3047 1625 
L 3713 1625 
L 3713 1100 
L 3047 1100 
L 3047 0 
L 2419 0 
L 2419 1100 
L 313 1100 
L 313 1709 
L 2253 4666 
z
" transform="scale(0.015625)"/>
       </defs>
       <use xlink:href="#DejaVuSans-31" transform="translate(0 0.684375)"/>
       <use xlink:href="#DejaVuSans-30" transform="translate(63.623047 0.684375)"/>
       <use xlink:href="#DejaVuSans-2212" transform="translate(128.203125 38.965625) scale(0.7)"/>
       <use xlink:href="#DejaVuSans-34" transform="translate(186.855469 38.965625) scale(0.7)"/>
      </g>
     </g>
    </g>
    <g id="ytick_3">
     <g id="line2d_19">
      <path d="M 90 230.951796 
L 648 230.951796 
" clip-path="url(#p26fc47c05b)" style="fill: none; stroke-dasharray: 2.96,1.28; stroke-dashoffset: 0; stroke: #b0b0b0; stroke-width: 0.8"/>
     </g>
     <g id="line2d_20">
      <g>
       <use xlink:href="#m34dc5e31f9" x="90" y="230.951796" style="stroke: #000000; stroke-width: 0.8"/>
      </g>
     </g>
     <g id="text_11">
      <!-- $\mathdefault{10^{-3}}$ -->
      <g transform="translate(59.5 234.751015) scale(0.1 -0.1)">
       <use xlink:href="#DejaVuSans-31" transform="translate(0 0.765625)"/>
       <use xlink:href="#DejaVuSans-30" transform="translate(63.623047 0.765625)"/>
       <use xlink:href="#DejaVuSans-2212" transform="translate(128.203125 39.046875) scale(0.7)"/>
       <use xlink:href="#DejaVuSans-33" transform="translate(186.855469 39.046875) scale(0.7)"/>
      </g>
     </g>
    </g>
    <g id="ytick_4">
     <g id="line2d_21">
      <path d="M 90 154.848648 
L 648 154.848648 
" clip-path="url(#p26fc47c05b)" style="fill: none; stroke-dasharray: 2.96,1.28; stroke-dashoffset: 0; stroke: #b0b0b0; stroke-width: 0.8"/>
     </g>
     <g id="line2d_22">
      <g>
       <use xlink:href="#m34dc5e31f9" x="90" y="154.848648" style="stroke: #000000; stroke-width: 0.8"/>
      </g>
     </g>
     <g id="text_12">
      <!-- $\mathdefault{10^{-2}}$ -->
      <g transform="translate(59.5 158.647867) scale(0.1 -0.1)">
       <use xlink:href="#DejaVuSans-31" transform="translate(0 0.765625)"/>
       <use xlink:href="#DejaVuSans-30" transform="translate(63.623047 0.765625)"/>
       <use xlink:href="#DejaVuSans-2212" transform="translate(128.203125 39.046875) scale(0.7)"/>
       <use xlink:href="#DejaVuSans-32" transform="translate(186.855469 39.046875) scale(0.7)"/>
      </g>
     </g>
    </g>
    <g id="ytick_5">
     <g id="line2d_23">
      <path d="M 90 78.745501 
L 648 78.745501 
" clip-path="url(#p26fc47c05b)" style="fill: none; stroke-dasharray: 2.96,1.28; stroke-dashoffset: 0; stroke: #b0b0b0; stroke-width: 0.8"/>
     </g>
     <g id="line2d_24">
      <g>
       <use xlink:href="#m34dc5e31f9" x="90" y="78.745501" style="stroke: #000000; stroke-width: 0.8"/>
      </g>
     </g>
     <g id="text_13">
      <!-- $\mathdefault{10^{-1}}$ -->
      <g transform="translate(59.5 82.54472) scale(0.1 -0.1)">
       <use xlink:href="#DejaVuSans-31" transform="translate(0 0.684375)"/>
       <use xlink:href="#DejaVuSans-30" transform="translate(63.623047 0.684375)"/>
       <use xlink:href="#DejaVuSans-2212" transform="translate(128.203125 38.965625) scale(0.7)"/>
       <use xlink:href="#DejaVuSans-31" transform="translate(186.855469 38.965625) scale(0.7)"/>
      </g>
     </g>
    </g>
    <g id="ytick_6">
     <g id="line2d_25">
      <path d="M 90 360.248761 
L 648 360.248761 
" clip-path="url(#p26fc47c05b)" style="fill: none; stroke-dasharray: 2.96,1.28; stroke-dashoffset: 0; stroke: #b0b0b0; stroke-width: 0.8"/>
     </g>
     <g id="line2d_26">
      <defs>
       <path id="mecce97f84d" d="M 0 0 
L -2 0 
" style="stroke: #000000; stroke-width: 0.6"/>
      </defs>
      <g>
       <use xlink:href="#mecce97f84d" x="90" y="360.248761" style="stroke: #000000; stroke-width: 0.6"/>
      </g>
     </g>
    </g>
    <g id="ytick_7">
     <g id="line2d_27">
      <path d="M 90 346.847662 
L 648 346.847662 
" clip-path="url(#p26fc47c05b)" style="fill: none; stroke-dasharray: 2.96,1.28; stroke-dashoffset: 0; stroke: #b0b0b0; stroke-width: 0.8"/>
     </g>
     <g id="line2d_28">
      <g>
       <use xlink:href="#mecce97f84d" x="90" y="346.847662" style="stroke: #000000; stroke-width: 0.6"/>
      </g>
     </g>
    </g>
    <g id="ytick_8">
     <g id="line2d_29">
      <path d="M 90 337.339431 
L 648 337.339431 
" clip-path="url(#p26fc47c05b)" style="fill: none; stroke-dasharray: 2.96,1.28; stroke-dashoffset: 0; stroke: #b0b0b0; stroke-width: 0.8"/>
     </g>
     <g id="line2d_30">
      <g>
       <use xlink:href="#mecce97f84d" x="90" y="337.339431" style="stroke: #000000; stroke-width: 0.6"/>
      </g>
     </g>
    </g>
    <g id="ytick_9">
     <g id="line2d_31">
      <path d="M 90 329.964274 
L 648 329.964274 
" clip-path="url(#p26fc47c05b)" style="fill: none; stroke-dasharray: 2.96,1.28; stroke-dashoffset: 0; stroke: #b0b0b0; stroke-width: 0.8"/>
     </g>
     <g id="line2d_32">
      <g>
       <use xlink:href="#mecce97f84d" x="90" y="329.964274" style="stroke: #000000; stroke-width: 0.6"/>
      </g>
     </g>
    </g>
    <g id="ytick_10">
     <g id="line2d_33">
      <path d="M 90 323.938332 
L 648 323.938332 
" clip-path="url(#p26fc47c05b)" style="fill: none; stroke-dasharray: 2.96,1.28; stroke-dashoffset: 0; stroke: #b0b0b0; stroke-width: 0.8"/>
     </g>
     <g id="line2d_34">
      <g>
       <use xlink:href="#mecce97f84d" x="90" y="323.938332" style="stroke: #000000; stroke-width: 0.6"/>
      </g>
     </g>
    </g>
    <g id="ytick_11">
     <g id="line2d_35">
      <path d="M 90 318.84347 
L 648 318.84347 
" clip-path="url(#p26fc47c05b)" style="fill: none; stroke-dasharray: 2.96,1.28; stroke-dashoffset: 0; stroke: #b0b0b0; stroke-width: 0.8"/>
     </g>
     <g id="line2d_36">
      <g>
       <use xlink:href="#mecce97f84d" x="90" y="318.84347" style="stroke: #000000; stroke-width: 0.6"/>
      </g>
     </g>
    </g>
    <g id="ytick_12">
     <g id="line2d_37">
      <path d="M 90 314.430101 
L 648 314.430101 
" clip-path="url(#p26fc47c05b)" style="fill: none; stroke-dasharray: 2.96,1.28; stroke-dashoffset: 0; stroke: #b0b0b0; stroke-width: 0.8"/>
     </g>
     <g id="line2d_38">
      <g>
       <use xlink:href="#mecce97f84d" x="90" y="314.430101" style="stroke: #000000; stroke-width: 0.6"/>
      </g>
     </g>
    </g>
    <g id="ytick_13">
     <g id="line2d_39">
      <path d="M 90 310.537233 
L 648 310.537233 
" clip-path="url(#p26fc47c05b)" style="fill: none; stroke-dasharray: 2.96,1.28; stroke-dashoffset: 0; stroke: #b0b0b0; stroke-width: 0.8"/>
     </g>
     <g id="line2d_40">
      <g>
       <use xlink:href="#mecce97f84d" x="90" y="310.537233" style="stroke: #000000; stroke-width: 0.6"/>
      </g>
     </g>
    </g>
    <g id="ytick_14">
     <g id="line2d_41">
      <path d="M 90 284.145613 
L 648 284.145613 
" clip-path="url(#p26fc47c05b)" style="fill: none; stroke-dasharray: 2.96,1.28; stroke-dashoffset: 0; stroke: #b0b0b0; stroke-width: 0.8"/>
     </g>
     <g id="line2d_42">
      <g>
       <use xlink:href="#mecce97f84d" x="90" y="284.145613" style="stroke: #000000; stroke-width: 0.6"/>
      </g>
     </g>
    </g>
    <g id="ytick_15">
     <g id="line2d_43">
      <path d="M 90 270.744514 
L 648 270.744514 
" clip-path="url(#p26fc47c05b)" style="fill: none; stroke-dasharray: 2.96,1.28; stroke-dashoffset: 0; stroke: #b0b0b0; stroke-width: 0.8"/>
     </g>
     <g id="line2d_44">
      <g>
       <use xlink:href="#mecce97f84d" x="90" y="270.744514" style="stroke: #000000; stroke-width: 0.6"/>
      </g>
     </g>
    </g>
    <g id="ytick_16">
     <g id="line2d_45">
      <path d="M 90 261.236283 
L 648 261.236283 
" clip-path="url(#p26fc47c05b)" style="fill: none; stroke-dasharray: 2.96,1.28; stroke-dashoffset: 0; stroke: #b0b0b0; stroke-width: 0.8"/>
     </g>
     <g id="line2d_46">
      <g>
       <use xlink:href="#mecce97f84d" x="90" y="261.236283" style="stroke: #000000; stroke-width: 0.6"/>
      </g>
     </g>
    </g>
    <g id="ytick_17">
     <g id="line2d_47">
      <path d="M 90 253.861126 
L 648 253.861126 
" clip-path="url(#p26fc47c05b)" style="fill: none; stroke-dasharray: 2.96,1.28; stroke-dashoffset: 0; stroke: #b0b0b0; stroke-width: 0.8"/>
     </g>
     <g id="line2d_48">
      <g>
       <use xlink:href="#mecce97f84d" x="90" y="253.861126" style="stroke: #000000; stroke-width: 0.6"/>
      </g>
     </g>
    </g>
    <g id="ytick_18">
     <g id="line2d_49">
      <path d="M 90 247.835184 
L 648 247.835184 
" clip-path="url(#p26fc47c05b)" style="fill: none; stroke-dasharray: 2.96,1.28; stroke-dashoffset: 0; stroke: #b0b0b0; stroke-width: 0.8"/>
     </g>
     <g id="line2d_50">
      <g>
       <use xlink:href="#mecce97f84d" x="90" y="247.835184" style="stroke: #000000; stroke-width: 0.6"/>
      </g>
     </g>
    </g>
    <g id="ytick_19">
     <g id="line2d_51">
      <path d="M 90 242.740323 
L 648 242.740323 
" clip-path="url(#p26fc47c05b)" style="fill: none; stroke-dasharray: 2.96,1.28; stroke-dashoffset: 0; stroke: #b0b0b0; stroke-width: 0.8"/>
     </g>
     <g id="line2d_52">
      <g>
       <use xlink:href="#mecce97f84d" x="90" y="242.740323" style="stroke: #000000; stroke-width: 0.6"/>
      </g>
     </g>
    </g>
    <g id="ytick_20">
     <g id="line2d_53">
      <path d="M 90 238.326953 
L 648 238.326953 
" clip-path="url(#p26fc47c05b)" style="fill: none; stroke-dasharray: 2.96,1.28; stroke-dashoffset: 0; stroke: #b0b0b0; stroke-width: 0.8"/>
     </g>
     <g id="line2d_54">
      <g>
       <use xlink:href="#mecce97f84d" x="90" y="238.326953" style="stroke: #000000; stroke-width: 0.6"/>
      </g>
     </g>
    </g>
    <g id="ytick_21">
     <g id="line2d_55">
      <path d="M 90 234.434085 
L 648 234.434085 
" clip-path="url(#p26fc47c05b)" style="fill: none; stroke-dasharray: 2.96,1.28; stroke-dashoffset: 0; stroke: #b0b0b0; stroke-width: 0.8"/>
     </g>
     <g id="line2d_56">
      <g>
       <use xlink:href="#mecce97f84d" x="90" y="234.434085" style="stroke: #000000; stroke-width: 0.6"/>
      </g>
     </g>
    </g>
    <g id="ytick_22">
     <g id="line2d_57">
      <path d="M 90 208.042466 
L 648 208.042466 
" clip-path="url(#p26fc47c05b)" style="fill: none; stroke-dasharray: 2.96,1.28; stroke-dashoffset: 0; stroke: #b0b0b0; stroke-width: 0.8"/>
     </g>
     <g id="line2d_58">
      <g>
       <use xlink:href="#mecce97f84d" x="90" y="208.042466" style="stroke: #000000; stroke-width: 0.6"/>
      </g>
     </g>
    </g>
    <g id="ytick_23">
     <g id="line2d_59">
      <path d="M 90 194.641367 
L 648 194.641367 
" clip-path="url(#p26fc47c05b)" style="fill: none; stroke-dasharray: 2.96,1.28; stroke-dashoffset: 0; stroke: #b0b0b0; stroke-width: 0.8"/>
     </g>
     <g id="line2d_60">
      <g>
       <use xlink:href="#mecce97f84d" x="90" y="194.641367" style="stroke: #000000; stroke-width: 0.6"/>
      </g>
     </g>
    </g>
    <g id="ytick_24">
     <g id="line2d_61">
      <path d="M 90 185.133136 
L 648 185.133136 
" clip-path="url(#p26fc47c05b)" style="fill: none; stroke-dasharray: 2.96,1.28; stroke-dashoffset: 0; stroke: #b0b0b0; stroke-width: 0.8"/>
     </g>
     <g id="line2d_62">
      <g>
       <use xlink:href="#mecce97f84d" x="90" y="185.133136" style="stroke: #000000; stroke-width: 0.6"/>
      </g>
     </g>
    </g>
    <g id="ytick_25">
     <g id="line2d_63">
      <path d="M 90 177.757979 
L 648 177.757979 
" clip-path="url(#p26fc47c05b)" style="fill: none; stroke-dasharray: 2.96,1.28; stroke-dashoffset: 0; stroke: #b0b0b0; stroke-width: 0.8"/>
     </g>
     <g id="line2d_64">
      <g>
       <use xlink:href="#mecce97f84d" x="90" y="177.757979" style="stroke: #000000; stroke-width: 0.6"/>
      </g>
     </g>
    </g>
    <g id="ytick_26">
     <g id="line2d_65">
      <path d="M 90 171.732037 
L 648 171.732037 
" clip-path="url(#p26fc47c05b)" style="fill: none; stroke-dasharray: 2.96,1.28; stroke-dashoffset: 0; stroke: #b0b0b0; stroke-width: 0.8"/>
     </g>
     <g id="line2d_66">
      <g>
       <use xlink:href="#mecce97f84d" x="90" y="171.732037" style="stroke: #000000; stroke-width: 0.6"/>
      </g>
     </g>
    </g>
    <g id="ytick_27">
     <g id="line2d_67">
      <path d="M 90 166.637175 
L 648 166.637175 
" clip-path="url(#p26fc47c05b)" style="fill: none; stroke-dasharray: 2.96,1.28; stroke-dashoffset: 0; stroke: #b0b0b0; stroke-width: 0.8"/>
     </g>
     <g id="line2d_68">
      <g>
       <use xlink:href="#mecce97f84d" x="90" y="166.637175" style="stroke: #000000; stroke-width: 0.6"/>
      </g>
     </g>
    </g>
    <g id="ytick_28">
     <g id="line2d_69">
      <path d="M 90 162.223805 
L 648 162.223805 
" clip-path="url(#p26fc47c05b)" style="fill: none; stroke-dasharray: 2.96,1.28; stroke-dashoffset: 0; stroke: #b0b0b0; stroke-width: 0.8"/>
     </g>
     <g id="line2d_70">
      <g>
       <use xlink:href="#mecce97f84d" x="90" y="162.223805" style="stroke: #000000; stroke-width: 0.6"/>
      </g>
     </g>
    </g>
    <g id="ytick_29">
     <g id="line2d_71">
      <path d="M 90 158.330937 
L 648 158.330937 
" clip-path="url(#p26fc47c05b)" style="fill: none; stroke-dasharray: 2.96,1.28; stroke-dashoffset: 0; stroke: #b0b0b0; stroke-width: 0.8"/>
     </g>
     <g id="line2d_72">
      <g>
       <use xlink:href="#mecce97f84d" x="90" y="158.330937" style="stroke: #000000; stroke-width: 0.6"/>
      </g>
     </g>
    </g>
    <g id="ytick_30">
     <g id="line2d_73">
      <path d="M 90 131.939318 
L 648 131.939318 
" clip-path="url(#p26fc47c05b)" style="fill: none; stroke-dasharray: 2.96,1.28; stroke-dashoffset: 0; stroke: #b0b0b0; stroke-width: 0.8"/>
     </g>
     <g id="line2d_74">
      <g>
       <use xlink:href="#mecce97f84d" x="90" y="131.939318" style="stroke: #000000; stroke-width: 0.6"/>
      </g>
     </g>
    </g>
    <g id="ytick_31">
     <g id="line2d_75">
      <path d="M 90 118.538219 
L 648 118.538219 
" clip-path="url(#p26fc47c05b)" style="fill: none; stroke-dasharray: 2.96,1.28; stroke-dashoffset: 0; stroke: #b0b0b0; stroke-width: 0.8"/>
     </g>
     <g id="line2d_76">
      <g>
       <use xlink:href="#mecce97f84d" x="90" y="118.538219" style="stroke: #000000; stroke-width: 0.6"/>
      </g>
     </g>
    </g>
    <g id="ytick_32">
     <g id="line2d_77">
      <path d="M 90 109.029988 
L 648 109.029988 
" clip-path="url(#p26fc47c05b)" style="fill: none; stroke-dasharray: 2.96,1.28; stroke-dashoffset: 0; stroke: #b0b0b0; stroke-width: 0.8"/>
     </g>
     <g id="line2d_78">
      <g>
       <use xlink:href="#mecce97f84d" x="90" y="109.029988" style="stroke: #000000; stroke-width: 0.6"/>
      </g>
     </g>
    </g>
    <g id="ytick_33">
     <g id="line2d_79">
      <path d="M 90 101.654831 
L 648 101.654831 
" clip-path="url(#p26fc47c05b)" style="fill: none; stroke-dasharray: 2.96,1.28; stroke-dashoffset: 0; stroke: #b0b0b0; stroke-width: 0.8"/>
     </g>
     <g id="line2d_80">
      <g>
       <use xlink:href="#mecce97f84d" x="90" y="101.654831" style="stroke: #000000; stroke-width: 0.6"/>
      </g>
     </g>
    </g>
    <g id="ytick_34">
     <g id="line2d_81">
      <path d="M 90 95.628889 
L 648 95.628889 
" clip-path="url(#p26fc47c05b)" style="fill: none; stroke-dasharray: 2.96,1.28; stroke-dashoffset: 0; stroke: #b0b0b0; stroke-width: 0.8"/>
     </g>
     <g id="line2d_82">
      <g>
       <use xlink:href="#mecce97f84d" x="90" y="95.628889" style="stroke: #000000; stroke-width: 0.6"/>
      </g>
     </g>
    </g>
    <g id="ytick_35">
     <g id="line2d_83">
      <path d="M 90 90.534028 
L 648 90.534028 
" clip-path="url(#p26fc47c05b)" style="fill: none; stroke-dasharray: 2.96,1.28; stroke-dashoffset: 0; stroke: #b0b0b0; stroke-width: 0.8"/>
     </g>
     <g id="line2d_84">
      <g>
       <use xlink:href="#mecce97f84d" x="90" y="90.534028" style="stroke: #000000; stroke-width: 0.6"/>
      </g>
     </g>
    </g>
    <g id="ytick_36">
     <g id="line2d_85">
      <path d="M 90 86.120658 
L 648 86.120658 
" clip-path="url(#p26fc47c05b)" style="fill: none; stroke-dasharray: 2.96,1.28; stroke-dashoffset: 0; stroke: #b0b0b0; stroke-width: 0.8"/>
     </g>
     <g id="line2d_86">
      <g>
       <use xlink:href="#mecce97f84d" x="90" y="86.120658" style="stroke: #000000; stroke-width: 0.6"/>
      </g>
     </g>
    </g>
    <g id="ytick_37">
     <g id="line2d_87">
      <path d="M 90 82.22779 
L 648 82.22779 
" clip-path="url(#p26fc47c05b)" style="fill: none; stroke-dasharray: 2.96,1.28; stroke-dashoffset: 0; stroke: #b0b0b0; stroke-width: 0.8"/>
     </g>
     <g id="line2d_88">
      <g>
       <use xlink:href="#mecce97f84d" x="90" y="82.22779" style="stroke: #000000; stroke-width: 0.6"/>
      </g>
     </g>
    </g>
    <g id="ytick_38">
     <g id="line2d_89">
      <path d="M 90 55.836171 
L 648 55.836171 
" clip-path="url(#p26fc47c05b)" style="fill: none; stroke-dasharray: 2.96,1.28; stroke-dashoffset: 0; stroke: #b0b0b0; stroke-width: 0.8"/>
     </g>
     <g id="line2d_90">
      <g>
       <use xlink:href="#mecce97f84d" x="90" y="55.836171" style="stroke: #000000; stroke-width: 0.6"/>
      </g>
     </g>
    </g>
    <g id="text_14">
     <!-- Huber Loss (Normalized) -->
     <g transform="translate(53.420312 279.7975) rotate(-90) scale(0.1 -0.1)">
      <defs>
       <path id="DejaVuSans-48" d="M 628 4666 
L 1259 4666 
L 1259 2753 
L 3553 2753 
L 3553 4666 
L 4184 4666 
L 4184 0 
L 3553 0 
L 3553 2222 
L 1259 2222 
L 1259 0 
L 628 0 
L 628 4666 
z
" transform="scale(0.015625)"/>
       <path id="DejaVuSans-75" d="M 544 1381 
L 544 3500 
L 1119 3500 
L 1119 1403 
Q 1119 906 1312 657 
Q 1506 409 1894 409 
Q 2359 409 2629 706 
Q 2900 1003 2900 1516 
L 2900 3500 
L 3475 3500 
L 3475 0 
L 2900 0 
L 2900 538 
Q 2691 219 2414 64 
Q 2138 -91 1772 -91 
Q 1169 -91 856 284 
Q 544 659 544 1381 
z
M 1991 3584 
L 1991 3584 
z
" transform="scale(0.015625)"/>
       <path id="DejaVuSans-62" d="M 3116 1747 
Q 3116 2381 2855 2742 
Q 2594 3103 2138 3103 
Q 1681 3103 1420 2742 
Q 1159 2381 1159 1747 
Q 1159 1113 1420 752 
Q 1681 391 2138 391 
Q 2594 391 2855 752 
Q 3116 1113 3116 1747 
z
M 1159 2969 
Q 1341 3281 1617 3432 
Q 1894 3584 2278 3584 
Q 2916 3584 3314 3078 
Q 3713 2572 3713 1747 
Q 3713 922 3314 415 
Q 2916 -91 2278 -91 
Q 1894 -91 1617 61 
Q 1341 213 1159 525 
L 1159 0 
L 581 0 
L 581 4863 
L 1159 4863 
L 1159 2969 
z
" transform="scale(0.015625)"/>
       <path id="DejaVuSans-65" d="M 3597 1894 
L 3597 1613 
L 953 1613 
Q 991 1019 1311 708 
Q 1631 397 2203 397 
Q 2534 397 2845 478 
Q 3156 559 3463 722 
L 3463 178 
Q 3153 47 2828 -22 
Q 2503 -91 2169 -91 
Q 1331 -91 842 396 
Q 353 884 353 1716 
Q 353 2575 817 3079 
Q 1281 3584 2069 3584 
Q 2775 3584 3186 3129 
Q 3597 2675 3597 1894 
z
M 3022 2063 
Q 3016 2534 2758 2815 
Q 2500 3097 2075 3097 
Q 1594 3097 1305 2825 
Q 1016 2553 972 2059 
L 3022 2063 
z
" transform="scale(0.015625)"/>
       <path id="DejaVuSans-72" d="M 2631 2963 
Q 2534 3019 2420 3045 
Q 2306 3072 2169 3072 
Q 1681 3072 1420 2755 
Q 1159 2438 1159 1844 
L 1159 0 
L 581 0 
L 581 3500 
L 1159 3500 
L 1159 2956 
Q 1341 3275 1631 3429 
Q 1922 3584 2338 3584 
Q 2397 3584 2469 3576 
Q 2541 3569 2628 3553 
L 2631 2963 
z
" transform="scale(0.015625)"/>
       <path id="DejaVuSans-20" transform="scale(0.015625)"/>
       <path id="DejaVuSans-4c" d="M 628 4666 
L 1259 4666 
L 1259 531 
L 3531 531 
L 3531 0 
L 628 0 
L 628 4666 
z
" transform="scale(0.015625)"/>
       <path id="DejaVuSans-73" d="M 2834 3397 
L 2834 2853 
Q 2591 2978 2328 3040 
Q 2066 3103 1784 3103 
Q 1356 3103 1142 2972 
Q 928 2841 928 2578 
Q 928 2378 1081 2264 
Q 1234 2150 1697 2047 
L 1894 2003 
Q 2506 1872 2764 1633 
Q 3022 1394 3022 966 
Q 3022 478 2636 193 
Q 2250 -91 1575 -91 
Q 1294 -91 989 -36 
Q 684 19 347 128 
L 347 722 
Q 666 556 975 473 
Q 1284 391 1588 391 
Q 1994 391 2212 530 
Q 2431 669 2431 922 
Q 2431 1156 2273 1281 
Q 2116 1406 1581 1522 
L 1381 1569 
Q 847 1681 609 1914 
Q 372 2147 372 2553 
Q 372 3047 722 3315 
Q 1072 3584 1716 3584 
Q 2034 3584 2315 3537 
Q 2597 3491 2834 3397 
z
" transform="scale(0.015625)"/>
       <path id="DejaVuSans-28" d="M 1984 4856 
Q 1566 4138 1362 3434 
Q 1159 2731 1159 2009 
Q 1159 1288 1364 580 
Q 1569 -128 1984 -844 
L 1484 -844 
Q 1016 -109 783 600 
Q 550 1309 550 2009 
Q 550 2706 781 3412 
Q 1013 4119 1484 4856 
L 1984 4856 
z
" transform="scale(0.015625)"/>
       <path id="DejaVuSans-4e" d="M 628 4666 
L 1478 4666 
L 3547 763 
L 3547 4666 
L 4159 4666 
L 4159 0 
L 3309 0 
L 1241 3903 
L 1241 0 
L 628 0 
L 628 4666 
z
" transform="scale(0.015625)"/>
       <path id="DejaVuSans-6d" d="M 3328 2828 
Q 3544 3216 3844 3400 
Q 4144 3584 4550 3584 
Q 5097 3584 5394 3201 
Q 5691 2819 5691 2113 
L 5691 0 
L 5113 0 
L 5113 2094 
Q 5113 2597 4934 2840 
Q 4756 3084 4391 3084 
Q 3944 3084 3684 2787 
Q 3425 2491 3425 1978 
L 3425 0 
L 2847 0 
L 2847 2094 
Q 2847 2600 2669 2842 
Q 2491 3084 2119 3084 
Q 1678 3084 1418 2786 
Q 1159 2488 1159 1978 
L 1159 0 
L 581 0 
L 581 3500 
L 1159 3500 
L 1159 2956 
Q 1356 3278 1631 3431 
Q 1906 3584 2284 3584 
Q 2666 3584 2933 3390 
Q 3200 3197 3328 2828 
z
" transform="scale(0.015625)"/>
       <path id="DejaVuSans-61" d="M 2194 1759 
Q 1497 1759 1228 1600 
Q 959 1441 959 1056 
Q 959 750 1161 570 
Q 1363 391 1709 391 
Q 2188 391 2477 730 
Q 2766 1069 2766 1631 
L 2766 1759 
L 2194 1759 
z
M 3341 1997 
L 3341 0 
L 2766 0 
L 2766 531 
Q 2569 213 2275 61 
Q 1981 -91 1556 -91 
Q 1019 -91 701 211 
Q 384 513 384 1019 
Q 384 1609 779 1909 
Q 1175 2209 1959 2209 
L 2766 2209 
L 2766 2266 
Q 2766 2663 2505 2880 
Q 2244 3097 1772 3097 
Q 1472 3097 1187 3025 
Q 903 2953 641 2809 
L 641 3341 
Q 956 3463 1253 3523 
Q 1550 3584 1831 3584 
Q 2591 3584 2966 3190 
Q 3341 2797 3341 1997 
z
" transform="scale(0.015625)"/>
       <path id="DejaVuSans-6c" d="M 603 4863 
L 1178 4863 
L 1178 0 
L 603 0 
L 603 4863 
z
" transform="scale(0.015625)"/>
       <path id="DejaVuSans-69" d="M 603 3500 
L 1178 3500 
L 1178 0 
L 603 0 
L 603 3500 
z
M 603 4863 
L 1178 4863 
L 1178 4134 
L 603 4134 
L 603 4863 
z
" transform="scale(0.015625)"/>
       <path id="DejaVuSans-7a" d="M 353 3500 
L 3084 3500 
L 3084 2975 
L 922 459 
L 3084 459 
L 3084 0 
L 275 0 
L 275 525 
L 2438 3041 
L 353 3041 
L 353 3500 
z
" transform="scale(0.015625)"/>
       <path id="DejaVuSans-64" d="M 2906 2969 
L 2906 4863 
L 3481 4863 
L 3481 0 
L 2906 0 
L 2906 525 
Q 2725 213 2448 61 
Q 2172 -91 1784 -91 
Q 1150 -91 751 415 
Q 353 922 353 1747 
Q 353 2572 751 3078 
Q 1150 3584 1784 3584 
Q 2172 3584 2448 3432 
Q 2725 3281 2906 2969 
z
M 947 1747 
Q 947 1113 1208 752 
Q 1469 391 1925 391 
Q 2381 391 2643 752 
Q 2906 1113 2906 1747 
Q 2906 2381 2643 2742 
Q 2381 3103 1925 3103 
Q 1469 3103 1208 2742 
Q 947 2381 947 1747 
z
" transform="scale(0.015625)"/>
       <path id="DejaVuSans-29" d="M 513 4856 
L 1013 4856 
Q 1481 4119 1714 3412 
Q 1947 2706 1947 2009 
Q 1947 1309 1714 600 
Q 1481 -109 1013 -844 
L 513 -844 
Q 928 -128 1133 580 
Q 1338 1288 1338 2009 
Q 1338 2731 1133 3434 
Q 928 4138 513 4856 
z
" transform="scale(0.015625)"/>
      </defs>
      <use xlink:href="#DejaVuSans-48"/>
      <use xlink:href="#DejaVuSans-75" transform="translate(75.195312 0)"/>
      <use xlink:href="#DejaVuSans-62" transform="translate(138.574219 0)"/>
      <use xlink:href="#DejaVuSans-65" transform="translate(202.050781 0)"/>
      <use xlink:href="#DejaVuSans-72" transform="translate(263.574219 0)"/>
      <use xlink:href="#DejaVuSans-20" transform="translate(304.6875 0)"/>
      <use xlink:href="#DejaVuSans-4c" transform="translate(336.474609 0)"/>
      <use xlink:href="#DejaVuSans-6f" transform="translate(390.4375 0)"/>
      <use xlink:href="#DejaVuSans-73" transform="translate(451.619141 0)"/>
      <use xlink:href="#DejaVuSans-73" transform="translate(503.71875 0)"/>
      <use xlink:href="#DejaVuSans-20" transform="translate(555.818359 0)"/>
      <use xlink:href="#DejaVuSans-28" transform="translate(587.605469 0)"/>
      <use xlink:href="#DejaVuSans-4e" transform="translate(626.619141 0)"/>
      <use xlink:href="#DejaVuSans-6f" transform="translate(701.423828 0)"/>
      <use xlink:href="#DejaVuSans-72" transform="translate(762.605469 0)"/>
      <use xlink:href="#DejaVuSans-6d" transform="translate(801.96875 0)"/>
      <use xlink:href="#DejaVuSans-61" transform="translate(899.380859 0)"/>
      <use xlink:href="#DejaVuSans-6c" transform="translate(960.660156 0)"/>
      <use xlink:href="#DejaVuSans-69" transform="translate(988.443359 0)"/>
      <use xlink:href="#DejaVuSans-7a" transform="translate(1016.226562 0)"/>
      <use xlink:href="#DejaVuSans-65" transform="translate(1068.716797 0)"/>
      <use xlink:href="#DejaVuSans-64" transform="translate(1130.240234 0)"/>
      <use xlink:href="#DejaVuSans-29" transform="translate(1193.716797 0)"/>
     </g>
    </g>
   </g>
   <g id="line2d_91">
    <path d="M 115.363636 66.96 
L 117.054545 156.351721 
L 118.745455 186.400033 
L 120.436364 201.492569 
L 122.127273 214.469322 
L 123.818182 222.15298 
L 125.509091 232.9343 
L 128.890909 251.188997 
L 130.581818 255.681223 
L 132.272727 256.906291 
L 133.963636 261.135846 
L 135.654545 265.747478 
L 137.345455 265.528735 
L 139.036364 271.990119 
L 140.727273 276.759617 
L 142.418182 274.051668 
L 144.109091 275.788463 
L 145.8 273.977961 
L 147.490909 279.144195 
L 149.181818 278.484169 
L 150.872727 275.216927 
L 152.563636 273.505372 
L 154.254545 269.488995 
L 155.945455 262.021664 
L 157.636364 275.063648 
L 159.327273 280.641615 
L 161.018182 261.236068 
L 162.709091 272.61246 
L 164.4 280.214001 
L 166.090909 286.316044 
L 167.781818 287.6783 
L 171.163636 293.557874 
L 172.854545 279.705579 
L 174.545455 286.261775 
L 176.236364 278.499979 
L 177.927273 268.348234 
L 179.618182 257.426877 
L 181.309091 282.950474 
L 183 299.587044 
L 184.690909 289.275136 
L 186.381818 275.582502 
L 188.072727 270.181743 
L 189.763636 274.266608 
L 191.454545 286.181672 
L 193.145455 296.419703 
L 194.836364 293.136222 
L 196.527273 296.020708 
L 198.218182 299.358835 
L 199.909091 277.570028 
L 201.6 285.398913 
L 203.290909 271.110083 
L 204.981818 276.528055 
L 206.672727 285.240632 
L 208.363636 307.083555 
L 210.054545 308.782701 
L 211.745455 282.819499 
L 213.436364 278.661284 
L 215.127273 283.286304 
L 216.818182 290.110704 
L 218.509091 303.135248 
L 220.2 295.097906 
L 221.890909 273.171313 
L 223.581818 283.39181 
L 225.272727 292.206525 
L 226.963636 304.814088 
L 228.654545 313.590959 
L 230.345455 316.437493 
L 232.036364 315.902795 
L 233.727273 314.632738 
L 235.418182 290.723194 
L 237.109091 287.747827 
L 238.8 306.196417 
L 240.490909 294.606559 
L 242.181818 270.752543 
L 243.872727 293.430914 
L 245.563636 292.887501 
L 247.254545 294.317258 
L 248.945455 278.847805 
L 250.636364 280.888223 
L 252.327273 303.450476 
L 254.018182 312.308992 
L 255.709091 285.309441 
L 257.4 304.830913 
L 259.090909 315.461136 
L 260.781818 316.114152 
L 262.472727 281.243695 
L 264.163636 270.389233 
L 265.854545 281.410387 
L 267.545455 264.270309 
L 269.236364 250.004863 
L 270.927273 273.733078 
L 272.618182 301.274206 
L 274.309091 319.836957 
L 276 326.444846 
L 277.690909 329.480585 
L 279.381818 322.720966 
L 281.072727 328.997819 
L 282.763636 304.992608 
L 284.454545 303.725639 
L 286.145455 300.190683 
L 287.836364 292.859468 
L 289.527273 250.803335 
L 291.218182 236.97713 
L 292.909091 275.336042 
L 294.6 287.983011 
L 296.290909 296.607297 
L 297.981818 300.045985 
L 299.672727 314.394081 
L 301.363636 316.542483 
L 303.054545 322.181032 
L 304.745455 331.807284 
L 306.436364 332.215293 
L 308.127273 322.973466 
L 309.818182 283.366356 
L 311.509091 312.454302 
L 313.2 310.188244 
L 314.890909 316.753497 
L 316.581818 258.085887 
L 318.272727 282.413866 
L 319.963636 300.774144 
L 321.654545 323.285364 
L 323.345455 329.132445 
L 325.036364 333.301125 
L 326.727273 324.877043 
L 328.418182 334.215603 
L 330.109091 332.894979 
L 331.8 305.701971 
L 333.490909 288.352551 
L 335.181818 292.100354 
L 336.872727 294.414503 
L 338.563636 286.161651 
L 341.945455 288.910073 
L 343.636364 293.819178 
L 345.327273 300.463196 
L 347.018182 312.121496 
L 348.709091 294.556674 
L 350.4 321.226125 
L 352.090909 319.291856 
L 353.781818 316.304912 
L 355.472727 309.979876 
L 357.163636 299.820801 
L 358.854545 324.296523 
L 360.545455 308.79584 
L 362.236364 231.123554 
L 363.927273 250.061959 
L 365.618182 299.718091 
L 367.309091 311.933794 
L 369 331.604908 
L 370.690909 331.132811 
L 372.381818 336.899616 
L 374.072727 343.091824 
L 375.763636 349.894602 
L 377.454545 349.779348 
L 379.145455 347.549528 
L 380.836364 340.563007 
L 382.527273 341.524988 
L 384.218182 340.364059 
L 385.909091 336.658599 
L 387.6 338.886272 
L 389.290909 334.2306 
L 390.981818 333.439319 
L 392.672727 322.753473 
L 396.054545 339.725708 
L 397.745455 310.717293 
L 399.436364 270.952743 
L 401.127273 277.381383 
L 402.818182 256.865775 
L 404.509091 263.741726 
L 406.2 256.373037 
L 407.890909 279.064891 
L 409.581818 279.6903 
L 411.272727 307.338202 
L 412.963636 328.147598 
L 414.654545 340.540321 
L 416.345455 350.281942 
L 418.036364 351.532556 
L 419.727273 349.868085 
L 421.418182 326.128614 
L 423.109091 351.485587 
L 424.8 348.953756 
L 426.490909 342.823324 
L 428.181818 346.350813 
L 429.872727 333.691485 
L 431.563636 339.84916 
L 433.254545 335.242755 
L 434.945455 327.67477 
L 436.636364 327.272882 
L 438.327273 335.684087 
L 441.709091 315.747026 
L 443.4 332.469165 
L 445.090909 287.045922 
L 446.781818 273.42825 
L 448.472727 307.016219 
L 450.163636 322.39618 
L 451.854545 335.296981 
L 453.545455 341.325622 
L 455.236364 319.514073 
L 456.927273 316.455097 
L 458.618182 328.879715 
L 460.309091 327.757139 
L 462 327.943706 
L 463.690909 306.419545 
L 465.381818 299.111621 
L 467.072727 299.033785 
L 468.763636 310.775201 
L 470.454545 317.188683 
L 472.145455 306.433952 
L 473.836364 299.462662 
L 475.527273 293.776848 
L 477.218182 263.743803 
L 478.909091 264.257823 
L 482.290909 325.306814 
L 483.981818 310.803392 
L 485.672727 320.36779 
L 487.363636 344.496506 
L 489.054545 362.729309 
L 490.745455 369.36 
L 492.436364 365.863192 
L 494.127273 366.159212 
L 495.818182 361.794225 
L 497.509091 337.85786 
L 499.2 335.240594 
L 500.890909 317.183399 
L 502.581818 316.850909 
L 504.272727 327.017148 
L 505.963636 342.717974 
L 507.654545 331.720744 
L 509.345455 331.405081 
L 511.036364 331.293824 
L 512.727273 330.698403 
L 514.418182 339.580948 
L 516.109091 329.398665 
L 517.8 313.037291 
L 519.490909 263.154931 
L 521.181818 277.895899 
L 522.872727 287.671098 
L 524.563636 301.079158 
L 526.254545 301.388602 
L 527.945455 308.361075 
L 529.636364 317.695256 
L 531.327273 337.287847 
L 533.018182 320.851628 
L 534.709091 318.235573 
L 536.4 320.653104 
L 538.090909 329.387151 
L 539.781818 322.496244 
L 541.472727 309.389641 
L 543.163636 326.730245 
L 544.854545 332.476392 
L 546.545455 348.061386 
L 548.236364 346.058601 
L 549.927273 336.882349 
L 551.618182 323.239377 
L 553.309091 322.478262 
L 555 326.982615 
L 556.690909 338.915006 
L 558.381818 336.592836 
L 560.072727 339.076492 
L 561.763636 352.133418 
L 563.454545 330.195032 
L 565.145455 299.263323 
L 566.836364 299.757198 
L 568.527273 302.260173 
L 570.218182 318.918419 
L 571.909091 321.624063 
L 573.6 341.822262 
L 575.290909 340.964392 
L 576.981818 330.26316 
L 578.672727 332.339789 
L 580.363636 326.016691 
L 582.054545 322.917955 
L 583.745455 301.742791 
L 585.436364 305.821781 
L 587.127273 316.210965 
L 590.509091 286.861181 
L 592.2 309.766442 
L 593.890909 320.417131 
L 595.581818 340.522655 
L 597.272727 344.225957 
L 598.963636 299.463141 
L 600.654545 285.235762 
L 602.345455 299.983575 
L 604.036364 313.213478 
L 605.727273 315.219528 
L 609.109091 352.79176 
L 610.8 357.669355 
L 612.490909 352.725528 
L 614.181818 353.169195 
L 615.872727 353.293851 
L 617.563636 356.971625 
L 619.254545 348.287326 
L 620.945455 332.723691 
L 622.636364 310.419149 
L 622.636364 310.419149 
" clip-path="url(#p26fc47c05b)" style="fill: none; stroke: #0000ff; stroke-width: 1.5; stroke-linecap: square"/>
   </g>
   <g id="line2d_92">
    <path d="M 115.363636 133.534243 
L 117.054545 177.33356 
L 118.745455 194.178563 
L 120.436364 204.79995 
L 122.127273 213.39826 
L 123.818182 230.587907 
L 125.509091 231.70654 
L 127.2 245.436735 
L 128.890909 253.229638 
L 130.581818 251.485535 
L 132.272727 260.617646 
L 133.963636 265.106995 
L 135.654545 264.12371 
L 137.345455 267.869473 
L 139.036364 274.472355 
L 140.727273 277.545119 
L 142.418182 268.520733 
L 144.109091 269.238854 
L 145.8 270.538894 
L 147.490909 276.239715 
L 149.181818 279.922549 
L 150.872727 278.53226 
L 152.563636 270.879521 
L 154.254545 272.230722 
L 155.945455 266.255799 
L 157.636364 271.490327 
L 159.327273 273.369584 
L 161.018182 262.238968 
L 162.709091 269.976952 
L 164.4 272.991204 
L 166.090909 293.591104 
L 167.781818 283.970221 
L 169.472727 290.047835 
L 171.163636 278.129651 
L 172.854545 288.837069 
L 174.545455 263.235693 
L 176.236364 266.204237 
L 177.927273 237.629767 
L 179.618182 278.806846 
L 181.309091 280.020556 
L 183 293.076194 
L 184.690909 282.523826 
L 186.381818 281.299268 
L 188.072727 252.574197 
L 189.763636 282.677456 
L 191.454545 293.557325 
L 193.145455 290.815853 
L 194.836364 289.279867 
L 196.527273 286.910118 
L 198.218182 272.349835 
L 199.909091 286.073126 
L 201.6 260.311458 
L 203.290909 258.271178 
L 204.981818 290.633911 
L 206.672727 293.897064 
L 208.363636 307.436911 
L 211.745455 256.772309 
L 213.436364 290.049745 
L 215.127273 285.720565 
L 216.818182 300.19319 
L 218.509091 294.350397 
L 220.2 280.895774 
L 221.890909 287.13516 
L 223.581818 280.638011 
L 225.272727 284.545901 
L 226.963636 296.421155 
L 228.654545 309.586059 
L 230.345455 310.021289 
L 232.036364 306.380705 
L 233.727273 307.014856 
L 235.418182 280.684933 
L 237.109091 302.855191 
L 238.8 302.224177 
L 240.490909 284.298007 
L 242.181818 288.696576 
L 243.872727 296.062716 
L 245.563636 289.963065 
L 247.254545 288.364574 
L 248.945455 270.62685 
L 250.636364 294.522762 
L 252.327273 311.551964 
L 254.018182 286.431058 
L 255.709091 288.846979 
L 257.4 312.64547 
L 259.090909 319.036885 
L 260.781818 310.399857 
L 262.472727 242.37466 
L 264.163636 282.961105 
L 265.854545 277.038368 
L 267.545455 263.192271 
L 269.236364 261.0942 
L 270.927273 285.487445 
L 272.618182 299.479272 
L 274.309091 322.657471 
L 276 327.453112 
L 277.690909 315.668037 
L 279.381818 318.669037 
L 281.072727 300.149519 
L 282.763636 313.62661 
L 284.454545 300.714582 
L 286.145455 301.177229 
L 287.836364 282.597242 
L 289.527273 222.033151 
L 291.218182 256.399808 
L 292.909091 283.7219 
L 294.6 286.073061 
L 296.290909 286.855265 
L 297.981818 308.430648 
L 299.672727 318.868005 
L 301.363636 303.877415 
L 303.054545 321.68791 
L 304.745455 315.397172 
L 306.436364 329.84508 
L 308.127273 295.8562 
L 309.818182 288.088867 
L 311.509091 322.810212 
L 313.2 319.928913 
L 314.890909 303.757036 
L 316.581818 253.190004 
L 318.272727 297.56468 
L 319.963636 313.180917 
L 321.654545 316.477799 
L 323.345455 332.591349 
L 325.036364 317.689626 
L 326.727273 323.889927 
L 328.418182 326.205611 
L 330.109091 318.837517 
L 331.8 309.809589 
L 333.490909 263.658851 
L 335.181818 298.825725 
L 336.872727 272.064791 
L 338.563636 262.953102 
L 340.254545 285.021847 
L 341.945455 283.632437 
L 343.636364 295.083338 
L 345.327273 301.300738 
L 347.018182 306.156582 
L 348.709091 302.328181 
L 350.4 326.970016 
L 352.090909 318.531652 
L 353.781818 284.519124 
L 355.472727 300.507699 
L 357.163636 308.347383 
L 358.854545 303.732651 
L 360.545455 277.548718 
L 362.236364 228.593685 
L 363.927273 287.697607 
L 365.618182 306.64833 
L 367.309091 314.126327 
L 369 336.995309 
L 370.690909 322.688536 
L 372.381818 327.532743 
L 374.072727 339.219952 
L 375.763636 344.866914 
L 377.454545 337.623806 
L 379.145455 331.106214 
L 380.836364 325.211094 
L 382.527273 344.430148 
L 384.218182 320.8743 
L 385.909091 336.784396 
L 387.6 328.327247 
L 389.290909 318.873785 
L 390.981818 330.110319 
L 392.672727 304.808232 
L 394.363636 336.742048 
L 396.054545 303.867945 
L 397.745455 257.015193 
L 399.436364 267.612804 
L 401.127273 275.791202 
L 402.818182 252.989655 
L 404.509091 237.659958 
L 406.2 267.379633 
L 407.890909 255.774303 
L 409.581818 289.621388 
L 411.272727 316.926213 
L 412.963636 325.152794 
L 414.654545 335.240168 
L 416.345455 348.15899 
L 418.036364 344.91956 
L 419.727273 310.728642 
L 421.418182 337.283149 
L 423.109091 343.909308 
L 424.8 335.074239 
L 426.490909 347.38305 
L 428.181818 317.140692 
L 429.872727 326.501603 
L 431.563636 322.999264 
L 433.254545 328.86502 
L 434.945455 313.249966 
L 436.636364 332.246468 
L 438.327273 331.916375 
L 440.018182 324.18103 
L 441.709091 322.398338 
L 443.4 298.954506 
L 445.090909 246.228495 
L 446.781818 287.897938 
L 448.472727 320.645042 
L 450.163636 328.094466 
L 451.854545 345.785487 
L 453.545455 336.297041 
L 455.236364 311.419099 
L 456.927273 321.381601 
L 458.618182 315.997526 
L 460.309091 340.235154 
L 462 321.441753 
L 463.690909 312.684757 
L 465.381818 289.085303 
L 467.072727 309.394671 
L 468.763636 309.0029 
L 470.454545 303.596003 
L 472.145455 304.251998 
L 473.836364 289.432784 
L 475.527273 255.744403 
L 477.218182 248.159858 
L 480.6 306.754621 
L 482.290909 324.645594 
L 483.981818 311.56961 
L 485.672727 324.175635 
L 487.363636 349.111 
L 489.054545 353.395238 
L 490.745455 357.278756 
L 492.436364 356.231069 
L 494.127273 348.373817 
L 495.818182 346.523721 
L 497.509091 319.69606 
L 499.2 310.379969 
L 500.890909 286.47475 
L 502.581818 309.059175 
L 504.272727 323.184317 
L 505.963636 320.402073 
L 507.654545 318.553587 
L 509.345455 333.580987 
L 511.036364 325.487232 
L 512.727273 332.296792 
L 514.418182 318.502976 
L 516.109091 326.245616 
L 517.8 313.691946 
L 519.490909 257.466826 
L 521.181818 280.6037 
L 522.872727 278.858663 
L 524.563636 289.109219 
L 526.254545 303.872947 
L 527.945455 330.218225 
L 529.636364 327.046414 
L 531.327273 319.98047 
L 533.018182 311.63308 
L 534.709091 322.892686 
L 536.4 311.139906 
L 538.090909 321.511662 
L 539.781818 312.667823 
L 541.472727 310.388082 
L 543.163636 311.037169 
L 544.854545 344.575578 
L 546.545455 336.476951 
L 548.236364 327.606727 
L 549.927273 331.978294 
L 551.618182 317.790904 
L 553.309091 312.178578 
L 555 333.387502 
L 556.690909 341.609438 
L 558.381818 316.957162 
L 560.072727 355.454642 
L 561.763636 350.614837 
L 563.454545 313.789029 
L 565.145455 296.194646 
L 568.527273 321.408433 
L 570.218182 327.116392 
L 571.909091 328.619298 
L 573.6 336.270404 
L 575.290909 325.775836 
L 576.981818 335.792402 
L 578.672727 314.86662 
L 580.363636 315.759558 
L 582.054545 305.004748 
L 583.745455 268.351481 
L 585.436364 291.631359 
L 587.127273 310.128606 
L 588.818182 267.15823 
L 590.509091 296.064191 
L 592.2 321.46074 
L 593.890909 328.52611 
L 595.581818 337.994564 
L 598.963636 260.138981 
L 600.654545 298.318681 
L 602.345455 298.994704 
L 604.036364 304.061043 
L 605.727273 322.908784 
L 607.418182 326.332821 
L 609.109091 358.343739 
L 610.8 346.470118 
L 612.490909 350.054772 
L 614.181818 346.59561 
L 615.872727 354.194345 
L 617.563636 339.11477 
L 619.254545 336.294598 
L 620.945455 323.531082 
L 622.636364 311.903645 
L 622.636364 311.903645 
" clip-path="url(#p26fc47c05b)" style="fill: none; stroke: #ff0000; stroke-width: 1.5; stroke-linecap: square"/>
   </g>
   <g id="patch_3">
    <path d="M 90 384.48 
L 90 51.84 
" style="fill: none; stroke: #000000; stroke-width: 0.8; stroke-linejoin: miter; stroke-linecap: square"/>
   </g>
   <g id="patch_4">
    <path d="M 648 384.48 
L 648 51.84 
" style="fill: none; stroke: #000000; stroke-width: 0.8; stroke-linejoin: miter; stroke-linecap: square"/>
   </g>
   <g id="patch_5">
    <path d="M 90 384.48 
L 648 384.48 
" style="fill: none; stroke: #000000; stroke-width: 0.8; stroke-linejoin: miter; stroke-linecap: square"/>
   </g>
   <g id="patch_6">
    <path d="M 90 51.84 
L 648 51.84 
" style="fill: none; stroke: #000000; stroke-width: 0.8; stroke-linejoin: miter; stroke-linecap: square"/>
   </g>
   <g id="text_15">
    <!-- Training and Validation Loss Over Time -->
    <g transform="translate(252.60375 45.84) scale(0.12 -0.12)">
     <defs>
      <path id="DejaVuSans-54" d="M -19 4666 
L 3928 4666 
L 3928 4134 
L 2272 4134 
L 2272 0 
L 1638 0 
L 1638 4134 
L -19 4134 
L -19 4666 
z
" transform="scale(0.015625)"/>
      <path id="DejaVuSans-6e" d="M 3513 2113 
L 3513 0 
L 2938 0 
L 2938 2094 
Q 2938 2591 2744 2837 
Q 2550 3084 2163 3084 
Q 1697 3084 1428 2787 
Q 1159 2491 1159 1978 
L 1159 0 
L 581 0 
L 581 3500 
L 1159 3500 
L 1159 2956 
Q 1366 3272 1645 3428 
Q 1925 3584 2291 3584 
Q 2894 3584 3203 3211 
Q 3513 2838 3513 2113 
z
" transform="scale(0.015625)"/>
      <path id="DejaVuSans-67" d="M 2906 1791 
Q 2906 2416 2648 2759 
Q 2391 3103 1925 3103 
Q 1463 3103 1205 2759 
Q 947 2416 947 1791 
Q 947 1169 1205 825 
Q 1463 481 1925 481 
Q 2391 481 2648 825 
Q 2906 1169 2906 1791 
z
M 3481 434 
Q 3481 -459 3084 -895 
Q 2688 -1331 1869 -1331 
Q 1566 -1331 1297 -1286 
Q 1028 -1241 775 -1147 
L 775 -588 
Q 1028 -725 1275 -790 
Q 1522 -856 1778 -856 
Q 2344 -856 2625 -561 
Q 2906 -266 2906 331 
L 2906 616 
Q 2728 306 2450 153 
Q 2172 0 1784 0 
Q 1141 0 747 490 
Q 353 981 353 1791 
Q 353 2603 747 3093 
Q 1141 3584 1784 3584 
Q 2172 3584 2450 3431 
Q 2728 3278 2906 2969 
L 2906 3500 
L 3481 3500 
L 3481 434 
z
" transform="scale(0.015625)"/>
      <path id="DejaVuSans-56" d="M 1831 0 
L 50 4666 
L 709 4666 
L 2188 738 
L 3669 4666 
L 4325 4666 
L 2547 0 
L 1831 0 
z
" transform="scale(0.015625)"/>
      <path id="DejaVuSans-74" d="M 1172 4494 
L 1172 3500 
L 2356 3500 
L 2356 3053 
L 1172 3053 
L 1172 1153 
Q 1172 725 1289 603 
Q 1406 481 1766 481 
L 2356 481 
L 2356 0 
L 1766 0 
Q 1100 0 847 248 
Q 594 497 594 1153 
L 594 3053 
L 172 3053 
L 172 3500 
L 594 3500 
L 594 4494 
L 1172 4494 
z
" transform="scale(0.015625)"/>
      <path id="DejaVuSans-4f" d="M 2522 4238 
Q 1834 4238 1429 3725 
Q 1025 3213 1025 2328 
Q 1025 1447 1429 934 
Q 1834 422 2522 422 
Q 3209 422 3611 934 
Q 4013 1447 4013 2328 
Q 4013 3213 3611 3725 
Q 3209 4238 2522 4238 
z
M 2522 4750 
Q 3503 4750 4090 4092 
Q 4678 3434 4678 2328 
Q 4678 1225 4090 567 
Q 3503 -91 2522 -91 
Q 1538 -91 948 565 
Q 359 1222 359 2328 
Q 359 3434 948 4092 
Q 1538 4750 2522 4750 
z
" transform="scale(0.015625)"/>
      <path id="DejaVuSans-76" d="M 191 3500 
L 800 3500 
L 1894 563 
L 2988 3500 
L 3597 3500 
L 2284 0 
L 1503 0 
L 191 3500 
z
" transform="scale(0.015625)"/>
     </defs>
     <use xlink:href="#DejaVuSans-54"/>
     <use xlink:href="#DejaVuSans-72" transform="translate(46.333984 0)"/>
     <use xlink:href="#DejaVuSans-61" transform="translate(87.447266 0)"/>
     <use xlink:href="#DejaVuSans-69" transform="translate(148.726562 0)"/>
     <use xlink:href="#DejaVuSans-6e" transform="translate(176.509766 0)"/>
     <use xlink:href="#DejaVuSans-69" transform="translate(239.888672 0)"/>
     <use xlink:href="#DejaVuSans-6e" transform="translate(267.671875 0)"/>
     <use xlink:href="#DejaVuSans-67" transform="translate(331.050781 0)"/>
     <use xlink:href="#DejaVuSans-20" transform="translate(394.527344 0)"/>
     <use xlink:href="#DejaVuSans-61" transform="translate(426.314453 0)"/>
     <use xlink:href="#DejaVuSans-6e" transform="translate(487.59375 0)"/>
     <use xlink:href="#DejaVuSans-64" transform="translate(550.972656 0)"/>
     <use xlink:href="#DejaVuSans-20" transform="translate(614.449219 0)"/>
     <use xlink:href="#DejaVuSans-56" transform="translate(646.236328 0)"/>
     <use xlink:href="#DejaVuSans-61" transform="translate(706.894531 0)"/>
     <use xlink:href="#DejaVuSans-6c" transform="translate(768.173828 0)"/>
     <use xlink:href="#DejaVuSans-69" transform="translate(795.957031 0)"/>
     <use xlink:href="#DejaVuSans-64" transform="translate(823.740234 0)"/>
     <use xlink:href="#DejaVuSans-61" transform="translate(887.216797 0)"/>
     <use xlink:href="#DejaVuSans-74" transform="translate(948.496094 0)"/>
     <use xlink:href="#DejaVuSans-69" transform="translate(987.705078 0)"/>
     <use xlink:href="#DejaVuSans-6f" transform="translate(1015.488281 0)"/>
     <use xlink:href="#DejaVuSans-6e" transform="translate(1076.669922 0)"/>
     <use xlink:href="#DejaVuSans-20" transform="translate(1140.048828 0)"/>
     <use xlink:href="#DejaVuSans-4c" transform="translate(1171.835938 0)"/>
     <use xlink:href="#DejaVuSans-6f" transform="translate(1225.798828 0)"/>
     <use xlink:href="#DejaVuSans-73" transform="translate(1286.980469 0)"/>
     <use xlink:href="#DejaVuSans-73" transform="translate(1339.080078 0)"/>
     <use xlink:href="#DejaVuSans-20" transform="translate(1391.179688 0)"/>
     <use xlink:href="#DejaVuSans-4f" transform="translate(1422.966797 0)"/>
     <use xlink:href="#DejaVuSans-76" transform="translate(1501.677734 0)"/>
     <use xlink:href="#DejaVuSans-65" transform="translate(1560.857422 0)"/>
     <use xlink:href="#DejaVuSans-72" transform="translate(1622.380859 0)"/>
     <use xlink:href="#DejaVuSans-20" transform="translate(1663.494141 0)"/>
     <use xlink:href="#DejaVuSans-54" transform="translate(1695.28125 0)"/>
     <use xlink:href="#DejaVuSans-69" transform="translate(1753.240234 0)"/>
     <use xlink:href="#DejaVuSans-6d" transform="translate(1781.023438 0)"/>
     <use xlink:href="#DejaVuSans-65" transform="translate(1878.435547 0)"/>
    </g>
   </g>
   <g id="legend_1">
    <g id="patch_7">
     <path d="M 534.50625 89.19625 
L 641 89.19625 
Q 643 89.19625 643 87.19625 
L 643 58.84 
Q 643 56.84 641 56.84 
L 534.50625 56.84 
Q 532.50625 56.84 532.50625 58.84 
L 532.50625 87.19625 
Q 532.50625 89.19625 534.50625 89.19625 
z
" style="fill: #ffffff; opacity: 0.8; stroke: #cccccc; stroke-linejoin: miter"/>
    </g>
    <g id="line2d_93">
     <path d="M 536.50625 64.938437 
L 546.50625 64.938437 
L 556.50625 64.938437 
" style="fill: none; stroke: #0000ff; stroke-width: 1.5; stroke-linecap: square"/>
    </g>
    <g id="text_16">
     <!-- Training Loss -->
     <g transform="translate(564.50625 68.438437) scale(0.1 -0.1)">
      <use xlink:href="#DejaVuSans-54"/>
      <use xlink:href="#DejaVuSans-72" transform="translate(46.333984 0)"/>
      <use xlink:href="#DejaVuSans-61" transform="translate(87.447266 0)"/>
      <use xlink:href="#DejaVuSans-69" transform="translate(148.726562 0)"/>
      <use xlink:href="#DejaVuSans-6e" transform="translate(176.509766 0)"/>
      <use xlink:href="#DejaVuSans-69" transform="translate(239.888672 0)"/>
      <use xlink:href="#DejaVuSans-6e" transform="translate(267.671875 0)"/>
      <use xlink:href="#DejaVuSans-67" transform="translate(331.050781 0)"/>
      <use xlink:href="#DejaVuSans-20" transform="translate(394.527344 0)"/>
      <use xlink:href="#DejaVuSans-4c" transform="translate(426.314453 0)"/>
      <use xlink:href="#DejaVuSans-6f" transform="translate(480.277344 0)"/>
      <use xlink:href="#DejaVuSans-73" transform="translate(541.458984 0)"/>
      <use xlink:href="#DejaVuSans-73" transform="translate(593.558594 0)"/>
     </g>
    </g>
    <g id="line2d_94">
     <path d="M 536.50625 79.616562 
L 546.50625 79.616562 
L 556.50625 79.616562 
" style="fill: none; stroke: #ff0000; stroke-width: 1.5; stroke-linecap: square"/>
    </g>
    <g id="text_17">
     <!-- Validation Loss -->
     <g transform="translate(564.50625 83.116562) scale(0.1 -0.1)">
      <use xlink:href="#DejaVuSans-56"/>
      <use xlink:href="#DejaVuSans-61" transform="translate(60.658203 0)"/>
      <use xlink:href="#DejaVuSans-6c" transform="translate(121.9375 0)"/>
      <use xlink:href="#DejaVuSans-69" transform="translate(149.720703 0)"/>
      <use xlink:href="#DejaVuSans-64" transform="translate(177.503906 0)"/>
      <use xlink:href="#DejaVuSans-61" transform="translate(240.980469 0)"/>
      <use xlink:href="#DejaVuSans-74" transform="translate(302.259766 0)"/>
      <use xlink:href="#DejaVuSans-69" transform="translate(341.46875 0)"/>
      <use xlink:href="#DejaVuSans-6f" transform="translate(369.251953 0)"/>
      <use xlink:href="#DejaVuSans-6e" transform="translate(430.433594 0)"/>
      <use xlink:href="#DejaVuSans-20" transform="translate(493.8125 0)"/>
      <use xlink:href="#DejaVuSans-4c" transform="translate(525.599609 0)"/>
      <use xlink:href="#DejaVuSans-6f" transform="translate(579.5625 0)"/>
      <use xlink:href="#DejaVuSans-73" transform="translate(640.744141 0)"/>
      <use xlink:href="#DejaVuSans-73" transform="translate(692.84375 0)"/>
     </g>
    </g>
   </g>
  </g>
 </g>
 <defs>
  <clipPath id="p26fc47c05b">
   <rect x="90" y="51.84" width="558" height="332.64"/>
  </clipPath>
 </defs>
</svg>
