<?xml version="1.0" encoding="utf-8" standalone="no"?>
<!DOCTYPE svg PUBLIC "-//W3C//DTD SVG 1.1//EN"
  "http://www.w3.org/Graphics/SVG/1.1/DTD/svg11.dtd">
<svg xmlns:xlink="http://www.w3.org/1999/xlink" width="720pt" height="432pt" viewBox="0 0 720 432" xmlns="http://www.w3.org/2000/svg" version="1.1">
 <metadata>
  <rdf:RDF xmlns:dc="http://purl.org/dc/elements/1.1/" xmlns:cc="http://creativecommons.org/ns#" xmlns:rdf="http://www.w3.org/1999/02/22-rdf-syntax-ns#">
   <cc:Work>
    <dc:type rdf:resource="http://purl.org/dc/dcmitype/StillImage"/>
    <dc:date>2026-04-01T00:52:11.409809</dc:date>
    <dc:format>image/svg+xml</dc:format>
    <dc:creator>
     <cc:Agent>
      <dc:title>Matplotlib v3.10.3, https://matplotlib.org/</dc:title>
     </cc:Agent>
    </dc:creator>
   </cc:Work>
  </rdf:RDF>
 </metadata>
 <defs>
  <style type="text/css">*{stroke-linejoin: round; stroke-linecap: butt}</style>
 </defs>
 <g id="figure_1">
  <g id="patch_1">
   <path d="M 0 432 
L 720 432 
L 720 0 
L 0 0 
z
" style="fill: #ffffff"/>
  </g>
  <g id="axes_1">
   <g id="patch_2">
    <path d="M 90 384.48 
L 648 384.48 
L 648 51.84 
L 90 51.84 
z
" style="fill: #ffffff"/>
   </g>
   <g id="matplotlib.axis_1">
    <g id="xtick_1">
     <g id="line2d_1">
      <path d="M 115.363636 384.48 
L 115.363636 51.84 
" clip-path="url(#p045be60621)" style="fill: none; stroke-dasharray: 2.96,1.28; stroke-dashoffset: 0; stroke: #b0b0b0; stroke-width: 0.8"/>
     </g>
     <g id="line2d_2">
      <defs>
       <path id="m6ad5b5c3f6" d="M 0 0 
L 0 3.5 
" style="stroke: #000000; stroke-width: 0.8"/>
      </defs>
      <g>
       <use xlink:href="#m6ad5b5c3f6" x="115.363636" y="384.48" style="stroke: #000000; stroke-width: 0.8"/>
      </g>
     </g>
     <g id="text_1">
      <!-- 0 -->
      <g transform="translate(112.182386 399.078438) scale(0.1 -0.1)">
       <defs>
        <path id="DejaVuSans-30" d="M 2034 4250 
Q 1547 4250 1301 3770 
Q 1056 3291 1056 2328 
Q 1056 1369 1301 889 
Q 1547 409 2034 409 
Q 2525 409 2770 889 
Q 3016 1369 3016 2328 
Q 3016 3291 2770 3770 
Q 2525 4250 2034 4250 
z
M 2034 4750 
Q 2819 4750 3233 4129 
Q 3647 3509 3647 2328 
Q 3647 1150 3233 529 
Q 2819 -91 2034 -91 
Q 1250 -91 836 529 
Q 422 1150 422 2328 
Q 422 3509 836 4129 
Q 1250 4750 2034 4750 
z
" transform="scale(0.015625)"/>
       </defs>
       <use xlink:href="#DejaVuSans-30"/>
      </g>
     </g>
    </g>
    <g id="xtick_2">
     <g id="line2d_3">
      <path d="M 187.831169 384.48 
L 187.831169 51.84 
" clip-path="url(#p045be60621)" style="fill: none; stroke-dasharray: 2.96,1.28; stroke-dashoffset: 0; stroke: #b0b0b0; stroke-width: 0.8"/>
     </g>
     <g id="line2d_4">
      <g>
       <use xlink:href="#m6ad5b5c3f6" x="187.831169" y="384.48" style="stroke: #000000; stroke-width: 0.8"/>
      </g>
     </g>
     <g id="text_2">
      <!-- 100 -->
      <g transform="translate(178.287419 399.078438) scale(0.1 -0.1)">
       <defs>
        <path id="DejaVuSans-31" d="M 794 531 
L 1825 531 
L 1825 4091 
L 703 3866 
L 703 4441 
L 1819 4666 
L 2450 4666 
L 2450 531 
L 3481 531 
L 3481 0 
L 794 0 
L 794 531 
z
" transform="scale(0.015625)"/>
       </defs>
       <use xlink:href="#DejaVuSans-31"/>
       <use xlink:href="#DejaVuSans-30" transform="translate(63.623047 0)"/>
       <use xlink:href="#DejaVuSans-30" transform="translate(127.246094 0)"/>
      </g>
     </g>
    </g>
    <g id="xtick_3">
     <g id="line2d_5">
      <path d="M 260.298701 384.48 
L 260.298701 51.84 
" clip-path="url(#p045be60621)" style="fill: none; stroke-dasharray: 2.96,1.28; stroke-dashoffset: 0; stroke: #b0b0b0; stroke-width: 0.8"/>
     </g>
     <g id="line2d_6">
      <g>
       <use xlink:href="#m6ad5b5c3f6" x="260.298701" y="384.48" style="stroke: #000000; stroke-width: 0.8"/>
      </g>
     </g>
     <g id="text_3">
      <!-- 200 -->
      <g transform="translate(250.754951 399.078438) scale(0.1 -0.1)">
       <defs>
        <path id="DejaVuSans-32" d="M 1228 531 
L 3431 531 
L 3431 0 
L 469 0 
L 469 531 
Q 828 903 1448 1529 
Q 2069 2156 2228 2338 
Q 2531 2678 2651 2914 
Q 2772 3150 2772 3378 
Q 2772 3750 2511 3984 
Q 2250 4219 1831 4219 
Q 1534 4219 1204 4116 
Q 875 4013 500 3803 
L 500 4441 
Q 881 4594 1212 4672 
Q 1544 4750 1819 4750 
Q 2544 4750 2975 4387 
Q 3406 4025 3406 3419 
Q 3406 3131 3298 2873 
Q 3191 2616 2906 2266 
Q 2828 2175 2409 1742 
Q 1991 1309 1228 531 
z
" transform="scale(0.015625)"/>
       </defs>
       <use xlink:href="#DejaVuSans-32"/>
       <use xlink:href="#DejaVuSans-30" transform="translate(63.623047 0)"/>
       <use xlink:href="#DejaVuSans-30" transform="translate(127.246094 0)"/>
      </g>
     </g>
    </g>
    <g id="xtick_4">
     <g id="line2d_7">
      <path d="M 332.766234 384.48 
L 332.766234 51.84 
" clip-path="url(#p045be60621)" style="fill: none; stroke-dasharray: 2.96,1.28; stroke-dashoffset: 0; stroke: #b0b0b0; stroke-width: 0.8"/>
     </g>
     <g id="line2d_8">
      <g>
       <use xlink:href="#m6ad5b5c3f6" x="332.766234" y="384.48" style="stroke: #000000; stroke-width: 0.8"/>
      </g>
     </g>
     <g id="text_4">
      <!-- 300 -->
      <g transform="translate(323.222484 399.078438) scale(0.1 -0.1)">
       <defs>
        <path id="DejaVuSans-33" d="M 2597 2516 
Q 3050 2419 3304 2112 
Q 3559 1806 3559 1356 
Q 3559 666 3084 287 
Q 2609 -91 1734 -91 
Q 1441 -91 1130 -33 
Q 819 25 488 141 
L 488 750 
Q 750 597 1062 519 
Q 1375 441 1716 441 
Q 2309 441 2620 675 
Q 2931 909 2931 1356 
Q 2931 1769 2642 2001 
Q 2353 2234 1838 2234 
L 1294 2234 
L 1294 2753 
L 1863 2753 
Q 2328 2753 2575 2939 
Q 2822 3125 2822 3475 
Q 2822 3834 2567 4026 
Q 2313 4219 1838 4219 
Q 1578 4219 1281 4162 
Q 984 4106 628 3988 
L 628 4550 
Q 988 4650 1302 4700 
Q 1616 4750 1894 4750 
Q 2613 4750 3031 4423 
Q 3450 4097 3450 3541 
Q 3450 3153 3228 2886 
Q 3006 2619 2597 2516 
z
" transform="scale(0.015625)"/>
       </defs>
       <use xlink:href="#DejaVuSans-33"/>
       <use xlink:href="#DejaVuSans-30" transform="translate(63.623047 0)"/>
       <use xlink:href="#DejaVuSans-30" transform="translate(127.246094 0)"/>
      </g>
     </g>
    </g>
    <g id="xtick_5">
     <g id="line2d_9">
      <path d="M 405.233766 384.48 
L 405.233766 51.84 
" clip-path="url(#p045be60621)" style="fill: none; stroke-dasharray: 2.96,1.28; stroke-dashoffset: 0; stroke: #b0b0b0; stroke-width: 0.8"/>
     </g>
     <g id="line2d_10">
      <g>
       <use xlink:href="#m6ad5b5c3f6" x="405.233766" y="384.48" style="stroke: #000000; stroke-width: 0.8"/>
      </g>
     </g>
     <g id="text_5">
      <!-- 400 -->
      <g transform="translate(395.690016 399.078438) scale(0.1 -0.1)">
       <defs>
        <path id="DejaVuSans-34" d="M 2419 4116 
L 825 1625 
L 2419 1625 
L 2419 4116 
z
M 2253 4666 
L 3047 4666 
L 3047 1625 
L 3713 1625 
L 3713 1100 
L 3047 1100 
L 3047 0 
L 2419 0 
L 2419 1100 
L 313 1100 
L 313 1709 
L 2253 4666 
z
" transform="scale(0.015625)"/>
       </defs>
       <use xlink:href="#DejaVuSans-34"/>
       <use xlink:href="#DejaVuSans-30" transform="translate(63.623047 0)"/>
       <use xlink:href="#DejaVuSans-30" transform="translate(127.246094 0)"/>
      </g>
     </g>
    </g>
    <g id="xtick_6">
     <g id="line2d_11">
      <path d="M 477.701299 384.48 
L 477.701299 51.84 
" clip-path="url(#p045be60621)" style="fill: none; stroke-dasharray: 2.96,1.28; stroke-dashoffset: 0; stroke: #b0b0b0; stroke-width: 0.8"/>
     </g>
     <g id="line2d_12">
      <g>
       <use xlink:href="#m6ad5b5c3f6" x="477.701299" y="384.48" style="stroke: #000000; stroke-width: 0.8"/>
      </g>
     </g>
     <g id="text_6">
      <!-- 500 -->
      <g transform="translate(468.157549 399.078438) scale(0.1 -0.1)">
       <defs>
        <path id="DejaVuSans-35" d="M 691 4666 
L 3169 4666 
L 3169 4134 
L 1269 4134 
L 1269 2991 
Q 1406 3038 1543 3061 
Q 1681 3084 1819 3084 
Q 2600 3084 3056 2656 
Q 3513 2228 3513 1497 
Q 3513 744 3044 326 
Q 2575 -91 1722 -91 
Q 1428 -91 1123 -41 
Q 819 9 494 109 
L 494 744 
Q 775 591 1075 516 
Q 1375 441 1709 441 
Q 2250 441 2565 725 
Q 2881 1009 2881 1497 
Q 2881 1984 2565 2268 
Q 2250 2553 1709 2553 
Q 1456 2553 1204 2497 
Q 953 2441 691 2322 
L 691 4666 
z
" transform="scale(0.015625)"/>
       </defs>
       <use xlink:href="#DejaVuSans-35"/>
       <use xlink:href="#DejaVuSans-30" transform="translate(63.623047 0)"/>
       <use xlink:href="#DejaVuSans-30" transform="translate(127.246094 0)"/>
      </g>
     </g>
    </g>
    <g id="xtick_7">
     <g id="line2d_13">
      <path d="M 550.168831 384.48 
L 550.168831 51.84 
" clip-path="url(#p045be60621)" style="fill: none; stroke-dasharray: 2.96,1.28; stroke-dashoffset: 0; stroke: #b0b0b0; stroke-width: 0.8"/>
     </g>
     <g id="line2d_14">
      <g>
       <use xlink:href="#m6ad5b5c3f6" x="550.168831" y="384.48" style="stroke: #000000; stroke-width: 0.8"/>
      </g>
     </g>
     <g id="text_7">
      <!-- 600 -->
      <g transform="translate(540.625081 399.078438) scale(0.1 -0.1)">
       <defs>
        <path id="DejaVuSans-36" d="M 2113 2584 
Q 1688 2584 1439 2293 
Q 1191 2003 1191 1497 
Q 1191 994 1439 701 
Q 1688 409 2113 409 
Q 2538 409 2786 701 
Q 3034 994 3034 1497 
Q 3034 2003 2786 2293 
Q 2538 2584 2113 2584 
z
M 3366 4563 
L 3366 3988 
Q 3128 4100 2886 4159 
Q 2644 4219 2406 4219 
Q 1781 4219 1451 3797 
Q 1122 3375 1075 2522 
Q 1259 2794 1537 2939 
Q 1816 3084 2150 3084 
Q 2853 3084 3261 2657 
Q 3669 2231 3669 1497 
Q 3669 778 3244 343 
Q 2819 -91 2113 -91 
Q 1303 -91 875 529 
Q 447 1150 447 2328 
Q 447 3434 972 4092 
Q 1497 4750 2381 4750 
Q 2619 4750 2861 4703 
Q 3103 4656 3366 4563 
z
" transform="scale(0.015625)"/>
       </defs>
       <use xlink:href="#DejaVuSans-36"/>
       <use xlink:href="#DejaVuSans-30" transform="translate(63.623047 0)"/>
       <use xlink:href="#DejaVuSans-30" transform="translate(127.246094 0)"/>
      </g>
     </g>
    </g>
    <g id="xtick_8">
     <g id="line2d_15">
      <path d="M 622.636364 384.48 
L 622.636364 51.84 
" clip-path="url(#p045be60621)" style="fill: none; stroke-dasharray: 2.96,1.28; stroke-dashoffset: 0; stroke: #b0b0b0; stroke-width: 0.8"/>
     </g>
     <g id="line2d_16">
      <g>
       <use xlink:href="#m6ad5b5c3f6" x="622.636364" y="384.48" style="stroke: #000000; stroke-width: 0.8"/>
      </g>
     </g>
     <g id="text_8">
      <!-- 700 -->
      <g transform="translate(613.092614 399.078438) scale(0.1 -0.1)">
       <defs>
        <path id="DejaVuSans-37" d="M 525 4666 
L 3525 4666 
L 3525 4397 
L 1831 0 
L 1172 0 
L 2766 4134 
L 525 4134 
L 525 4666 
z
" transform="scale(0.015625)"/>
       </defs>
       <use xlink:href="#DejaVuSans-37"/>
       <use xlink:href="#DejaVuSans-30" transform="translate(63.623047 0)"/>
       <use xlink:href="#DejaVuSans-30" transform="translate(127.246094 0)"/>
      </g>
     </g>
    </g>
    <g id="text_9">
     <!-- Epoch -->
     <g transform="translate(353.689062 412.756563) scale(0.1 -0.1)">
      <defs>
       <path id="DejaVuSans-45" d="M 628 4666 
L 3578 4666 
L 3578 4134 
L 1259 4134 
L 1259 2753 
L 3481 2753 
L 3481 2222 
L 1259 2222 
L 1259 531 
L 3634 531 
L 3634 0 
L 628 0 
L 628 4666 
z
" transform="scale(0.015625)"/>
       <path id="DejaVuSans-70" d="M 1159 525 
L 1159 -1331 
L 581 -1331 
L 581 3500 
L 1159 3500 
L 1159 2969 
Q 1341 3281 1617 3432 
Q 1894 3584 2278 3584 
Q 2916 3584 3314 3078 
Q 3713 2572 3713 1747 
Q 3713 922 3314 415 
Q 2916 -91 2278 -91 
Q 1894 -91 1617 61 
Q 1341 213 1159 525 
z
M 3116 1747 
Q 3116 2381 2855 2742 
Q 2594 3103 2138 3103 
Q 1681 3103 1420 2742 
Q 1159 2381 1159 1747 
Q 1159 1113 1420 752 
Q 1681 391 2138 391 
Q 2594 391 2855 752 
Q 3116 1113 3116 1747 
z
" transform="scale(0.015625)"/>
       <path id="DejaVuSans-6f" d="M 1959 3097 
Q 1497 3097 1228 2736 
Q 959 2375 959 1747 
Q 959 1119 1226 758 
Q 1494 397 1959 397 
Q 2419 397 2687 759 
Q 2956 1122 2956 1747 
Q 2956 2369 2687 2733 
Q 2419 3097 1959 3097 
z
M 1959 3584 
Q 2709 3584 3137 3096 
Q 3566 2609 3566 1747 
Q 3566 888 3137 398 
Q 2709 -91 1959 -91 
Q 1206 -91 779 398 
Q 353 888 353 1747 
Q 353 2609 779 3096 
Q 1206 3584 1959 3584 
z
" transform="scale(0.015625)"/>
       <path id="DejaVuSans-63" d="M 3122 3366 
L 3122 2828 
Q 2878 2963 2633 3030 
Q 2388 3097 2138 3097 
Q 1578 3097 1268 2742 
Q 959 2388 959 1747 
Q 959 1106 1268 751 
Q 1578 397 2138 397 
Q 2388 397 2633 464 
Q 2878 531 3122 666 
L 3122 134 
Q 2881 22 2623 -34 
Q 2366 -91 2075 -91 
Q 1284 -91 818 406 
Q 353 903 353 1747 
Q 353 2603 823 3093 
Q 1294 3584 2113 3584 
Q 2378 3584 2631 3529 
Q 2884 3475 3122 3366 
z
" transform="scale(0.015625)"/>
       <path id="DejaVuSans-68" d="M 3513 2113 
L 3513 0 
L 2938 0 
L 2938 2094 
Q 2938 2591 2744 2837 
Q 2550 3084 2163 3084 
Q 1697 3084 1428 2787 
Q 1159 2491 1159 1978 
L 1159 0 
L 581 0 
L 581 4863 
L 1159 4863 
L 1159 2956 
Q 1366 3272 1645 3428 
Q 1925 3584 2291 3584 
Q 2894 3584 3203 3211 
Q 3513 2838 3513 2113 
z
" transform="scale(0.015625)"/>
      </defs>
      <use xlink:href="#DejaVuSans-45"/>
      <use xlink:href="#DejaVuSans-70" transform="translate(63.183594 0)"/>
      <use xlink:href="#DejaVuSans-6f" transform="translate(126.660156 0)"/>
      <use xlink:href="#DejaVuSans-63" transform="translate(187.841797 0)"/>
      <use xlink:href="#DejaVuSans-68" transform="translate(242.822266 0)"/>
     </g>
    </g>
   </g>
   <g id="matplotlib.axis_2">
    <g id="ytick_1">
     <g id="line2d_17">
      <path d="M 90 384.318622 
L 648 384.318622 
" clip-path="url(#p045be60621)" style="fill: none; stroke-dasharray: 2.96,1.28; stroke-dashoffset: 0; stroke: #b0b0b0; stroke-width: 0.8"/>
     </g>
     <g id="line2d_18">
      <defs>
       <path id="mb16a7d16c7" d="M 0 0 
L -3.5 0 
" style="stroke: #000000; stroke-width: 0.8"/>
      </defs>
      <g>
       <use xlink:href="#mb16a7d16c7" x="90" y="384.318622" style="stroke: #000000; stroke-width: 0.8"/>
      </g>
     </g>
     <g id="text_10">
      <!-- $\mathdefault{10^{-6}}$ -->
      <g transform="translate(59.5 388.117841) scale(0.1 -0.1)">
       <defs>
        <path id="DejaVuSans-2212" d="M 678 2272 
L 4684 2272 
L 4684 1741 
L 678 1741 
L 678 2272 
z
" transform="scale(0.015625)"/>
       </defs>
       <use xlink:href="#DejaVuSans-31" transform="translate(0 0.765625)"/>
       <use xlink:href="#DejaVuSans-30" transform="translate(63.623047 0.765625)"/>
       <use xlink:href="#DejaVuSans-2212" transform="translate(128.203125 39.046875) scale(0.7)"/>
       <use xlink:href="#DejaVuSans-36" transform="translate(186.855469 39.046875) scale(0.7)"/>
      </g>
     </g>
    </g>
    <g id="ytick_2">
     <g id="line2d_19">
      <path d="M 90 322.753713 
L 648 322.753713 
" clip-path="url(#p045be60621)" style="fill: none; stroke-dasharray: 2.96,1.28; stroke-dashoffset: 0; stroke: #b0b0b0; stroke-width: 0.8"/>
     </g>
     <g id="line2d_20">
      <g>
       <use xlink:href="#mb16a7d16c7" x="90" y="322.753713" style="stroke: #000000; stroke-width: 0.8"/>
      </g>
     </g>
     <g id="text_11">
      <!-- $\mathdefault{10^{-5}}$ -->
      <g transform="translate(59.5 326.552932) scale(0.1 -0.1)">
       <use xlink:href="#DejaVuSans-31" transform="translate(0 0.684375)"/>
       <use xlink:href="#DejaVuSans-30" transform="translate(63.623047 0.684375)"/>
       <use xlink:href="#DejaVuSans-2212" transform="translate(128.203125 38.965625) scale(0.7)"/>
       <use xlink:href="#DejaVuSans-35" transform="translate(186.855469 38.965625) scale(0.7)"/>
      </g>
     </g>
    </g>
    <g id="ytick_3">
     <g id="line2d_21">
      <path d="M 90 261.188804 
L 648 261.188804 
" clip-path="url(#p045be60621)" style="fill: none; stroke-dasharray: 2.96,1.28; stroke-dashoffset: 0; stroke: #b0b0b0; stroke-width: 0.8"/>
     </g>
     <g id="line2d_22">
      <g>
       <use xlink:href="#mb16a7d16c7" x="90" y="261.188804" style="stroke: #000000; stroke-width: 0.8"/>
      </g>
     </g>
     <g id="text_12">
      <!-- $\mathdefault{10^{-4}}$ -->
      <g transform="translate(59.5 264.988023) scale(0.1 -0.1)">
       <use xlink:href="#DejaVuSans-31" transform="translate(0 0.684375)"/>
       <use xlink:href="#DejaVuSans-30" transform="translate(63.623047 0.684375)"/>
       <use xlink:href="#DejaVuSans-2212" transform="translate(128.203125 38.965625) scale(0.7)"/>
       <use xlink:href="#DejaVuSans-34" transform="translate(186.855469 38.965625) scale(0.7)"/>
      </g>
     </g>
    </g>
    <g id="ytick_4">
     <g id="line2d_23">
      <path d="M 90 199.623895 
L 648 199.623895 
" clip-path="url(#p045be60621)" style="fill: none; stroke-dasharray: 2.96,1.28; stroke-dashoffset: 0; stroke: #b0b0b0; stroke-width: 0.8"/>
     </g>
     <g id="line2d_24">
      <g>
       <use xlink:href="#mb16a7d16c7" x="90" y="199.623895" style="stroke: #000000; stroke-width: 0.8"/>
      </g>
     </g>
     <g id="text_13">
      <!-- $\mathdefault{10^{-3}}$ -->
      <g transform="translate(59.5 203.423114) scale(0.1 -0.1)">
       <use xlink:href="#DejaVuSans-31" transform="translate(0 0.765625)"/>
       <use xlink:href="#DejaVuSans-30" transform="translate(63.623047 0.765625)"/>
       <use xlink:href="#DejaVuSans-2212" transform="translate(128.203125 39.046875) scale(0.7)"/>
       <use xlink:href="#DejaVuSans-33" transform="translate(186.855469 39.046875) scale(0.7)"/>
      </g>
     </g>
    </g>
    <g id="ytick_5">
     <g id="line2d_25">
      <path d="M 90 138.058986 
L 648 138.058986 
" clip-path="url(#p045be60621)" style="fill: none; stroke-dasharray: 2.96,1.28; stroke-dashoffset: 0; stroke: #b0b0b0; stroke-width: 0.8"/>
     </g>
     <g id="line2d_26">
      <g>
       <use xlink:href="#mb16a7d16c7" x="90" y="138.058986" style="stroke: #000000; stroke-width: 0.8"/>
      </g>
     </g>
     <g id="text_14">
      <!-- $\mathdefault{10^{-2}}$ -->
      <g transform="translate(59.5 141.858205) scale(0.1 -0.1)">
       <use xlink:href="#DejaVuSans-31" transform="translate(0 0.765625)"/>
       <use xlink:href="#DejaVuSans-30" transform="translate(63.623047 0.765625)"/>
       <use xlink:href="#DejaVuSans-2212" transform="translate(128.203125 39.046875) scale(0.7)"/>
       <use xlink:href="#DejaVuSans-32" transform="translate(186.855469 39.046875) scale(0.7)"/>
      </g>
     </g>
    </g>
    <g id="ytick_6">
     <g id="line2d_27">
      <path d="M 90 76.494077 
L 648 76.494077 
" clip-path="url(#p045be60621)" style="fill: none; stroke-dasharray: 2.96,1.28; stroke-dashoffset: 0; stroke: #b0b0b0; stroke-width: 0.8"/>
     </g>
     <g id="line2d_28">
      <g>
       <use xlink:href="#mb16a7d16c7" x="90" y="76.494077" style="stroke: #000000; stroke-width: 0.8"/>
      </g>
     </g>
     <g id="text_15">
      <!-- $\mathdefault{10^{-1}}$ -->
      <g transform="translate(59.5 80.293296) scale(0.1 -0.1)">
       <use xlink:href="#DejaVuSans-31" transform="translate(0 0.684375)"/>
       <use xlink:href="#DejaVuSans-30" transform="translate(63.623047 0.684375)"/>
       <use xlink:href="#DejaVuSans-2212" transform="translate(128.203125 38.965625) scale(0.7)"/>
       <use xlink:href="#DejaVuSans-31" transform="translate(186.855469 38.965625) scale(0.7)"/>
      </g>
     </g>
    </g>
    <g id="ytick_7">
     <g id="line2d_29">
      <path d="M 90 365.785738 
L 648 365.785738 
" clip-path="url(#p045be60621)" style="fill: none; stroke-dasharray: 2.96,1.28; stroke-dashoffset: 0; stroke: #b0b0b0; stroke-width: 0.8"/>
     </g>
     <g id="line2d_30">
      <defs>
       <path id="mdfe03ffef4" d="M 0 0 
L -2 0 
" style="stroke: #000000; stroke-width: 0.6"/>
      </defs>
      <g>
       <use xlink:href="#mdfe03ffef4" x="90" y="365.785738" style="stroke: #000000; stroke-width: 0.6"/>
      </g>
     </g>
    </g>
    <g id="ytick_8">
     <g id="line2d_31">
      <path d="M 90 354.944695 
L 648 354.944695 
" clip-path="url(#p045be60621)" style="fill: none; stroke-dasharray: 2.96,1.28; stroke-dashoffset: 0; stroke: #b0b0b0; stroke-width: 0.8"/>
     </g>
     <g id="line2d_32">
      <g>
       <use xlink:href="#mdfe03ffef4" x="90" y="354.944695" style="stroke: #000000; stroke-width: 0.6"/>
      </g>
     </g>
    </g>
    <g id="ytick_9">
     <g id="line2d_33">
      <path d="M 90 347.252853 
L 648 347.252853 
" clip-path="url(#p045be60621)" style="fill: none; stroke-dasharray: 2.96,1.28; stroke-dashoffset: 0; stroke: #b0b0b0; stroke-width: 0.8"/>
     </g>
     <g id="line2d_34">
      <g>
       <use xlink:href="#mdfe03ffef4" x="90" y="347.252853" style="stroke: #000000; stroke-width: 0.6"/>
      </g>
     </g>
    </g>
    <g id="ytick_10">
     <g id="line2d_35">
      <path d="M 90 341.286597 
L 648 341.286597 
" clip-path="url(#p045be60621)" style="fill: none; stroke-dasharray: 2.96,1.28; stroke-dashoffset: 0; stroke: #b0b0b0; stroke-width: 0.8"/>
     </g>
     <g id="line2d_36">
      <g>
       <use xlink:href="#mdfe03ffef4" x="90" y="341.286597" style="stroke: #000000; stroke-width: 0.6"/>
      </g>
     </g>
    </g>
    <g id="ytick_11">
     <g id="line2d_37">
      <path d="M 90 336.411811 
L 648 336.411811 
" clip-path="url(#p045be60621)" style="fill: none; stroke-dasharray: 2.96,1.28; stroke-dashoffset: 0; stroke: #b0b0b0; stroke-width: 0.8"/>
     </g>
     <g id="line2d_38">
      <g>
       <use xlink:href="#mdfe03ffef4" x="90" y="336.411811" style="stroke: #000000; stroke-width: 0.6"/>
      </g>
     </g>
    </g>
    <g id="ytick_12">
     <g id="line2d_39">
      <path d="M 90 332.290238 
L 648 332.290238 
" clip-path="url(#p045be60621)" style="fill: none; stroke-dasharray: 2.96,1.28; stroke-dashoffset: 0; stroke: #b0b0b0; stroke-width: 0.8"/>
     </g>
     <g id="line2d_40">
      <g>
       <use xlink:href="#mdfe03ffef4" x="90" y="332.290238" style="stroke: #000000; stroke-width: 0.6"/>
      </g>
     </g>
    </g>
    <g id="ytick_13">
     <g id="line2d_41">
      <path d="M 90 328.719969 
L 648 328.719969 
" clip-path="url(#p045be60621)" style="fill: none; stroke-dasharray: 2.96,1.28; stroke-dashoffset: 0; stroke: #b0b0b0; stroke-width: 0.8"/>
     </g>
     <g id="line2d_42">
      <g>
       <use xlink:href="#mdfe03ffef4" x="90" y="328.719969" style="stroke: #000000; stroke-width: 0.6"/>
      </g>
     </g>
    </g>
    <g id="ytick_14">
     <g id="line2d_43">
      <path d="M 90 325.570769 
L 648 325.570769 
" clip-path="url(#p045be60621)" style="fill: none; stroke-dasharray: 2.96,1.28; stroke-dashoffset: 0; stroke: #b0b0b0; stroke-width: 0.8"/>
     </g>
     <g id="line2d_44">
      <g>
       <use xlink:href="#mdfe03ffef4" x="90" y="325.570769" style="stroke: #000000; stroke-width: 0.6"/>
      </g>
     </g>
    </g>
    <g id="ytick_15">
     <g id="line2d_45">
      <path d="M 90 304.220829 
L 648 304.220829 
" clip-path="url(#p045be60621)" style="fill: none; stroke-dasharray: 2.96,1.28; stroke-dashoffset: 0; stroke: #b0b0b0; stroke-width: 0.8"/>
     </g>
     <g id="line2d_46">
      <g>
       <use xlink:href="#mdfe03ffef4" x="90" y="304.220829" style="stroke: #000000; stroke-width: 0.6"/>
      </g>
     </g>
    </g>
    <g id="ytick_16">
     <g id="line2d_47">
      <path d="M 90 293.379786 
L 648 293.379786 
" clip-path="url(#p045be60621)" style="fill: none; stroke-dasharray: 2.96,1.28; stroke-dashoffset: 0; stroke: #b0b0b0; stroke-width: 0.8"/>
     </g>
     <g id="line2d_48">
      <g>
       <use xlink:href="#mdfe03ffef4" x="90" y="293.379786" style="stroke: #000000; stroke-width: 0.6"/>
      </g>
     </g>
    </g>
    <g id="ytick_17">
     <g id="line2d_49">
      <path d="M 90 285.687944 
L 648 285.687944 
" clip-path="url(#p045be60621)" style="fill: none; stroke-dasharray: 2.96,1.28; stroke-dashoffset: 0; stroke: #b0b0b0; stroke-width: 0.8"/>
     </g>
     <g id="line2d_50">
      <g>
       <use xlink:href="#mdfe03ffef4" x="90" y="285.687944" style="stroke: #000000; stroke-width: 0.6"/>
      </g>
     </g>
    </g>
    <g id="ytick_18">
     <g id="line2d_51">
      <path d="M 90 279.721688 
L 648 279.721688 
" clip-path="url(#p045be60621)" style="fill: none; stroke-dasharray: 2.96,1.28; stroke-dashoffset: 0; stroke: #b0b0b0; stroke-width: 0.8"/>
     </g>
     <g id="line2d_52">
      <g>
       <use xlink:href="#mdfe03ffef4" x="90" y="279.721688" style="stroke: #000000; stroke-width: 0.6"/>
      </g>
     </g>
    </g>
    <g id="ytick_19">
     <g id="line2d_53">
      <path d="M 90 274.846902 
L 648 274.846902 
" clip-path="url(#p045be60621)" style="fill: none; stroke-dasharray: 2.96,1.28; stroke-dashoffset: 0; stroke: #b0b0b0; stroke-width: 0.8"/>
     </g>
     <g id="line2d_54">
      <g>
       <use xlink:href="#mdfe03ffef4" x="90" y="274.846902" style="stroke: #000000; stroke-width: 0.6"/>
      </g>
     </g>
    </g>
    <g id="ytick_20">
     <g id="line2d_55">
      <path d="M 90 270.725329 
L 648 270.725329 
" clip-path="url(#p045be60621)" style="fill: none; stroke-dasharray: 2.96,1.28; stroke-dashoffset: 0; stroke: #b0b0b0; stroke-width: 0.8"/>
     </g>
     <g id="line2d_56">
      <g>
       <use xlink:href="#mdfe03ffef4" x="90" y="270.725329" style="stroke: #000000; stroke-width: 0.6"/>
      </g>
     </g>
    </g>
    <g id="ytick_21">
     <g id="line2d_57">
      <path d="M 90 267.15506 
L 648 267.15506 
" clip-path="url(#p045be60621)" style="fill: none; stroke-dasharray: 2.96,1.28; stroke-dashoffset: 0; stroke: #b0b0b0; stroke-width: 0.8"/>
     </g>
     <g id="line2d_58">
      <g>
       <use xlink:href="#mdfe03ffef4" x="90" y="267.15506" style="stroke: #000000; stroke-width: 0.6"/>
      </g>
     </g>
    </g>
    <g id="ytick_22">
     <g id="line2d_59">
      <path d="M 90 264.00586 
L 648 264.00586 
" clip-path="url(#p045be60621)" style="fill: none; stroke-dasharray: 2.96,1.28; stroke-dashoffset: 0; stroke: #b0b0b0; stroke-width: 0.8"/>
     </g>
     <g id="line2d_60">
      <g>
       <use xlink:href="#mdfe03ffef4" x="90" y="264.00586" style="stroke: #000000; stroke-width: 0.6"/>
      </g>
     </g>
    </g>
    <g id="ytick_23">
     <g id="line2d_61">
      <path d="M 90 242.65592 
L 648 242.65592 
" clip-path="url(#p045be60621)" style="fill: none; stroke-dasharray: 2.96,1.28; stroke-dashoffset: 0; stroke: #b0b0b0; stroke-width: 0.8"/>
     </g>
     <g id="line2d_62">
      <g>
       <use xlink:href="#mdfe03ffef4" x="90" y="242.65592" style="stroke: #000000; stroke-width: 0.6"/>
      </g>
     </g>
    </g>
    <g id="ytick_24">
     <g id="line2d_63">
      <path d="M 90 231.814877 
L 648 231.814877 
" clip-path="url(#p045be60621)" style="fill: none; stroke-dasharray: 2.96,1.28; stroke-dashoffset: 0; stroke: #b0b0b0; stroke-width: 0.8"/>
     </g>
     <g id="line2d_64">
      <g>
       <use xlink:href="#mdfe03ffef4" x="90" y="231.814877" style="stroke: #000000; stroke-width: 0.6"/>
      </g>
     </g>
    </g>
    <g id="ytick_25">
     <g id="line2d_65">
      <path d="M 90 224.123035 
L 648 224.123035 
" clip-path="url(#p045be60621)" style="fill: none; stroke-dasharray: 2.96,1.28; stroke-dashoffset: 0; stroke: #b0b0b0; stroke-width: 0.8"/>
     </g>
     <g id="line2d_66">
      <g>
       <use xlink:href="#mdfe03ffef4" x="90" y="224.123035" style="stroke: #000000; stroke-width: 0.6"/>
      </g>
     </g>
    </g>
    <g id="ytick_26">
     <g id="line2d_67">
      <path d="M 90 218.156779 
L 648 218.156779 
" clip-path="url(#p045be60621)" style="fill: none; stroke-dasharray: 2.96,1.28; stroke-dashoffset: 0; stroke: #b0b0b0; stroke-width: 0.8"/>
     </g>
     <g id="line2d_68">
      <g>
       <use xlink:href="#mdfe03ffef4" x="90" y="218.156779" style="stroke: #000000; stroke-width: 0.6"/>
      </g>
     </g>
    </g>
    <g id="ytick_27">
     <g id="line2d_69">
      <path d="M 90 213.281993 
L 648 213.281993 
" clip-path="url(#p045be60621)" style="fill: none; stroke-dasharray: 2.96,1.28; stroke-dashoffset: 0; stroke: #b0b0b0; stroke-width: 0.8"/>
     </g>
     <g id="line2d_70">
      <g>
       <use xlink:href="#mdfe03ffef4" x="90" y="213.281993" style="stroke: #000000; stroke-width: 0.6"/>
      </g>
     </g>
    </g>
    <g id="ytick_28">
     <g id="line2d_71">
      <path d="M 90 209.16042 
L 648 209.16042 
" clip-path="url(#p045be60621)" style="fill: none; stroke-dasharray: 2.96,1.28; stroke-dashoffset: 0; stroke: #b0b0b0; stroke-width: 0.8"/>
     </g>
     <g id="line2d_72">
      <g>
       <use xlink:href="#mdfe03ffef4" x="90" y="209.16042" style="stroke: #000000; stroke-width: 0.6"/>
      </g>
     </g>
    </g>
    <g id="ytick_29">
     <g id="line2d_73">
      <path d="M 90 205.590151 
L 648 205.590151 
" clip-path="url(#p045be60621)" style="fill: none; stroke-dasharray: 2.96,1.28; stroke-dashoffset: 0; stroke: #b0b0b0; stroke-width: 0.8"/>
     </g>
     <g id="line2d_74">
      <g>
       <use xlink:href="#mdfe03ffef4" x="90" y="205.590151" style="stroke: #000000; stroke-width: 0.6"/>
      </g>
     </g>
    </g>
    <g id="ytick_30">
     <g id="line2d_75">
      <path d="M 90 202.440951 
L 648 202.440951 
" clip-path="url(#p045be60621)" style="fill: none; stroke-dasharray: 2.96,1.28; stroke-dashoffset: 0; stroke: #b0b0b0; stroke-width: 0.8"/>
     </g>
     <g id="line2d_76">
      <g>
       <use xlink:href="#mdfe03ffef4" x="90" y="202.440951" style="stroke: #000000; stroke-width: 0.6"/>
      </g>
     </g>
    </g>
    <g id="ytick_31">
     <g id="line2d_77">
      <path d="M 90 181.091011 
L 648 181.091011 
" clip-path="url(#p045be60621)" style="fill: none; stroke-dasharray: 2.96,1.28; stroke-dashoffset: 0; stroke: #b0b0b0; stroke-width: 0.8"/>
     </g>
     <g id="line2d_78">
      <g>
       <use xlink:href="#mdfe03ffef4" x="90" y="181.091011" style="stroke: #000000; stroke-width: 0.6"/>
      </g>
     </g>
    </g>
    <g id="ytick_32">
     <g id="line2d_79">
      <path d="M 90 170.249969 
L 648 170.249969 
" clip-path="url(#p045be60621)" style="fill: none; stroke-dasharray: 2.96,1.28; stroke-dashoffset: 0; stroke: #b0b0b0; stroke-width: 0.8"/>
     </g>
     <g id="line2d_80">
      <g>
       <use xlink:href="#mdfe03ffef4" x="90" y="170.249969" style="stroke: #000000; stroke-width: 0.6"/>
      </g>
     </g>
    </g>
    <g id="ytick_33">
     <g id="line2d_81">
      <path d="M 90 162.558127 
L 648 162.558127 
" clip-path="url(#p045be60621)" style="fill: none; stroke-dasharray: 2.96,1.28; stroke-dashoffset: 0; stroke: #b0b0b0; stroke-width: 0.8"/>
     </g>
     <g id="line2d_82">
      <g>
       <use xlink:href="#mdfe03ffef4" x="90" y="162.558127" style="stroke: #000000; stroke-width: 0.6"/>
      </g>
     </g>
    </g>
    <g id="ytick_34">
     <g id="line2d_83">
      <path d="M 90 156.59187 
L 648 156.59187 
" clip-path="url(#p045be60621)" style="fill: none; stroke-dasharray: 2.96,1.28; stroke-dashoffset: 0; stroke: #b0b0b0; stroke-width: 0.8"/>
     </g>
     <g id="line2d_84">
      <g>
       <use xlink:href="#mdfe03ffef4" x="90" y="156.59187" style="stroke: #000000; stroke-width: 0.6"/>
      </g>
     </g>
    </g>
    <g id="ytick_35">
     <g id="line2d_85">
      <path d="M 90 151.717084 
L 648 151.717084 
" clip-path="url(#p045be60621)" style="fill: none; stroke-dasharray: 2.96,1.28; stroke-dashoffset: 0; stroke: #b0b0b0; stroke-width: 0.8"/>
     </g>
     <g id="line2d_86">
      <g>
       <use xlink:href="#mdfe03ffef4" x="90" y="151.717084" style="stroke: #000000; stroke-width: 0.6"/>
      </g>
     </g>
    </g>
    <g id="ytick_36">
     <g id="line2d_87">
      <path d="M 90 147.595511 
L 648 147.595511 
" clip-path="url(#p045be60621)" style="fill: none; stroke-dasharray: 2.96,1.28; stroke-dashoffset: 0; stroke: #b0b0b0; stroke-width: 0.8"/>
     </g>
     <g id="line2d_88">
      <g>
       <use xlink:href="#mdfe03ffef4" x="90" y="147.595511" style="stroke: #000000; stroke-width: 0.6"/>
      </g>
     </g>
    </g>
    <g id="ytick_37">
     <g id="line2d_89">
      <path d="M 90 144.025242 
L 648 144.025242 
" clip-path="url(#p045be60621)" style="fill: none; stroke-dasharray: 2.96,1.28; stroke-dashoffset: 0; stroke: #b0b0b0; stroke-width: 0.8"/>
     </g>
     <g id="line2d_90">
      <g>
       <use xlink:href="#mdfe03ffef4" x="90" y="144.025242" style="stroke: #000000; stroke-width: 0.6"/>
      </g>
     </g>
    </g>
    <g id="ytick_38">
     <g id="line2d_91">
      <path d="M 90 140.876042 
L 648 140.876042 
" clip-path="url(#p045be60621)" style="fill: none; stroke-dasharray: 2.96,1.28; stroke-dashoffset: 0; stroke: #b0b0b0; stroke-width: 0.8"/>
     </g>
     <g id="line2d_92">
      <g>
       <use xlink:href="#mdfe03ffef4" x="90" y="140.876042" style="stroke: #000000; stroke-width: 0.6"/>
      </g>
     </g>
    </g>
    <g id="ytick_39">
     <g id="line2d_93">
      <path d="M 90 119.526102 
L 648 119.526102 
" clip-path="url(#p045be60621)" style="fill: none; stroke-dasharray: 2.96,1.28; stroke-dashoffset: 0; stroke: #b0b0b0; stroke-width: 0.8"/>
     </g>
     <g id="line2d_94">
      <g>
       <use xlink:href="#mdfe03ffef4" x="90" y="119.526102" style="stroke: #000000; stroke-width: 0.6"/>
      </g>
     </g>
    </g>
    <g id="ytick_40">
     <g id="line2d_95">
      <path d="M 90 108.68506 
L 648 108.68506 
" clip-path="url(#p045be60621)" style="fill: none; stroke-dasharray: 2.96,1.28; stroke-dashoffset: 0; stroke: #b0b0b0; stroke-width: 0.8"/>
     </g>
     <g id="line2d_96">
      <g>
       <use xlink:href="#mdfe03ffef4" x="90" y="108.68506" style="stroke: #000000; stroke-width: 0.6"/>
      </g>
     </g>
    </g>
    <g id="ytick_41">
     <g id="line2d_97">
      <path d="M 90 100.993218 
L 648 100.993218 
" clip-path="url(#p045be60621)" style="fill: none; stroke-dasharray: 2.96,1.28; stroke-dashoffset: 0; stroke: #b0b0b0; stroke-width: 0.8"/>
     </g>
     <g id="line2d_98">
      <g>
       <use xlink:href="#mdfe03ffef4" x="90" y="100.993218" style="stroke: #000000; stroke-width: 0.6"/>
      </g>
     </g>
    </g>
    <g id="ytick_42">
     <g id="line2d_99">
      <path d="M 90 95.026962 
L 648 95.026962 
" clip-path="url(#p045be60621)" style="fill: none; stroke-dasharray: 2.96,1.28; stroke-dashoffset: 0; stroke: #b0b0b0; stroke-width: 0.8"/>
     </g>
     <g id="line2d_100">
      <g>
       <use xlink:href="#mdfe03ffef4" x="90" y="95.026962" style="stroke: #000000; stroke-width: 0.6"/>
      </g>
     </g>
    </g>
    <g id="ytick_43">
     <g id="line2d_101">
      <path d="M 90 90.152175 
L 648 90.152175 
" clip-path="url(#p045be60621)" style="fill: none; stroke-dasharray: 2.96,1.28; stroke-dashoffset: 0; stroke: #b0b0b0; stroke-width: 0.8"/>
     </g>
     <g id="line2d_102">
      <g>
       <use xlink:href="#mdfe03ffef4" x="90" y="90.152175" style="stroke: #000000; stroke-width: 0.6"/>
      </g>
     </g>
    </g>
    <g id="ytick_44">
     <g id="line2d_103">
      <path d="M 90 86.030602 
L 648 86.030602 
" clip-path="url(#p045be60621)" style="fill: none; stroke-dasharray: 2.96,1.28; stroke-dashoffset: 0; stroke: #b0b0b0; stroke-width: 0.8"/>
     </g>
     <g id="line2d_104">
      <g>
       <use xlink:href="#mdfe03ffef4" x="90" y="86.030602" style="stroke: #000000; stroke-width: 0.6"/>
      </g>
     </g>
    </g>
    <g id="ytick_45">
     <g id="line2d_105">
      <path d="M 90 82.460333 
L 648 82.460333 
" clip-path="url(#p045be60621)" style="fill: none; stroke-dasharray: 2.96,1.28; stroke-dashoffset: 0; stroke: #b0b0b0; stroke-width: 0.8"/>
     </g>
     <g id="line2d_106">
      <g>
       <use xlink:href="#mdfe03ffef4" x="90" y="82.460333" style="stroke: #000000; stroke-width: 0.6"/>
      </g>
     </g>
    </g>
    <g id="ytick_46">
     <g id="line2d_107">
      <path d="M 90 79.311133 
L 648 79.311133 
" clip-path="url(#p045be60621)" style="fill: none; stroke-dasharray: 2.96,1.28; stroke-dashoffset: 0; stroke: #b0b0b0; stroke-width: 0.8"/>
     </g>
     <g id="line2d_108">
      <g>
       <use xlink:href="#mdfe03ffef4" x="90" y="79.311133" style="stroke: #000000; stroke-width: 0.6"/>
      </g>
     </g>
    </g>
    <g id="ytick_47">
     <g id="line2d_109">
      <path d="M 90 57.961193 
L 648 57.961193 
" clip-path="url(#p045be60621)" style="fill: none; stroke-dasharray: 2.96,1.28; stroke-dashoffset: 0; stroke: #b0b0b0; stroke-width: 0.8"/>
     </g>
     <g id="line2d_110">
      <g>
       <use xlink:href="#mdfe03ffef4" x="90" y="57.961193" style="stroke: #000000; stroke-width: 0.6"/>
      </g>
     </g>
    </g>
    <g id="text_16">
     <!-- Huber Loss (Normalized) -->
     <g transform="translate(53.420312 279.7975) rotate(-90) scale(0.1 -0.1)">
      <defs>
       <path id="DejaVuSans-48" d="M 628 4666 
L 1259 4666 
L 1259 2753 
L 3553 2753 
L 3553 4666 
L 4184 4666 
L 4184 0 
L 3553 0 
L 3553 2222 
L 1259 2222 
L 1259 0 
L 628 0 
L 628 4666 
z
" transform="scale(0.015625)"/>
       <path id="DejaVuSans-75" d="M 544 1381 
L 544 3500 
L 1119 3500 
L 1119 1403 
Q 1119 906 1312 657 
Q 1506 409 1894 409 
Q 2359 409 2629 706 
Q 2900 1003 2900 1516 
L 2900 3500 
L 3475 3500 
L 3475 0 
L 2900 0 
L 2900 538 
Q 2691 219 2414 64 
Q 2138 -91 1772 -91 
Q 1169 -91 856 284 
Q 544 659 544 1381 
z
M 1991 3584 
L 1991 3584 
z
" transform="scale(0.015625)"/>
       <path id="DejaVuSans-62" d="M 3116 1747 
Q 3116 2381 2855 2742 
Q 2594 3103 2138 3103 
Q 1681 3103 1420 2742 
Q 1159 2381 1159 1747 
Q 1159 1113 1420 752 
Q 1681 391 2138 391 
Q 2594 391 2855 752 
Q 3116 1113 3116 1747 
z
M 1159 2969 
Q 1341 3281 1617 3432 
Q 1894 3584 2278 3584 
Q 2916 3584 3314 3078 
Q 3713 2572 3713 1747 
Q 3713 922 3314 415 
Q 2916 -91 2278 -91 
Q 1894 -91 1617 61 
Q 1341 213 1159 525 
L 1159 0 
L 581 0 
L 581 4863 
L 1159 4863 
L 1159 2969 
z
" transform="scale(0.015625)"/>
       <path id="DejaVuSans-65" d="M 3597 1894 
L 3597 1613 
L 953 1613 
Q 991 1019 1311 708 
Q 1631 397 2203 397 
Q 2534 397 2845 478 
Q 3156 559 3463 722 
L 3463 178 
Q 3153 47 2828 -22 
Q 2503 -91 2169 -91 
Q 1331 -91 842 396 
Q 353 884 353 1716 
Q 353 2575 817 3079 
Q 1281 3584 2069 3584 
Q 2775 3584 3186 3129 
Q 3597 2675 3597 1894 
z
M 3022 2063 
Q 3016 2534 2758 2815 
Q 2500 3097 2075 3097 
Q 1594 3097 1305 2825 
Q 1016 2553 972 2059 
L 3022 2063 
z
" transform="scale(0.015625)"/>
       <path id="DejaVuSans-72" d="M 2631 2963 
Q 2534 3019 2420 3045 
Q 2306 3072 2169 3072 
Q 1681 3072 1420 2755 
Q 1159 2438 1159 1844 
L 1159 0 
L 581 0 
L 581 3500 
L 1159 3500 
L 1159 2956 
Q 1341 3275 1631 3429 
Q 1922 3584 2338 3584 
Q 2397 3584 2469 3576 
Q 2541 3569 2628 3553 
L 2631 2963 
z
" transform="scale(0.015625)"/>
       <path id="DejaVuSans-20" transform="scale(0.015625)"/>
       <path id="DejaVuSans-4c" d="M 628 4666 
L 1259 4666 
L 1259 531 
L 3531 531 
L 3531 0 
L 628 0 
L 628 4666 
z
" transform="scale(0.015625)"/>
       <path id="DejaVuSans-73" d="M 2834 3397 
L 2834 2853 
Q 2591 2978 2328 3040 
Q 2066 3103 1784 3103 
Q 1356 3103 1142 2972 
Q 928 2841 928 2578 
Q 928 2378 1081 2264 
Q 1234 2150 1697 2047 
L 1894 2003 
Q 2506 1872 2764 1633 
Q 3022 1394 3022 966 
Q 3022 478 2636 193 
Q 2250 -91 1575 -91 
Q 1294 -91 989 -36 
Q 684 19 347 128 
L 347 722 
Q 666 556 975 473 
Q 1284 391 1588 391 
Q 1994 391 2212 530 
Q 2431 669 2431 922 
Q 2431 1156 2273 1281 
Q 2116 1406 1581 1522 
L 1381 1569 
Q 847 1681 609 1914 
Q 372 2147 372 2553 
Q 372 3047 722 3315 
Q 1072 3584 1716 3584 
Q 2034 3584 2315 3537 
Q 2597 3491 2834 3397 
z
" transform="scale(0.015625)"/>
       <path id="DejaVuSans-28" d="M 1984 4856 
Q 1566 4138 1362 3434 
Q 1159 2731 1159 2009 
Q 1159 1288 1364 580 
Q 1569 -128 1984 -844 
L 1484 -844 
Q 1016 -109 783 600 
Q 550 1309 550 2009 
Q 550 2706 781 3412 
Q 1013 4119 1484 4856 
L 1984 4856 
z
" transform="scale(0.015625)"/>
       <path id="DejaVuSans-4e" d="M 628 4666 
L 1478 4666 
L 3547 763 
L 3547 4666 
L 4159 4666 
L 4159 0 
L 3309 0 
L 1241 3903 
L 1241 0 
L 628 0 
L 628 4666 
z
" transform="scale(0.015625)"/>
       <path id="DejaVuSans-6d" d="M 3328 2828 
Q 3544 3216 3844 3400 
Q 4144 3584 4550 3584 
Q 5097 3584 5394 3201 
Q 5691 2819 5691 2113 
L 5691 0 
L 5113 0 
L 5113 2094 
Q 5113 2597 4934 2840 
Q 4756 3084 4391 3084 
Q 3944 3084 3684 2787 
Q 3425 2491 3425 1978 
L 3425 0 
L 2847 0 
L 2847 2094 
Q 2847 2600 2669 2842 
Q 2491 3084 2119 3084 
Q 1678 3084 1418 2786 
Q 1159 2488 1159 1978 
L 1159 0 
L 581 0 
L 581 3500 
L 1159 3500 
L 1159 2956 
Q 1356 3278 1631 3431 
Q 1906 3584 2284 3584 
Q 2666 3584 2933 3390 
Q 3200 3197 3328 2828 
z
" transform="scale(0.015625)"/>
       <path id="DejaVuSans-61" d="M 2194 1759 
Q 1497 1759 1228 1600 
Q 959 1441 959 1056 
Q 959 750 1161 570 
Q 1363 391 1709 391 
Q 2188 391 2477 730 
Q 2766 1069 2766 1631 
L 2766 1759 
L 2194 1759 
z
M 3341 1997 
L 3341 0 
L 2766 0 
L 2766 531 
Q 2569 213 2275 61 
Q 1981 -91 1556 -91 
Q 1019 -91 701 211 
Q 384 513 384 1019 
Q 384 1609 779 1909 
Q 1175 2209 1959 2209 
L 2766 2209 
L 2766 2266 
Q 2766 2663 2505 2880 
Q 2244 3097 1772 3097 
Q 1472 3097 1187 3025 
Q 903 2953 641 2809 
L 641 3341 
Q 956 3463 1253 3523 
Q 1550 3584 1831 3584 
Q 2591 3584 2966 3190 
Q 3341 2797 3341 1997 
z
" transform="scale(0.015625)"/>
       <path id="DejaVuSans-6c" d="M 603 4863 
L 1178 4863 
L 1178 0 
L 603 0 
L 603 4863 
z
" transform="scale(0.015625)"/>
       <path id="DejaVuSans-69" d="M 603 3500 
L 1178 3500 
L 1178 0 
L 603 0 
L 603 3500 
z
M 603 4863 
L 1178 4863 
L 1178 4134 
L 603 4134 
L 603 4863 
z
" transform="scale(0.015625)"/>
       <path id="DejaVuSans-7a" d="M 353 3500 
L 3084 3500 
L 3084 2975 
L 922 459 
L 3084 459 
L 3084 0 
L 275 0 
L 275 525 
L 2438 3041 
L 353 3041 
L 353 3500 
z
" transform="scale(0.015625)"/>
       <path id="DejaVuSans-64" d="M 2906 2969 
L 2906 4863 
L 3481 4863 
L 3481 0 
L 2906 0 
L 2906 525 
Q 2725 213 2448 61 
Q 2172 -91 1784 -91 
Q 1150 -91 751 415 
Q 353 922 353 1747 
Q 353 2572 751 3078 
Q 1150 3584 1784 3584 
Q 2172 3584 2448 3432 
Q 2725 3281 2906 2969 
z
M 947 1747 
Q 947 1113 1208 752 
Q 1469 391 1925 391 
Q 2381 391 2643 752 
Q 2906 1113 2906 1747 
Q 2906 2381 2643 2742 
Q 2381 3103 1925 3103 
Q 1469 3103 1208 2742 
Q 947 2381 947 1747 
z
" transform="scale(0.015625)"/>
       <path id="DejaVuSans-29" d="M 513 4856 
L 1013 4856 
Q 1481 4119 1714 3412 
Q 1947 2706 1947 2009 
Q 1947 1309 1714 600 
Q 1481 -109 1013 -844 
L 513 -844 
Q 928 -128 1133 580 
Q 1338 1288 1338 2009 
Q 1338 2731 1133 3434 
Q 928 4138 513 4856 
z
" transform="scale(0.015625)"/>
      </defs>
      <use xlink:href="#DejaVuSans-48"/>
      <use xlink:href="#DejaVuSans-75" transform="translate(75.195312 0)"/>
      <use xlink:href="#DejaVuSans-62" transform="translate(138.574219 0)"/>
      <use xlink:href="#DejaVuSans-65" transform="translate(202.050781 0)"/>
      <use xlink:href="#DejaVuSans-72" transform="translate(263.574219 0)"/>
      <use xlink:href="#DejaVuSans-20" transform="translate(304.6875 0)"/>
      <use xlink:href="#DejaVuSans-4c" transform="translate(336.474609 0)"/>
      <use xlink:href="#DejaVuSans-6f" transform="translate(390.4375 0)"/>
      <use xlink:href="#DejaVuSans-73" transform="translate(451.619141 0)"/>
      <use xlink:href="#DejaVuSans-73" transform="translate(503.71875 0)"/>
      <use xlink:href="#DejaVuSans-20" transform="translate(555.818359 0)"/>
      <use xlink:href="#DejaVuSans-28" transform="translate(587.605469 0)"/>
      <use xlink:href="#DejaVuSans-4e" transform="translate(626.619141 0)"/>
      <use xlink:href="#DejaVuSans-6f" transform="translate(701.423828 0)"/>
      <use xlink:href="#DejaVuSans-72" transform="translate(762.605469 0)"/>
      <use xlink:href="#DejaVuSans-6d" transform="translate(801.96875 0)"/>
      <use xlink:href="#DejaVuSans-61" transform="translate(899.380859 0)"/>
      <use xlink:href="#DejaVuSans-6c" transform="translate(960.660156 0)"/>
      <use xlink:href="#DejaVuSans-69" transform="translate(988.443359 0)"/>
      <use xlink:href="#DejaVuSans-7a" transform="translate(1016.226562 0)"/>
      <use xlink:href="#DejaVuSans-65" transform="translate(1068.716797 0)"/>
      <use xlink:href="#DejaVuSans-64" transform="translate(1130.240234 0)"/>
      <use xlink:href="#DejaVuSans-29" transform="translate(1193.716797 0)"/>
     </g>
    </g>
   </g>
   <g id="line2d_111">
    <path d="M 115.363636 66.96 
L 116.088312 139.274922 
L 116.812987 163.583005 
L 118.262338 186.290123 
L 118.987013 192.505946 
L 120.436364 208.704952 
L 121.161039 215.995116 
L 121.885714 219.629177 
L 122.61039 220.620216 
L 124.05974 227.772442 
L 124.784416 227.595486 
L 125.509091 232.82253 
L 126.233766 236.680895 
L 126.958442 234.490254 
L 127.683117 235.895264 
L 128.407792 234.430628 
L 129.132468 238.609939 
L 129.857143 238.076 
L 130.581818 235.43291 
L 131.306494 234.048319 
L 132.031169 230.799204 
L 132.755844 224.758383 
L 133.480519 235.308912 
L 134.205195 239.821302 
L 134.92987 224.122861 
L 135.654545 233.325983 
L 136.379221 239.475377 
L 137.103896 244.411726 
L 137.828571 245.513746 
L 139.277922 250.270125 
L 140.002597 239.06408 
L 140.727273 244.367824 
L 141.451948 238.08879 
L 142.901299 221.041353 
L 143.625974 241.689092 
L 144.350649 255.147522 
L 145.075325 246.805532 
L 145.8 235.728648 
L 146.524675 231.359614 
L 147.249351 234.664134 
L 148.698701 252.585249 
L 149.423377 249.929022 
L 150.872727 254.962909 
L 151.597403 237.33649 
L 152.322078 243.669797 
L 153.046753 232.110611 
L 153.771429 236.493569 
L 154.496104 243.541754 
L 155.220779 261.21195 
L 155.945455 262.586502 
L 156.67013 241.583137 
L 157.394805 238.21928 
L 158.119481 241.960767 
L 158.844156 247.481479 
L 159.568831 258.017901 
L 160.293506 251.51596 
L 161.018182 233.778077 
L 163.916883 266.476222 
L 164.641558 268.778974 
L 165.366234 268.346421 
L 166.090909 267.318987 
L 166.815584 247.976964 
L 167.54026 245.56999 
L 168.264935 260.494285 
L 168.98961 251.118476 
L 169.714286 231.821373 
L 170.438961 250.167418 
L 171.163636 249.727816 
L 171.888312 250.884441 
L 172.612987 238.370169 
L 173.337662 240.0208 
L 174.062338 258.27291 
L 174.787013 265.439154 
L 175.511688 243.597418 
L 176.236364 259.389638 
L 176.961039 267.989134 
L 177.685714 268.517402 
L 178.41039 240.308364 
L 179.135065 231.527467 
L 179.85974 240.443213 
L 180.584416 226.577461 
L 181.309091 215.037191 
L 182.033766 234.232526 
L 182.758442 256.51238 
L 183.483117 271.529027 
L 184.207792 276.874589 
L 184.932468 279.3304 
L 185.657143 273.862094 
L 186.381818 278.939859 
L 187.106494 259.520444 
L 187.831169 258.495508 
L 188.555844 255.635846 
L 189.280519 249.705137 
L 190.005195 215.683128 
L 190.72987 204.498189 
L 191.454545 235.529271 
L 192.179221 245.760247 
L 192.903896 252.737007 
L 193.628571 255.51879 
L 194.353247 267.125922 
L 195.077922 268.863907 
L 195.802597 273.425306 
L 196.527273 281.212622 
L 197.251948 281.542688 
L 197.976623 274.066358 
L 198.701299 242.025526 
L 199.425974 265.556705 
L 200.150649 263.72354 
L 200.875325 269.03461 
L 201.6 221.57447 
L 202.324675 241.254994 
L 203.049351 256.107847 
L 203.774026 274.318673 
L 204.498701 279.048766 
L 205.223377 282.421089 
L 205.948052 275.606288 
L 206.672727 283.160872 
L 207.397403 282.092531 
L 208.122078 260.094294 
L 208.846753 246.059192 
L 209.571429 249.09104 
L 210.296104 250.963109 
L 211.020779 244.286827 
L 212.47013 246.510209 
L 213.194805 250.481511 
L 213.919481 255.8563 
L 214.644156 265.287476 
L 215.368831 251.078121 
L 216.093506 272.652817 
L 216.818182 271.088058 
L 217.542857 268.67172 
L 218.267532 263.554977 
L 218.992208 255.336624 
L 219.716883 275.136667 
L 220.441558 262.597131 
L 221.166234 199.762842 
L 221.890909 215.08338 
L 222.615584 255.253535 
L 223.34026 265.135632 
L 224.064935 281.048907 
L 224.78961 280.666996 
L 226.238961 290.341439 
L 226.963636 295.84466 
L 227.688312 295.751422 
L 228.412987 293.947573 
L 229.137662 288.29571 
L 229.862338 289.073921 
L 230.587013 288.134768 
L 231.311688 285.137174 
L 232.036364 286.939287 
L 232.761039 283.173004 
L 233.485714 282.532884 
L 234.21039 273.888391 
L 235.65974 287.618363 
L 236.384416 264.151523 
L 237.109091 231.983327 
L 237.833766 237.183883 
L 238.558442 220.58744 
L 239.283117 226.149855 
L 240.007792 220.188832 
L 240.732468 238.545785 
L 241.457143 239.05172 
L 242.181818 261.417951 
L 242.906494 278.252058 
L 243.631169 288.277358 
L 244.355844 296.158004 
L 245.080519 297.16971 
L 245.805195 295.823208 
L 246.52987 276.618768 
L 247.254545 297.131713 
L 247.979221 295.083547 
L 248.703896 290.124231 
L 249.428571 292.977853 
L 250.153247 282.736878 
L 250.877922 287.718231 
L 251.602597 283.991804 
L 252.327273 277.869556 
L 253.051948 277.544442 
L 253.776623 284.348827 
L 255.225974 268.220409 
L 255.950649 281.748062 
L 256.675325 245.002173 
L 257.4 233.98593 
L 258.124675 261.157478 
L 258.849351 273.599353 
L 259.574026 284.035671 
L 260.298701 288.91264 
L 261.023377 271.267824 
L 261.748052 268.793215 
L 262.472727 278.844316 
L 263.197403 277.93619 
L 263.922078 278.087116 
L 264.646753 260.674788 
L 265.371429 254.762921 
L 266.096104 254.699954 
L 266.820779 264.198368 
L 267.545455 269.386662 
L 268.27013 260.686443 
L 268.994805 255.046902 
L 269.719481 250.447268 
L 270.444156 226.151535 
L 271.168831 226.567361 
L 272.618182 275.953959 
L 273.342857 264.221174 
L 274.067532 271.958453 
L 274.792208 291.47778 
L 275.516883 306.22751 
L 276.241558 311.591517 
L 276.966234 308.762716 
L 277.690909 309.002187 
L 278.415584 305.471058 
L 279.14026 286.107336 
L 279.864935 283.990055 
L 280.58961 269.382386 
L 281.314286 269.113413 
L 282.038961 277.337562 
L 282.763636 290.039006 
L 283.488312 281.142614 
L 284.212987 280.887254 
L 284.937662 280.79725 
L 285.662338 280.315574 
L 286.387013 287.501257 
L 287.111688 279.264129 
L 287.836364 266.028324 
L 288.561039 225.675157 
L 289.285714 237.600109 
L 290.01039 245.507919 
L 290.735065 256.354593 
L 291.45974 256.604923 
L 292.184416 262.245421 
L 292.909091 269.796462 
L 293.633766 285.646215 
L 294.358442 272.349862 
L 295.083117 270.23356 
L 295.807792 272.189262 
L 296.532468 279.254815 
L 297.257143 273.680301 
L 297.981818 263.077497 
L 298.706494 277.105467 
L 299.431169 281.753908 
L 300.155844 294.361649 
L 300.880519 292.741463 
L 301.605195 285.31818 
L 302.32987 274.281471 
L 303.054545 273.665755 
L 303.779221 277.309626 
L 304.503896 286.962532 
L 305.228571 285.083974 
L 305.953247 287.093169 
L 306.677922 297.655787 
L 307.402597 279.908364 
L 308.127273 254.885643 
L 308.851948 255.285172 
L 309.576623 257.309995 
L 310.301299 270.78596 
L 311.025974 272.974736 
L 311.750649 289.314406 
L 312.475325 288.620417 
L 313.2 279.963477 
L 313.924675 281.643401 
L 314.649351 276.528225 
L 315.374026 274.021451 
L 316.098701 256.89145 
L 316.823377 260.191216 
L 317.548052 268.59572 
L 318.997403 244.852723 
L 319.722078 263.382316 
L 320.446753 271.998368 
L 321.171429 288.263067 
L 321.896104 291.258914 
L 322.620779 255.047289 
L 323.345455 243.537814 
L 324.794805 266.170853 
L 325.519481 267.793681 
L 326.968831 298.188363 
L 327.693506 302.134176 
L 328.418182 298.134784 
L 329.142857 298.493696 
L 329.867532 298.594539 
L 330.592208 301.569735 
L 331.316883 294.544427 
L 332.041558 281.953965 
L 332.766234 263.910334 
L 333.490909 272.874313 
L 334.215584 283.594843 
L 334.94026 298.065266 
L 335.664935 297.292353 
L 336.38961 295.950322 
L 337.114286 266.826807 
L 337.838961 277.438898 
L 338.563636 272.16637 
L 339.288312 264.443771 
L 340.012987 265.260731 
L 340.737662 282.058358 
L 341.462338 295.21616 
L 342.187013 296.45501 
L 342.911688 291.393118 
L 343.636364 299.06794 
L 344.361039 290.242261 
L 345.085714 270.805772 
L 345.81039 270.58789 
L 346.535065 293.533412 
L 347.25974 274.436447 
L 347.984416 280.633468 
L 348.709091 277.32526 
L 349.433766 276.810897 
L 350.158442 277.612676 
L 350.883117 271.917206 
L 351.607792 251.157273 
L 352.332468 262.417337 
L 353.057143 280.863738 
L 353.781818 281.405464 
L 354.506494 295.30917 
L 355.231169 305.523155 
L 355.955844 297.437847 
L 356.680519 308.538471 
L 357.405195 313.242767 
L 358.12987 312.312024 
L 358.854545 306.554378 
L 359.579221 303.772189 
L 360.303896 302.777587 
L 361.028571 300.405971 
L 361.753247 303.704866 
L 362.477922 303.219151 
L 363.202597 287.673961 
L 363.927273 286.660883 
L 364.651948 284.283411 
L 365.376623 291.061851 
L 366.101299 278.910591 
L 366.825974 264.482459 
L 367.550649 260.203989 
L 368.275325 276.355997 
L 369 270.328616 
L 369.724675 267.235736 
L 370.449351 283.084154 
L 371.174026 290.727907 
L 371.898701 287.545897 
L 372.623377 298.831238 
L 373.348052 279.141984 
L 374.072727 252.496961 
L 374.797403 279.072862 
L 375.522078 300.460238 
L 376.246753 291.677299 
L 376.971429 292.250039 
L 377.696104 294.03165 
L 378.420779 291.322768 
L 379.145455 300.324628 
L 379.87013 312.976849 
L 380.594805 299.539207 
L 381.319481 291.254244 
L 382.768831 234.996866 
L 383.493506 239.547828 
L 384.218182 243.006607 
L 384.942857 257.775201 
L 385.667532 279.392535 
L 386.392208 291.622046 
L 387.116883 298.336919 
L 387.841558 315.542257 
L 388.566234 322.937269 
L 389.290909 317.490866 
L 390.015584 322.741173 
L 390.74026 318.71637 
L 391.464935 317.895409 
L 392.18961 315.394877 
L 392.914286 310.016393 
L 393.638961 301.564276 
L 394.363636 300.045127 
L 395.088312 305.637862 
L 395.812987 316.485858 
L 396.537662 310.792355 
L 397.262338 291.721643 
L 397.987013 293.71209 
L 398.711688 296.715974 
L 399.436364 300.357823 
L 400.161039 295.705832 
L 400.885714 295.616688 
L 401.61039 307.009031 
L 402.335065 311.523 
L 403.05974 298.59853 
L 403.784416 297.442737 
L 404.509091 308.572458 
L 405.233766 293.027579 
L 405.958442 266.716776 
L 406.683117 278.850277 
L 407.407792 277.200923 
L 408.132468 279.525402 
L 409.581818 304.519097 
L 410.306494 306.260453 
L 411.031169 309.861299 
L 411.755844 283.417533 
L 412.480519 287.431489 
L 413.205195 299.30793 
L 413.92987 306.527982 
L 414.654545 320.827601 
L 415.379221 321.414085 
L 416.103896 327.190116 
L 416.828571 318.77492 
L 417.553247 314.10285 
L 418.277922 311.348901 
L 419.002597 304.477602 
L 419.727273 314.363371 
L 420.451948 291.644424 
L 421.901299 318.85275 
L 422.625974 315.166186 
L 423.350649 291.891928 
L 424.8 326.281636 
L 425.524675 304.706712 
L 426.249351 292.987795 
L 426.974026 289.59931 
L 427.698701 295.163944 
L 428.423377 302.275984 
L 429.148052 304.855044 
L 430.597403 245.744637 
L 431.322078 251.372745 
L 432.046753 252.196441 
L 432.771429 255.369258 
L 433.496104 278.819655 
L 434.945455 311.11242 
L 435.67013 311.882612 
L 436.394805 309.520872 
L 437.119481 291.831458 
L 437.844156 304.016937 
L 438.568831 305.93991 
L 439.293506 311.579163 
L 440.018182 318.75622 
L 441.467532 334.808513 
L 442.192208 342.186146 
L 442.916883 337.608146 
L 443.641558 330.724439 
L 444.366234 333.855 
L 445.090909 338.157042 
L 445.815584 331.160061 
L 446.54026 298.571667 
L 447.98961 276.508742 
L 448.714286 276.667248 
L 449.438961 273.662082 
L 450.163636 283.075762 
L 450.888312 290.049606 
L 451.612987 304.054569 
L 453.062338 313.559337 
L 453.787013 307.316934 
L 454.511688 302.192007 
L 455.236364 306.996286 
L 455.961039 295.306913 
L 456.685714 294.871369 
L 457.41039 307.92309 
L 458.135065 299.769842 
L 458.85974 320.976611 
L 459.584416 333.597 
L 460.309091 332.364155 
L 461.033766 330.438844 
L 461.758442 319.77361 
L 462.483117 330.897596 
L 463.932468 312.930951 
L 464.657143 321.241229 
L 465.381818 327.915633 
L 466.106494 324.055565 
L 466.831169 310.422992 
L 468.280519 319.26384 
L 469.005195 315.505768 
L 469.72987 307.136967 
L 470.454545 286.723505 
L 471.179221 284.473161 
L 471.903896 273.937426 
L 472.628571 284.587729 
L 473.353247 300.345508 
L 474.077922 306.302092 
L 474.802597 313.727196 
L 476.251948 332.26205 
L 476.976623 332.529011 
L 477.701299 334.610348 
L 478.425974 338.248744 
L 479.150649 326.615624 
L 479.875325 324.790084 
L 480.6 326.895319 
L 481.324675 322.914053 
L 482.049351 321.506509 
L 482.774026 314.664152 
L 483.498701 313.656274 
L 484.223377 314.097738 
L 484.948052 303.272748 
L 485.672727 309.046825 
L 486.397403 289.033447 
L 487.122078 284.755324 
L 487.846753 269.960091 
L 488.571429 280.731464 
L 489.296104 271.599531 
L 490.745455 309.598616 
L 491.47013 321.671344 
L 492.194805 323.401918 
L 492.919481 338.744421 
L 493.644156 334.417072 
L 494.368831 335.848763 
L 495.093506 332.104013 
L 496.542857 339.374098 
L 497.267532 337.268822 
L 497.992208 344.116479 
L 498.716883 343.840497 
L 499.441558 338.798814 
L 500.166234 336.493318 
L 500.890909 324.778042 
L 501.615584 333.242021 
L 502.34026 331.916481 
L 503.064935 342.248358 
L 503.78961 345.551301 
L 504.514286 322.013334 
L 505.238961 322.824395 
L 505.963636 295.168313 
L 506.688312 289.028002 
L 507.412987 297.185169 
L 508.137662 296.396311 
L 508.862338 309.066078 
L 509.587013 316.504155 
L 510.311688 306.856084 
L 511.036364 313.333403 
L 511.761039 316.805142 
L 512.485714 320.985651 
L 513.21039 340.866929 
L 513.935065 343.424826 
L 514.65974 336.230456 
L 515.384416 341.270803 
L 516.109091 335.115829 
L 516.833766 342.561876 
L 517.558442 335.638672 
L 518.283117 319.61295 
L 519.007792 317.807672 
L 519.732468 328.752096 
L 521.181818 323.243177 
L 521.906494 331.419448 
L 522.631169 330.644048 
L 523.355844 333.37512 
L 524.080519 331.440374 
L 524.805195 320.11783 
L 525.52987 330.978954 
L 526.254545 326.005166 
L 526.979221 312.985687 
L 527.703896 322.979349 
L 528.428571 327.267404 
L 529.877922 316.761744 
L 530.602597 333.444004 
L 531.327273 321.284956 
L 532.051948 304.373748 
L 532.776623 304.700448 
L 533.501299 292.457042 
L 534.225974 301.522764 
L 534.950649 300.637981 
L 535.675325 289.395809 
L 536.4 283.678065 
L 537.124675 300.445211 
L 537.849351 321.97887 
L 539.298701 356.191781 
L 540.023377 353.542008 
L 540.748052 354.269985 
L 542.197403 351.386763 
L 542.922078 350.666007 
L 543.646753 357.457508 
L 544.371429 356.743408 
L 545.096104 358.393145 
L 545.820779 354.559808 
L 546.545455 348.783658 
L 547.27013 337.09605 
L 547.994805 323.38725 
L 548.719481 337.801951 
L 549.444156 339.746919 
L 550.168831 335.646184 
L 550.893506 344.040356 
L 551.618182 349.213437 
L 552.342857 349.76909 
L 553.067532 353.244239 
L 553.792208 346.704441 
L 554.516883 350.871138 
L 555.241558 347.020985 
L 555.966234 344.499968 
L 556.690909 325.691 
L 557.415584 314.027387 
L 558.14026 315.45725 
L 558.864935 325.147281 
L 559.58961 323.841706 
L 560.314286 336.582672 
L 561.763636 325.174983 
L 562.488312 342.830067 
L 563.212987 336.086933 
L 563.937662 330.694233 
L 564.662338 308.024692 
L 565.387013 318.293194 
L 566.111688 322.759953 
L 566.836364 321.910378 
L 567.561039 319.320544 
L 568.285714 322.345183 
L 569.01039 326.703816 
L 569.735065 326.35147 
L 570.45974 331.68604 
L 571.184416 342.90394 
L 571.909091 332.748434 
L 572.633766 339.851899 
L 573.358442 340.726146 
L 574.083117 337.903687 
L 574.807792 350.9737 
L 576.257143 342.130847 
L 576.981818 353.303552 
L 577.706494 355.578884 
L 578.431169 348.614649 
L 579.155844 347.365395 
L 579.880519 344.615995 
L 580.605195 351.700235 
L 581.32987 354.449123 
L 582.054545 359.645537 
L 582.779221 357.139339 
L 583.503896 354.154986 
L 584.228571 338.138654 
L 584.953247 306.780039 
L 585.677922 312.592419 
L 586.402597 307.367433 
L 587.127273 311.461925 
L 587.851948 318.489692 
L 588.576623 336.366094 
L 589.301299 340.914834 
L 590.025974 335.539864 
L 590.750649 323.363509 
L 591.475325 333.16767 
L 592.2 353.44314 
L 592.924675 353.458477 
L 593.649351 349.520435 
L 594.374026 340.137161 
L 595.098701 334.695889 
L 595.823377 341.524016 
L 596.548052 354.949938 
L 597.272727 365.542 
L 597.997403 365.951487 
L 598.722078 369.36 
L 599.446753 367.507863 
L 600.171429 367.562633 
L 600.896104 365.45556 
L 601.620779 359.259185 
L 602.345455 358.398764 
L 603.07013 368.662863 
L 603.794805 359.078929 
L 604.519481 356.234886 
L 605.244156 348.022802 
L 605.968831 355.234416 
L 606.693506 359.528022 
L 607.418182 346.887009 
L 608.142857 343.501326 
L 608.867532 346.668459 
L 609.592208 352.452027 
L 610.316883 350.058702 
L 611.041558 345.262587 
L 611.766234 352.239597 
L 612.490909 351.66756 
L 613.215584 359.213213 
L 613.94026 349.934409 
L 614.664935 344.499079 
L 615.38961 353.03951 
L 616.114286 352.717202 
L 616.838961 360.199104 
L 617.563636 356.709951 
L 618.288312 351.485595 
L 619.012987 359.348914 
L 619.737662 353.48231 
L 620.462338 343.54877 
L 621.187013 354.275997 
L 621.911688 350.551776 
L 622.636364 338.48348 
L 622.636364 338.48348 
" clip-path="url(#p045be60621)" style="fill: none; stroke: #0000ff; stroke-width: 1.5; stroke-linecap: square"/>
   </g>
   <g id="line2d_112">
    <path d="M 115.363636 120.816343 
L 116.088312 156.24853 
L 116.812987 169.875576 
L 117.537662 178.467923 
L 118.262338 185.42367 
L 118.987013 199.329521 
L 119.711688 200.234458 
L 120.436364 211.341728 
L 121.161039 217.645927 
L 121.885714 216.235005 
L 122.61039 223.622579 
L 123.335065 227.254313 
L 124.05974 226.458867 
L 124.784416 229.489065 
L 125.509091 234.830576 
L 126.233766 237.31634 
L 126.958442 230.015912 
L 127.683117 230.596849 
L 128.407792 231.648537 
L 129.132468 236.260311 
L 129.857143 239.239602 
L 130.581818 238.114904 
L 131.306494 231.924093 
L 132.031169 233.01717 
L 132.755844 228.183657 
L 133.480519 232.418215 
L 134.205195 233.938471 
L 134.92987 224.934174 
L 135.654545 231.193945 
L 136.379221 233.632374 
L 137.103896 250.297006 
L 137.828571 242.514033 
L 138.553247 247.43062 
L 139.277922 237.789207 
L 140.002597 246.451151 
L 140.727273 225.740492 
L 141.451948 228.141944 
L 142.176623 205.026151 
L 142.901299 238.337035 
L 143.625974 239.318886 
L 144.350649 249.880462 
L 145.075325 241.343948 
L 145.8 240.353322 
L 146.524675 217.115697 
L 147.249351 241.468229 
L 147.974026 250.26968 
L 148.698701 248.051921 
L 149.423377 246.80936 
L 150.148052 244.892312 
L 150.872727 233.113528 
L 151.597403 244.215213 
L 152.322078 223.374883 
L 153.046753 221.724365 
L 153.771429 247.904736 
L 154.496104 250.544518 
L 155.220779 261.497803 
L 156.67013 220.511829 
L 157.394805 247.432165 
L 158.119481 243.930003 
L 158.844156 255.637875 
L 159.568831 250.91125 
L 160.293506 240.026908 
L 161.018182 245.074363 
L 161.742857 239.818386 
L 162.467532 242.979739 
L 163.916883 263.236392 
L 164.641558 263.588479 
L 165.366234 260.643368 
L 166.090909 261.156375 
L 166.815584 239.856345 
L 167.54026 257.791344 
L 168.264935 257.280875 
L 168.98961 242.779201 
L 169.714286 246.337497 
L 170.438961 252.296458 
L 171.163636 247.362044 
L 171.888312 246.068918 
L 172.612987 231.719691 
L 173.337662 251.050687 
L 174.062338 264.826744 
L 174.787013 244.504768 
L 175.511688 246.459168 
L 176.236364 265.711353 
L 176.961039 270.881795 
L 177.685714 263.894728 
L 178.41039 208.864611 
L 179.135065 241.697692 
L 179.85974 236.906395 
L 180.584416 225.705364 
L 181.309091 224.008095 
L 182.033766 243.741417 
L 182.758442 255.060338 
L 183.483117 273.810729 
L 184.207792 277.690242 
L 184.932468 268.15651 
L 185.657143 270.584219 
L 186.381818 255.602546 
L 187.106494 266.505063 
L 187.831169 256.059663 
L 188.555844 256.433929 
L 189.280519 241.403339 
L 190.005195 192.409009 
L 190.72987 220.210489 
L 191.454545 242.31315 
L 192.179221 244.215161 
L 192.903896 244.847937 
L 193.628571 262.301703 
L 194.353247 270.745177 
L 195.077922 258.618289 
L 195.802597 273.026386 
L 196.527273 267.937389 
L 197.251948 279.625265 
L 197.976623 252.129394 
L 198.701299 245.84588 
L 199.425974 273.934291 
L 200.150649 271.603416 
L 200.875325 258.520907 
L 201.6 217.613864 
L 202.324675 253.511497 
L 203.049351 266.144512 
L 203.774026 268.81158 
L 204.498701 281.846905 
L 205.223377 269.791908 
L 205.948052 274.807744 
L 206.672727 276.681055 
L 207.397403 270.720513 
L 208.122078 263.417221 
L 208.846753 226.082812 
L 209.571429 254.53164 
L 210.296104 232.882938 
L 211.020779 225.511885 
L 211.745455 243.364763 
L 212.47013 242.240777 
L 213.194805 251.504174 
L 213.919481 256.533844 
L 214.644156 260.46206 
L 215.368831 257.365011 
L 216.093506 277.299433 
L 216.818182 270.473078 
L 217.542857 242.958078 
L 218.267532 255.892301 
L 218.992208 262.234344 
L 219.716883 258.50118 
L 220.441558 237.319251 
L 221.166234 197.716262 
L 221.890909 245.529364 
L 222.615584 260.859868 
L 223.34026 266.909318 
L 224.064935 285.409562 
L 224.78961 273.835859 
L 225.514286 277.754661 
L 226.238961 287.209224 
L 226.963636 291.777427 
L 228.412987 280.64548 
L 229.137662 275.876524 
L 229.862338 291.424098 
L 230.587013 272.368203 
L 231.311688 285.23894 
L 232.761039 270.749853 
L 233.485714 279.839834 
L 234.21039 259.371289 
L 234.935065 285.204682 
L 235.65974 258.610629 
L 236.384416 220.708314 
L 237.109091 229.281428 
L 237.833766 235.89748 
L 238.558442 217.451788 
L 239.283117 205.050575 
L 240.007792 229.092801 
L 240.732468 219.704476 
L 241.457143 247.085639 
L 242.181818 269.174332 
L 242.906494 275.829362 
L 243.631169 283.989711 
L 244.355844 294.440607 
L 245.080519 291.820016 
L 245.805195 264.160704 
L 246.52987 285.642414 
L 247.254545 291.002756 
L 247.979221 283.85548 
L 248.703896 293.812897 
L 249.428571 269.347838 
L 250.153247 276.920503 
L 250.877922 274.087227 
L 251.602597 278.832428 
L 252.327273 266.200371 
L 253.051948 281.567908 
L 253.776623 281.300873 
L 254.501299 275.043237 
L 255.225974 273.601099 
L 255.950649 254.63582 
L 256.675325 211.982236 
L 257.4 245.691425 
L 258.124675 272.18274 
L 258.849351 278.209076 
L 259.574026 292.520522 
L 260.298701 284.844686 
L 261.023377 264.719261 
L 261.748052 272.778593 
L 262.472727 268.423055 
L 263.197403 288.030488 
L 263.922078 272.827253 
L 264.646753 265.743136 
L 265.371429 246.651964 
L 266.096104 263.081566 
L 266.820779 262.764636 
L 267.545455 258.390636 
L 268.27013 258.921315 
L 268.994805 246.933065 
L 269.719481 219.680288 
L 270.444156 213.544643 
L 271.893506 260.945853 
L 272.618182 275.419054 
L 273.342857 264.841018 
L 274.067532 275.038873 
L 274.792208 295.210751 
L 276.241558 301.818194 
L 276.966234 300.97065 
L 277.690909 294.614395 
L 278.415584 293.117729 
L 279.14026 271.415046 
L 279.864935 263.878639 
L 280.58961 244.540114 
L 281.314286 262.81016 
L 282.038961 274.236929 
L 282.763636 271.986187 
L 283.488312 270.490823 
L 284.212987 282.647489 
L 284.937662 276.099911 
L 285.662338 281.608618 
L 286.387013 270.449881 
L 287.111688 276.713418 
L 287.836364 266.557918 
L 288.561039 221.07367 
L 289.285714 239.79063 
L 290.01039 238.378953 
L 290.735065 246.671311 
L 291.45974 258.614675 
L 292.184416 279.927126 
L 292.909091 277.361237 
L 293.633766 271.645124 
L 294.358442 264.892364 
L 295.083117 274.00101 
L 295.807792 264.493402 
L 296.532468 272.883807 
L 297.257143 265.729437 
L 297.981818 263.885202 
L 298.706494 264.410292 
L 299.431169 291.541747 
L 300.880519 277.814512 
L 301.605195 281.350964 
L 302.32987 269.873838 
L 303.054545 265.333654 
L 303.779221 282.490966 
L 304.503896 289.142238 
L 305.228571 269.199369 
L 305.953247 300.342546 
L 306.677922 296.427305 
L 307.402597 266.636455 
L 308.127273 252.403185 
L 309.576623 272.800299 
L 310.301299 277.417847 
L 311.025974 278.633648 
L 311.750649 284.823138 
L 312.475325 276.333382 
L 313.2 284.436449 
L 313.924675 267.50819 
L 314.649351 268.230547 
L 315.374026 259.530264 
L 316.098701 229.878993 
L 316.823377 248.711639 
L 317.548052 263.675294 
L 318.272727 228.913693 
L 319.722078 272.842613 
L 320.446753 278.558262 
L 321.171429 286.217926 
L 322.620779 223.235355 
L 323.345455 254.121459 
L 324.07013 254.668339 
L 324.794805 258.766839 
L 325.519481 274.014032 
L 326.244156 276.783964 
L 326.968831 302.679729 
L 327.693506 293.074366 
L 328.418182 295.974232 
L 329.142857 293.175885 
L 329.867532 299.323008 
L 330.592208 287.124135 
L 331.316883 284.84271 
L 332.766234 265.111242 
L 333.490909 270.574619 
L 334.215584 283.695257 
L 334.94026 298.997898 
L 335.664935 293.122936 
L 336.38961 268.483782 
L 337.114286 278.442492 
L 337.838961 271.982941 
L 338.563636 281.113167 
L 339.288312 253.362449 
L 340.012987 273.92398 
L 340.737662 286.209252 
L 341.462338 288.97133 
L 342.911688 297.401929 
L 343.636364 290.547033 
L 344.361039 270.343613 
L 345.085714 271.901178 
L 345.81039 279.491178 
L 346.535065 288.327844 
L 347.25974 266.869803 
L 347.984416 280.327205 
L 348.709091 276.376052 
L 349.433766 269.932029 
L 350.158442 271.582249 
L 350.883117 267.190575 
L 351.607792 258.119151 
L 352.332468 271.197191 
L 353.057143 268.859711 
L 353.781818 284.96475 
L 354.506494 295.073204 
L 355.231169 292.596876 
L 355.955844 291.543548 
L 356.680519 306.559565 
L 357.405195 304.207763 
L 358.12987 290.417661 
L 358.854545 302.095752 
L 359.579221 295.818761 
L 360.303896 298.507799 
L 361.028571 295.3117 
L 361.753247 293.410088 
L 362.477922 291.918035 
L 363.202597 280.620384 
L 363.927273 284.280061 
L 364.651948 278.769564 
L 365.376623 268.391946 
L 366.101299 281.478093 
L 366.825974 248.515949 
L 367.550649 273.140219 
L 368.275325 253.81099 
L 369 263.516817 
L 369.724675 276.308748 
L 370.449351 293.040037 
L 371.174026 271.171263 
L 371.898701 295.394398 
L 372.623377 289.73844 
L 373.348052 255.976636 
L 374.072727 256.477392 
L 374.797403 289.970644 
L 375.522078 290.241642 
L 376.246753 276.485976 
L 376.971429 296.12273 
L 378.420779 286.106952 
L 379.145455 290.831658 
L 379.87013 299.810962 
L 380.594805 291.355949 
L 381.319481 278.443649 
L 382.044156 237.711218 
L 382.768831 220.501199 
L 383.493506 236.613795 
L 384.218182 249.893386 
L 384.942857 271.381725 
L 385.667532 280.307062 
L 387.116883 293.599776 
L 387.841558 310.159267 
L 388.566234 308.806757 
L 389.290909 306.243199 
L 390.015584 301.704778 
L 390.74026 303.670006 
L 391.464935 300.191462 
L 392.18961 299.248649 
L 392.914286 299.60077 
L 393.638961 296.364348 
L 394.363636 296.612052 
L 395.088312 305.688268 
L 395.812987 309.444372 
L 396.537662 280.871759 
L 397.262338 298.614658 
L 397.987013 290.635597 
L 398.711688 291.314638 
L 399.436364 299.759369 
L 400.161039 281.13891 
L 400.885714 294.2986 
L 401.61039 297.826512 
L 402.335065 291.054044 
L 403.05974 285.580977 
L 403.784416 295.238952 
L 404.509091 296.726251 
L 405.233766 249.398602 
L 405.958442 266.136821 
L 406.683117 275.970126 
L 407.407792 281.181348 
L 408.132468 278.551441 
L 408.857143 292.95417 
L 409.581818 279.784961 
L 410.306494 307.188432 
L 411.031169 283.315743 
L 411.755844 284.574904 
L 412.480519 284.845142 
L 413.205195 293.741683 
L 413.92987 309.100604 
L 414.654545 306.273618 
L 415.379221 308.288312 
L 416.103896 305.187907 
L 416.828571 299.781176 
L 417.553247 289.268652 
L 418.277922 299.811186 
L 419.002597 294.942184 
L 419.727273 291.866479 
L 420.451948 283.405762 
L 421.176623 300.933071 
L 421.901299 306.161557 
L 422.625974 285.399449 
L 423.350649 292.753577 
L 424.075325 307.534655 
L 424.8 297.732289 
L 425.524675 297.848568 
L 426.249351 278.18638 
L 426.974026 287.634748 
L 427.698701 289.308454 
L 428.423377 297.901812 
L 429.148052 284.364654 
L 429.872727 253.700868 
L 430.597403 240.498435 
L 431.322078 252.304473 
L 432.046753 254.797268 
L 432.771429 270.366887 
L 433.496104 282.785512 
L 434.220779 299.348384 
L 434.945455 305.149952 
L 435.67013 290.943082 
L 436.394805 286.456666 
L 437.119481 298.179281 
L 437.844156 294.109104 
L 438.568831 303.126057 
L 439.293506 295.348841 
L 440.018182 311.849061 
L 440.742857 315.017699 
L 441.467532 317.363529 
L 442.192208 316.204902 
L 442.916883 301.792102 
L 443.641558 310.376576 
L 444.366234 314.343499 
L 445.090909 312.408475 
L 445.815584 312.059317 
L 446.54026 273.25037 
L 447.264935 270.903119 
L 447.98961 264.064128 
L 448.714286 274.722084 
L 449.438961 268.482091 
L 450.163636 272.907383 
L 450.888312 300.67265 
L 451.612987 297.796869 
L 452.337662 296.338217 
L 453.062338 306.754556 
L 453.787013 296.800747 
L 454.511688 302.249383 
L 455.236364 293.209942 
L 455.961039 295.013268 
L 456.685714 292.842956 
L 457.41039 293.407221 
L 458.135065 295.651681 
L 458.85974 311.740386 
L 459.584416 314.778729 
L 460.309091 318.491308 
L 461.033766 310.73408 
L 461.758442 311.715904 
L 462.483117 316.446464 
L 463.207792 305.824519 
L 463.932468 304.786275 
L 464.657143 308.252116 
L 465.381818 315.424844 
L 466.106494 300.094417 
L 466.831169 295.306218 
L 467.555844 312.545856 
L 468.280519 303.354563 
L 469.005195 298.847079 
L 469.72987 287.29984 
L 470.454545 284.092245 
L 471.179221 259.015199 
L 471.903896 270.279217 
L 473.353247 297.840135 
L 474.077922 301.640934 
L 474.802597 310.24199 
L 475.527273 312.012087 
L 476.251948 314.711848 
L 476.976623 313.526982 
L 477.701299 320.170088 
L 478.425974 316.957686 
L 479.150649 311.33773 
L 479.875325 309.675122 
L 480.6 299.761238 
L 481.324675 317.682338 
L 482.049351 304.268447 
L 482.774026 305.925274 
L 483.498701 301.729797 
L 484.223377 314.884484 
L 484.948052 300.737515 
L 485.672727 312.939397 
L 486.397403 274.067655 
L 487.122078 288.245064 
L 487.846753 277.627115 
L 488.571429 286.196202 
L 489.296104 286.390401 
L 490.020779 304.563629 
L 490.745455 307.866884 
L 491.47013 308.514613 
L 492.194805 315.564754 
L 492.919481 319.653299 
L 493.644156 308.021197 
L 494.368831 311.181443 
L 495.093506 319.792939 
L 495.818182 318.840081 
L 496.542857 311.52868 
L 497.267532 317.195544 
L 497.992208 319.06722 
L 498.716883 325.826271 
L 499.441558 317.430124 
L 500.166234 296.09838 
L 500.890909 318.508412 
L 501.615584 307.314671 
L 502.34026 309.950771 
L 503.064935 325.209893 
L 503.78961 320.193024 
L 504.514286 312.462399 
L 505.238961 312.625263 
L 505.963636 272.093411 
L 506.688312 280.343 
L 507.412987 298.725794 
L 508.137662 285.734455 
L 508.862338 306.796132 
L 509.587013 307.885238 
L 510.311688 287.179679 
L 511.036364 305.843746 
L 511.761039 304.311968 
L 512.485714 315.673586 
L 513.21039 320.33756 
L 513.935065 322.919233 
L 514.65974 320.771197 
L 515.384416 317.164964 
L 516.109091 316.405011 
L 516.833766 323.49217 
L 517.558442 314.69859 
L 518.283117 293.194614 
L 519.007792 315.878316 
L 519.732468 314.213639 
L 520.457143 305.954783 
L 521.906494 321.153325 
L 522.631169 320.079224 
L 523.355844 317.636379 
L 524.080519 315.963295 
L 524.805195 316.495514 
L 525.52987 308.444582 
L 526.254545 309.827355 
L 526.979221 307.012925 
L 527.703896 309.705393 
L 528.428571 309.542396 
L 529.153247 294.700098 
L 529.877922 318.58626 
L 530.602597 319.258939 
L 531.327273 299.891275 
L 532.051948 300.179337 
L 533.501299 284.661152 
L 534.225974 298.030431 
L 534.950649 276.916895 
L 535.675325 287.604952 
L 536.4 269.17909 
L 537.124675 299.903846 
L 537.849351 315.618277 
L 539.298701 326.336751 
L 540.023377 326.646889 
L 540.748052 323.503821 
L 541.472727 331.52944 
L 542.197403 323.551332 
L 542.922078 329.609846 
L 543.646753 325.394349 
L 544.371429 329.699272 
L 545.820779 330.892965 
L 547.27013 310.121507 
L 547.994805 309.243262 
L 548.719481 317.619471 
L 549.444156 318.449689 
L 550.168831 328.369538 
L 550.893506 327.122653 
L 551.618182 327.481166 
L 552.342857 326.564843 
L 553.067532 324.466687 
L 554.516883 330.663408 
L 555.241558 323.310861 
L 555.966234 323.382766 
L 556.690909 310.996784 
L 557.415584 300.915778 
L 558.14026 307.536879 
L 558.864935 308.680752 
L 559.58961 314.941238 
L 560.314286 316.12526 
L 561.038961 309.569324 
L 561.763636 315.870573 
L 562.488312 325.277274 
L 563.212987 306.812732 
L 563.937662 301.516983 
L 564.662338 301.375179 
L 565.387013 298.998401 
L 566.111688 310.630902 
L 566.836364 308.920944 
L 567.561039 312.842608 
L 568.285714 311.584896 
L 569.01039 321.683225 
L 569.735065 309.866974 
L 570.45974 326.092659 
L 571.184416 322.202022 
L 571.909091 310.831239 
L 572.633766 323.711949 
L 573.358442 322.68283 
L 574.083117 326.387169 
L 574.807792 326.503176 
L 575.532468 325.435836 
L 576.257143 323.181865 
L 576.981818 329.917228 
L 577.706494 324.642776 
L 578.431169 327.058503 
L 579.155844 320.903708 
L 579.880519 320.830985 
L 580.605195 326.903092 
L 581.32987 335.354539 
L 582.054545 326.318967 
L 582.779221 330.059013 
L 583.503896 318.923848 
L 584.228571 305.061061 
L 584.953247 301.438133 
L 585.677922 294.082973 
L 586.402597 300.830941 
L 587.127273 303.873921 
L 587.851948 314.163732 
L 588.576623 319.14945 
L 589.301299 318.189978 
L 590.025974 308.849181 
L 590.750649 314.543239 
L 591.475325 323.375592 
L 592.2 329.285684 
L 592.924675 323.983604 
L 593.649351 325.524662 
L 594.374026 313.14641 
L 595.098701 320.087213 
L 595.823377 325.102919 
L 596.548052 333.083199 
L 597.272727 331.378884 
L 597.997403 332.011269 
L 598.722078 330.502008 
L 599.446753 332.562933 
L 600.171429 329.57643 
L 600.896104 330.615344 
L 601.620779 328.701369 
L 602.345455 330.519682 
L 603.07013 326.650636 
L 603.794805 329.241788 
L 604.519481 324.576674 
L 605.968831 330.878606 
L 606.693506 321.968395 
L 607.418182 323.510277 
L 608.142857 327.18449 
L 608.867532 326.088532 
L 609.592208 324.05158 
L 610.316883 326.355481 
L 611.041558 323.499472 
L 611.766234 328.046644 
L 612.490909 329.744261 
L 613.215584 330.501559 
L 613.94026 320.275308 
L 614.664935 326.850266 
L 615.38961 323.680713 
L 616.114286 330.532015 
L 616.838961 325.737068 
L 618.288312 321.821656 
L 619.012987 327.322191 
L 619.737662 329.381478 
L 620.462338 324.345651 
L 621.187013 327.450638 
L 622.636364 321.866101 
L 622.636364 321.866101 
" clip-path="url(#p045be60621)" style="fill: none; stroke: #ff0000; stroke-width: 1.5; stroke-linecap: square"/>
   </g>
   <g id="patch_3">
    <path d="M 90 384.48 
L 90 51.84 
" style="fill: none; stroke: #000000; stroke-width: 0.8; stroke-linejoin: miter; stroke-linecap: square"/>
   </g>
   <g id="patch_4">
    <path d="M 648 384.48 
L 648 51.84 
" style="fill: none; stroke: #000000; stroke-width: 0.8; stroke-linejoin: miter; stroke-linecap: square"/>
   </g>
   <g id="patch_5">
    <path d="M 90 384.48 
L 648 384.48 
" style="fill: none; stroke: #000000; stroke-width: 0.8; stroke-linejoin: miter; stroke-linecap: square"/>
   </g>
   <g id="patch_6">
    <path d="M 90 51.84 
L 648 51.84 
" style="fill: none; stroke: #000000; stroke-width: 0.8; stroke-linejoin: miter; stroke-linecap: square"/>
   </g>
   <g id="text_17">
    <!-- Training and Validation Loss Over Time -->
    <g transform="translate(252.60375 45.84) scale(0.12 -0.12)">
     <defs>
      <path id="DejaVuSans-54" d="M -19 4666 
L 3928 4666 
L 3928 4134 
L 2272 4134 
L 2272 0 
L 1638 0 
L 1638 4134 
L -19 4134 
L -19 4666 
z
" transform="scale(0.015625)"/>
      <path id="DejaVuSans-6e" d="M 3513 2113 
L 3513 0 
L 2938 0 
L 2938 2094 
Q 2938 2591 2744 2837 
Q 2550 3084 2163 3084 
Q 1697 3084 1428 2787 
Q 1159 2491 1159 1978 
L 1159 0 
L 581 0 
L 581 3500 
L 1159 3500 
L 1159 2956 
Q 1366 3272 1645 3428 
Q 1925 3584 2291 3584 
Q 2894 3584 3203 3211 
Q 3513 2838 3513 2113 
z
" transform="scale(0.015625)"/>
      <path id="DejaVuSans-67" d="M 2906 1791 
Q 2906 2416 2648 2759 
Q 2391 3103 1925 3103 
Q 1463 3103 1205 2759 
Q 947 2416 947 1791 
Q 947 1169 1205 825 
Q 1463 481 1925 481 
Q 2391 481 2648 825 
Q 2906 1169 2906 1791 
z
M 3481 434 
Q 3481 -459 3084 -895 
Q 2688 -1331 1869 -1331 
Q 1566 -1331 1297 -1286 
Q 1028 -1241 775 -1147 
L 775 -588 
Q 1028 -725 1275 -790 
Q 1522 -856 1778 -856 
Q 2344 -856 2625 -561 
Q 2906 -266 2906 331 
L 2906 616 
Q 2728 306 2450 153 
Q 2172 0 1784 0 
Q 1141 0 747 490 
Q 353 981 353 1791 
Q 353 2603 747 3093 
Q 1141 3584 1784 3584 
Q 2172 3584 2450 3431 
Q 2728 3278 2906 2969 
L 2906 3500 
L 3481 3500 
L 3481 434 
z
" transform="scale(0.015625)"/>
      <path id="DejaVuSans-56" d="M 1831 0 
L 50 4666 
L 709 4666 
L 2188 738 
L 3669 4666 
L 4325 4666 
L 2547 0 
L 1831 0 
z
" transform="scale(0.015625)"/>
      <path id="DejaVuSans-74" d="M 1172 4494 
L 1172 3500 
L 2356 3500 
L 2356 3053 
L 1172 3053 
L 1172 1153 
Q 1172 725 1289 603 
Q 1406 481 1766 481 
L 2356 481 
L 2356 0 
L 1766 0 
Q 1100 0 847 248 
Q 594 497 594 1153 
L 594 3053 
L 172 3053 
L 172 3500 
L 594 3500 
L 594 4494 
L 1172 4494 
z
" transform="scale(0.015625)"/>
      <path id="DejaVuSans-4f" d="M 2522 4238 
Q 1834 4238 1429 3725 
Q 1025 3213 1025 2328 
Q 1025 1447 1429 934 
Q 1834 422 2522 422 
Q 3209 422 3611 934 
Q 4013 1447 4013 2328 
Q 4013 3213 3611 3725 
Q 3209 4238 2522 4238 
z
M 2522 4750 
Q 3503 4750 4090 4092 
Q 4678 3434 4678 2328 
Q 4678 1225 4090 567 
Q 3503 -91 2522 -91 
Q 1538 -91 948 565 
Q 359 1222 359 2328 
Q 359 3434 948 4092 
Q 1538 4750 2522 4750 
z
" transform="scale(0.015625)"/>
      <path id="DejaVuSans-76" d="M 191 3500 
L 800 3500 
L 1894 563 
L 2988 3500 
L 3597 3500 
L 2284 0 
L 1503 0 
L 191 3500 
z
" transform="scale(0.015625)"/>
     </defs>
     <use xlink:href="#DejaVuSans-54"/>
     <use xlink:href="#DejaVuSans-72" transform="translate(46.333984 0)"/>
     <use xlink:href="#DejaVuSans-61" transform="translate(87.447266 0)"/>
     <use xlink:href="#DejaVuSans-69" transform="translate(148.726562 0)"/>
     <use xlink:href="#DejaVuSans-6e" transform="translate(176.509766 0)"/>
     <use xlink:href="#DejaVuSans-69" transform="translate(239.888672 0)"/>
     <use xlink:href="#DejaVuSans-6e" transform="translate(267.671875 0)"/>
     <use xlink:href="#DejaVuSans-67" transform="translate(331.050781 0)"/>
     <use xlink:href="#DejaVuSans-20" transform="translate(394.527344 0)"/>
     <use xlink:href="#DejaVuSans-61" transform="translate(426.314453 0)"/>
     <use xlink:href="#DejaVuSans-6e" transform="translate(487.59375 0)"/>
     <use xlink:href="#DejaVuSans-64" transform="translate(550.972656 0)"/>
     <use xlink:href="#DejaVuSans-20" transform="translate(614.449219 0)"/>
     <use xlink:href="#DejaVuSans-56" transform="translate(646.236328 0)"/>
     <use xlink:href="#DejaVuSans-61" transform="translate(706.894531 0)"/>
     <use xlink:href="#DejaVuSans-6c" transform="translate(768.173828 0)"/>
     <use xlink:href="#DejaVuSans-69" transform="translate(795.957031 0)"/>
     <use xlink:href="#DejaVuSans-64" transform="translate(823.740234 0)"/>
     <use xlink:href="#DejaVuSans-61" transform="translate(887.216797 0)"/>
     <use xlink:href="#DejaVuSans-74" transform="translate(948.496094 0)"/>
     <use xlink:href="#DejaVuSans-69" transform="translate(987.705078 0)"/>
     <use xlink:href="#DejaVuSans-6f" transform="translate(1015.488281 0)"/>
     <use xlink:href="#DejaVuSans-6e" transform="translate(1076.669922 0)"/>
     <use xlink:href="#DejaVuSans-20" transform="translate(1140.048828 0)"/>
     <use xlink:href="#DejaVuSans-4c" transform="translate(1171.835938 0)"/>
     <use xlink:href="#DejaVuSans-6f" transform="translate(1225.798828 0)"/>
     <use xlink:href="#DejaVuSans-73" transform="translate(1286.980469 0)"/>
     <use xlink:href="#DejaVuSans-73" transform="translate(1339.080078 0)"/>
     <use xlink:href="#DejaVuSans-20" transform="translate(1391.179688 0)"/>
     <use xlink:href="#DejaVuSans-4f" transform="translate(1422.966797 0)"/>
     <use xlink:href="#DejaVuSans-76" transform="translate(1501.677734 0)"/>
     <use xlink:href="#DejaVuSans-65" transform="translate(1560.857422 0)"/>
     <use xlink:href="#DejaVuSans-72" transform="translate(1622.380859 0)"/>
     <use xlink:href="#DejaVuSans-20" transform="translate(1663.494141 0)"/>
     <use xlink:href="#DejaVuSans-54" transform="translate(1695.28125 0)"/>
     <use xlink:href="#DejaVuSans-69" transform="translate(1753.240234 0)"/>
     <use xlink:href="#DejaVuSans-6d" transform="translate(1781.023438 0)"/>
     <use xlink:href="#DejaVuSans-65" transform="translate(1878.435547 0)"/>
    </g>
   </g>
   <g id="legend_1">
    <g id="patch_7">
     <path d="M 534.50625 89.19625 
L 641 89.19625 
Q 643 89.19625 643 87.19625 
L 643 58.84 
Q 643 56.84 641 56.84 
L 534.50625 56.84 
Q 532.50625 56.84 532.50625 58.84 
L 532.50625 87.19625 
Q 532.50625 89.19625 534.50625 89.19625 
z
" style="fill: #ffffff; opacity: 0.8; stroke: #cccccc; stroke-linejoin: miter"/>
    </g>
    <g id="line2d_113">
     <path d="M 536.50625 64.938437 
L 546.50625 64.938437 
L 556.50625 64.938437 
" style="fill: none; stroke: #0000ff; stroke-width: 1.5; stroke-linecap: square"/>
    </g>
    <g id="text_18">
     <!-- Training Loss -->
     <g transform="translate(564.50625 68.438437) scale(0.1 -0.1)">
      <use xlink:href="#DejaVuSans-54"/>
      <use xlink:href="#DejaVuSans-72" transform="translate(46.333984 0)"/>
      <use xlink:href="#DejaVuSans-61" transform="translate(87.447266 0)"/>
      <use xlink:href="#DejaVuSans-69" transform="translate(148.726562 0)"/>
      <use xlink:href="#DejaVuSans-6e" transform="translate(176.509766 0)"/>
      <use xlink:href="#DejaVuSans-69" transform="translate(239.888672 0)"/>
      <use xlink:href="#DejaVuSans-6e" transform="translate(267.671875 0)"/>
      <use xlink:href="#DejaVuSans-67" transform="translate(331.050781 0)"/>
      <use xlink:href="#DejaVuSans-20" transform="translate(394.527344 0)"/>
      <use xlink:href="#DejaVuSans-4c" transform="translate(426.314453 0)"/>
      <use xlink:href="#DejaVuSans-6f" transform="translate(480.277344 0)"/>
      <use xlink:href="#DejaVuSans-73" transform="translate(541.458984 0)"/>
      <use xlink:href="#DejaVuSans-73" transform="translate(593.558594 0)"/>
     </g>
    </g>
    <g id="line2d_114">
     <path d="M 536.50625 79.616562 
L 546.50625 79.616562 
L 556.50625 79.616562 
" style="fill: none; stroke: #ff0000; stroke-width: 1.5; stroke-linecap: square"/>
    </g>
    <g id="text_19">
     <!-- Validation Loss -->
     <g transform="translate(564.50625 83.116562) scale(0.1 -0.1)">
      <use xlink:href="#DejaVuSans-56"/>
      <use xlink:href="#DejaVuSans-61" transform="translate(60.658203 0)"/>
      <use xlink:href="#DejaVuSans-6c" transform="translate(121.9375 0)"/>
      <use xlink:href="#DejaVuSans-69" transform="translate(149.720703 0)"/>
      <use xlink:href="#DejaVuSans-64" transform="translate(177.503906 0)"/>
      <use xlink:href="#DejaVuSans-61" transform="translate(240.980469 0)"/>
      <use xlink:href="#DejaVuSans-74" transform="translate(302.259766 0)"/>
      <use xlink:href="#DejaVuSans-69" transform="translate(341.46875 0)"/>
      <use xlink:href="#DejaVuSans-6f" transform="translate(369.251953 0)"/>
      <use xlink:href="#DejaVuSans-6e" transform="translate(430.433594 0)"/>
      <use xlink:href="#DejaVuSans-20" transform="translate(493.8125 0)"/>
      <use xlink:href="#DejaVuSans-4c" transform="translate(525.599609 0)"/>
      <use xlink:href="#DejaVuSans-6f" transform="translate(579.5625 0)"/>
      <use xlink:href="#DejaVuSans-73" transform="translate(640.744141 0)"/>
      <use xlink:href="#DejaVuSans-73" transform="translate(692.84375 0)"/>
     </g>
    </g>
   </g>
  </g>
 </g>
 <defs>
  <clipPath id="p045be60621">
   <rect x="90" y="51.84" width="558" height="332.64"/>
  </clipPath>
 </defs>
</svg>
