<?xml version="1.0" encoding="utf-8" standalone="no"?>
<!DOCTYPE svg PUBLIC "-//W3C//DTD SVG 1.1//EN"
  "http://www.w3.org/Graphics/SVG/1.1/DTD/svg11.dtd">
<svg xmlns:xlink="http://www.w3.org/1999/xlink" width="720pt" height="432pt" viewBox="0 0 720 432" xmlns="http://www.w3.org/2000/svg" version="1.1">
 <metadata>
  <rdf:RDF xmlns:dc="http://purl.org/dc/elements/1.1/" xmlns:cc="http://creativecommons.org/ns#" xmlns:rdf="http://www.w3.org/1999/02/22-rdf-syntax-ns#">
   <cc:Work>
    <dc:type rdf:resource="http://purl.org/dc/dcmitype/StillImage"/>
    <dc:date>2026-04-01T01:08:42.909009</dc:date>
    <dc:format>image/svg+xml</dc:format>
    <dc:creator>
     <cc:Agent>
      <dc:title>Matplotlib v3.10.3, https://matplotlib.org/</dc:title>
     </cc:Agent>
    </dc:creator>
   </cc:Work>
  </rdf:RDF>
 </metadata>
 <defs>
  <style type="text/css">*{stroke-linejoin: round; stroke-linecap: butt}</style>
 </defs>
 <g id="figure_1">
  <g id="patch_1">
   <path d="M 0 432 
L 720 432 
L 720 0 
L 0 0 
z
" style="fill: #ffffff"/>
  </g>
  <g id="axes_1">
   <g id="patch_2">
    <path d="M 90 384.48 
L 648 384.48 
L 648 51.84 
L 90 51.84 
z
" style="fill: #ffffff"/>
   </g>
   <g id="matplotlib.axis_1">
    <g id="xtick_1">
     <g id="line2d_1">
      <path d="M 115.363636 384.48 
L 115.363636 51.84 
" clip-path="url(#p3b6bbde838)" style="fill: none; stroke-dasharray: 2.96,1.28; stroke-dashoffset: 0; stroke: #b0b0b0; stroke-width: 0.8"/>
     </g>
     <g id="line2d_2">
      <defs>
       <path id="m139cca72dd" d="M 0 0 
L 0 3.5 
" style="stroke: #000000; stroke-width: 0.8"/>
      </defs>
      <g>
       <use xlink:href="#m139cca72dd" x="115.363636" y="384.48" style="stroke: #000000; stroke-width: 0.8"/>
      </g>
     </g>
     <g id="text_1">
      <!-- 0 -->
      <g transform="translate(112.182386 399.078438) scale(0.1 -0.1)">
       <defs>
        <path id="DejaVuSans-30" d="M 2034 4250 
Q 1547 4250 1301 3770 
Q 1056 3291 1056 2328 
Q 1056 1369 1301 889 
Q 1547 409 2034 409 
Q 2525 409 2770 889 
Q 3016 1369 3016 2328 
Q 3016 3291 2770 3770 
Q 2525 4250 2034 4250 
z
M 2034 4750 
Q 2819 4750 3233 4129 
Q 3647 3509 3647 2328 
Q 3647 1150 3233 529 
Q 2819 -91 2034 -91 
Q 1250 -91 836 529 
Q 422 1150 422 2328 
Q 422 3509 836 4129 
Q 1250 4750 2034 4750 
z
" transform="scale(0.015625)"/>
       </defs>
       <use xlink:href="#DejaVuSans-30"/>
      </g>
     </g>
    </g>
    <g id="xtick_2">
     <g id="line2d_3">
      <path d="M 183.63722 384.48 
L 183.63722 51.84 
" clip-path="url(#p3b6bbde838)" style="fill: none; stroke-dasharray: 2.96,1.28; stroke-dashoffset: 0; stroke: #b0b0b0; stroke-width: 0.8"/>
     </g>
     <g id="line2d_4">
      <g>
       <use xlink:href="#m139cca72dd" x="183.63722" y="384.48" style="stroke: #000000; stroke-width: 0.8"/>
      </g>
     </g>
     <g id="text_2">
      <!-- 100 -->
      <g transform="translate(174.09347 399.078438) scale(0.1 -0.1)">
       <defs>
        <path id="DejaVuSans-31" d="M 794 531 
L 1825 531 
L 1825 4091 
L 703 3866 
L 703 4441 
L 1819 4666 
L 2450 4666 
L 2450 531 
L 3481 531 
L 3481 0 
L 794 0 
L 794 531 
z
" transform="scale(0.015625)"/>
       </defs>
       <use xlink:href="#DejaVuSans-31"/>
       <use xlink:href="#DejaVuSans-30" transform="translate(63.623047 0)"/>
       <use xlink:href="#DejaVuSans-30" transform="translate(127.246094 0)"/>
      </g>
     </g>
    </g>
    <g id="xtick_3">
     <g id="line2d_5">
      <path d="M 251.910804 384.48 
L 251.910804 51.84 
" clip-path="url(#p3b6bbde838)" style="fill: none; stroke-dasharray: 2.96,1.28; stroke-dashoffset: 0; stroke: #b0b0b0; stroke-width: 0.8"/>
     </g>
     <g id="line2d_6">
      <g>
       <use xlink:href="#m139cca72dd" x="251.910804" y="384.48" style="stroke: #000000; stroke-width: 0.8"/>
      </g>
     </g>
     <g id="text_3">
      <!-- 200 -->
      <g transform="translate(242.367054 399.078438) scale(0.1 -0.1)">
       <defs>
        <path id="DejaVuSans-32" d="M 1228 531 
L 3431 531 
L 3431 0 
L 469 0 
L 469 531 
Q 828 903 1448 1529 
Q 2069 2156 2228 2338 
Q 2531 2678 2651 2914 
Q 2772 3150 2772 3378 
Q 2772 3750 2511 3984 
Q 2250 4219 1831 4219 
Q 1534 4219 1204 4116 
Q 875 4013 500 3803 
L 500 4441 
Q 881 4594 1212 4672 
Q 1544 4750 1819 4750 
Q 2544 4750 2975 4387 
Q 3406 4025 3406 3419 
Q 3406 3131 3298 2873 
Q 3191 2616 2906 2266 
Q 2828 2175 2409 1742 
Q 1991 1309 1228 531 
z
" transform="scale(0.015625)"/>
       </defs>
       <use xlink:href="#DejaVuSans-32"/>
       <use xlink:href="#DejaVuSans-30" transform="translate(63.623047 0)"/>
       <use xlink:href="#DejaVuSans-30" transform="translate(127.246094 0)"/>
      </g>
     </g>
    </g>
    <g id="xtick_4">
     <g id="line2d_7">
      <path d="M 320.184388 384.48 
L 320.184388 51.84 
" clip-path="url(#p3b6bbde838)" style="fill: none; stroke-dasharray: 2.96,1.28; stroke-dashoffset: 0; stroke: #b0b0b0; stroke-width: 0.8"/>
     </g>
     <g id="line2d_8">
      <g>
       <use xlink:href="#m139cca72dd" x="320.184388" y="384.48" style="stroke: #000000; stroke-width: 0.8"/>
      </g>
     </g>
     <g id="text_4">
      <!-- 300 -->
      <g transform="translate(310.640638 399.078438) scale(0.1 -0.1)">
       <defs>
        <path id="DejaVuSans-33" d="M 2597 2516 
Q 3050 2419 3304 2112 
Q 3559 1806 3559 1356 
Q 3559 666 3084 287 
Q 2609 -91 1734 -91 
Q 1441 -91 1130 -33 
Q 819 25 488 141 
L 488 750 
Q 750 597 1062 519 
Q 1375 441 1716 441 
Q 2309 441 2620 675 
Q 2931 909 2931 1356 
Q 2931 1769 2642 2001 
Q 2353 2234 1838 2234 
L 1294 2234 
L 1294 2753 
L 1863 2753 
Q 2328 2753 2575 2939 
Q 2822 3125 2822 3475 
Q 2822 3834 2567 4026 
Q 2313 4219 1838 4219 
Q 1578 4219 1281 4162 
Q 984 4106 628 3988 
L 628 4550 
Q 988 4650 1302 4700 
Q 1616 4750 1894 4750 
Q 2613 4750 3031 4423 
Q 3450 4097 3450 3541 
Q 3450 3153 3228 2886 
Q 3006 2619 2597 2516 
z
" transform="scale(0.015625)"/>
       </defs>
       <use xlink:href="#DejaVuSans-33"/>
       <use xlink:href="#DejaVuSans-30" transform="translate(63.623047 0)"/>
       <use xlink:href="#DejaVuSans-30" transform="translate(127.246094 0)"/>
      </g>
     </g>
    </g>
    <g id="xtick_5">
     <g id="line2d_9">
      <path d="M 388.457971 384.48 
L 388.457971 51.84 
" clip-path="url(#p3b6bbde838)" style="fill: none; stroke-dasharray: 2.96,1.28; stroke-dashoffset: 0; stroke: #b0b0b0; stroke-width: 0.8"/>
     </g>
     <g id="line2d_10">
      <g>
       <use xlink:href="#m139cca72dd" x="388.457971" y="384.48" style="stroke: #000000; stroke-width: 0.8"/>
      </g>
     </g>
     <g id="text_5">
      <!-- 400 -->
      <g transform="translate(378.914221 399.078438) scale(0.1 -0.1)">
       <defs>
        <path id="DejaVuSans-34" d="M 2419 4116 
L 825 1625 
L 2419 1625 
L 2419 4116 
z
M 2253 4666 
L 3047 4666 
L 3047 1625 
L 3713 1625 
L 3713 1100 
L 3047 1100 
L 3047 0 
L 2419 0 
L 2419 1100 
L 313 1100 
L 313 1709 
L 2253 4666 
z
" transform="scale(0.015625)"/>
       </defs>
       <use xlink:href="#DejaVuSans-34"/>
       <use xlink:href="#DejaVuSans-30" transform="translate(63.623047 0)"/>
       <use xlink:href="#DejaVuSans-30" transform="translate(127.246094 0)"/>
      </g>
     </g>
    </g>
    <g id="xtick_6">
     <g id="line2d_11">
      <path d="M 456.731555 384.48 
L 456.731555 51.84 
" clip-path="url(#p3b6bbde838)" style="fill: none; stroke-dasharray: 2.96,1.28; stroke-dashoffset: 0; stroke: #b0b0b0; stroke-width: 0.8"/>
     </g>
     <g id="line2d_12">
      <g>
       <use xlink:href="#m139cca72dd" x="456.731555" y="384.48" style="stroke: #000000; stroke-width: 0.8"/>
      </g>
     </g>
     <g id="text_6">
      <!-- 500 -->
      <g transform="translate(447.187805 399.078438) scale(0.1 -0.1)">
       <defs>
        <path id="DejaVuSans-35" d="M 691 4666 
L 3169 4666 
L 3169 4134 
L 1269 4134 
L 1269 2991 
Q 1406 3038 1543 3061 
Q 1681 3084 1819 3084 
Q 2600 3084 3056 2656 
Q 3513 2228 3513 1497 
Q 3513 744 3044 326 
Q 2575 -91 1722 -91 
Q 1428 -91 1123 -41 
Q 819 9 494 109 
L 494 744 
Q 775 591 1075 516 
Q 1375 441 1709 441 
Q 2250 441 2565 725 
Q 2881 1009 2881 1497 
Q 2881 1984 2565 2268 
Q 2250 2553 1709 2553 
Q 1456 2553 1204 2497 
Q 953 2441 691 2322 
L 691 4666 
z
" transform="scale(0.015625)"/>
       </defs>
       <use xlink:href="#DejaVuSans-35"/>
       <use xlink:href="#DejaVuSans-30" transform="translate(63.623047 0)"/>
       <use xlink:href="#DejaVuSans-30" transform="translate(127.246094 0)"/>
      </g>
     </g>
    </g>
    <g id="xtick_7">
     <g id="line2d_13">
      <path d="M 525.005139 384.48 
L 525.005139 51.84 
" clip-path="url(#p3b6bbde838)" style="fill: none; stroke-dasharray: 2.96,1.28; stroke-dashoffset: 0; stroke: #b0b0b0; stroke-width: 0.8"/>
     </g>
     <g id="line2d_14">
      <g>
       <use xlink:href="#m139cca72dd" x="525.005139" y="384.48" style="stroke: #000000; stroke-width: 0.8"/>
      </g>
     </g>
     <g id="text_7">
      <!-- 600 -->
      <g transform="translate(515.461389 399.078438) scale(0.1 -0.1)">
       <defs>
        <path id="DejaVuSans-36" d="M 2113 2584 
Q 1688 2584 1439 2293 
Q 1191 2003 1191 1497 
Q 1191 994 1439 701 
Q 1688 409 2113 409 
Q 2538 409 2786 701 
Q 3034 994 3034 1497 
Q 3034 2003 2786 2293 
Q 2538 2584 2113 2584 
z
M 3366 4563 
L 3366 3988 
Q 3128 4100 2886 4159 
Q 2644 4219 2406 4219 
Q 1781 4219 1451 3797 
Q 1122 3375 1075 2522 
Q 1259 2794 1537 2939 
Q 1816 3084 2150 3084 
Q 2853 3084 3261 2657 
Q 3669 2231 3669 1497 
Q 3669 778 3244 343 
Q 2819 -91 2113 -91 
Q 1303 -91 875 529 
Q 447 1150 447 2328 
Q 447 3434 972 4092 
Q 1497 4750 2381 4750 
Q 2619 4750 2861 4703 
Q 3103 4656 3366 4563 
z
" transform="scale(0.015625)"/>
       </defs>
       <use xlink:href="#DejaVuSans-36"/>
       <use xlink:href="#DejaVuSans-30" transform="translate(63.623047 0)"/>
       <use xlink:href="#DejaVuSans-30" transform="translate(127.246094 0)"/>
      </g>
     </g>
    </g>
    <g id="xtick_8">
     <g id="line2d_15">
      <path d="M 593.278723 384.48 
L 593.278723 51.84 
" clip-path="url(#p3b6bbde838)" style="fill: none; stroke-dasharray: 2.96,1.28; stroke-dashoffset: 0; stroke: #b0b0b0; stroke-width: 0.8"/>
     </g>
     <g id="line2d_16">
      <g>
       <use xlink:href="#m139cca72dd" x="593.278723" y="384.48" style="stroke: #000000; stroke-width: 0.8"/>
      </g>
     </g>
     <g id="text_8">
      <!-- 700 -->
      <g transform="translate(583.734973 399.078438) scale(0.1 -0.1)">
       <defs>
        <path id="DejaVuSans-37" d="M 525 4666 
L 3525 4666 
L 3525 4397 
L 1831 0 
L 1172 0 
L 2766 4134 
L 525 4134 
L 525 4666 
z
" transform="scale(0.015625)"/>
       </defs>
       <use xlink:href="#DejaVuSans-37"/>
       <use xlink:href="#DejaVuSans-30" transform="translate(63.623047 0)"/>
       <use xlink:href="#DejaVuSans-30" transform="translate(127.246094 0)"/>
      </g>
     </g>
    </g>
    <g id="text_9">
     <!-- Epoch -->
     <g transform="translate(353.689062 412.756563) scale(0.1 -0.1)">
      <defs>
       <path id="DejaVuSans-45" d="M 628 4666 
L 3578 4666 
L 3578 4134 
L 1259 4134 
L 1259 2753 
L 3481 2753 
L 3481 2222 
L 1259 2222 
L 1259 531 
L 3634 531 
L 3634 0 
L 628 0 
L 628 4666 
z
" transform="scale(0.015625)"/>
       <path id="DejaVuSans-70" d="M 1159 525 
L 1159 -1331 
L 581 -1331 
L 581 3500 
L 1159 3500 
L 1159 2969 
Q 1341 3281 1617 3432 
Q 1894 3584 2278 3584 
Q 2916 3584 3314 3078 
Q 3713 2572 3713 1747 
Q 3713 922 3314 415 
Q 2916 -91 2278 -91 
Q 1894 -91 1617 61 
Q 1341 213 1159 525 
z
M 3116 1747 
Q 3116 2381 2855 2742 
Q 2594 3103 2138 3103 
Q 1681 3103 1420 2742 
Q 1159 2381 1159 1747 
Q 1159 1113 1420 752 
Q 1681 391 2138 391 
Q 2594 391 2855 752 
Q 3116 1113 3116 1747 
z
" transform="scale(0.015625)"/>
       <path id="DejaVuSans-6f" d="M 1959 3097 
Q 1497 3097 1228 2736 
Q 959 2375 959 1747 
Q 959 1119 1226 758 
Q 1494 397 1959 397 
Q 2419 397 2687 759 
Q 2956 1122 2956 1747 
Q 2956 2369 2687 2733 
Q 2419 3097 1959 3097 
z
M 1959 3584 
Q 2709 3584 3137 3096 
Q 3566 2609 3566 1747 
Q 3566 888 3137 398 
Q 2709 -91 1959 -91 
Q 1206 -91 779 398 
Q 353 888 353 1747 
Q 353 2609 779 3096 
Q 1206 3584 1959 3584 
z
" transform="scale(0.015625)"/>
       <path id="DejaVuSans-63" d="M 3122 3366 
L 3122 2828 
Q 2878 2963 2633 3030 
Q 2388 3097 2138 3097 
Q 1578 3097 1268 2742 
Q 959 2388 959 1747 
Q 959 1106 1268 751 
Q 1578 397 2138 397 
Q 2388 397 2633 464 
Q 2878 531 3122 666 
L 3122 134 
Q 2881 22 2623 -34 
Q 2366 -91 2075 -91 
Q 1284 -91 818 406 
Q 353 903 353 1747 
Q 353 2603 823 3093 
Q 1294 3584 2113 3584 
Q 2378 3584 2631 3529 
Q 2884 3475 3122 3366 
z
" transform="scale(0.015625)"/>
       <path id="DejaVuSans-68" d="M 3513 2113 
L 3513 0 
L 2938 0 
L 2938 2094 
Q 2938 2591 2744 2837 
Q 2550 3084 2163 3084 
Q 1697 3084 1428 2787 
Q 1159 2491 1159 1978 
L 1159 0 
L 581 0 
L 581 4863 
L 1159 4863 
L 1159 2956 
Q 1366 3272 1645 3428 
Q 1925 3584 2291 3584 
Q 2894 3584 3203 3211 
Q 3513 2838 3513 2113 
z
" transform="scale(0.015625)"/>
      </defs>
      <use xlink:href="#DejaVuSans-45"/>
      <use xlink:href="#DejaVuSans-70" transform="translate(63.183594 0)"/>
      <use xlink:href="#DejaVuSans-6f" transform="translate(126.660156 0)"/>
      <use xlink:href="#DejaVuSans-63" transform="translate(187.841797 0)"/>
      <use xlink:href="#DejaVuSans-68" transform="translate(242.822266 0)"/>
     </g>
    </g>
   </g>
   <g id="matplotlib.axis_2">
    <g id="ytick_1">
     <g id="line2d_17">
      <path d="M 90 381.184075 
L 648 381.184075 
" clip-path="url(#p3b6bbde838)" style="fill: none; stroke-dasharray: 2.96,1.28; stroke-dashoffset: 0; stroke: #b0b0b0; stroke-width: 0.8"/>
     </g>
     <g id="line2d_18">
      <defs>
       <path id="m25b87523e3" d="M 0 0 
L -3.5 0 
" style="stroke: #000000; stroke-width: 0.8"/>
      </defs>
      <g>
       <use xlink:href="#m25b87523e3" x="90" y="381.184075" style="stroke: #000000; stroke-width: 0.8"/>
      </g>
     </g>
     <g id="text_10">
      <!-- $\mathdefault{10^{-6}}$ -->
      <g transform="translate(59.5 384.983294) scale(0.1 -0.1)">
       <defs>
        <path id="DejaVuSans-2212" d="M 678 2272 
L 4684 2272 
L 4684 1741 
L 678 1741 
L 678 2272 
z
" transform="scale(0.015625)"/>
       </defs>
       <use xlink:href="#DejaVuSans-31" transform="translate(0 0.765625)"/>
       <use xlink:href="#DejaVuSans-30" transform="translate(63.623047 0.765625)"/>
       <use xlink:href="#DejaVuSans-2212" transform="translate(128.203125 39.046875) scale(0.7)"/>
       <use xlink:href="#DejaVuSans-36" transform="translate(186.855469 39.046875) scale(0.7)"/>
      </g>
     </g>
    </g>
    <g id="ytick_2">
     <g id="line2d_19">
      <path d="M 90 320.227242 
L 648 320.227242 
" clip-path="url(#p3b6bbde838)" style="fill: none; stroke-dasharray: 2.96,1.28; stroke-dashoffset: 0; stroke: #b0b0b0; stroke-width: 0.8"/>
     </g>
     <g id="line2d_20">
      <g>
       <use xlink:href="#m25b87523e3" x="90" y="320.227242" style="stroke: #000000; stroke-width: 0.8"/>
      </g>
     </g>
     <g id="text_11">
      <!-- $\mathdefault{10^{-5}}$ -->
      <g transform="translate(59.5 324.026461) scale(0.1 -0.1)">
       <use xlink:href="#DejaVuSans-31" transform="translate(0 0.684375)"/>
       <use xlink:href="#DejaVuSans-30" transform="translate(63.623047 0.684375)"/>
       <use xlink:href="#DejaVuSans-2212" transform="translate(128.203125 38.965625) scale(0.7)"/>
       <use xlink:href="#DejaVuSans-35" transform="translate(186.855469 38.965625) scale(0.7)"/>
      </g>
     </g>
    </g>
    <g id="ytick_3">
     <g id="line2d_21">
      <path d="M 90 259.270409 
L 648 259.270409 
" clip-path="url(#p3b6bbde838)" style="fill: none; stroke-dasharray: 2.96,1.28; stroke-dashoffset: 0; stroke: #b0b0b0; stroke-width: 0.8"/>
     </g>
     <g id="line2d_22">
      <g>
       <use xlink:href="#m25b87523e3" x="90" y="259.270409" style="stroke: #000000; stroke-width: 0.8"/>
      </g>
     </g>
     <g id="text_12">
      <!-- $\mathdefault{10^{-4}}$ -->
      <g transform="translate(59.5 263.069628) scale(0.1 -0.1)">
       <use xlink:href="#DejaVuSans-31" transform="translate(0 0.684375)"/>
       <use xlink:href="#DejaVuSans-30" transform="translate(63.623047 0.684375)"/>
       <use xlink:href="#DejaVuSans-2212" transform="translate(128.203125 38.965625) scale(0.7)"/>
       <use xlink:href="#DejaVuSans-34" transform="translate(186.855469 38.965625) scale(0.7)"/>
      </g>
     </g>
    </g>
    <g id="ytick_4">
     <g id="line2d_23">
      <path d="M 90 198.313576 
L 648 198.313576 
" clip-path="url(#p3b6bbde838)" style="fill: none; stroke-dasharray: 2.96,1.28; stroke-dashoffset: 0; stroke: #b0b0b0; stroke-width: 0.8"/>
     </g>
     <g id="line2d_24">
      <g>
       <use xlink:href="#m25b87523e3" x="90" y="198.313576" style="stroke: #000000; stroke-width: 0.8"/>
      </g>
     </g>
     <g id="text_13">
      <!-- $\mathdefault{10^{-3}}$ -->
      <g transform="translate(59.5 202.112794) scale(0.1 -0.1)">
       <use xlink:href="#DejaVuSans-31" transform="translate(0 0.765625)"/>
       <use xlink:href="#DejaVuSans-30" transform="translate(63.623047 0.765625)"/>
       <use xlink:href="#DejaVuSans-2212" transform="translate(128.203125 39.046875) scale(0.7)"/>
       <use xlink:href="#DejaVuSans-33" transform="translate(186.855469 39.046875) scale(0.7)"/>
      </g>
     </g>
    </g>
    <g id="ytick_5">
     <g id="line2d_25">
      <path d="M 90 137.356743 
L 648 137.356743 
" clip-path="url(#p3b6bbde838)" style="fill: none; stroke-dasharray: 2.96,1.28; stroke-dashoffset: 0; stroke: #b0b0b0; stroke-width: 0.8"/>
     </g>
     <g id="line2d_26">
      <g>
       <use xlink:href="#m25b87523e3" x="90" y="137.356743" style="stroke: #000000; stroke-width: 0.8"/>
      </g>
     </g>
     <g id="text_14">
      <!-- $\mathdefault{10^{-2}}$ -->
      <g transform="translate(59.5 141.155961) scale(0.1 -0.1)">
       <use xlink:href="#DejaVuSans-31" transform="translate(0 0.765625)"/>
       <use xlink:href="#DejaVuSans-30" transform="translate(63.623047 0.765625)"/>
       <use xlink:href="#DejaVuSans-2212" transform="translate(128.203125 39.046875) scale(0.7)"/>
       <use xlink:href="#DejaVuSans-32" transform="translate(186.855469 39.046875) scale(0.7)"/>
      </g>
     </g>
    </g>
    <g id="ytick_6">
     <g id="line2d_27">
      <path d="M 90 76.399909 
L 648 76.399909 
" clip-path="url(#p3b6bbde838)" style="fill: none; stroke-dasharray: 2.96,1.28; stroke-dashoffset: 0; stroke: #b0b0b0; stroke-width: 0.8"/>
     </g>
     <g id="line2d_28">
      <g>
       <use xlink:href="#m25b87523e3" x="90" y="76.399909" style="stroke: #000000; stroke-width: 0.8"/>
      </g>
     </g>
     <g id="text_15">
      <!-- $\mathdefault{10^{-1}}$ -->
      <g transform="translate(59.5 80.199128) scale(0.1 -0.1)">
       <use xlink:href="#DejaVuSans-31" transform="translate(0 0.684375)"/>
       <use xlink:href="#DejaVuSans-30" transform="translate(63.623047 0.684375)"/>
       <use xlink:href="#DejaVuSans-2212" transform="translate(128.203125 38.965625) scale(0.7)"/>
       <use xlink:href="#DejaVuSans-31" transform="translate(186.855469 38.965625) scale(0.7)"/>
      </g>
     </g>
    </g>
    <g id="ytick_7">
     <g id="line2d_29">
      <path d="M 90 383.973307 
L 648 383.973307 
" clip-path="url(#p3b6bbde838)" style="fill: none; stroke-dasharray: 2.96,1.28; stroke-dashoffset: 0; stroke: #b0b0b0; stroke-width: 0.8"/>
     </g>
     <g id="line2d_30">
      <defs>
       <path id="m10e6034944" d="M 0 0 
L -2 0 
" style="stroke: #000000; stroke-width: 0.6"/>
      </defs>
      <g>
       <use xlink:href="#m10e6034944" x="90" y="383.973307" style="stroke: #000000; stroke-width: 0.6"/>
      </g>
     </g>
    </g>
    <g id="ytick_8">
     <g id="line2d_31">
      <path d="M 90 362.83424 
L 648 362.83424 
" clip-path="url(#p3b6bbde838)" style="fill: none; stroke-dasharray: 2.96,1.28; stroke-dashoffset: 0; stroke: #b0b0b0; stroke-width: 0.8"/>
     </g>
     <g id="line2d_32">
      <g>
       <use xlink:href="#m10e6034944" x="90" y="362.83424" style="stroke: #000000; stroke-width: 0.6"/>
      </g>
     </g>
    </g>
    <g id="ytick_9">
     <g id="line2d_33">
      <path d="M 90 352.100275 
L 648 352.100275 
" clip-path="url(#p3b6bbde838)" style="fill: none; stroke-dasharray: 2.96,1.28; stroke-dashoffset: 0; stroke: #b0b0b0; stroke-width: 0.8"/>
     </g>
     <g id="line2d_34">
      <g>
       <use xlink:href="#m10e6034944" x="90" y="352.100275" style="stroke: #000000; stroke-width: 0.6"/>
      </g>
     </g>
    </g>
    <g id="ytick_10">
     <g id="line2d_35">
      <path d="M 90 344.484405 
L 648 344.484405 
" clip-path="url(#p3b6bbde838)" style="fill: none; stroke-dasharray: 2.96,1.28; stroke-dashoffset: 0; stroke: #b0b0b0; stroke-width: 0.8"/>
     </g>
     <g id="line2d_36">
      <g>
       <use xlink:href="#m10e6034944" x="90" y="344.484405" style="stroke: #000000; stroke-width: 0.6"/>
      </g>
     </g>
    </g>
    <g id="ytick_11">
     <g id="line2d_37">
      <path d="M 90 338.577077 
L 648 338.577077 
" clip-path="url(#p3b6bbde838)" style="fill: none; stroke-dasharray: 2.96,1.28; stroke-dashoffset: 0; stroke: #b0b0b0; stroke-width: 0.8"/>
     </g>
     <g id="line2d_38">
      <g>
       <use xlink:href="#m10e6034944" x="90" y="338.577077" style="stroke: #000000; stroke-width: 0.6"/>
      </g>
     </g>
    </g>
    <g id="ytick_12">
     <g id="line2d_39">
      <path d="M 90 333.750439 
L 648 333.750439 
" clip-path="url(#p3b6bbde838)" style="fill: none; stroke-dasharray: 2.96,1.28; stroke-dashoffset: 0; stroke: #b0b0b0; stroke-width: 0.8"/>
     </g>
     <g id="line2d_40">
      <g>
       <use xlink:href="#m10e6034944" x="90" y="333.750439" style="stroke: #000000; stroke-width: 0.6"/>
      </g>
     </g>
    </g>
    <g id="ytick_13">
     <g id="line2d_41">
      <path d="M 90 329.669575 
L 648 329.669575 
" clip-path="url(#p3b6bbde838)" style="fill: none; stroke-dasharray: 2.96,1.28; stroke-dashoffset: 0; stroke: #b0b0b0; stroke-width: 0.8"/>
     </g>
     <g id="line2d_42">
      <g>
       <use xlink:href="#m10e6034944" x="90" y="329.669575" style="stroke: #000000; stroke-width: 0.6"/>
      </g>
     </g>
    </g>
    <g id="ytick_14">
     <g id="line2d_43">
      <path d="M 90 326.13457 
L 648 326.13457 
" clip-path="url(#p3b6bbde838)" style="fill: none; stroke-dasharray: 2.96,1.28; stroke-dashoffset: 0; stroke: #b0b0b0; stroke-width: 0.8"/>
     </g>
     <g id="line2d_44">
      <g>
       <use xlink:href="#m10e6034944" x="90" y="326.13457" style="stroke: #000000; stroke-width: 0.6"/>
      </g>
     </g>
    </g>
    <g id="ytick_15">
     <g id="line2d_45">
      <path d="M 90 323.016474 
L 648 323.016474 
" clip-path="url(#p3b6bbde838)" style="fill: none; stroke-dasharray: 2.96,1.28; stroke-dashoffset: 0; stroke: #b0b0b0; stroke-width: 0.8"/>
     </g>
     <g id="line2d_46">
      <g>
       <use xlink:href="#m10e6034944" x="90" y="323.016474" style="stroke: #000000; stroke-width: 0.6"/>
      </g>
     </g>
    </g>
    <g id="ytick_16">
     <g id="line2d_47">
      <path d="M 90 301.877407 
L 648 301.877407 
" clip-path="url(#p3b6bbde838)" style="fill: none; stroke-dasharray: 2.96,1.28; stroke-dashoffset: 0; stroke: #b0b0b0; stroke-width: 0.8"/>
     </g>
     <g id="line2d_48">
      <g>
       <use xlink:href="#m10e6034944" x="90" y="301.877407" style="stroke: #000000; stroke-width: 0.6"/>
      </g>
     </g>
    </g>
    <g id="ytick_17">
     <g id="line2d_49">
      <path d="M 90 291.143441 
L 648 291.143441 
" clip-path="url(#p3b6bbde838)" style="fill: none; stroke-dasharray: 2.96,1.28; stroke-dashoffset: 0; stroke: #b0b0b0; stroke-width: 0.8"/>
     </g>
     <g id="line2d_50">
      <g>
       <use xlink:href="#m10e6034944" x="90" y="291.143441" style="stroke: #000000; stroke-width: 0.6"/>
      </g>
     </g>
    </g>
    <g id="ytick_18">
     <g id="line2d_51">
      <path d="M 90 283.527572 
L 648 283.527572 
" clip-path="url(#p3b6bbde838)" style="fill: none; stroke-dasharray: 2.96,1.28; stroke-dashoffset: 0; stroke: #b0b0b0; stroke-width: 0.8"/>
     </g>
     <g id="line2d_52">
      <g>
       <use xlink:href="#m10e6034944" x="90" y="283.527572" style="stroke: #000000; stroke-width: 0.6"/>
      </g>
     </g>
    </g>
    <g id="ytick_19">
     <g id="line2d_53">
      <path d="M 90 277.620244 
L 648 277.620244 
" clip-path="url(#p3b6bbde838)" style="fill: none; stroke-dasharray: 2.96,1.28; stroke-dashoffset: 0; stroke: #b0b0b0; stroke-width: 0.8"/>
     </g>
     <g id="line2d_54">
      <g>
       <use xlink:href="#m10e6034944" x="90" y="277.620244" style="stroke: #000000; stroke-width: 0.6"/>
      </g>
     </g>
    </g>
    <g id="ytick_20">
     <g id="line2d_55">
      <path d="M 90 272.793606 
L 648 272.793606 
" clip-path="url(#p3b6bbde838)" style="fill: none; stroke-dasharray: 2.96,1.28; stroke-dashoffset: 0; stroke: #b0b0b0; stroke-width: 0.8"/>
     </g>
     <g id="line2d_56">
      <g>
       <use xlink:href="#m10e6034944" x="90" y="272.793606" style="stroke: #000000; stroke-width: 0.6"/>
      </g>
     </g>
    </g>
    <g id="ytick_21">
     <g id="line2d_57">
      <path d="M 90 268.712742 
L 648 268.712742 
" clip-path="url(#p3b6bbde838)" style="fill: none; stroke-dasharray: 2.96,1.28; stroke-dashoffset: 0; stroke: #b0b0b0; stroke-width: 0.8"/>
     </g>
     <g id="line2d_58">
      <g>
       <use xlink:href="#m10e6034944" x="90" y="268.712742" style="stroke: #000000; stroke-width: 0.6"/>
      </g>
     </g>
    </g>
    <g id="ytick_22">
     <g id="line2d_59">
      <path d="M 90 265.177736 
L 648 265.177736 
" clip-path="url(#p3b6bbde838)" style="fill: none; stroke-dasharray: 2.96,1.28; stroke-dashoffset: 0; stroke: #b0b0b0; stroke-width: 0.8"/>
     </g>
     <g id="line2d_60">
      <g>
       <use xlink:href="#m10e6034944" x="90" y="265.177736" style="stroke: #000000; stroke-width: 0.6"/>
      </g>
     </g>
    </g>
    <g id="ytick_23">
     <g id="line2d_61">
      <path d="M 90 262.059641 
L 648 262.059641 
" clip-path="url(#p3b6bbde838)" style="fill: none; stroke-dasharray: 2.96,1.28; stroke-dashoffset: 0; stroke: #b0b0b0; stroke-width: 0.8"/>
     </g>
     <g id="line2d_62">
      <g>
       <use xlink:href="#m10e6034944" x="90" y="262.059641" style="stroke: #000000; stroke-width: 0.6"/>
      </g>
     </g>
    </g>
    <g id="ytick_24">
     <g id="line2d_63">
      <path d="M 90 240.920574 
L 648 240.920574 
" clip-path="url(#p3b6bbde838)" style="fill: none; stroke-dasharray: 2.96,1.28; stroke-dashoffset: 0; stroke: #b0b0b0; stroke-width: 0.8"/>
     </g>
     <g id="line2d_64">
      <g>
       <use xlink:href="#m10e6034944" x="90" y="240.920574" style="stroke: #000000; stroke-width: 0.6"/>
      </g>
     </g>
    </g>
    <g id="ytick_25">
     <g id="line2d_65">
      <path d="M 90 230.186608 
L 648 230.186608 
" clip-path="url(#p3b6bbde838)" style="fill: none; stroke-dasharray: 2.96,1.28; stroke-dashoffset: 0; stroke: #b0b0b0; stroke-width: 0.8"/>
     </g>
     <g id="line2d_66">
      <g>
       <use xlink:href="#m10e6034944" x="90" y="230.186608" style="stroke: #000000; stroke-width: 0.6"/>
      </g>
     </g>
    </g>
    <g id="ytick_26">
     <g id="line2d_67">
      <path d="M 90 222.570738 
L 648 222.570738 
" clip-path="url(#p3b6bbde838)" style="fill: none; stroke-dasharray: 2.96,1.28; stroke-dashoffset: 0; stroke: #b0b0b0; stroke-width: 0.8"/>
     </g>
     <g id="line2d_68">
      <g>
       <use xlink:href="#m10e6034944" x="90" y="222.570738" style="stroke: #000000; stroke-width: 0.6"/>
      </g>
     </g>
    </g>
    <g id="ytick_27">
     <g id="line2d_69">
      <path d="M 90 216.663411 
L 648 216.663411 
" clip-path="url(#p3b6bbde838)" style="fill: none; stroke-dasharray: 2.96,1.28; stroke-dashoffset: 0; stroke: #b0b0b0; stroke-width: 0.8"/>
     </g>
     <g id="line2d_70">
      <g>
       <use xlink:href="#m10e6034944" x="90" y="216.663411" style="stroke: #000000; stroke-width: 0.6"/>
      </g>
     </g>
    </g>
    <g id="ytick_28">
     <g id="line2d_71">
      <path d="M 90 211.836773 
L 648 211.836773 
" clip-path="url(#p3b6bbde838)" style="fill: none; stroke-dasharray: 2.96,1.28; stroke-dashoffset: 0; stroke: #b0b0b0; stroke-width: 0.8"/>
     </g>
     <g id="line2d_72">
      <g>
       <use xlink:href="#m10e6034944" x="90" y="211.836773" style="stroke: #000000; stroke-width: 0.6"/>
      </g>
     </g>
    </g>
    <g id="ytick_29">
     <g id="line2d_73">
      <path d="M 90 207.755909 
L 648 207.755909 
" clip-path="url(#p3b6bbde838)" style="fill: none; stroke-dasharray: 2.96,1.28; stroke-dashoffset: 0; stroke: #b0b0b0; stroke-width: 0.8"/>
     </g>
     <g id="line2d_74">
      <g>
       <use xlink:href="#m10e6034944" x="90" y="207.755909" style="stroke: #000000; stroke-width: 0.6"/>
      </g>
     </g>
    </g>
    <g id="ytick_30">
     <g id="line2d_75">
      <path d="M 90 204.220903 
L 648 204.220903 
" clip-path="url(#p3b6bbde838)" style="fill: none; stroke-dasharray: 2.96,1.28; stroke-dashoffset: 0; stroke: #b0b0b0; stroke-width: 0.8"/>
     </g>
     <g id="line2d_76">
      <g>
       <use xlink:href="#m10e6034944" x="90" y="204.220903" style="stroke: #000000; stroke-width: 0.6"/>
      </g>
     </g>
    </g>
    <g id="ytick_31">
     <g id="line2d_77">
      <path d="M 90 201.102807 
L 648 201.102807 
" clip-path="url(#p3b6bbde838)" style="fill: none; stroke-dasharray: 2.96,1.28; stroke-dashoffset: 0; stroke: #b0b0b0; stroke-width: 0.8"/>
     </g>
     <g id="line2d_78">
      <g>
       <use xlink:href="#m10e6034944" x="90" y="201.102807" style="stroke: #000000; stroke-width: 0.6"/>
      </g>
     </g>
    </g>
    <g id="ytick_32">
     <g id="line2d_79">
      <path d="M 90 179.963741 
L 648 179.963741 
" clip-path="url(#p3b6bbde838)" style="fill: none; stroke-dasharray: 2.96,1.28; stroke-dashoffset: 0; stroke: #b0b0b0; stroke-width: 0.8"/>
     </g>
     <g id="line2d_80">
      <g>
       <use xlink:href="#m10e6034944" x="90" y="179.963741" style="stroke: #000000; stroke-width: 0.6"/>
      </g>
     </g>
    </g>
    <g id="ytick_33">
     <g id="line2d_81">
      <path d="M 90 169.229775 
L 648 169.229775 
" clip-path="url(#p3b6bbde838)" style="fill: none; stroke-dasharray: 2.96,1.28; stroke-dashoffset: 0; stroke: #b0b0b0; stroke-width: 0.8"/>
     </g>
     <g id="line2d_82">
      <g>
       <use xlink:href="#m10e6034944" x="90" y="169.229775" style="stroke: #000000; stroke-width: 0.6"/>
      </g>
     </g>
    </g>
    <g id="ytick_34">
     <g id="line2d_83">
      <path d="M 90 161.613905 
L 648 161.613905 
" clip-path="url(#p3b6bbde838)" style="fill: none; stroke-dasharray: 2.96,1.28; stroke-dashoffset: 0; stroke: #b0b0b0; stroke-width: 0.8"/>
     </g>
     <g id="line2d_84">
      <g>
       <use xlink:href="#m10e6034944" x="90" y="161.613905" style="stroke: #000000; stroke-width: 0.6"/>
      </g>
     </g>
    </g>
    <g id="ytick_35">
     <g id="line2d_85">
      <path d="M 90 155.706578 
L 648 155.706578 
" clip-path="url(#p3b6bbde838)" style="fill: none; stroke-dasharray: 2.96,1.28; stroke-dashoffset: 0; stroke: #b0b0b0; stroke-width: 0.8"/>
     </g>
     <g id="line2d_86">
      <g>
       <use xlink:href="#m10e6034944" x="90" y="155.706578" style="stroke: #000000; stroke-width: 0.6"/>
      </g>
     </g>
    </g>
    <g id="ytick_36">
     <g id="line2d_87">
      <path d="M 90 150.87994 
L 648 150.87994 
" clip-path="url(#p3b6bbde838)" style="fill: none; stroke-dasharray: 2.96,1.28; stroke-dashoffset: 0; stroke: #b0b0b0; stroke-width: 0.8"/>
     </g>
     <g id="line2d_88">
      <g>
       <use xlink:href="#m10e6034944" x="90" y="150.87994" style="stroke: #000000; stroke-width: 0.6"/>
      </g>
     </g>
    </g>
    <g id="ytick_37">
     <g id="line2d_89">
      <path d="M 90 146.799075 
L 648 146.799075 
" clip-path="url(#p3b6bbde838)" style="fill: none; stroke-dasharray: 2.96,1.28; stroke-dashoffset: 0; stroke: #b0b0b0; stroke-width: 0.8"/>
     </g>
     <g id="line2d_90">
      <g>
       <use xlink:href="#m10e6034944" x="90" y="146.799075" style="stroke: #000000; stroke-width: 0.6"/>
      </g>
     </g>
    </g>
    <g id="ytick_38">
     <g id="line2d_91">
      <path d="M 90 143.26407 
L 648 143.26407 
" clip-path="url(#p3b6bbde838)" style="fill: none; stroke-dasharray: 2.96,1.28; stroke-dashoffset: 0; stroke: #b0b0b0; stroke-width: 0.8"/>
     </g>
     <g id="line2d_92">
      <g>
       <use xlink:href="#m10e6034944" x="90" y="143.26407" style="stroke: #000000; stroke-width: 0.6"/>
      </g>
     </g>
    </g>
    <g id="ytick_39">
     <g id="line2d_93">
      <path d="M 90 140.145974 
L 648 140.145974 
" clip-path="url(#p3b6bbde838)" style="fill: none; stroke-dasharray: 2.96,1.28; stroke-dashoffset: 0; stroke: #b0b0b0; stroke-width: 0.8"/>
     </g>
     <g id="line2d_94">
      <g>
       <use xlink:href="#m10e6034944" x="90" y="140.145974" style="stroke: #000000; stroke-width: 0.6"/>
      </g>
     </g>
    </g>
    <g id="ytick_40">
     <g id="line2d_95">
      <path d="M 90 119.006907 
L 648 119.006907 
" clip-path="url(#p3b6bbde838)" style="fill: none; stroke-dasharray: 2.96,1.28; stroke-dashoffset: 0; stroke: #b0b0b0; stroke-width: 0.8"/>
     </g>
     <g id="line2d_96">
      <g>
       <use xlink:href="#m10e6034944" x="90" y="119.006907" style="stroke: #000000; stroke-width: 0.6"/>
      </g>
     </g>
    </g>
    <g id="ytick_41">
     <g id="line2d_97">
      <path d="M 90 108.272942 
L 648 108.272942 
" clip-path="url(#p3b6bbde838)" style="fill: none; stroke-dasharray: 2.96,1.28; stroke-dashoffset: 0; stroke: #b0b0b0; stroke-width: 0.8"/>
     </g>
     <g id="line2d_98">
      <g>
       <use xlink:href="#m10e6034944" x="90" y="108.272942" style="stroke: #000000; stroke-width: 0.6"/>
      </g>
     </g>
    </g>
    <g id="ytick_42">
     <g id="line2d_99">
      <path d="M 90 100.657072 
L 648 100.657072 
" clip-path="url(#p3b6bbde838)" style="fill: none; stroke-dasharray: 2.96,1.28; stroke-dashoffset: 0; stroke: #b0b0b0; stroke-width: 0.8"/>
     </g>
     <g id="line2d_100">
      <g>
       <use xlink:href="#m10e6034944" x="90" y="100.657072" style="stroke: #000000; stroke-width: 0.6"/>
      </g>
     </g>
    </g>
    <g id="ytick_43">
     <g id="line2d_101">
      <path d="M 90 94.749745 
L 648 94.749745 
" clip-path="url(#p3b6bbde838)" style="fill: none; stroke-dasharray: 2.96,1.28; stroke-dashoffset: 0; stroke: #b0b0b0; stroke-width: 0.8"/>
     </g>
     <g id="line2d_102">
      <g>
       <use xlink:href="#m10e6034944" x="90" y="94.749745" style="stroke: #000000; stroke-width: 0.6"/>
      </g>
     </g>
    </g>
    <g id="ytick_44">
     <g id="line2d_103">
      <path d="M 90 89.923107 
L 648 89.923107 
" clip-path="url(#p3b6bbde838)" style="fill: none; stroke-dasharray: 2.96,1.28; stroke-dashoffset: 0; stroke: #b0b0b0; stroke-width: 0.8"/>
     </g>
     <g id="line2d_104">
      <g>
       <use xlink:href="#m10e6034944" x="90" y="89.923107" style="stroke: #000000; stroke-width: 0.6"/>
      </g>
     </g>
    </g>
    <g id="ytick_45">
     <g id="line2d_105">
      <path d="M 90 85.842242 
L 648 85.842242 
" clip-path="url(#p3b6bbde838)" style="fill: none; stroke-dasharray: 2.96,1.28; stroke-dashoffset: 0; stroke: #b0b0b0; stroke-width: 0.8"/>
     </g>
     <g id="line2d_106">
      <g>
       <use xlink:href="#m10e6034944" x="90" y="85.842242" style="stroke: #000000; stroke-width: 0.6"/>
      </g>
     </g>
    </g>
    <g id="ytick_46">
     <g id="line2d_107">
      <path d="M 90 82.307237 
L 648 82.307237 
" clip-path="url(#p3b6bbde838)" style="fill: none; stroke-dasharray: 2.96,1.28; stroke-dashoffset: 0; stroke: #b0b0b0; stroke-width: 0.8"/>
     </g>
     <g id="line2d_108">
      <g>
       <use xlink:href="#m10e6034944" x="90" y="82.307237" style="stroke: #000000; stroke-width: 0.6"/>
      </g>
     </g>
    </g>
    <g id="ytick_47">
     <g id="line2d_109">
      <path d="M 90 79.189141 
L 648 79.189141 
" clip-path="url(#p3b6bbde838)" style="fill: none; stroke-dasharray: 2.96,1.28; stroke-dashoffset: 0; stroke: #b0b0b0; stroke-width: 0.8"/>
     </g>
     <g id="line2d_110">
      <g>
       <use xlink:href="#m10e6034944" x="90" y="79.189141" style="stroke: #000000; stroke-width: 0.6"/>
      </g>
     </g>
    </g>
    <g id="ytick_48">
     <g id="line2d_111">
      <path d="M 90 58.050074 
L 648 58.050074 
" clip-path="url(#p3b6bbde838)" style="fill: none; stroke-dasharray: 2.96,1.28; stroke-dashoffset: 0; stroke: #b0b0b0; stroke-width: 0.8"/>
     </g>
     <g id="line2d_112">
      <g>
       <use xlink:href="#m10e6034944" x="90" y="58.050074" style="stroke: #000000; stroke-width: 0.6"/>
      </g>
     </g>
    </g>
    <g id="text_16">
     <!-- Huber Loss (Normalized) -->
     <g transform="translate(53.420312 279.7975) rotate(-90) scale(0.1 -0.1)">
      <defs>
       <path id="DejaVuSans-48" d="M 628 4666 
L 1259 4666 
L 1259 2753 
L 3553 2753 
L 3553 4666 
L 4184 4666 
L 4184 0 
L 3553 0 
L 3553 2222 
L 1259 2222 
L 1259 0 
L 628 0 
L 628 4666 
z
" transform="scale(0.015625)"/>
       <path id="DejaVuSans-75" d="M 544 1381 
L 544 3500 
L 1119 3500 
L 1119 1403 
Q 1119 906 1312 657 
Q 1506 409 1894 409 
Q 2359 409 2629 706 
Q 2900 1003 2900 1516 
L 2900 3500 
L 3475 3500 
L 3475 0 
L 2900 0 
L 2900 538 
Q 2691 219 2414 64 
Q 2138 -91 1772 -91 
Q 1169 -91 856 284 
Q 544 659 544 1381 
z
M 1991 3584 
L 1991 3584 
z
" transform="scale(0.015625)"/>
       <path id="DejaVuSans-62" d="M 3116 1747 
Q 3116 2381 2855 2742 
Q 2594 3103 2138 3103 
Q 1681 3103 1420 2742 
Q 1159 2381 1159 1747 
Q 1159 1113 1420 752 
Q 1681 391 2138 391 
Q 2594 391 2855 752 
Q 3116 1113 3116 1747 
z
M 1159 2969 
Q 1341 3281 1617 3432 
Q 1894 3584 2278 3584 
Q 2916 3584 3314 3078 
Q 3713 2572 3713 1747 
Q 3713 922 3314 415 
Q 2916 -91 2278 -91 
Q 1894 -91 1617 61 
Q 1341 213 1159 525 
L 1159 0 
L 581 0 
L 581 4863 
L 1159 4863 
L 1159 2969 
z
" transform="scale(0.015625)"/>
       <path id="DejaVuSans-65" d="M 3597 1894 
L 3597 1613 
L 953 1613 
Q 991 1019 1311 708 
Q 1631 397 2203 397 
Q 2534 397 2845 478 
Q 3156 559 3463 722 
L 3463 178 
Q 3153 47 2828 -22 
Q 2503 -91 2169 -91 
Q 1331 -91 842 396 
Q 353 884 353 1716 
Q 353 2575 817 3079 
Q 1281 3584 2069 3584 
Q 2775 3584 3186 3129 
Q 3597 2675 3597 1894 
z
M 3022 2063 
Q 3016 2534 2758 2815 
Q 2500 3097 2075 3097 
Q 1594 3097 1305 2825 
Q 1016 2553 972 2059 
L 3022 2063 
z
" transform="scale(0.015625)"/>
       <path id="DejaVuSans-72" d="M 2631 2963 
Q 2534 3019 2420 3045 
Q 2306 3072 2169 3072 
Q 1681 3072 1420 2755 
Q 1159 2438 1159 1844 
L 1159 0 
L 581 0 
L 581 3500 
L 1159 3500 
L 1159 2956 
Q 1341 3275 1631 3429 
Q 1922 3584 2338 3584 
Q 2397 3584 2469 3576 
Q 2541 3569 2628 3553 
L 2631 2963 
z
" transform="scale(0.015625)"/>
       <path id="DejaVuSans-20" transform="scale(0.015625)"/>
       <path id="DejaVuSans-4c" d="M 628 4666 
L 1259 4666 
L 1259 531 
L 3531 531 
L 3531 0 
L 628 0 
L 628 4666 
z
" transform="scale(0.015625)"/>
       <path id="DejaVuSans-73" d="M 2834 3397 
L 2834 2853 
Q 2591 2978 2328 3040 
Q 2066 3103 1784 3103 
Q 1356 3103 1142 2972 
Q 928 2841 928 2578 
Q 928 2378 1081 2264 
Q 1234 2150 1697 2047 
L 1894 2003 
Q 2506 1872 2764 1633 
Q 3022 1394 3022 966 
Q 3022 478 2636 193 
Q 2250 -91 1575 -91 
Q 1294 -91 989 -36 
Q 684 19 347 128 
L 347 722 
Q 666 556 975 473 
Q 1284 391 1588 391 
Q 1994 391 2212 530 
Q 2431 669 2431 922 
Q 2431 1156 2273 1281 
Q 2116 1406 1581 1522 
L 1381 1569 
Q 847 1681 609 1914 
Q 372 2147 372 2553 
Q 372 3047 722 3315 
Q 1072 3584 1716 3584 
Q 2034 3584 2315 3537 
Q 2597 3491 2834 3397 
z
" transform="scale(0.015625)"/>
       <path id="DejaVuSans-28" d="M 1984 4856 
Q 1566 4138 1362 3434 
Q 1159 2731 1159 2009 
Q 1159 1288 1364 580 
Q 1569 -128 1984 -844 
L 1484 -844 
Q 1016 -109 783 600 
Q 550 1309 550 2009 
Q 550 2706 781 3412 
Q 1013 4119 1484 4856 
L 1984 4856 
z
" transform="scale(0.015625)"/>
       <path id="DejaVuSans-4e" d="M 628 4666 
L 1478 4666 
L 3547 763 
L 3547 4666 
L 4159 4666 
L 4159 0 
L 3309 0 
L 1241 3903 
L 1241 0 
L 628 0 
L 628 4666 
z
" transform="scale(0.015625)"/>
       <path id="DejaVuSans-6d" d="M 3328 2828 
Q 3544 3216 3844 3400 
Q 4144 3584 4550 3584 
Q 5097 3584 5394 3201 
Q 5691 2819 5691 2113 
L 5691 0 
L 5113 0 
L 5113 2094 
Q 5113 2597 4934 2840 
Q 4756 3084 4391 3084 
Q 3944 3084 3684 2787 
Q 3425 2491 3425 1978 
L 3425 0 
L 2847 0 
L 2847 2094 
Q 2847 2600 2669 2842 
Q 2491 3084 2119 3084 
Q 1678 3084 1418 2786 
Q 1159 2488 1159 1978 
L 1159 0 
L 581 0 
L 581 3500 
L 1159 3500 
L 1159 2956 
Q 1356 3278 1631 3431 
Q 1906 3584 2284 3584 
Q 2666 3584 2933 3390 
Q 3200 3197 3328 2828 
z
" transform="scale(0.015625)"/>
       <path id="DejaVuSans-61" d="M 2194 1759 
Q 1497 1759 1228 1600 
Q 959 1441 959 1056 
Q 959 750 1161 570 
Q 1363 391 1709 391 
Q 2188 391 2477 730 
Q 2766 1069 2766 1631 
L 2766 1759 
L 2194 1759 
z
M 3341 1997 
L 3341 0 
L 2766 0 
L 2766 531 
Q 2569 213 2275 61 
Q 1981 -91 1556 -91 
Q 1019 -91 701 211 
Q 384 513 384 1019 
Q 384 1609 779 1909 
Q 1175 2209 1959 2209 
L 2766 2209 
L 2766 2266 
Q 2766 2663 2505 2880 
Q 2244 3097 1772 3097 
Q 1472 3097 1187 3025 
Q 903 2953 641 2809 
L 641 3341 
Q 956 3463 1253 3523 
Q 1550 3584 1831 3584 
Q 2591 3584 2966 3190 
Q 3341 2797 3341 1997 
z
" transform="scale(0.015625)"/>
       <path id="DejaVuSans-6c" d="M 603 4863 
L 1178 4863 
L 1178 0 
L 603 0 
L 603 4863 
z
" transform="scale(0.015625)"/>
       <path id="DejaVuSans-69" d="M 603 3500 
L 1178 3500 
L 1178 0 
L 603 0 
L 603 3500 
z
M 603 4863 
L 1178 4863 
L 1178 4134 
L 603 4134 
L 603 4863 
z
" transform="scale(0.015625)"/>
       <path id="DejaVuSans-7a" d="M 353 3500 
L 3084 3500 
L 3084 2975 
L 922 459 
L 3084 459 
L 3084 0 
L 275 0 
L 275 525 
L 2438 3041 
L 353 3041 
L 353 3500 
z
" transform="scale(0.015625)"/>
       <path id="DejaVuSans-64" d="M 2906 2969 
L 2906 4863 
L 3481 4863 
L 3481 0 
L 2906 0 
L 2906 525 
Q 2725 213 2448 61 
Q 2172 -91 1784 -91 
Q 1150 -91 751 415 
Q 353 922 353 1747 
Q 353 2572 751 3078 
Q 1150 3584 1784 3584 
Q 2172 3584 2448 3432 
Q 2725 3281 2906 2969 
z
M 947 1747 
Q 947 1113 1208 752 
Q 1469 391 1925 391 
Q 2381 391 2643 752 
Q 2906 1113 2906 1747 
Q 2906 2381 2643 2742 
Q 2381 3103 1925 3103 
Q 1469 3103 1208 2742 
Q 947 2381 947 1747 
z
" transform="scale(0.015625)"/>
       <path id="DejaVuSans-29" d="M 513 4856 
L 1013 4856 
Q 1481 4119 1714 3412 
Q 1947 2706 1947 2009 
Q 1947 1309 1714 600 
Q 1481 -109 1013 -844 
L 513 -844 
Q 928 -128 1133 580 
Q 1338 1288 1338 2009 
Q 1338 2731 1133 3434 
Q 928 4138 513 4856 
z
" transform="scale(0.015625)"/>
      </defs>
      <use xlink:href="#DejaVuSans-48"/>
      <use xlink:href="#DejaVuSans-75" transform="translate(75.195312 0)"/>
      <use xlink:href="#DejaVuSans-62" transform="translate(138.574219 0)"/>
      <use xlink:href="#DejaVuSans-65" transform="translate(202.050781 0)"/>
      <use xlink:href="#DejaVuSans-72" transform="translate(263.574219 0)"/>
      <use xlink:href="#DejaVuSans-20" transform="translate(304.6875 0)"/>
      <use xlink:href="#DejaVuSans-4c" transform="translate(336.474609 0)"/>
      <use xlink:href="#DejaVuSans-6f" transform="translate(390.4375 0)"/>
      <use xlink:href="#DejaVuSans-73" transform="translate(451.619141 0)"/>
      <use xlink:href="#DejaVuSans-73" transform="translate(503.71875 0)"/>
      <use xlink:href="#DejaVuSans-20" transform="translate(555.818359 0)"/>
      <use xlink:href="#DejaVuSans-28" transform="translate(587.605469 0)"/>
      <use xlink:href="#DejaVuSans-4e" transform="translate(626.619141 0)"/>
      <use xlink:href="#DejaVuSans-6f" transform="translate(701.423828 0)"/>
      <use xlink:href="#DejaVuSans-72" transform="translate(762.605469 0)"/>
      <use xlink:href="#DejaVuSans-6d" transform="translate(801.96875 0)"/>
      <use xlink:href="#DejaVuSans-61" transform="translate(899.380859 0)"/>
      <use xlink:href="#DejaVuSans-6c" transform="translate(960.660156 0)"/>
      <use xlink:href="#DejaVuSans-69" transform="translate(988.443359 0)"/>
      <use xlink:href="#DejaVuSans-7a" transform="translate(1016.226562 0)"/>
      <use xlink:href="#DejaVuSans-65" transform="translate(1068.716797 0)"/>
      <use xlink:href="#DejaVuSans-64" transform="translate(1130.240234 0)"/>
      <use xlink:href="#DejaVuSans-29" transform="translate(1193.716797 0)"/>
     </g>
    </g>
   </g>
   <g id="line2d_113">
    <path d="M 115.363636 66.96 
L 116.046372 138.560668 
L 116.729108 162.628661 
L 118.09458 185.111501 
L 118.777316 191.265931 
L 120.142787 207.304939 
L 120.825523 214.523098 
L 121.508259 218.121266 
L 122.190995 219.102517 
L 123.556466 226.184099 
L 124.239202 226.008892 
L 124.921938 231.184308 
L 125.604674 235.004564 
L 126.28741 232.83556 
L 126.970146 234.226693 
L 127.652881 232.776523 
L 128.335617 236.914555 
L 129.018353 236.38589 
L 129.701089 233.768906 
L 130.383825 232.39799 
L 131.066561 229.180967 
L 131.749296 223.19981 
L 132.432032 233.646133 
L 133.114768 238.113953 
L 133.797504 222.570566 
L 134.48024 231.682789 
L 135.162976 237.771445 
L 135.845711 242.659037 
L 136.528447 243.750173 
L 137.893919 248.459573 
L 138.576655 237.36421 
L 139.259391 242.61557 
L 139.942127 236.398553 
L 141.307598 219.519493 
L 141.990334 239.963295 
L 142.67307 253.288797 
L 143.355806 245.029201 
L 144.038542 234.061723 
L 144.721277 229.735841 
L 145.404013 233.007722 
L 146.769485 250.751831 
L 147.452221 248.12184 
L 148.817692 253.106007 
L 149.500428 235.653684 
L 150.183164 241.924437 
L 150.8659 230.47942 
L 151.548636 234.819089 
L 152.231372 241.797658 
L 152.914107 259.293326 
L 153.596843 260.654302 
L 154.279579 239.858387 
L 154.962315 236.527755 
L 155.645051 240.232287 
L 156.327787 245.698471 
L 157.010522 256.130825 
L 157.693258 249.693103 
L 158.375994 232.130417 
L 161.106937 264.505603 
L 161.789673 266.785611 
L 162.472409 266.35733 
L 163.155145 265.340044 
L 163.837881 246.189062 
L 164.520617 243.805862 
L 165.203353 258.58275 
L 165.886088 249.299545 
L 166.568824 230.193039 
L 167.25156 248.357881 
L 167.934296 247.92262 
L 168.617032 249.067822 
L 169.299768 236.677154 
L 169.982503 238.311481 
L 170.665239 256.383315 
L 171.347975 263.478778 
L 172.030711 241.852772 
L 172.713447 257.489013 
L 173.396183 266.003572 
L 174.078918 266.526622 
L 174.761654 238.596205 
L 175.44439 229.902036 
L 176.127126 238.729722 
L 176.809862 225.000922 
L 177.492598 213.574635 
L 179.540805 269.508501 
L 180.223541 274.801265 
L 180.906277 277.232821 
L 181.589013 271.818525 
L 182.271748 276.846137 
L 182.954484 257.618527 
L 183.63722 256.603714 
L 184.319956 253.772298 
L 185.002692 247.900166 
L 185.685428 214.214192 
L 186.368163 203.139726 
L 187.050899 233.864314 
L 187.733635 243.994239 
L 188.416371 250.90209 
L 189.099107 253.656398 
L 189.781843 265.148886 
L 190.464578 266.869705 
L 191.147314 271.386051 
L 191.83005 279.096452 
L 192.512786 279.423258 
L 193.195522 272.020772 
L 193.878258 240.296407 
L 194.560994 263.595168 
L 195.243729 261.780109 
L 195.926465 267.038722 
L 196.609201 220.047345 
L 197.291937 239.533485 
L 197.974673 254.239636 
L 198.657409 272.270595 
L 199.340144 276.953969 
L 200.02288 280.292983 
L 200.705616 273.545492 
L 201.388352 281.025459 
L 202.071088 279.96767 
L 202.753824 258.18671 
L 203.436559 244.290232 
L 204.119295 247.292134 
L 204.802031 249.145713 
L 205.484767 242.535373 
L 206.850239 244.736794 
L 207.532974 248.668872 
L 208.21571 253.990574 
L 208.898446 263.328598 
L 209.581182 249.259589 
L 210.263918 270.621192 
L 210.946654 269.071888 
L 211.629389 266.679416 
L 212.312125 261.613211 
L 212.994861 253.476031 
L 213.677597 273.080509 
L 214.360333 260.664826 
L 215.043069 198.45115 
L 215.725804 213.620367 
L 216.40854 253.393762 
L 217.091276 263.178254 
L 217.774012 278.934354 
L 218.456748 278.556215 
L 219.82222 288.135103 
L 220.504955 293.583969 
L 221.187691 293.491653 
L 221.870427 291.70562 
L 222.553163 286.109581 
L 223.235899 286.880105 
L 223.918635 285.950228 
L 224.60137 282.982242 
L 225.284106 284.766555 
L 225.966842 281.037471 
L 226.649578 280.403674 
L 227.332314 271.844562 
L 228.697785 285.438924 
L 229.380521 262.203865 
L 230.063257 230.353394 
L 230.745993 235.502584 
L 231.428729 219.070064 
L 232.111465 224.577539 
L 232.7942 218.675393 
L 233.476936 236.851034 
L 234.159672 237.351972 
L 234.842408 259.497292 
L 235.525144 276.16513 
L 236.20788 286.09141 
L 236.890615 293.894219 
L 237.573351 294.895932 
L 238.256087 293.56273 
L 238.938823 274.547971 
L 239.621559 294.85831 
L 240.304295 292.830374 
L 240.98703 287.920041 
L 241.669766 290.745478 
L 242.352502 280.605653 
L 243.035238 285.537806 
L 243.717974 281.848184 
L 244.40071 275.786405 
L 245.083445 275.464503 
L 245.766181 282.20168 
L 247.131653 266.232563 
L 247.814389 279.626603 
L 248.497125 243.243653 
L 249.179861 232.336217 
L 249.862596 259.239392 
L 251.228068 281.891617 
L 251.910804 286.720417 
L 252.59354 269.249879 
L 253.276276 266.799711 
L 253.959011 276.751538 
L 254.641747 275.852381 
L 255.324483 276.001817 
L 256.007219 258.76147 
L 256.689955 252.907994 
L 257.372691 252.845649 
L 258.055426 262.250247 
L 258.738162 267.387296 
L 259.420898 258.773009 
L 260.103634 253.18917 
L 260.78637 248.634966 
L 261.469106 224.579203 
L 262.151841 224.990921 
L 263.517313 273.889729 
L 264.200049 262.272828 
L 264.882785 269.933687 
L 265.565521 289.260221 
L 266.248256 303.864268 
L 266.930992 309.175295 
L 267.613728 306.374435 
L 268.296464 306.611539 
L 268.9792 303.115288 
L 269.661936 283.942821 
L 270.344671 281.846453 
L 271.027407 267.383063 
L 271.710143 267.116747 
L 272.392879 275.259665 
L 273.075615 287.835658 
L 273.758351 279.027136 
L 274.441087 278.774297 
L 275.123822 278.685183 
L 275.806558 278.208264 
L 276.489294 285.322974 
L 277.17203 277.167205 
L 277.854766 264.062129 
L 278.537502 224.10753 
L 279.220237 235.914699 
L 279.902973 243.744404 
L 280.585709 254.483945 
L 281.268445 254.731803 
L 281.951181 260.316589 
L 282.633917 267.793049 
L 283.316652 283.486255 
L 283.999388 270.321229 
L 284.682124 268.22583 
L 285.36486 270.162216 
L 286.047596 277.157983 
L 286.730332 271.638528 
L 287.413067 261.140447 
L 288.095803 275.029863 
L 288.778539 279.632392 
L 289.461275 292.115606 
L 290.144011 290.511423 
L 290.826747 283.16146 
L 291.509482 272.23376 
L 292.192218 271.624125 
L 292.874954 275.232006 
L 293.55769 284.78957 
L 294.240426 282.929567 
L 294.923162 284.918917 
L 295.605897 295.377208 
L 296.288633 277.805076 
L 296.971369 253.029504 
L 297.654105 253.425087 
L 298.336841 255.42991 
L 299.019577 268.772774 
L 299.702312 270.939932 
L 300.385048 287.118214 
L 301.067784 286.43108 
L 301.75052 277.859645 
L 302.433256 279.522976 
L 303.115992 274.458323 
L 303.798728 271.976308 
L 304.481463 255.0155 
L 305.164199 258.282675 
L 305.846935 266.604167 
L 307.212407 243.095679 
L 307.895143 261.442255 
L 308.577878 269.973207 
L 309.260614 286.07726 
L 309.94335 289.043517 
L 310.626086 253.189553 
L 311.308822 241.793757 
L 312.674293 264.203251 
L 313.357029 265.810049 
L 314.722501 295.904524 
L 315.405237 299.811364 
L 316.087973 295.851474 
L 316.770708 296.206841 
L 317.453444 296.306688 
L 318.13618 299.252498 
L 318.818916 292.296579 
L 319.501652 279.830472 
L 320.184388 261.965058 
L 320.867123 270.840501 
L 321.549859 281.455143 
L 322.232595 295.782643 
L 322.915331 295.017364 
L 323.598067 293.688588 
L 324.280803 264.852726 
L 324.963538 275.360001 
L 325.646274 270.13955 
L 326.32901 262.493227 
L 327.011746 263.302117 
L 327.694482 279.933834 
L 328.377218 292.961677 
L 329.059954 294.188291 
L 329.742689 289.176395 
L 330.425425 296.775413 
L 331.108161 288.036905 
L 331.790897 268.792391 
L 332.473633 268.57666 
L 333.156369 291.29555 
L 333.839104 272.387205 
L 334.52184 278.523018 
L 335.204576 275.247485 
L 335.887312 274.738203 
L 336.570048 275.532063 
L 337.252784 269.892847 
L 337.935519 249.337959 
L 338.618255 260.486808 
L 339.300991 278.751014 
L 339.983727 279.287389 
L 340.666463 293.053769 
L 341.349199 303.16687 
L 342.031934 295.16142 
L 342.71467 306.152404 
L 343.397406 310.810236 
L 344.080142 309.888686 
L 344.762878 304.187908 
L 345.445614 301.433199 
L 346.128349 300.44842 
L 346.811085 298.100229 
L 347.493821 301.366541 
L 348.176557 300.885623 
L 348.859293 285.493972 
L 349.542029 284.4909 
L 350.224764 282.136911 
L 350.9075 288.8484 
L 351.590236 276.817158 
L 352.272972 262.531532 
L 352.955708 258.295321 
L 353.638444 274.287796 
L 354.321179 268.319947 
L 355.003915 265.257616 
L 355.686651 280.949499 
L 356.369387 288.517755 
L 357.052123 285.367173 
L 357.734859 296.541049 
L 358.417595 277.046266 
L 359.10033 250.664416 
L 359.783066 276.977827 
L 360.465802 298.153959 
L 361.148538 289.45777 
L 361.831274 290.024853 
L 362.51401 291.788867 
L 363.196745 289.10674 
L 363.879481 298.019689 
L 364.562217 310.546944 
L 365.244953 297.242026 
L 365.927689 289.038893 
L 367.29316 233.337168 
L 367.975896 237.84318 
L 368.658632 241.267797 
L 369.341368 255.890522 
L 370.024104 277.294342 
L 370.70684 289.403062 
L 371.389575 296.051612 
L 372.072311 313.087013 
L 372.755047 320.408985 
L 373.437783 315.016377 
L 374.120519 320.214826 
L 374.803255 316.229776 
L 375.48599 315.416923 
L 376.168726 312.941089 
L 376.851462 307.615728 
L 377.534198 299.247092 
L 378.216934 297.742948 
L 378.89967 303.280445 
L 379.582405 314.021295 
L 380.265141 308.384026 
L 380.947877 289.501675 
L 381.630613 291.472463 
L 382.313349 294.446678 
L 382.996085 298.052556 
L 383.678821 293.446513 
L 384.361556 293.358249 
L 385.044292 304.63807 
L 385.727028 309.107455 
L 386.409764 296.31064 
L 387.0925 295.166262 
L 387.775236 306.186056 
L 388.457971 290.794713 
L 389.140707 264.743781 
L 389.823443 276.75744 
L 390.506179 275.124376 
L 391.188915 277.425897 
L 392.554386 302.172729 
L 393.237122 303.896886 
L 393.919858 307.462166 
L 394.602594 281.279585 
L 395.28533 285.253895 
L 395.968066 297.013033 
L 396.650801 304.161772 
L 397.333537 318.320154 
L 398.016273 318.900846 
L 398.699009 324.619827 
L 399.381745 316.287748 
L 400.064481 311.661824 
L 400.747216 308.935076 
L 401.429952 302.131644 
L 402.112688 311.919772 
L 402.795424 289.42522 
L 404.160896 316.364809 
L 404.843631 312.714658 
L 405.526367 289.670278 
L 406.891839 323.72032 
L 407.574575 302.358491 
L 408.257311 290.755322 
L 408.940046 287.400304 
L 409.622782 292.909977 
L 410.305518 299.951771 
L 410.988254 302.505358 
L 412.353726 243.978783 
L 413.036462 249.551303 
L 413.719197 250.366863 
L 414.401933 253.508342 
L 415.084669 276.727121 
L 416.450141 308.70093 
L 417.132877 309.463515 
L 417.815612 307.125102 
L 418.498348 289.610405 
L 419.181084 301.675529 
L 419.86382 303.579509 
L 420.546556 309.163063 
L 421.229292 316.269232 
L 422.594763 332.162977 
L 423.277499 339.467742 
L 423.960235 334.934958 
L 424.642971 328.119242 
L 425.325707 331.218882 
L 426.008442 335.478433 
L 426.691178 328.550561 
L 427.373914 296.284042 
L 428.739386 274.439032 
L 429.422122 274.595972 
L 430.104857 271.620489 
L 430.787593 280.94119 
L 431.470329 287.846154 
L 432.153065 301.712789 
L 433.518537 311.123679 
L 434.201272 304.942932 
L 434.884008 299.868624 
L 435.566744 304.625451 
L 436.24948 293.051534 
L 436.932216 292.620292 
L 437.614952 305.543101 
L 438.297688 297.470383 
L 438.980423 318.467692 
L 439.663159 330.96343 
L 440.345895 329.742762 
L 441.028631 327.836467 
L 441.711367 317.276574 
L 442.394103 328.290688 
L 443.759574 310.5015 
L 444.44231 318.729697 
L 445.125046 325.338178 
L 445.807782 321.516235 
L 446.490518 308.018312 
L 447.855989 316.771839 
L 448.538725 313.050885 
L 449.221461 304.764743 
L 449.904197 284.552904 
L 450.586933 282.324786 
L 451.269668 271.893113 
L 451.952404 282.438223 
L 452.63514 298.040363 
L 453.317876 303.938114 
L 454.000612 311.28988 
L 455.366083 329.641666 
L 456.048819 329.905989 
L 456.731555 331.966769 
L 457.414291 335.569229 
L 458.097027 324.051009 
L 458.779763 322.2435 
L 459.462498 324.327941 
L 460.145234 320.385999 
L 460.82797 318.992357 
L 461.510706 312.217582 
L 462.193442 311.219658 
L 462.876178 311.656762 
L 463.558913 300.938691 
L 464.241649 306.655737 
L 464.924385 286.84003 
L 465.607121 282.604162 
L 466.289857 267.955062 
L 466.972593 278.620046 
L 467.655329 269.578309 
L 469.0208 307.202078 
L 469.703536 319.155564 
L 470.386272 320.869045 
L 471.069008 336.06001 
L 471.751744 331.775403 
L 472.434479 333.192953 
L 473.117215 329.48519 
L 474.482687 336.683468 
L 475.165423 334.598986 
L 475.848159 341.379009 
L 476.530894 341.105752 
L 477.21363 336.113866 
L 477.896366 333.831141 
L 478.579102 322.231577 
L 479.261838 330.611957 
L 479.944574 329.29951 
L 480.627309 339.529339 
L 481.310045 342.799659 
L 481.992781 319.494176 
L 482.675517 320.297226 
L 483.358253 292.914303 
L 484.040989 286.83464 
L 484.723724 294.911238 
L 485.40646 294.130172 
L 486.089196 306.674799 
L 486.771932 314.039411 
L 487.454668 304.486634 
L 488.137404 310.899977 
L 488.820139 314.337425 
L 489.502875 318.476644 
L 490.185611 338.161554 
L 490.868347 340.694187 
L 491.551083 333.570875 
L 492.233819 338.561439 
L 492.916555 332.467257 
L 493.59929 339.83976 
L 494.282026 332.984936 
L 494.964762 317.117501 
L 495.647498 315.330053 
L 496.330234 326.16638 
L 497.695705 320.711872 
L 498.378441 328.807386 
L 499.061177 328.039645 
L 499.743913 330.743742 
L 500.426649 328.828105 
L 501.109385 317.617394 
L 501.79212 328.371242 
L 502.474856 323.44658 
L 503.157592 310.555695 
L 503.840328 320.45065 
L 504.523064 324.696351 
L 505.888535 314.294456 
L 506.571271 330.811945 
L 507.254007 318.772992 
L 507.936743 302.028816 
L 508.619479 302.352289 
L 509.302215 290.229811 
L 509.98495 299.205991 
L 510.667686 298.329947 
L 511.350422 287.198814 
L 512.033158 281.537543 
L 512.715894 298.139081 
L 513.39863 319.460052 
L 514.764101 353.335043 
L 515.446837 350.711442 
L 516.129573 351.432229 
L 517.495045 348.577484 
L 518.17778 347.863847 
L 518.860516 354.588268 
L 519.543252 353.881222 
L 520.225988 355.514664 
L 520.908724 351.719188 
L 521.59146 346.00009 
L 522.274196 334.42792 
L 522.956931 320.854522 
L 523.639667 335.126849 
L 524.322403 337.052606 
L 525.005139 332.992374 
L 525.687875 341.303637 
L 526.370611 346.425624 
L 527.053346 346.975789 
L 527.736082 350.416613 
L 528.418818 343.941409 
L 529.101554 348.066951 
L 529.78429 344.254826 
L 530.467026 341.758709 
L 531.149761 323.135517 
L 531.832497 311.587106 
L 532.515233 313.002847 
L 533.197969 322.597169 
L 533.880705 321.304489 
L 534.563441 333.919613 
L 535.928912 322.624598 
L 536.611648 340.105302 
L 537.294384 333.428771 
L 537.97712 328.089334 
L 538.659856 305.6437 
L 539.342591 315.81078 
L 540.025327 320.233421 
L 540.708063 319.392237 
L 541.390799 316.827983 
L 542.073535 319.822748 
L 542.756271 324.13833 
L 543.439006 323.789464 
L 544.121742 329.071345 
L 544.804478 340.178445 
L 545.487214 330.123246 
L 546.16995 337.15655 
L 546.852686 338.022162 
L 547.535422 335.22758 
L 548.218157 348.168501 
L 549.583629 339.412988 
L 550.266365 350.47534 
L 550.949101 352.728199 
L 551.631837 345.83275 
L 552.314572 344.595835 
L 552.997308 341.873591 
L 553.680044 348.887859 
L 554.36278 351.609597 
L 555.045516 356.754686 
L 555.728252 354.273242 
L 556.410987 351.318366 
L 557.093723 335.460226 
L 557.776459 304.41134 
L 558.459195 310.166311 
L 559.141931 304.992932 
L 559.824667 309.046983 
L 560.507402 316.005337 
L 561.190138 333.705174 
L 561.872874 338.208986 
L 562.55561 332.887105 
L 563.238346 320.831015 
L 563.921082 330.538341 
L 564.603817 350.613551 
L 565.286553 350.628736 
L 565.969289 346.729589 
L 566.652025 337.438995 
L 567.334761 332.051466 
L 568.017497 338.812151 
L 568.700232 352.105465 
L 569.382968 362.59291 
L 570.065704 362.998352 
L 570.74844 366.3732 
L 571.431176 364.539356 
L 572.113912 364.593585 
L 572.796647 362.507324 
L 573.479383 356.37215 
L 574.162119 355.520227 
L 574.844855 365.682948 
L 575.527591 356.193675 
L 576.210327 353.377723 
L 576.893063 345.246749 
L 577.575798 352.387134 
L 578.258534 356.638332 
L 578.94127 344.122174 
L 579.624006 340.769932 
L 580.306742 343.905782 
L 580.989478 349.632227 
L 581.672213 347.26254 
L 582.354949 342.513797 
L 583.037685 349.421894 
L 583.720421 348.855508 
L 584.403157 356.326632 
L 585.085893 347.139475 
L 585.768628 341.75783 
L 586.451364 350.213907 
L 587.1341 349.894782 
L 587.816836 357.302785 
L 588.499572 353.848095 
L 589.182308 348.67534 
L 589.865043 356.460993 
L 590.547779 350.652333 
L 591.230515 340.816907 
L 591.913251 351.438181 
L 592.595987 347.750744 
L 593.278723 335.801646 
L 594.644194 362.941331 
L 595.32693 353.834158 
L 596.009666 359.229945 
L 596.692402 341.247333 
L 597.375138 342.341337 
L 598.057873 352.724058 
L 598.740609 357.574523 
L 599.423345 352.219548 
L 600.106081 339.524758 
L 600.788817 340.091723 
L 601.471553 358.911535 
L 602.154289 363.839375 
L 602.837024 362.453092 
L 603.51976 365.371479 
L 604.202496 355.91214 
L 604.885232 369.36 
L 605.567968 368.637217 
L 606.250704 364.541289 
L 606.933439 361.712626 
L 607.616175 357.179867 
L 608.298911 356.559374 
L 608.981647 349.628308 
L 609.664383 359.435384 
L 610.347119 361.083618 
L 611.029854 368.736523 
L 611.71259 366.793948 
L 612.395326 366.827545 
L 613.078062 360.614522 
L 613.760798 356.240072 
L 614.443534 356.490455 
L 615.126269 360.449746 
L 615.809005 347.32521 
L 617.174477 360.084697 
L 617.857213 354.239294 
L 618.539949 350.98699 
L 619.222684 332.712301 
L 619.90542 344.798105 
L 620.588156 342.566489 
L 621.270892 343.399022 
L 622.636364 364.334674 
L 622.636364 364.334674 
" clip-path="url(#p3b6bbde838)" style="fill: none; stroke: #0000ff; stroke-width: 1.5; stroke-linecap: square"/>
   </g>
   <g id="line2d_114">
    <path d="M 115.363636 120.284405 
L 116.046372 155.366628 
L 116.729108 168.85908 
L 117.411844 177.366561 
L 118.09458 184.253606 
L 118.777316 198.022109 
L 119.460051 198.918108 
L 120.142787 209.915671 
L 120.825523 216.157604 
L 121.508259 214.760618 
L 122.190995 222.075225 
L 122.873731 225.671088 
L 123.556466 224.883499 
L 124.239202 227.883768 
L 124.921938 233.172521 
L 125.604674 235.633733 
L 126.28741 228.405412 
L 126.970146 228.98061 
L 127.652881 230.021911 
L 128.335617 234.588135 
L 129.018353 237.537999 
L 129.701089 236.42441 
L 130.383825 230.294745 
L 131.066561 231.377026 
L 131.749296 226.591253 
L 132.432032 230.783987 
L 133.114768 232.289227 
L 133.797504 223.373865 
L 134.48024 229.571809 
L 135.162976 231.986154 
L 135.845711 248.486189 
L 136.528447 240.780088 
L 137.211183 245.648114 
L 137.893919 236.101929 
L 138.576655 244.678319 
L 139.259391 224.172219 
L 139.942127 226.549952 
L 140.624862 203.662473 
L 141.307598 236.644347 
L 141.990334 237.616499 
L 142.67307 248.073759 
L 143.355806 239.62156 
L 144.038542 238.640718 
L 144.721277 215.632611 
L 145.404013 239.744614 
L 146.086749 248.459133 
L 146.769485 246.263279 
L 147.452221 245.032991 
L 148.134957 243.134877 
L 148.817692 231.472432 
L 149.500428 242.464466 
L 150.183164 221.829975 
L 150.8659 220.195759 
L 151.548636 246.117548 
L 152.231372 248.731256 
L 152.914107 259.576356 
L 154.279579 218.9952 
L 154.962315 245.649644 
L 155.645051 242.182073 
L 156.327787 253.774306 
L 157.010522 249.094366 
L 157.693258 238.317529 
L 158.375994 243.31513 
L 159.05873 238.111066 
L 159.741466 241.241194 
L 161.106937 261.297773 
L 161.789673 261.646382 
L 162.472409 258.73036 
L 163.155145 259.2383 
L 163.837881 238.14865 
L 164.520617 255.906506 
L 165.203353 255.401079 
L 165.886088 241.042637 
L 166.568824 244.565788 
L 167.25156 250.465893 
L 167.934296 245.580216 
L 168.617032 244.299862 
L 169.299768 230.092362 
L 169.982503 249.232426 
L 170.665239 262.872417 
L 171.347975 242.751161 
L 172.030711 244.686257 
L 172.713447 263.748289 
L 173.396183 268.867662 
L 174.078918 261.949606 
L 174.761654 207.463021 
L 175.44439 239.97181 
L 176.127126 235.227837 
L 176.809862 224.137438 
L 177.492598 222.456933 
L 178.175333 241.99535 
L 178.858069 253.202474 
L 179.540805 271.767667 
L 180.223541 275.608863 
L 180.906277 266.169295 
L 181.589013 268.573025 
L 182.271748 253.739326 
L 182.954484 264.534159 
L 183.63722 254.191929 
L 184.319956 254.562498 
L 185.002692 239.680365 
L 185.685428 191.169951 
L 186.368163 218.696836 
L 187.050899 240.581189 
L 187.733635 242.464414 
L 188.416371 243.090941 
L 189.099107 260.372316 
L 189.781843 268.732393 
L 190.464578 256.725283 
L 191.147314 270.991072 
L 191.83005 265.952338 
L 192.512786 277.524773 
L 193.195522 250.300479 
L 193.878258 244.079027 
L 194.560994 271.890009 
L 195.243729 269.582156 
L 195.926465 256.628862 
L 196.609201 216.125858 
L 197.291937 251.668931 
L 197.974673 264.17717 
L 198.657409 266.817895 
L 199.340144 279.72447 
L 200.02288 267.78854 
L 200.705616 272.754835 
L 201.388352 274.609644 
L 202.071088 268.707974 
L 202.753824 261.476815 
L 203.436559 224.511158 
L 204.119295 252.678998 
L 204.802031 231.244119 
L 205.484767 223.94587 
L 206.167503 241.622416 
L 206.850239 240.509532 
L 207.532974 249.681434 
L 208.21571 254.661426 
L 208.898446 258.550843 
L 209.581182 255.484383 
L 210.263918 275.221914 
L 210.946654 268.462983 
L 211.629389 241.219747 
L 212.312125 254.02622 
L 212.994861 260.305622 
L 213.677597 256.609331 
L 214.360333 235.636615 
L 215.043069 196.424784 
L 215.725804 243.765637 
L 216.40854 258.944721 
L 217.091276 264.934421 
L 217.774012 283.251939 
L 218.456748 271.792549 
L 219.139484 275.672645 
L 219.82222 285.033825 
L 220.504955 289.556909 
L 221.870427 278.534911 
L 222.553163 273.813059 
L 223.235899 289.207069 
L 223.918635 270.339389 
L 224.60137 283.083002 
L 225.966842 268.737023 
L 226.649578 277.737223 
L 227.332314 257.470846 
L 228.01505 283.049082 
L 228.697785 256.717698 
L 229.380521 219.189745 
L 230.063257 227.678182 
L 230.745993 234.228887 
L 231.428729 215.965383 
L 232.111465 203.686656 
L 232.7942 227.491417 
L 233.476936 218.195821 
L 234.159672 245.306541 
L 234.842408 267.177064 
L 235.525144 273.766362 
L 236.20788 281.846111 
L 236.890615 292.193785 
L 237.573351 289.599077 
L 238.256087 262.212955 
L 238.938823 283.482491 
L 239.621559 288.789889 
L 240.304295 281.713206 
L 240.98703 291.572275 
L 241.669766 267.348856 
L 242.352502 274.846727 
L 243.035238 272.041435 
L 243.717974 276.739768 
L 244.40071 264.232477 
L 245.083445 279.448228 
L 245.766181 279.183832 
L 246.448917 272.988002 
L 247.131653 271.560108 
L 247.814389 252.782149 
L 248.497125 210.549853 
L 249.179861 243.926097 
L 249.862596 270.155758 
L 250.545332 276.122572 
L 251.228068 290.292664 
L 251.910804 282.692642 
L 252.59354 262.765995 
L 253.276276 270.745725 
L 253.959011 266.433208 
L 254.641747 285.846978 
L 255.324483 270.793905 
L 256.007219 263.779758 
L 256.689955 244.877149 
L 257.372691 261.144476 
L 258.055426 260.830676 
L 258.738162 256.499879 
L 259.420898 257.025316 
L 260.103634 245.155473 
L 260.78637 218.171872 
L 261.469106 212.096829 
L 262.834577 259.029857 
L 263.517313 273.360107 
L 264.200049 262.88655 
L 264.882785 272.983681 
L 265.565521 292.956322 
L 266.930992 299.498503 
L 267.613728 298.65933 
L 268.296464 292.365856 
L 268.9792 290.883972 
L 269.661936 269.395646 
L 270.344671 261.933676 
L 271.027407 242.786158 
L 271.710143 260.875751 
L 272.392879 272.189658 
L 273.075615 269.961146 
L 273.758351 268.480552 
L 274.441087 280.517147 
L 275.123822 274.034239 
L 275.806558 279.488536 
L 276.489294 268.440014 
L 277.17203 274.641687 
L 277.854766 264.586492 
L 278.537502 219.551492 
L 279.220237 238.083585 
L 279.902973 236.68585 
L 280.585709 244.896305 
L 281.268445 256.721704 
L 281.951181 277.823653 
L 282.633917 275.283107 
L 283.316652 269.623452 
L 283.999388 262.937389 
L 284.682124 271.956069 
L 285.36486 262.542368 
L 286.047596 270.849901 
L 286.730332 263.766194 
L 287.413067 261.940175 
L 288.095803 262.460078 
L 288.778539 289.323556 
L 290.144011 275.731905 
L 290.826747 279.233427 
L 291.509482 267.869661 
L 292.192218 263.37432 
L 292.874954 280.36217 
L 293.55769 286.947747 
L 294.240426 267.201854 
L 294.923162 298.03743 
L 295.605897 294.16086 
L 296.288633 264.664253 
L 296.971369 250.571566 
L 298.336841 270.767217 
L 299.019577 275.339158 
L 299.702312 276.54295 
L 300.385048 282.671307 
L 301.067784 274.265404 
L 301.75052 282.288438 
L 302.433256 265.527378 
L 303.115992 266.2426 
L 303.798728 257.62825 
L 304.481463 228.269845 
L 305.164199 246.91648 
L 305.846935 261.73234 
L 306.529671 227.314079 
L 307.895143 270.809114 
L 308.577878 276.468309 
L 309.260614 284.052318 
L 310.626086 221.691826 
L 311.308822 252.272868 
L 311.991558 252.814346 
L 312.674293 256.872365 
L 313.357029 271.968963 
L 314.039765 274.711536 
L 314.722501 300.351529 
L 315.405237 290.841038 
L 316.087973 293.712261 
L 316.770708 290.941554 
L 317.453444 297.027962 
L 318.13618 284.949577 
L 318.818916 282.690685 
L 320.184388 263.154105 
L 320.867123 268.56352 
L 321.549859 281.554566 
L 322.232595 296.706063 
L 322.915331 290.889128 
L 323.598067 266.493335 
L 324.280803 276.353683 
L 324.963538 269.957933 
L 325.646274 278.99798 
L 326.32901 251.521355 
L 327.011746 271.8798 
L 327.694482 284.04373 
L 328.377218 286.778527 
L 329.742689 295.125857 
L 330.425425 288.338667 
L 331.108161 268.334796 
L 331.790897 269.876977 
L 332.473633 277.392011 
L 333.156369 286.141397 
L 333.839104 264.895297 
L 334.52184 278.219781 
L 335.204576 274.307652 
L 335.887312 267.927277 
L 336.570048 269.561198 
L 337.252784 265.212901 
L 337.935519 256.231075 
L 338.618255 269.179943 
L 339.300991 266.86555 
L 339.983727 282.81152 
L 340.666463 292.820133 
L 341.349199 290.368264 
L 342.031934 289.32534 
L 342.71467 304.193044 
L 343.397406 301.864471 
L 344.080142 288.210573 
L 344.762878 299.77332 
L 345.445614 293.558326 
L 346.128349 296.220804 
L 346.811085 293.056274 
L 347.493821 291.173444 
L 348.176557 289.696128 
L 348.859293 278.510063 
L 349.542029 282.133594 
L 350.224764 276.677524 
L 350.9075 266.402405 
L 351.590236 279.359301 
L 352.272972 246.722724 
L 352.955708 271.10378 
L 353.638444 251.965465 
L 354.321179 261.575428 
L 355.003915 274.241013 
L 355.686651 290.807048 
L 356.369387 269.154271 
L 357.052123 293.138155 
L 357.734859 287.53806 
L 358.417595 254.109721 
L 359.10033 254.605531 
L 359.783066 287.767971 
L 360.465802 288.036292 
L 361.148538 274.416491 
L 361.831274 293.859293 
L 363.196745 283.942441 
L 363.879481 288.620481 
L 364.562217 297.511096 
L 365.244953 289.139594 
L 365.927689 276.354828 
L 366.610425 236.024711 
L 367.29316 218.984675 
L 367.975896 234.938126 
L 368.658632 248.086555 
L 369.341368 269.362654 
L 370.024104 278.199836 
L 371.389575 291.361259 
L 372.072311 307.757191 
L 372.755047 306.41804 
L 373.437783 303.879803 
L 374.120519 299.386208 
L 374.803255 301.332024 
L 375.48599 297.887838 
L 376.168726 296.954337 
L 376.851462 297.302981 
L 377.534198 294.098524 
L 378.216934 294.343782 
L 378.89967 303.330353 
L 379.582405 307.049357 
L 380.265141 278.758956 
L 380.947877 296.326608 
L 381.630613 288.426356 
L 382.313349 289.098691 
L 382.996085 297.460013 
L 383.678821 279.023468 
L 384.361556 292.05318 
L 385.044292 295.546247 
L 385.727028 288.84067 
L 386.409764 283.421661 
L 387.0925 292.984244 
L 387.775236 294.456853 
L 388.457971 247.596658 
L 389.140707 264.169554 
L 389.823443 273.905736 
L 390.506179 279.065486 
L 391.188915 276.461555 
L 391.871651 290.722029 
L 392.554386 277.682892 
L 393.237122 304.8157 
L 393.919858 281.178801 
L 394.602594 282.425525 
L 395.28533 282.693094 
L 395.968066 291.501764 
L 396.650801 306.708985 
L 397.333537 303.909921 
L 398.016273 305.904716 
L 398.699009 302.834934 
L 399.381745 297.481605 
L 400.064481 287.072912 
L 400.747216 297.511319 
L 401.429952 292.690407 
L 402.112688 289.645081 
L 402.795424 281.267931 
L 403.47816 298.622122 
L 404.160896 303.798967 
L 404.843631 283.241926 
L 405.526367 290.523417 
L 406.209103 305.158502 
L 406.891839 295.452955 
L 407.574575 295.568085 
L 408.257311 276.1001 
L 408.940046 285.455147 
L 409.622782 287.112322 
L 410.305518 295.620803 
L 410.988254 282.217351 
L 411.67099 251.856431 
L 412.353726 238.784398 
L 413.036462 250.473828 
L 413.719197 252.942002 
L 414.401933 268.35784 
L 415.084669 280.653806 
L 415.767405 297.053088 
L 416.450141 302.797353 
L 417.132877 288.730804 
L 417.815612 284.288701 
L 418.498348 295.895532 
L 419.181084 291.865556 
L 419.86382 300.793448 
L 420.546556 293.093048 
L 421.229292 309.430296 
L 421.912027 312.567637 
L 422.594763 314.890297 
L 423.277499 313.743114 
L 423.960235 299.472668 
L 424.642971 307.972354 
L 425.325707 311.900096 
L 426.008442 309.984184 
L 426.691178 309.638475 
L 427.373914 271.212843 
L 428.05665 268.888776 
L 428.739386 262.117333 
L 429.422122 272.670021 
L 430.104857 266.49166 
L 430.787593 270.873244 
L 431.470329 298.364273 
L 432.153065 295.516896 
L 432.835801 294.072651 
L 433.518537 304.386109 
L 434.201272 294.530613 
L 434.884008 299.925433 
L 435.566744 290.975275 
L 436.24948 292.760789 
L 436.932216 290.611913 
L 437.614952 291.170606 
L 438.297688 293.392896 
L 438.980423 309.322694 
L 439.663159 312.331027 
L 440.345895 316.006937 
L 441.028631 308.326327 
L 441.711367 309.298453 
L 442.394103 313.98229 
L 443.076838 303.465258 
L 443.759574 302.437268 
L 444.44231 305.868877 
L 445.125046 312.97076 
L 445.807782 297.791752 
L 446.490518 293.050846 
L 447.173253 310.120208 
L 447.855989 301.019697 
L 448.538725 296.556733 
L 449.221461 285.123547 
L 449.904197 281.947633 
L 450.586933 257.118272 
L 451.269668 268.271036 
L 452.63514 295.559736 
L 453.317876 299.322994 
L 454.000612 307.839097 
L 454.683348 309.591711 
L 455.366083 312.264807 
L 456.048819 311.091643 
L 456.731555 317.669136 
L 457.414291 314.488463 
L 458.097027 308.924015 
L 458.779763 307.277828 
L 459.462498 297.461864 
L 460.145234 315.205958 
L 460.82797 301.924555 
L 461.510706 303.565018 
L 462.193442 299.410979 
L 462.876178 312.435737 
L 463.558913 298.428498 
L 464.241649 310.509862 
L 464.924385 272.022056 
L 465.607121 286.059434 
L 466.289857 275.546359 
L 466.972593 284.03081 
L 467.655329 284.22309 
L 468.338064 302.216821 
L 469.0208 305.48745 
L 469.703536 306.128782 
L 470.386272 313.109288 
L 471.069008 317.15745 
L 471.751744 305.640239 
L 472.434479 308.769271 
L 473.117215 317.295712 
L 473.799951 316.352265 
L 474.482687 309.113079 
L 475.165423 314.723971 
L 475.848159 316.577161 
L 476.530894 323.269453 
L 477.21363 314.956234 
L 477.896366 293.835183 
L 478.579102 316.023872 
L 479.261838 304.940691 
L 479.944574 307.550755 
L 480.627309 322.659163 
L 481.310045 317.691845 
L 481.992781 310.037575 
L 482.675517 310.198831 
L 483.358253 270.067311 
L 484.040989 278.235419 
L 484.723724 296.436647 
L 485.40646 283.573622 
L 486.089196 304.427274 
L 486.771932 305.505623 
L 487.454668 285.004572 
L 488.137404 303.484295 
L 488.820139 301.967646 
L 489.502875 313.217045 
L 490.185611 317.834954 
L 490.868347 320.391128 
L 491.551083 318.264307 
L 492.233819 314.693693 
L 492.916555 313.941247 
L 493.59929 320.958406 
L 494.282026 312.25168 
L 494.964762 290.960098 
L 495.647498 313.419753 
L 496.330234 311.771518 
L 497.01297 303.594235 
L 498.378441 318.642662 
L 499.061177 317.579169 
L 499.743913 315.160452 
L 500.426649 313.503893 
L 501.109385 314.030856 
L 501.79212 306.059442 
L 502.474856 307.428558 
L 503.157592 304.641925 
L 503.840328 307.3078 
L 504.523064 307.146413 
L 505.2058 292.450713 
L 505.888535 316.100951 
L 506.571271 316.766986 
L 507.254007 297.590616 
L 507.936743 297.875833 
L 509.302215 282.510921 
L 509.98495 295.748152 
L 510.667686 274.843153 
L 511.350422 285.425645 
L 512.033158 267.181775 
L 512.715894 297.603063 
L 513.39863 313.162283 
L 514.764101 323.774891 
L 515.446837 324.081965 
L 516.129573 320.969941 
L 516.812309 328.916291 
L 517.495045 321.016983 
L 518.17778 327.015657 
L 518.860516 322.841796 
L 519.543252 327.1042 
L 520.908724 328.286103 
L 522.274196 307.719805 
L 522.956931 306.850234 
L 523.639667 315.143711 
L 524.322403 315.965729 
L 525.005139 325.7876 
L 525.687875 324.55303 
L 526.370611 324.908003 
L 527.053346 324.00073 
L 527.736082 321.923297 
L 529.101554 328.058814 
L 529.78429 320.778887 
L 530.467026 320.850082 
L 531.149761 308.586436 
L 531.832497 298.605 
L 532.515233 305.160705 
L 533.197969 306.29328 
L 533.880705 312.491931 
L 534.563441 313.664258 
L 535.246176 307.173075 
L 535.928912 313.412087 
L 536.611648 322.725878 
L 537.294384 304.44371 
L 537.97712 299.200267 
L 538.659856 299.059863 
L 539.342591 296.706561 
L 540.025327 308.224168 
L 540.708063 306.5311 
L 541.390799 310.414029 
L 542.073535 309.168739 
L 542.756271 319.167328 
L 543.439006 307.467786 
L 544.121742 323.533209 
L 544.804478 319.681 
L 545.487214 308.422526 
L 546.16995 321.176014 
L 546.852686 320.157059 
L 547.535422 323.82481 
L 548.218157 323.939672 
L 548.900893 322.882873 
L 549.583629 320.651165 
L 550.266365 327.320003 
L 550.949101 322.097647 
L 551.631837 324.489514 
L 552.314572 318.39551 
L 552.997308 318.323505 
L 553.680044 324.335638 
L 554.36278 332.703611 
L 555.045516 323.757282 
L 555.728252 327.460388 
L 556.410987 316.435205 
L 557.093723 302.70934 
L 557.776459 299.122196 
L 558.459195 291.839682 
L 559.141931 298.521001 
L 559.824667 301.533926 
L 560.507402 311.722104 
L 561.190138 316.658578 
L 561.872874 315.708583 
L 562.55561 306.460045 
L 563.238346 312.097863 
L 563.921082 320.842979 
L 564.603817 326.694697 
L 565.286553 321.444985 
L 565.969289 322.970822 
L 566.652025 310.71483 
L 567.334761 317.58708 
L 568.017497 322.553245 
L 568.700232 330.454704 
L 569.382968 328.767223 
L 570.065704 329.393361 
L 570.74844 327.899007 
L 571.431176 329.939576 
L 572.113912 326.982572 
L 572.796647 328.011224 
L 573.479383 326.116154 
L 574.162119 327.916507 
L 574.844855 324.085676 
L 575.527591 326.651235 
L 576.210327 322.032198 
L 577.575798 328.271886 
L 578.258534 319.44968 
L 578.94127 320.976334 
L 579.624006 324.614257 
L 580.306742 323.529123 
L 580.989478 321.51229 
L 581.672213 323.793435 
L 582.354949 320.965636 
L 583.037685 325.467895 
L 583.720421 327.148744 
L 584.403157 327.898563 
L 585.085893 317.773317 
L 585.768628 324.283334 
L 586.451364 321.145087 
L 587.1341 327.928718 
L 587.816836 323.18113 
L 589.182308 319.304391 
L 589.865043 324.750597 
L 590.547779 326.789545 
L 591.230515 321.803456 
L 591.913251 324.877775 
L 593.278723 319.348397 
L 593.961458 327.738229 
L 594.644194 325.413556 
L 595.32693 326.941294 
L 596.009666 319.813047 
L 596.692402 318.652562 
L 598.057873 325.617612 
L 598.740609 318.752901 
L 599.423345 319.919385 
L 600.106081 322.773143 
L 600.788817 324.100477 
L 601.471553 328.937755 
L 602.154289 328.683165 
L 602.837024 328.908285 
L 603.51976 326.515504 
L 604.202496 326.009811 
L 604.885232 329.773445 
L 605.567968 328.598432 
L 606.250704 327.902416 
L 606.933439 328.347375 
L 607.616175 326.840315 
L 608.298911 325.91225 
L 608.981647 323.034795 
L 609.664383 326.501539 
L 610.347119 326.806102 
L 611.029854 328.48493 
L 611.71259 331.464375 
L 612.395326 326.04561 
L 613.078062 325.273555 
L 613.760798 326.76894 
L 614.443534 328.745858 
L 615.126269 324.22733 
L 615.809005 320.734371 
L 616.491741 327.674124 
L 617.174477 326.706616 
L 617.857213 324.44875 
L 618.539949 322.949679 
L 619.222684 314.189855 
L 619.90542 319.572315 
L 620.588156 322.295699 
L 621.270892 326.253587 
L 621.953628 329.062414 
L 622.636364 324.950861 
L 622.636364 324.950861 
" clip-path="url(#p3b6bbde838)" style="fill: none; stroke: #ff0000; stroke-width: 1.5; stroke-linecap: square"/>
   </g>
   <g id="patch_3">
    <path d="M 90 384.48 
L 90 51.84 
" style="fill: none; stroke: #000000; stroke-width: 0.8; stroke-linejoin: miter; stroke-linecap: square"/>
   </g>
   <g id="patch_4">
    <path d="M 648 384.48 
L 648 51.84 
" style="fill: none; stroke: #000000; stroke-width: 0.8; stroke-linejoin: miter; stroke-linecap: square"/>
   </g>
   <g id="patch_5">
    <path d="M 90 384.48 
L 648 384.48 
" style="fill: none; stroke: #000000; stroke-width: 0.8; stroke-linejoin: miter; stroke-linecap: square"/>
   </g>
   <g id="patch_6">
    <path d="M 90 51.84 
L 648 51.84 
" style="fill: none; stroke: #000000; stroke-width: 0.8; stroke-linejoin: miter; stroke-linecap: square"/>
   </g>
   <g id="text_17">
    <!-- Training and Validation Loss Over Time -->
    <g transform="translate(252.60375 45.84) scale(0.12 -0.12)">
     <defs>
      <path id="DejaVuSans-54" d="M -19 4666 
L 3928 4666 
L 3928 4134 
L 2272 4134 
L 2272 0 
L 1638 0 
L 1638 4134 
L -19 4134 
L -19 4666 
z
" transform="scale(0.015625)"/>
      <path id="DejaVuSans-6e" d="M 3513 2113 
L 3513 0 
L 2938 0 
L 2938 2094 
Q 2938 2591 2744 2837 
Q 2550 3084 2163 3084 
Q 1697 3084 1428 2787 
Q 1159 2491 1159 1978 
L 1159 0 
L 581 0 
L 581 3500 
L 1159 3500 
L 1159 2956 
Q 1366 3272 1645 3428 
Q 1925 3584 2291 3584 
Q 2894 3584 3203 3211 
Q 3513 2838 3513 2113 
z
" transform="scale(0.015625)"/>
      <path id="DejaVuSans-67" d="M 2906 1791 
Q 2906 2416 2648 2759 
Q 2391 3103 1925 3103 
Q 1463 3103 1205 2759 
Q 947 2416 947 1791 
Q 947 1169 1205 825 
Q 1463 481 1925 481 
Q 2391 481 2648 825 
Q 2906 1169 2906 1791 
z
M 3481 434 
Q 3481 -459 3084 -895 
Q 2688 -1331 1869 -1331 
Q 1566 -1331 1297 -1286 
Q 1028 -1241 775 -1147 
L 775 -588 
Q 1028 -725 1275 -790 
Q 1522 -856 1778 -856 
Q 2344 -856 2625 -561 
Q 2906 -266 2906 331 
L 2906 616 
Q 2728 306 2450 153 
Q 2172 0 1784 0 
Q 1141 0 747 490 
Q 353 981 353 1791 
Q 353 2603 747 3093 
Q 1141 3584 1784 3584 
Q 2172 3584 2450 3431 
Q 2728 3278 2906 2969 
L 2906 3500 
L 3481 3500 
L 3481 434 
z
" transform="scale(0.015625)"/>
      <path id="DejaVuSans-56" d="M 1831 0 
L 50 4666 
L 709 4666 
L 2188 738 
L 3669 4666 
L 4325 4666 
L 2547 0 
L 1831 0 
z
" transform="scale(0.015625)"/>
      <path id="DejaVuSans-74" d="M 1172 4494 
L 1172 3500 
L 2356 3500 
L 2356 3053 
L 1172 3053 
L 1172 1153 
Q 1172 725 1289 603 
Q 1406 481 1766 481 
L 2356 481 
L 2356 0 
L 1766 0 
Q 1100 0 847 248 
Q 594 497 594 1153 
L 594 3053 
L 172 3053 
L 172 3500 
L 594 3500 
L 594 4494 
L 1172 4494 
z
" transform="scale(0.015625)"/>
      <path id="DejaVuSans-4f" d="M 2522 4238 
Q 1834 4238 1429 3725 
Q 1025 3213 1025 2328 
Q 1025 1447 1429 934 
Q 1834 422 2522 422 
Q 3209 422 3611 934 
Q 4013 1447 4013 2328 
Q 4013 3213 3611 3725 
Q 3209 4238 2522 4238 
z
M 2522 4750 
Q 3503 4750 4090 4092 
Q 4678 3434 4678 2328 
Q 4678 1225 4090 567 
Q 3503 -91 2522 -91 
Q 1538 -91 948 565 
Q 359 1222 359 2328 
Q 359 3434 948 4092 
Q 1538 4750 2522 4750 
z
" transform="scale(0.015625)"/>
      <path id="DejaVuSans-76" d="M 191 3500 
L 800 3500 
L 1894 563 
L 2988 3500 
L 3597 3500 
L 2284 0 
L 1503 0 
L 191 3500 
z
" transform="scale(0.015625)"/>
     </defs>
     <use xlink:href="#DejaVuSans-54"/>
     <use xlink:href="#DejaVuSans-72" transform="translate(46.333984 0)"/>
     <use xlink:href="#DejaVuSans-61" transform="translate(87.447266 0)"/>
     <use xlink:href="#DejaVuSans-69" transform="translate(148.726562 0)"/>
     <use xlink:href="#DejaVuSans-6e" transform="translate(176.509766 0)"/>
     <use xlink:href="#DejaVuSans-69" transform="translate(239.888672 0)"/>
     <use xlink:href="#DejaVuSans-6e" transform="translate(267.671875 0)"/>
     <use xlink:href="#DejaVuSans-67" transform="translate(331.050781 0)"/>
     <use xlink:href="#DejaVuSans-20" transform="translate(394.527344 0)"/>
     <use xlink:href="#DejaVuSans-61" transform="translate(426.314453 0)"/>
     <use xlink:href="#DejaVuSans-6e" transform="translate(487.59375 0)"/>
     <use xlink:href="#DejaVuSans-64" transform="translate(550.972656 0)"/>
     <use xlink:href="#DejaVuSans-20" transform="translate(614.449219 0)"/>
     <use xlink:href="#DejaVuSans-56" transform="translate(646.236328 0)"/>
     <use xlink:href="#DejaVuSans-61" transform="translate(706.894531 0)"/>
     <use xlink:href="#DejaVuSans-6c" transform="translate(768.173828 0)"/>
     <use xlink:href="#DejaVuSans-69" transform="translate(795.957031 0)"/>
     <use xlink:href="#DejaVuSans-64" transform="translate(823.740234 0)"/>
     <use xlink:href="#DejaVuSans-61" transform="translate(887.216797 0)"/>
     <use xlink:href="#DejaVuSans-74" transform="translate(948.496094 0)"/>
     <use xlink:href="#DejaVuSans-69" transform="translate(987.705078 0)"/>
     <use xlink:href="#DejaVuSans-6f" transform="translate(1015.488281 0)"/>
     <use xlink:href="#DejaVuSans-6e" transform="translate(1076.669922 0)"/>
     <use xlink:href="#DejaVuSans-20" transform="translate(1140.048828 0)"/>
     <use xlink:href="#DejaVuSans-4c" transform="translate(1171.835938 0)"/>
     <use xlink:href="#DejaVuSans-6f" transform="translate(1225.798828 0)"/>
     <use xlink:href="#DejaVuSans-73" transform="translate(1286.980469 0)"/>
     <use xlink:href="#DejaVuSans-73" transform="translate(1339.080078 0)"/>
     <use xlink:href="#DejaVuSans-20" transform="translate(1391.179688 0)"/>
     <use xlink:href="#DejaVuSans-4f" transform="translate(1422.966797 0)"/>
     <use xlink:href="#DejaVuSans-76" transform="translate(1501.677734 0)"/>
     <use xlink:href="#DejaVuSans-65" transform="translate(1560.857422 0)"/>
     <use xlink:href="#DejaVuSans-72" transform="translate(1622.380859 0)"/>
     <use xlink:href="#DejaVuSans-20" transform="translate(1663.494141 0)"/>
     <use xlink:href="#DejaVuSans-54" transform="translate(1695.28125 0)"/>
     <use xlink:href="#DejaVuSans-69" transform="translate(1753.240234 0)"/>
     <use xlink:href="#DejaVuSans-6d" transform="translate(1781.023438 0)"/>
     <use xlink:href="#DejaVuSans-65" transform="translate(1878.435547 0)"/>
    </g>
   </g>
   <g id="legend_1">
    <g id="patch_7">
     <path d="M 534.50625 89.19625 
L 641 89.19625 
Q 643 89.19625 643 87.19625 
L 643 58.84 
Q 643 56.84 641 56.84 
L 534.50625 56.84 
Q 532.50625 56.84 532.50625 58.84 
L 532.50625 87.19625 
Q 532.50625 89.19625 534.50625 89.19625 
z
" style="fill: #ffffff; opacity: 0.8; stroke: #cccccc; stroke-linejoin: miter"/>
    </g>
    <g id="line2d_115">
     <path d="M 536.50625 64.938437 
L 546.50625 64.938437 
L 556.50625 64.938437 
" style="fill: none; stroke: #0000ff; stroke-width: 1.5; stroke-linecap: square"/>
    </g>
    <g id="text_18">
     <!-- Training Loss -->
     <g transform="translate(564.50625 68.438437) scale(0.1 -0.1)">
      <use xlink:href="#DejaVuSans-54"/>
      <use xlink:href="#DejaVuSans-72" transform="translate(46.333984 0)"/>
      <use xlink:href="#DejaVuSans-61" transform="translate(87.447266 0)"/>
      <use xlink:href="#DejaVuSans-69" transform="translate(148.726562 0)"/>
      <use xlink:href="#DejaVuSans-6e" transform="translate(176.509766 0)"/>
      <use xlink:href="#DejaVuSans-69" transform="translate(239.888672 0)"/>
      <use xlink:href="#DejaVuSans-6e" transform="translate(267.671875 0)"/>
      <use xlink:href="#DejaVuSans-67" transform="translate(331.050781 0)"/>
      <use xlink:href="#DejaVuSans-20" transform="translate(394.527344 0)"/>
      <use xlink:href="#DejaVuSans-4c" transform="translate(426.314453 0)"/>
      <use xlink:href="#DejaVuSans-6f" transform="translate(480.277344 0)"/>
      <use xlink:href="#DejaVuSans-73" transform="translate(541.458984 0)"/>
      <use xlink:href="#DejaVuSans-73" transform="translate(593.558594 0)"/>
     </g>
    </g>
    <g id="line2d_116">
     <path d="M 536.50625 79.616562 
L 546.50625 79.616562 
L 556.50625 79.616562 
" style="fill: none; stroke: #ff0000; stroke-width: 1.5; stroke-linecap: square"/>
    </g>
    <g id="text_19">
     <!-- Validation Loss -->
     <g transform="translate(564.50625 83.116562) scale(0.1 -0.1)">
      <use xlink:href="#DejaVuSans-56"/>
      <use xlink:href="#DejaVuSans-61" transform="translate(60.658203 0)"/>
      <use xlink:href="#DejaVuSans-6c" transform="translate(121.9375 0)"/>
      <use xlink:href="#DejaVuSans-69" transform="translate(149.720703 0)"/>
      <use xlink:href="#DejaVuSans-64" transform="translate(177.503906 0)"/>
      <use xlink:href="#DejaVuSans-61" transform="translate(240.980469 0)"/>
      <use xlink:href="#DejaVuSans-74" transform="translate(302.259766 0)"/>
      <use xlink:href="#DejaVuSans-69" transform="translate(341.46875 0)"/>
      <use xlink:href="#DejaVuSans-6f" transform="translate(369.251953 0)"/>
      <use xlink:href="#DejaVuSans-6e" transform="translate(430.433594 0)"/>
      <use xlink:href="#DejaVuSans-20" transform="translate(493.8125 0)"/>
      <use xlink:href="#DejaVuSans-4c" transform="translate(525.599609 0)"/>
      <use xlink:href="#DejaVuSans-6f" transform="translate(579.5625 0)"/>
      <use xlink:href="#DejaVuSans-73" transform="translate(640.744141 0)"/>
      <use xlink:href="#DejaVuSans-73" transform="translate(692.84375 0)"/>
     </g>
    </g>
   </g>
  </g>
 </g>
 <defs>
  <clipPath id="p3b6bbde838">
   <rect x="90" y="51.84" width="558" height="332.64"/>
  </clipPath>
 </defs>
</svg>
