<?xml version="1.0" encoding="utf-8" standalone="no"?>
<!DOCTYPE svg PUBLIC "-//W3C//DTD SVG 1.1//EN"
  "http://www.w3.org/Graphics/SVG/1.1/DTD/svg11.dtd">
<svg xmlns:xlink="http://www.w3.org/1999/xlink" width="720pt" height="432pt" viewBox="0 0 720 432" xmlns="http://www.w3.org/2000/svg" version="1.1">
 <metadata>
  <rdf:RDF xmlns:dc="http://purl.org/dc/elements/1.1/" xmlns:cc="http://creativecommons.org/ns#" xmlns:rdf="http://www.w3.org/1999/02/22-rdf-syntax-ns#">
   <cc:Work>
    <dc:type rdf:resource="http://purl.org/dc/dcmitype/StillImage"/>
    <dc:date>2026-04-01T00:50:07.321761</dc:date>
    <dc:format>image/svg+xml</dc:format>
    <dc:creator>
     <cc:Agent>
      <dc:title>Matplotlib v3.10.3, https://matplotlib.org/</dc:title>
     </cc:Agent>
    </dc:creator>
   </cc:Work>
  </rdf:RDF>
 </metadata>
 <defs>
  <style type="text/css">*{stroke-linejoin: round; stroke-linecap: butt}</style>
 </defs>
 <g id="figure_1">
  <g id="patch_1">
   <path d="M 0 432 
L 720 432 
L 720 0 
L 0 0 
z
" style="fill: #ffffff"/>
  </g>
  <g id="axes_1">
   <g id="patch_2">
    <path d="M 90 384.48 
L 648 384.48 
L 648 51.84 
L 90 51.84 
z
" style="fill: #ffffff"/>
   </g>
   <g id="matplotlib.axis_1">
    <g id="xtick_1">
     <g id="line2d_1">
      <path d="M 115.363636 384.48 
L 115.363636 51.84 
" clip-path="url(#p1c4687567e)" style="fill: none; stroke-dasharray: 2.96,1.28; stroke-dashoffset: 0; stroke: #b0b0b0; stroke-width: 0.8"/>
     </g>
     <g id="line2d_2">
      <defs>
       <path id="mcddd9941eb" d="M 0 0 
L 0 3.5 
" style="stroke: #000000; stroke-width: 0.8"/>
      </defs>
      <g>
       <use xlink:href="#mcddd9941eb" x="115.363636" y="384.48" style="stroke: #000000; stroke-width: 0.8"/>
      </g>
     </g>
     <g id="text_1">
      <!-- 0 -->
      <g transform="translate(112.182386 399.078438) scale(0.1 -0.1)">
       <defs>
        <path id="DejaVuSans-30" d="M 2034 4250 
Q 1547 4250 1301 3770 
Q 1056 3291 1056 2328 
Q 1056 1369 1301 889 
Q 1547 409 2034 409 
Q 2525 409 2770 889 
Q 3016 1369 3016 2328 
Q 3016 3291 2770 3770 
Q 2525 4250 2034 4250 
z
M 2034 4750 
Q 2819 4750 3233 4129 
Q 3647 3509 3647 2328 
Q 3647 1150 3233 529 
Q 2819 -91 2034 -91 
Q 1250 -91 836 529 
Q 422 1150 422 2328 
Q 422 3509 836 4129 
Q 1250 4750 2034 4750 
z
" transform="scale(0.015625)"/>
       </defs>
       <use xlink:href="#DejaVuSans-30"/>
      </g>
     </g>
    </g>
    <g id="xtick_2">
     <g id="line2d_3">
      <path d="M 178.772727 384.48 
L 178.772727 51.84 
" clip-path="url(#p1c4687567e)" style="fill: none; stroke-dasharray: 2.96,1.28; stroke-dashoffset: 0; stroke: #b0b0b0; stroke-width: 0.8"/>
     </g>
     <g id="line2d_4">
      <g>
       <use xlink:href="#mcddd9941eb" x="178.772727" y="384.48" style="stroke: #000000; stroke-width: 0.8"/>
      </g>
     </g>
     <g id="text_2">
      <!-- 50 -->
      <g transform="translate(172.410227 399.078438) scale(0.1 -0.1)">
       <defs>
        <path id="DejaVuSans-35" d="M 691 4666 
L 3169 4666 
L 3169 4134 
L 1269 4134 
L 1269 2991 
Q 1406 3038 1543 3061 
Q 1681 3084 1819 3084 
Q 2600 3084 3056 2656 
Q 3513 2228 3513 1497 
Q 3513 744 3044 326 
Q 2575 -91 1722 -91 
Q 1428 -91 1123 -41 
Q 819 9 494 109 
L 494 744 
Q 775 591 1075 516 
Q 1375 441 1709 441 
Q 2250 441 2565 725 
Q 2881 1009 2881 1497 
Q 2881 1984 2565 2268 
Q 2250 2553 1709 2553 
Q 1456 2553 1204 2497 
Q 953 2441 691 2322 
L 691 4666 
z
" transform="scale(0.015625)"/>
       </defs>
       <use xlink:href="#DejaVuSans-35"/>
       <use xlink:href="#DejaVuSans-30" transform="translate(63.623047 0)"/>
      </g>
     </g>
    </g>
    <g id="xtick_3">
     <g id="line2d_5">
      <path d="M 242.181818 384.48 
L 242.181818 51.84 
" clip-path="url(#p1c4687567e)" style="fill: none; stroke-dasharray: 2.96,1.28; stroke-dashoffset: 0; stroke: #b0b0b0; stroke-width: 0.8"/>
     </g>
     <g id="line2d_6">
      <g>
       <use xlink:href="#mcddd9941eb" x="242.181818" y="384.48" style="stroke: #000000; stroke-width: 0.8"/>
      </g>
     </g>
     <g id="text_3">
      <!-- 100 -->
      <g transform="translate(232.638068 399.078438) scale(0.1 -0.1)">
       <defs>
        <path id="DejaVuSans-31" d="M 794 531 
L 1825 531 
L 1825 4091 
L 703 3866 
L 703 4441 
L 1819 4666 
L 2450 4666 
L 2450 531 
L 3481 531 
L 3481 0 
L 794 0 
L 794 531 
z
" transform="scale(0.015625)"/>
       </defs>
       <use xlink:href="#DejaVuSans-31"/>
       <use xlink:href="#DejaVuSans-30" transform="translate(63.623047 0)"/>
       <use xlink:href="#DejaVuSans-30" transform="translate(127.246094 0)"/>
      </g>
     </g>
    </g>
    <g id="xtick_4">
     <g id="line2d_7">
      <path d="M 305.590909 384.48 
L 305.590909 51.84 
" clip-path="url(#p1c4687567e)" style="fill: none; stroke-dasharray: 2.96,1.28; stroke-dashoffset: 0; stroke: #b0b0b0; stroke-width: 0.8"/>
     </g>
     <g id="line2d_8">
      <g>
       <use xlink:href="#mcddd9941eb" x="305.590909" y="384.48" style="stroke: #000000; stroke-width: 0.8"/>
      </g>
     </g>
     <g id="text_4">
      <!-- 150 -->
      <g transform="translate(296.047159 399.078438) scale(0.1 -0.1)">
       <use xlink:href="#DejaVuSans-31"/>
       <use xlink:href="#DejaVuSans-35" transform="translate(63.623047 0)"/>
       <use xlink:href="#DejaVuSans-30" transform="translate(127.246094 0)"/>
      </g>
     </g>
    </g>
    <g id="xtick_5">
     <g id="line2d_9">
      <path d="M 369 384.48 
L 369 51.84 
" clip-path="url(#p1c4687567e)" style="fill: none; stroke-dasharray: 2.96,1.28; stroke-dashoffset: 0; stroke: #b0b0b0; stroke-width: 0.8"/>
     </g>
     <g id="line2d_10">
      <g>
       <use xlink:href="#mcddd9941eb" x="369" y="384.48" style="stroke: #000000; stroke-width: 0.8"/>
      </g>
     </g>
     <g id="text_5">
      <!-- 200 -->
      <g transform="translate(359.45625 399.078438) scale(0.1 -0.1)">
       <defs>
        <path id="DejaVuSans-32" d="M 1228 531 
L 3431 531 
L 3431 0 
L 469 0 
L 469 531 
Q 828 903 1448 1529 
Q 2069 2156 2228 2338 
Q 2531 2678 2651 2914 
Q 2772 3150 2772 3378 
Q 2772 3750 2511 3984 
Q 2250 4219 1831 4219 
Q 1534 4219 1204 4116 
Q 875 4013 500 3803 
L 500 4441 
Q 881 4594 1212 4672 
Q 1544 4750 1819 4750 
Q 2544 4750 2975 4387 
Q 3406 4025 3406 3419 
Q 3406 3131 3298 2873 
Q 3191 2616 2906 2266 
Q 2828 2175 2409 1742 
Q 1991 1309 1228 531 
z
" transform="scale(0.015625)"/>
       </defs>
       <use xlink:href="#DejaVuSans-32"/>
       <use xlink:href="#DejaVuSans-30" transform="translate(63.623047 0)"/>
       <use xlink:href="#DejaVuSans-30" transform="translate(127.246094 0)"/>
      </g>
     </g>
    </g>
    <g id="xtick_6">
     <g id="line2d_11">
      <path d="M 432.409091 384.48 
L 432.409091 51.84 
" clip-path="url(#p1c4687567e)" style="fill: none; stroke-dasharray: 2.96,1.28; stroke-dashoffset: 0; stroke: #b0b0b0; stroke-width: 0.8"/>
     </g>
     <g id="line2d_12">
      <g>
       <use xlink:href="#mcddd9941eb" x="432.409091" y="384.48" style="stroke: #000000; stroke-width: 0.8"/>
      </g>
     </g>
     <g id="text_6">
      <!-- 250 -->
      <g transform="translate(422.865341 399.078438) scale(0.1 -0.1)">
       <use xlink:href="#DejaVuSans-32"/>
       <use xlink:href="#DejaVuSans-35" transform="translate(63.623047 0)"/>
       <use xlink:href="#DejaVuSans-30" transform="translate(127.246094 0)"/>
      </g>
     </g>
    </g>
    <g id="xtick_7">
     <g id="line2d_13">
      <path d="M 495.818182 384.48 
L 495.818182 51.84 
" clip-path="url(#p1c4687567e)" style="fill: none; stroke-dasharray: 2.96,1.28; stroke-dashoffset: 0; stroke: #b0b0b0; stroke-width: 0.8"/>
     </g>
     <g id="line2d_14">
      <g>
       <use xlink:href="#mcddd9941eb" x="495.818182" y="384.48" style="stroke: #000000; stroke-width: 0.8"/>
      </g>
     </g>
     <g id="text_7">
      <!-- 300 -->
      <g transform="translate(486.274432 399.078438) scale(0.1 -0.1)">
       <defs>
        <path id="DejaVuSans-33" d="M 2597 2516 
Q 3050 2419 3304 2112 
Q 3559 1806 3559 1356 
Q 3559 666 3084 287 
Q 2609 -91 1734 -91 
Q 1441 -91 1130 -33 
Q 819 25 488 141 
L 488 750 
Q 750 597 1062 519 
Q 1375 441 1716 441 
Q 2309 441 2620 675 
Q 2931 909 2931 1356 
Q 2931 1769 2642 2001 
Q 2353 2234 1838 2234 
L 1294 2234 
L 1294 2753 
L 1863 2753 
Q 2328 2753 2575 2939 
Q 2822 3125 2822 3475 
Q 2822 3834 2567 4026 
Q 2313 4219 1838 4219 
Q 1578 4219 1281 4162 
Q 984 4106 628 3988 
L 628 4550 
Q 988 4650 1302 4700 
Q 1616 4750 1894 4750 
Q 2613 4750 3031 4423 
Q 3450 4097 3450 3541 
Q 3450 3153 3228 2886 
Q 3006 2619 2597 2516 
z
" transform="scale(0.015625)"/>
       </defs>
       <use xlink:href="#DejaVuSans-33"/>
       <use xlink:href="#DejaVuSans-30" transform="translate(63.623047 0)"/>
       <use xlink:href="#DejaVuSans-30" transform="translate(127.246094 0)"/>
      </g>
     </g>
    </g>
    <g id="xtick_8">
     <g id="line2d_15">
      <path d="M 559.227273 384.48 
L 559.227273 51.84 
" clip-path="url(#p1c4687567e)" style="fill: none; stroke-dasharray: 2.96,1.28; stroke-dashoffset: 0; stroke: #b0b0b0; stroke-width: 0.8"/>
     </g>
     <g id="line2d_16">
      <g>
       <use xlink:href="#mcddd9941eb" x="559.227273" y="384.48" style="stroke: #000000; stroke-width: 0.8"/>
      </g>
     </g>
     <g id="text_8">
      <!-- 350 -->
      <g transform="translate(549.683523 399.078438) scale(0.1 -0.1)">
       <use xlink:href="#DejaVuSans-33"/>
       <use xlink:href="#DejaVuSans-35" transform="translate(63.623047 0)"/>
       <use xlink:href="#DejaVuSans-30" transform="translate(127.246094 0)"/>
      </g>
     </g>
    </g>
    <g id="xtick_9">
     <g id="line2d_17">
      <path d="M 622.636364 384.48 
L 622.636364 51.84 
" clip-path="url(#p1c4687567e)" style="fill: none; stroke-dasharray: 2.96,1.28; stroke-dashoffset: 0; stroke: #b0b0b0; stroke-width: 0.8"/>
     </g>
     <g id="line2d_18">
      <g>
       <use xlink:href="#mcddd9941eb" x="622.636364" y="384.48" style="stroke: #000000; stroke-width: 0.8"/>
      </g>
     </g>
     <g id="text_9">
      <!-- 400 -->
      <g transform="translate(613.092614 399.078438) scale(0.1 -0.1)">
       <defs>
        <path id="DejaVuSans-34" d="M 2419 4116 
L 825 1625 
L 2419 1625 
L 2419 4116 
z
M 2253 4666 
L 3047 4666 
L 3047 1625 
L 3713 1625 
L 3713 1100 
L 3047 1100 
L 3047 0 
L 2419 0 
L 2419 1100 
L 313 1100 
L 313 1709 
L 2253 4666 
z
" transform="scale(0.015625)"/>
       </defs>
       <use xlink:href="#DejaVuSans-34"/>
       <use xlink:href="#DejaVuSans-30" transform="translate(63.623047 0)"/>
       <use xlink:href="#DejaVuSans-30" transform="translate(127.246094 0)"/>
      </g>
     </g>
    </g>
    <g id="text_10">
     <!-- Epoch -->
     <g transform="translate(353.689062 412.756563) scale(0.1 -0.1)">
      <defs>
       <path id="DejaVuSans-45" d="M 628 4666 
L 3578 4666 
L 3578 4134 
L 1259 4134 
L 1259 2753 
L 3481 2753 
L 3481 2222 
L 1259 2222 
L 1259 531 
L 3634 531 
L 3634 0 
L 628 0 
L 628 4666 
z
" transform="scale(0.015625)"/>
       <path id="DejaVuSans-70" d="M 1159 525 
L 1159 -1331 
L 581 -1331 
L 581 3500 
L 1159 3500 
L 1159 2969 
Q 1341 3281 1617 3432 
Q 1894 3584 2278 3584 
Q 2916 3584 3314 3078 
Q 3713 2572 3713 1747 
Q 3713 922 3314 415 
Q 2916 -91 2278 -91 
Q 1894 -91 1617 61 
Q 1341 213 1159 525 
z
M 3116 1747 
Q 3116 2381 2855 2742 
Q 2594 3103 2138 3103 
Q 1681 3103 1420 2742 
Q 1159 2381 1159 1747 
Q 1159 1113 1420 752 
Q 1681 391 2138 391 
Q 2594 391 2855 752 
Q 3116 1113 3116 1747 
z
" transform="scale(0.015625)"/>
       <path id="DejaVuSans-6f" d="M 1959 3097 
Q 1497 3097 1228 2736 
Q 959 2375 959 1747 
Q 959 1119 1226 758 
Q 1494 397 1959 397 
Q 2419 397 2687 759 
Q 2956 1122 2956 1747 
Q 2956 2369 2687 2733 
Q 2419 3097 1959 3097 
z
M 1959 3584 
Q 2709 3584 3137 3096 
Q 3566 2609 3566 1747 
Q 3566 888 3137 398 
Q 2709 -91 1959 -91 
Q 1206 -91 779 398 
Q 353 888 353 1747 
Q 353 2609 779 3096 
Q 1206 3584 1959 3584 
z
" transform="scale(0.015625)"/>
       <path id="DejaVuSans-63" d="M 3122 3366 
L 3122 2828 
Q 2878 2963 2633 3030 
Q 2388 3097 2138 3097 
Q 1578 3097 1268 2742 
Q 959 2388 959 1747 
Q 959 1106 1268 751 
Q 1578 397 2138 397 
Q 2388 397 2633 464 
Q 2878 531 3122 666 
L 3122 134 
Q 2881 22 2623 -34 
Q 2366 -91 2075 -91 
Q 1284 -91 818 406 
Q 353 903 353 1747 
Q 353 2603 823 3093 
Q 1294 3584 2113 3584 
Q 2378 3584 2631 3529 
Q 2884 3475 3122 3366 
z
" transform="scale(0.015625)"/>
       <path id="DejaVuSans-68" d="M 3513 2113 
L 3513 0 
L 2938 0 
L 2938 2094 
Q 2938 2591 2744 2837 
Q 2550 3084 2163 3084 
Q 1697 3084 1428 2787 
Q 1159 2491 1159 1978 
L 1159 0 
L 581 0 
L 581 4863 
L 1159 4863 
L 1159 2956 
Q 1366 3272 1645 3428 
Q 1925 3584 2291 3584 
Q 2894 3584 3203 3211 
Q 3513 2838 3513 2113 
z
" transform="scale(0.015625)"/>
      </defs>
      <use xlink:href="#DejaVuSans-45"/>
      <use xlink:href="#DejaVuSans-70" transform="translate(63.183594 0)"/>
      <use xlink:href="#DejaVuSans-6f" transform="translate(126.660156 0)"/>
      <use xlink:href="#DejaVuSans-63" transform="translate(187.841797 0)"/>
      <use xlink:href="#DejaVuSans-68" transform="translate(242.822266 0)"/>
     </g>
    </g>
   </g>
   <g id="matplotlib.axis_2">
    <g id="ytick_1">
     <g id="line2d_19">
      <path d="M 90 369.143155 
L 648 369.143155 
" clip-path="url(#p1c4687567e)" style="fill: none; stroke-dasharray: 2.96,1.28; stroke-dashoffset: 0; stroke: #b0b0b0; stroke-width: 0.8"/>
     </g>
     <g id="line2d_20">
      <defs>
       <path id="m48b6449843" d="M 0 0 
L -3.5 0 
" style="stroke: #000000; stroke-width: 0.8"/>
      </defs>
      <g>
       <use xlink:href="#m48b6449843" x="90" y="369.143155" style="stroke: #000000; stroke-width: 0.8"/>
      </g>
     </g>
     <g id="text_11">
      <!-- $\mathdefault{10^{-5}}$ -->
      <g transform="translate(59.5 372.942374) scale(0.1 -0.1)">
       <defs>
        <path id="DejaVuSans-2212" d="M 678 2272 
L 4684 2272 
L 4684 1741 
L 678 1741 
L 678 2272 
z
" transform="scale(0.015625)"/>
       </defs>
       <use xlink:href="#DejaVuSans-31" transform="translate(0 0.684375)"/>
       <use xlink:href="#DejaVuSans-30" transform="translate(63.623047 0.684375)"/>
       <use xlink:href="#DejaVuSans-2212" transform="translate(128.203125 38.965625) scale(0.7)"/>
       <use xlink:href="#DejaVuSans-35" transform="translate(186.855469 38.965625) scale(0.7)"/>
      </g>
     </g>
    </g>
    <g id="ytick_2">
     <g id="line2d_21">
      <path d="M 90 296.413149 
L 648 296.413149 
" clip-path="url(#p1c4687567e)" style="fill: none; stroke-dasharray: 2.96,1.28; stroke-dashoffset: 0; stroke: #b0b0b0; stroke-width: 0.8"/>
     </g>
     <g id="line2d_22">
      <g>
       <use xlink:href="#m48b6449843" x="90" y="296.413149" style="stroke: #000000; stroke-width: 0.8"/>
      </g>
     </g>
     <g id="text_12">
      <!-- $\mathdefault{10^{-4}}$ -->
      <g transform="translate(59.5 300.212367) scale(0.1 -0.1)">
       <use xlink:href="#DejaVuSans-31" transform="translate(0 0.684375)"/>
       <use xlink:href="#DejaVuSans-30" transform="translate(63.623047 0.684375)"/>
       <use xlink:href="#DejaVuSans-2212" transform="translate(128.203125 38.965625) scale(0.7)"/>
       <use xlink:href="#DejaVuSans-34" transform="translate(186.855469 38.965625) scale(0.7)"/>
      </g>
     </g>
    </g>
    <g id="ytick_3">
     <g id="line2d_23">
      <path d="M 90 223.683142 
L 648 223.683142 
" clip-path="url(#p1c4687567e)" style="fill: none; stroke-dasharray: 2.96,1.28; stroke-dashoffset: 0; stroke: #b0b0b0; stroke-width: 0.8"/>
     </g>
     <g id="line2d_24">
      <g>
       <use xlink:href="#m48b6449843" x="90" y="223.683142" style="stroke: #000000; stroke-width: 0.8"/>
      </g>
     </g>
     <g id="text_13">
      <!-- $\mathdefault{10^{-3}}$ -->
      <g transform="translate(59.5 227.482361) scale(0.1 -0.1)">
       <use xlink:href="#DejaVuSans-31" transform="translate(0 0.765625)"/>
       <use xlink:href="#DejaVuSans-30" transform="translate(63.623047 0.765625)"/>
       <use xlink:href="#DejaVuSans-2212" transform="translate(128.203125 39.046875) scale(0.7)"/>
       <use xlink:href="#DejaVuSans-33" transform="translate(186.855469 39.046875) scale(0.7)"/>
      </g>
     </g>
    </g>
    <g id="ytick_4">
     <g id="line2d_25">
      <path d="M 90 150.953135 
L 648 150.953135 
" clip-path="url(#p1c4687567e)" style="fill: none; stroke-dasharray: 2.96,1.28; stroke-dashoffset: 0; stroke: #b0b0b0; stroke-width: 0.8"/>
     </g>
     <g id="line2d_26">
      <g>
       <use xlink:href="#m48b6449843" x="90" y="150.953135" style="stroke: #000000; stroke-width: 0.8"/>
      </g>
     </g>
     <g id="text_14">
      <!-- $\mathdefault{10^{-2}}$ -->
      <g transform="translate(59.5 154.752354) scale(0.1 -0.1)">
       <use xlink:href="#DejaVuSans-31" transform="translate(0 0.765625)"/>
       <use xlink:href="#DejaVuSans-30" transform="translate(63.623047 0.765625)"/>
       <use xlink:href="#DejaVuSans-2212" transform="translate(128.203125 39.046875) scale(0.7)"/>
       <use xlink:href="#DejaVuSans-32" transform="translate(186.855469 39.046875) scale(0.7)"/>
      </g>
     </g>
    </g>
    <g id="ytick_5">
     <g id="line2d_27">
      <path d="M 90 78.223129 
L 648 78.223129 
" clip-path="url(#p1c4687567e)" style="fill: none; stroke-dasharray: 2.96,1.28; stroke-dashoffset: 0; stroke: #b0b0b0; stroke-width: 0.8"/>
     </g>
     <g id="line2d_28">
      <g>
       <use xlink:href="#m48b6449843" x="90" y="78.223129" style="stroke: #000000; stroke-width: 0.8"/>
      </g>
     </g>
     <g id="text_15">
      <!-- $\mathdefault{10^{-1}}$ -->
      <g transform="translate(59.5 82.022348) scale(0.1 -0.1)">
       <use xlink:href="#DejaVuSans-31" transform="translate(0 0.684375)"/>
       <use xlink:href="#DejaVuSans-30" transform="translate(63.623047 0.684375)"/>
       <use xlink:href="#DejaVuSans-2212" transform="translate(128.203125 38.965625) scale(0.7)"/>
       <use xlink:href="#DejaVuSans-31" transform="translate(186.855469 38.965625) scale(0.7)"/>
      </g>
     </g>
    </g>
    <g id="ytick_6">
     <g id="line2d_29">
      <path d="M 90 380.409176 
L 648 380.409176 
" clip-path="url(#p1c4687567e)" style="fill: none; stroke-dasharray: 2.96,1.28; stroke-dashoffset: 0; stroke: #b0b0b0; stroke-width: 0.8"/>
     </g>
     <g id="line2d_30">
      <defs>
       <path id="ma9caa55bfd" d="M 0 0 
L -2 0 
" style="stroke: #000000; stroke-width: 0.6"/>
      </defs>
      <g>
       <use xlink:href="#ma9caa55bfd" x="90" y="380.409176" style="stroke: #000000; stroke-width: 0.6"/>
      </g>
     </g>
    </g>
    <g id="ytick_7">
     <g id="line2d_31">
      <path d="M 90 376.191421 
L 648 376.191421 
" clip-path="url(#p1c4687567e)" style="fill: none; stroke-dasharray: 2.96,1.28; stroke-dashoffset: 0; stroke: #b0b0b0; stroke-width: 0.8"/>
     </g>
     <g id="line2d_32">
      <g>
       <use xlink:href="#ma9caa55bfd" x="90" y="376.191421" style="stroke: #000000; stroke-width: 0.6"/>
      </g>
     </g>
    </g>
    <g id="ytick_8">
     <g id="line2d_33">
      <path d="M 90 372.471098 
L 648 372.471098 
" clip-path="url(#p1c4687567e)" style="fill: none; stroke-dasharray: 2.96,1.28; stroke-dashoffset: 0; stroke: #b0b0b0; stroke-width: 0.8"/>
     </g>
     <g id="line2d_34">
      <g>
       <use xlink:href="#ma9caa55bfd" x="90" y="372.471098" style="stroke: #000000; stroke-width: 0.6"/>
      </g>
     </g>
    </g>
    <g id="ytick_9">
     <g id="line2d_35">
      <path d="M 90 347.249242 
L 648 347.249242 
" clip-path="url(#p1c4687567e)" style="fill: none; stroke-dasharray: 2.96,1.28; stroke-dashoffset: 0; stroke: #b0b0b0; stroke-width: 0.8"/>
     </g>
     <g id="line2d_36">
      <g>
       <use xlink:href="#ma9caa55bfd" x="90" y="347.249242" style="stroke: #000000; stroke-width: 0.6"/>
      </g>
     </g>
    </g>
    <g id="ytick_10">
     <g id="line2d_37">
      <path d="M 90 334.442123 
L 648 334.442123 
" clip-path="url(#p1c4687567e)" style="fill: none; stroke-dasharray: 2.96,1.28; stroke-dashoffset: 0; stroke: #b0b0b0; stroke-width: 0.8"/>
     </g>
     <g id="line2d_38">
      <g>
       <use xlink:href="#ma9caa55bfd" x="90" y="334.442123" style="stroke: #000000; stroke-width: 0.6"/>
      </g>
     </g>
    </g>
    <g id="ytick_11">
     <g id="line2d_39">
      <path d="M 90 325.355328 
L 648 325.355328 
" clip-path="url(#p1c4687567e)" style="fill: none; stroke-dasharray: 2.96,1.28; stroke-dashoffset: 0; stroke: #b0b0b0; stroke-width: 0.8"/>
     </g>
     <g id="line2d_40">
      <g>
       <use xlink:href="#ma9caa55bfd" x="90" y="325.355328" style="stroke: #000000; stroke-width: 0.6"/>
      </g>
     </g>
    </g>
    <g id="ytick_12">
     <g id="line2d_41">
      <path d="M 90 318.307062 
L 648 318.307062 
" clip-path="url(#p1c4687567e)" style="fill: none; stroke-dasharray: 2.96,1.28; stroke-dashoffset: 0; stroke: #b0b0b0; stroke-width: 0.8"/>
     </g>
     <g id="line2d_42">
      <g>
       <use xlink:href="#ma9caa55bfd" x="90" y="318.307062" style="stroke: #000000; stroke-width: 0.6"/>
      </g>
     </g>
    </g>
    <g id="ytick_13">
     <g id="line2d_43">
      <path d="M 90 312.54821 
L 648 312.54821 
" clip-path="url(#p1c4687567e)" style="fill: none; stroke-dasharray: 2.96,1.28; stroke-dashoffset: 0; stroke: #b0b0b0; stroke-width: 0.8"/>
     </g>
     <g id="line2d_44">
      <g>
       <use xlink:href="#ma9caa55bfd" x="90" y="312.54821" style="stroke: #000000; stroke-width: 0.6"/>
      </g>
     </g>
    </g>
    <g id="ytick_14">
     <g id="line2d_45">
      <path d="M 90 307.679169 
L 648 307.679169 
" clip-path="url(#p1c4687567e)" style="fill: none; stroke-dasharray: 2.96,1.28; stroke-dashoffset: 0; stroke: #b0b0b0; stroke-width: 0.8"/>
     </g>
     <g id="line2d_46">
      <g>
       <use xlink:href="#ma9caa55bfd" x="90" y="307.679169" style="stroke: #000000; stroke-width: 0.6"/>
      </g>
     </g>
    </g>
    <g id="ytick_15">
     <g id="line2d_47">
      <path d="M 90 303.461415 
L 648 303.461415 
" clip-path="url(#p1c4687567e)" style="fill: none; stroke-dasharray: 2.96,1.28; stroke-dashoffset: 0; stroke: #b0b0b0; stroke-width: 0.8"/>
     </g>
     <g id="line2d_48">
      <g>
       <use xlink:href="#ma9caa55bfd" x="90" y="303.461415" style="stroke: #000000; stroke-width: 0.6"/>
      </g>
     </g>
    </g>
    <g id="ytick_16">
     <g id="line2d_49">
      <path d="M 90 299.741091 
L 648 299.741091 
" clip-path="url(#p1c4687567e)" style="fill: none; stroke-dasharray: 2.96,1.28; stroke-dashoffset: 0; stroke: #b0b0b0; stroke-width: 0.8"/>
     </g>
     <g id="line2d_50">
      <g>
       <use xlink:href="#ma9caa55bfd" x="90" y="299.741091" style="stroke: #000000; stroke-width: 0.6"/>
      </g>
     </g>
    </g>
    <g id="ytick_17">
     <g id="line2d_51">
      <path d="M 90 274.519235 
L 648 274.519235 
" clip-path="url(#p1c4687567e)" style="fill: none; stroke-dasharray: 2.96,1.28; stroke-dashoffset: 0; stroke: #b0b0b0; stroke-width: 0.8"/>
     </g>
     <g id="line2d_52">
      <g>
       <use xlink:href="#ma9caa55bfd" x="90" y="274.519235" style="stroke: #000000; stroke-width: 0.6"/>
      </g>
     </g>
    </g>
    <g id="ytick_18">
     <g id="line2d_53">
      <path d="M 90 261.712117 
L 648 261.712117 
" clip-path="url(#p1c4687567e)" style="fill: none; stroke-dasharray: 2.96,1.28; stroke-dashoffset: 0; stroke: #b0b0b0; stroke-width: 0.8"/>
     </g>
     <g id="line2d_54">
      <g>
       <use xlink:href="#ma9caa55bfd" x="90" y="261.712117" style="stroke: #000000; stroke-width: 0.6"/>
      </g>
     </g>
    </g>
    <g id="ytick_19">
     <g id="line2d_55">
      <path d="M 90 252.625322 
L 648 252.625322 
" clip-path="url(#p1c4687567e)" style="fill: none; stroke-dasharray: 2.96,1.28; stroke-dashoffset: 0; stroke: #b0b0b0; stroke-width: 0.8"/>
     </g>
     <g id="line2d_56">
      <g>
       <use xlink:href="#ma9caa55bfd" x="90" y="252.625322" style="stroke: #000000; stroke-width: 0.6"/>
      </g>
     </g>
    </g>
    <g id="ytick_20">
     <g id="line2d_57">
      <path d="M 90 245.577056 
L 648 245.577056 
" clip-path="url(#p1c4687567e)" style="fill: none; stroke-dasharray: 2.96,1.28; stroke-dashoffset: 0; stroke: #b0b0b0; stroke-width: 0.8"/>
     </g>
     <g id="line2d_58">
      <g>
       <use xlink:href="#ma9caa55bfd" x="90" y="245.577056" style="stroke: #000000; stroke-width: 0.6"/>
      </g>
     </g>
    </g>
    <g id="ytick_21">
     <g id="line2d_59">
      <path d="M 90 239.818203 
L 648 239.818203 
" clip-path="url(#p1c4687567e)" style="fill: none; stroke-dasharray: 2.96,1.28; stroke-dashoffset: 0; stroke: #b0b0b0; stroke-width: 0.8"/>
     </g>
     <g id="line2d_60">
      <g>
       <use xlink:href="#ma9caa55bfd" x="90" y="239.818203" style="stroke: #000000; stroke-width: 0.6"/>
      </g>
     </g>
    </g>
    <g id="ytick_22">
     <g id="line2d_61">
      <path d="M 90 234.949163 
L 648 234.949163 
" clip-path="url(#p1c4687567e)" style="fill: none; stroke-dasharray: 2.96,1.28; stroke-dashoffset: 0; stroke: #b0b0b0; stroke-width: 0.8"/>
     </g>
     <g id="line2d_62">
      <g>
       <use xlink:href="#ma9caa55bfd" x="90" y="234.949163" style="stroke: #000000; stroke-width: 0.6"/>
      </g>
     </g>
    </g>
    <g id="ytick_23">
     <g id="line2d_63">
      <path d="M 90 230.731408 
L 648 230.731408 
" clip-path="url(#p1c4687567e)" style="fill: none; stroke-dasharray: 2.96,1.28; stroke-dashoffset: 0; stroke: #b0b0b0; stroke-width: 0.8"/>
     </g>
     <g id="line2d_64">
      <g>
       <use xlink:href="#ma9caa55bfd" x="90" y="230.731408" style="stroke: #000000; stroke-width: 0.6"/>
      </g>
     </g>
    </g>
    <g id="ytick_24">
     <g id="line2d_65">
      <path d="M 90 227.011085 
L 648 227.011085 
" clip-path="url(#p1c4687567e)" style="fill: none; stroke-dasharray: 2.96,1.28; stroke-dashoffset: 0; stroke: #b0b0b0; stroke-width: 0.8"/>
     </g>
     <g id="line2d_66">
      <g>
       <use xlink:href="#ma9caa55bfd" x="90" y="227.011085" style="stroke: #000000; stroke-width: 0.6"/>
      </g>
     </g>
    </g>
    <g id="ytick_25">
     <g id="line2d_67">
      <path d="M 90 201.789229 
L 648 201.789229 
" clip-path="url(#p1c4687567e)" style="fill: none; stroke-dasharray: 2.96,1.28; stroke-dashoffset: 0; stroke: #b0b0b0; stroke-width: 0.8"/>
     </g>
     <g id="line2d_68">
      <g>
       <use xlink:href="#ma9caa55bfd" x="90" y="201.789229" style="stroke: #000000; stroke-width: 0.6"/>
      </g>
     </g>
    </g>
    <g id="ytick_26">
     <g id="line2d_69">
      <path d="M 90 188.98211 
L 648 188.98211 
" clip-path="url(#p1c4687567e)" style="fill: none; stroke-dasharray: 2.96,1.28; stroke-dashoffset: 0; stroke: #b0b0b0; stroke-width: 0.8"/>
     </g>
     <g id="line2d_70">
      <g>
       <use xlink:href="#ma9caa55bfd" x="90" y="188.98211" style="stroke: #000000; stroke-width: 0.6"/>
      </g>
     </g>
    </g>
    <g id="ytick_27">
     <g id="line2d_71">
      <path d="M 90 179.895315 
L 648 179.895315 
" clip-path="url(#p1c4687567e)" style="fill: none; stroke-dasharray: 2.96,1.28; stroke-dashoffset: 0; stroke: #b0b0b0; stroke-width: 0.8"/>
     </g>
     <g id="line2d_72">
      <g>
       <use xlink:href="#ma9caa55bfd" x="90" y="179.895315" style="stroke: #000000; stroke-width: 0.6"/>
      </g>
     </g>
    </g>
    <g id="ytick_28">
     <g id="line2d_73">
      <path d="M 90 172.847049 
L 648 172.847049 
" clip-path="url(#p1c4687567e)" style="fill: none; stroke-dasharray: 2.96,1.28; stroke-dashoffset: 0; stroke: #b0b0b0; stroke-width: 0.8"/>
     </g>
     <g id="line2d_74">
      <g>
       <use xlink:href="#ma9caa55bfd" x="90" y="172.847049" style="stroke: #000000; stroke-width: 0.6"/>
      </g>
     </g>
    </g>
    <g id="ytick_29">
     <g id="line2d_75">
      <path d="M 90 167.088196 
L 648 167.088196 
" clip-path="url(#p1c4687567e)" style="fill: none; stroke-dasharray: 2.96,1.28; stroke-dashoffset: 0; stroke: #b0b0b0; stroke-width: 0.8"/>
     </g>
     <g id="line2d_76">
      <g>
       <use xlink:href="#ma9caa55bfd" x="90" y="167.088196" style="stroke: #000000; stroke-width: 0.6"/>
      </g>
     </g>
    </g>
    <g id="ytick_30">
     <g id="line2d_77">
      <path d="M 90 162.219156 
L 648 162.219156 
" clip-path="url(#p1c4687567e)" style="fill: none; stroke-dasharray: 2.96,1.28; stroke-dashoffset: 0; stroke: #b0b0b0; stroke-width: 0.8"/>
     </g>
     <g id="line2d_78">
      <g>
       <use xlink:href="#ma9caa55bfd" x="90" y="162.219156" style="stroke: #000000; stroke-width: 0.6"/>
      </g>
     </g>
    </g>
    <g id="ytick_31">
     <g id="line2d_79">
      <path d="M 90 158.001401 
L 648 158.001401 
" clip-path="url(#p1c4687567e)" style="fill: none; stroke-dasharray: 2.96,1.28; stroke-dashoffset: 0; stroke: #b0b0b0; stroke-width: 0.8"/>
     </g>
     <g id="line2d_80">
      <g>
       <use xlink:href="#ma9caa55bfd" x="90" y="158.001401" style="stroke: #000000; stroke-width: 0.6"/>
      </g>
     </g>
    </g>
    <g id="ytick_32">
     <g id="line2d_81">
      <path d="M 90 154.281078 
L 648 154.281078 
" clip-path="url(#p1c4687567e)" style="fill: none; stroke-dasharray: 2.96,1.28; stroke-dashoffset: 0; stroke: #b0b0b0; stroke-width: 0.8"/>
     </g>
     <g id="line2d_82">
      <g>
       <use xlink:href="#ma9caa55bfd" x="90" y="154.281078" style="stroke: #000000; stroke-width: 0.6"/>
      </g>
     </g>
    </g>
    <g id="ytick_33">
     <g id="line2d_83">
      <path d="M 90 129.059222 
L 648 129.059222 
" clip-path="url(#p1c4687567e)" style="fill: none; stroke-dasharray: 2.96,1.28; stroke-dashoffset: 0; stroke: #b0b0b0; stroke-width: 0.8"/>
     </g>
     <g id="line2d_84">
      <g>
       <use xlink:href="#ma9caa55bfd" x="90" y="129.059222" style="stroke: #000000; stroke-width: 0.6"/>
      </g>
     </g>
    </g>
    <g id="ytick_34">
     <g id="line2d_85">
      <path d="M 90 116.252103 
L 648 116.252103 
" clip-path="url(#p1c4687567e)" style="fill: none; stroke-dasharray: 2.96,1.28; stroke-dashoffset: 0; stroke: #b0b0b0; stroke-width: 0.8"/>
     </g>
     <g id="line2d_86">
      <g>
       <use xlink:href="#ma9caa55bfd" x="90" y="116.252103" style="stroke: #000000; stroke-width: 0.6"/>
      </g>
     </g>
    </g>
    <g id="ytick_35">
     <g id="line2d_87">
      <path d="M 90 107.165308 
L 648 107.165308 
" clip-path="url(#p1c4687567e)" style="fill: none; stroke-dasharray: 2.96,1.28; stroke-dashoffset: 0; stroke: #b0b0b0; stroke-width: 0.8"/>
     </g>
     <g id="line2d_88">
      <g>
       <use xlink:href="#ma9caa55bfd" x="90" y="107.165308" style="stroke: #000000; stroke-width: 0.6"/>
      </g>
     </g>
    </g>
    <g id="ytick_36">
     <g id="line2d_89">
      <path d="M 90 100.117042 
L 648 100.117042 
" clip-path="url(#p1c4687567e)" style="fill: none; stroke-dasharray: 2.96,1.28; stroke-dashoffset: 0; stroke: #b0b0b0; stroke-width: 0.8"/>
     </g>
     <g id="line2d_90">
      <g>
       <use xlink:href="#ma9caa55bfd" x="90" y="100.117042" style="stroke: #000000; stroke-width: 0.6"/>
      </g>
     </g>
    </g>
    <g id="ytick_37">
     <g id="line2d_91">
      <path d="M 90 94.35819 
L 648 94.35819 
" clip-path="url(#p1c4687567e)" style="fill: none; stroke-dasharray: 2.96,1.28; stroke-dashoffset: 0; stroke: #b0b0b0; stroke-width: 0.8"/>
     </g>
     <g id="line2d_92">
      <g>
       <use xlink:href="#ma9caa55bfd" x="90" y="94.35819" style="stroke: #000000; stroke-width: 0.6"/>
      </g>
     </g>
    </g>
    <g id="ytick_38">
     <g id="line2d_93">
      <path d="M 90 89.489149 
L 648 89.489149 
" clip-path="url(#p1c4687567e)" style="fill: none; stroke-dasharray: 2.96,1.28; stroke-dashoffset: 0; stroke: #b0b0b0; stroke-width: 0.8"/>
     </g>
     <g id="line2d_94">
      <g>
       <use xlink:href="#ma9caa55bfd" x="90" y="89.489149" style="stroke: #000000; stroke-width: 0.6"/>
      </g>
     </g>
    </g>
    <g id="ytick_39">
     <g id="line2d_95">
      <path d="M 90 85.271395 
L 648 85.271395 
" clip-path="url(#p1c4687567e)" style="fill: none; stroke-dasharray: 2.96,1.28; stroke-dashoffset: 0; stroke: #b0b0b0; stroke-width: 0.8"/>
     </g>
     <g id="line2d_96">
      <g>
       <use xlink:href="#ma9caa55bfd" x="90" y="85.271395" style="stroke: #000000; stroke-width: 0.6"/>
      </g>
     </g>
    </g>
    <g id="ytick_40">
     <g id="line2d_97">
      <path d="M 90 81.551071 
L 648 81.551071 
" clip-path="url(#p1c4687567e)" style="fill: none; stroke-dasharray: 2.96,1.28; stroke-dashoffset: 0; stroke: #b0b0b0; stroke-width: 0.8"/>
     </g>
     <g id="line2d_98">
      <g>
       <use xlink:href="#ma9caa55bfd" x="90" y="81.551071" style="stroke: #000000; stroke-width: 0.6"/>
      </g>
     </g>
    </g>
    <g id="ytick_41">
     <g id="line2d_99">
      <path d="M 90 56.329215 
L 648 56.329215 
" clip-path="url(#p1c4687567e)" style="fill: none; stroke-dasharray: 2.96,1.28; stroke-dashoffset: 0; stroke: #b0b0b0; stroke-width: 0.8"/>
     </g>
     <g id="line2d_100">
      <g>
       <use xlink:href="#ma9caa55bfd" x="90" y="56.329215" style="stroke: #000000; stroke-width: 0.6"/>
      </g>
     </g>
    </g>
    <g id="text_16">
     <!-- Huber Loss (Normalized) -->
     <g transform="translate(53.420312 279.7975) rotate(-90) scale(0.1 -0.1)">
      <defs>
       <path id="DejaVuSans-48" d="M 628 4666 
L 1259 4666 
L 1259 2753 
L 3553 2753 
L 3553 4666 
L 4184 4666 
L 4184 0 
L 3553 0 
L 3553 2222 
L 1259 2222 
L 1259 0 
L 628 0 
L 628 4666 
z
" transform="scale(0.015625)"/>
       <path id="DejaVuSans-75" d="M 544 1381 
L 544 3500 
L 1119 3500 
L 1119 1403 
Q 1119 906 1312 657 
Q 1506 409 1894 409 
Q 2359 409 2629 706 
Q 2900 1003 2900 1516 
L 2900 3500 
L 3475 3500 
L 3475 0 
L 2900 0 
L 2900 538 
Q 2691 219 2414 64 
Q 2138 -91 1772 -91 
Q 1169 -91 856 284 
Q 544 659 544 1381 
z
M 1991 3584 
L 1991 3584 
z
" transform="scale(0.015625)"/>
       <path id="DejaVuSans-62" d="M 3116 1747 
Q 3116 2381 2855 2742 
Q 2594 3103 2138 3103 
Q 1681 3103 1420 2742 
Q 1159 2381 1159 1747 
Q 1159 1113 1420 752 
Q 1681 391 2138 391 
Q 2594 391 2855 752 
Q 3116 1113 3116 1747 
z
M 1159 2969 
Q 1341 3281 1617 3432 
Q 1894 3584 2278 3584 
Q 2916 3584 3314 3078 
Q 3713 2572 3713 1747 
Q 3713 922 3314 415 
Q 2916 -91 2278 -91 
Q 1894 -91 1617 61 
Q 1341 213 1159 525 
L 1159 0 
L 581 0 
L 581 4863 
L 1159 4863 
L 1159 2969 
z
" transform="scale(0.015625)"/>
       <path id="DejaVuSans-65" d="M 3597 1894 
L 3597 1613 
L 953 1613 
Q 991 1019 1311 708 
Q 1631 397 2203 397 
Q 2534 397 2845 478 
Q 3156 559 3463 722 
L 3463 178 
Q 3153 47 2828 -22 
Q 2503 -91 2169 -91 
Q 1331 -91 842 396 
Q 353 884 353 1716 
Q 353 2575 817 3079 
Q 1281 3584 2069 3584 
Q 2775 3584 3186 3129 
Q 3597 2675 3597 1894 
z
M 3022 2063 
Q 3016 2534 2758 2815 
Q 2500 3097 2075 3097 
Q 1594 3097 1305 2825 
Q 1016 2553 972 2059 
L 3022 2063 
z
" transform="scale(0.015625)"/>
       <path id="DejaVuSans-72" d="M 2631 2963 
Q 2534 3019 2420 3045 
Q 2306 3072 2169 3072 
Q 1681 3072 1420 2755 
Q 1159 2438 1159 1844 
L 1159 0 
L 581 0 
L 581 3500 
L 1159 3500 
L 1159 2956 
Q 1341 3275 1631 3429 
Q 1922 3584 2338 3584 
Q 2397 3584 2469 3576 
Q 2541 3569 2628 3553 
L 2631 2963 
z
" transform="scale(0.015625)"/>
       <path id="DejaVuSans-20" transform="scale(0.015625)"/>
       <path id="DejaVuSans-4c" d="M 628 4666 
L 1259 4666 
L 1259 531 
L 3531 531 
L 3531 0 
L 628 0 
L 628 4666 
z
" transform="scale(0.015625)"/>
       <path id="DejaVuSans-73" d="M 2834 3397 
L 2834 2853 
Q 2591 2978 2328 3040 
Q 2066 3103 1784 3103 
Q 1356 3103 1142 2972 
Q 928 2841 928 2578 
Q 928 2378 1081 2264 
Q 1234 2150 1697 2047 
L 1894 2003 
Q 2506 1872 2764 1633 
Q 3022 1394 3022 966 
Q 3022 478 2636 193 
Q 2250 -91 1575 -91 
Q 1294 -91 989 -36 
Q 684 19 347 128 
L 347 722 
Q 666 556 975 473 
Q 1284 391 1588 391 
Q 1994 391 2212 530 
Q 2431 669 2431 922 
Q 2431 1156 2273 1281 
Q 2116 1406 1581 1522 
L 1381 1569 
Q 847 1681 609 1914 
Q 372 2147 372 2553 
Q 372 3047 722 3315 
Q 1072 3584 1716 3584 
Q 2034 3584 2315 3537 
Q 2597 3491 2834 3397 
z
" transform="scale(0.015625)"/>
       <path id="DejaVuSans-28" d="M 1984 4856 
Q 1566 4138 1362 3434 
Q 1159 2731 1159 2009 
Q 1159 1288 1364 580 
Q 1569 -128 1984 -844 
L 1484 -844 
Q 1016 -109 783 600 
Q 550 1309 550 2009 
Q 550 2706 781 3412 
Q 1013 4119 1484 4856 
L 1984 4856 
z
" transform="scale(0.015625)"/>
       <path id="DejaVuSans-4e" d="M 628 4666 
L 1478 4666 
L 3547 763 
L 3547 4666 
L 4159 4666 
L 4159 0 
L 3309 0 
L 1241 3903 
L 1241 0 
L 628 0 
L 628 4666 
z
" transform="scale(0.015625)"/>
       <path id="DejaVuSans-6d" d="M 3328 2828 
Q 3544 3216 3844 3400 
Q 4144 3584 4550 3584 
Q 5097 3584 5394 3201 
Q 5691 2819 5691 2113 
L 5691 0 
L 5113 0 
L 5113 2094 
Q 5113 2597 4934 2840 
Q 4756 3084 4391 3084 
Q 3944 3084 3684 2787 
Q 3425 2491 3425 1978 
L 3425 0 
L 2847 0 
L 2847 2094 
Q 2847 2600 2669 2842 
Q 2491 3084 2119 3084 
Q 1678 3084 1418 2786 
Q 1159 2488 1159 1978 
L 1159 0 
L 581 0 
L 581 3500 
L 1159 3500 
L 1159 2956 
Q 1356 3278 1631 3431 
Q 1906 3584 2284 3584 
Q 2666 3584 2933 3390 
Q 3200 3197 3328 2828 
z
" transform="scale(0.015625)"/>
       <path id="DejaVuSans-61" d="M 2194 1759 
Q 1497 1759 1228 1600 
Q 959 1441 959 1056 
Q 959 750 1161 570 
Q 1363 391 1709 391 
Q 2188 391 2477 730 
Q 2766 1069 2766 1631 
L 2766 1759 
L 2194 1759 
z
M 3341 1997 
L 3341 0 
L 2766 0 
L 2766 531 
Q 2569 213 2275 61 
Q 1981 -91 1556 -91 
Q 1019 -91 701 211 
Q 384 513 384 1019 
Q 384 1609 779 1909 
Q 1175 2209 1959 2209 
L 2766 2209 
L 2766 2266 
Q 2766 2663 2505 2880 
Q 2244 3097 1772 3097 
Q 1472 3097 1187 3025 
Q 903 2953 641 2809 
L 641 3341 
Q 956 3463 1253 3523 
Q 1550 3584 1831 3584 
Q 2591 3584 2966 3190 
Q 3341 2797 3341 1997 
z
" transform="scale(0.015625)"/>
       <path id="DejaVuSans-6c" d="M 603 4863 
L 1178 4863 
L 1178 0 
L 603 0 
L 603 4863 
z
" transform="scale(0.015625)"/>
       <path id="DejaVuSans-69" d="M 603 3500 
L 1178 3500 
L 1178 0 
L 603 0 
L 603 3500 
z
M 603 4863 
L 1178 4863 
L 1178 4134 
L 603 4134 
L 603 4863 
z
" transform="scale(0.015625)"/>
       <path id="DejaVuSans-7a" d="M 353 3500 
L 3084 3500 
L 3084 2975 
L 922 459 
L 3084 459 
L 3084 0 
L 275 0 
L 275 525 
L 2438 3041 
L 353 3041 
L 353 3500 
z
" transform="scale(0.015625)"/>
       <path id="DejaVuSans-64" d="M 2906 2969 
L 2906 4863 
L 3481 4863 
L 3481 0 
L 2906 0 
L 2906 525 
Q 2725 213 2448 61 
Q 2172 -91 1784 -91 
Q 1150 -91 751 415 
Q 353 922 353 1747 
Q 353 2572 751 3078 
Q 1150 3584 1784 3584 
Q 2172 3584 2448 3432 
Q 2725 3281 2906 2969 
z
M 947 1747 
Q 947 1113 1208 752 
Q 1469 391 1925 391 
Q 2381 391 2643 752 
Q 2906 1113 2906 1747 
Q 2906 2381 2643 2742 
Q 2381 3103 1925 3103 
Q 1469 3103 1208 2742 
Q 947 2381 947 1747 
z
" transform="scale(0.015625)"/>
       <path id="DejaVuSans-29" d="M 513 4856 
L 1013 4856 
Q 1481 4119 1714 3412 
Q 1947 2706 1947 2009 
Q 1947 1309 1714 600 
Q 1481 -109 1013 -844 
L 513 -844 
Q 928 -128 1133 580 
Q 1338 1288 1338 2009 
Q 1338 2731 1133 3434 
Q 928 4138 513 4856 
z
" transform="scale(0.015625)"/>
      </defs>
      <use xlink:href="#DejaVuSans-48"/>
      <use xlink:href="#DejaVuSans-75" transform="translate(75.195312 0)"/>
      <use xlink:href="#DejaVuSans-62" transform="translate(138.574219 0)"/>
      <use xlink:href="#DejaVuSans-65" transform="translate(202.050781 0)"/>
      <use xlink:href="#DejaVuSans-72" transform="translate(263.574219 0)"/>
      <use xlink:href="#DejaVuSans-20" transform="translate(304.6875 0)"/>
      <use xlink:href="#DejaVuSans-4c" transform="translate(336.474609 0)"/>
      <use xlink:href="#DejaVuSans-6f" transform="translate(390.4375 0)"/>
      <use xlink:href="#DejaVuSans-73" transform="translate(451.619141 0)"/>
      <use xlink:href="#DejaVuSans-73" transform="translate(503.71875 0)"/>
      <use xlink:href="#DejaVuSans-20" transform="translate(555.818359 0)"/>
      <use xlink:href="#DejaVuSans-28" transform="translate(587.605469 0)"/>
      <use xlink:href="#DejaVuSans-4e" transform="translate(626.619141 0)"/>
      <use xlink:href="#DejaVuSans-6f" transform="translate(701.423828 0)"/>
      <use xlink:href="#DejaVuSans-72" transform="translate(762.605469 0)"/>
      <use xlink:href="#DejaVuSans-6d" transform="translate(801.96875 0)"/>
      <use xlink:href="#DejaVuSans-61" transform="translate(899.380859 0)"/>
      <use xlink:href="#DejaVuSans-6c" transform="translate(960.660156 0)"/>
      <use xlink:href="#DejaVuSans-69" transform="translate(988.443359 0)"/>
      <use xlink:href="#DejaVuSans-7a" transform="translate(1016.226562 0)"/>
      <use xlink:href="#DejaVuSans-65" transform="translate(1068.716797 0)"/>
      <use xlink:href="#DejaVuSans-64" transform="translate(1130.240234 0)"/>
      <use xlink:href="#DejaVuSans-29" transform="translate(1193.716797 0)"/>
     </g>
    </g>
   </g>
   <g id="line2d_101">
    <path d="M 115.363636 66.96 
L 116.631818 152.389587 
L 117.9 181.10606 
L 119.168182 195.529644 
L 120.436364 207.931226 
L 121.704545 215.274319 
L 122.972727 225.577775 
L 125.509091 243.023364 
L 126.777273 247.31648 
L 128.045455 248.487249 
L 130.581818 256.936565 
L 131.85 256.727518 
L 133.118182 262.902512 
L 134.386364 267.46061 
L 135.654545 264.872686 
L 136.922727 266.532501 
L 138.190909 264.802247 
L 139.459091 269.739496 
L 140.727273 269.108724 
L 141.995455 265.986297 
L 143.263636 264.350604 
L 144.531818 260.512246 
L 145.8 253.375892 
L 147.068182 265.839812 
L 148.336364 271.170545 
L 149.604545 252.625116 
L 150.872727 263.497269 
L 152.140909 270.761885 
L 153.409091 276.593465 
L 154.677273 277.895342 
L 157.213636 283.514313 
L 158.481818 270.275997 
L 159.75 276.541602 
L 161.018182 269.123834 
L 163.554545 248.98476 
L 164.822727 273.377068 
L 166.090909 289.276251 
L 167.359091 279.4214 
L 168.627273 266.335669 
L 169.895455 261.174289 
L 171.163636 265.078099 
L 172.431818 276.465049 
L 173.7 286.249296 
L 174.968182 283.11135 
L 176.236364 285.867987 
L 177.504545 289.058157 
L 178.772727 268.235101 
L 180.040909 275.716984 
L 181.309091 262.061483 
L 182.577273 267.239312 
L 183.845455 275.565719 
L 185.113636 296.440492 
L 186.381818 298.064326 
L 187.65 273.251899 
L 188.918182 269.277989 
L 190.186364 273.698013 
L 191.454545 280.219934 
L 192.722727 292.667187 
L 193.990909 284.986087 
L 195.259091 264.031352 
L 196.527273 273.798843 
L 197.795455 282.222861 
L 199.063636 294.271615 
L 200.331818 302.659466 
L 201.6 305.379833 
L 202.868182 304.868834 
L 204.136364 303.65507 
L 205.404545 280.805276 
L 206.672727 277.961787 
L 207.940909 295.592675 
L 209.209091 284.516517 
L 210.477273 261.71979 
L 211.745455 283.392981 
L 213.013636 282.873654 
L 214.281818 284.240039 
L 215.55 269.456243 
L 216.818182 271.406223 
L 218.086364 292.968443 
L 219.354545 301.43432 
L 220.622727 275.631478 
L 221.890909 294.287695 
L 223.159091 304.446751 
L 224.427273 305.070824 
L 225.695455 271.745939 
L 226.963636 261.372583 
L 228.231818 271.905243 
L 229.5 255.524869 
L 230.768182 241.891715 
L 232.036364 264.568218 
L 233.304545 290.888632 
L 234.572727 308.628621 
L 235.840909 314.943627 
L 237.109091 317.844812 
L 238.377273 311.384802 
L 239.645455 317.383444 
L 240.913636 294.442223 
L 242.181818 293.23141 
L 243.45 289.853135 
L 244.718182 282.846863 
L 245.986364 242.654796 
L 247.254545 229.441413 
L 248.522727 266.100133 
L 249.790909 278.186547 
L 251.059091 286.428576 
L 252.327273 289.71485 
L 253.595455 303.426992 
L 254.863636 305.480169 
L 256.131818 310.8688 
L 257.4 320.068384 
L 258.668182 320.458309 
L 259.936364 311.62611 
L 261.204545 273.774517 
L 262.472727 301.57319 
L 263.740909 299.407571 
L 265.009091 305.68183 
L 266.277273 249.614561 
L 267.545455 272.864245 
L 268.813636 290.410735 
L 270.081818 311.924184 
L 271.35 317.512103 
L 272.618182 321.496013 
L 273.886364 313.445314 
L 275.154545 322.369958 
L 276.422727 321.107869 
L 277.690909 295.120144 
L 278.959091 278.539708 
L 280.227273 282.121396 
L 281.495455 284.332974 
L 282.763636 276.445916 
L 285.3 279.072518 
L 286.568182 283.764036 
L 287.836364 290.113569 
L 289.104545 301.255135 
L 290.372727 284.468844 
L 291.640909 309.956217 
L 292.909091 308.107681 
L 294.177273 305.253128 
L 295.445455 299.208439 
L 296.713636 289.499647 
L 297.981818 312.890525 
L 299.25 298.076883 
L 300.518182 223.847287 
L 301.786364 241.94628 
L 303.054545 289.40149 
L 304.322727 301.075753 
L 305.590909 319.874978 
L 306.859091 319.423806 
L 309.395455 330.852756 
L 310.663636 337.354013 
L 311.931818 337.243867 
L 313.2 335.11288 
L 314.468182 328.436025 
L 315.736364 329.355368 
L 317.004545 328.245895 
L 318.272727 324.704673 
L 319.540909 326.833608 
L 320.809091 322.384291 
L 322.077273 321.628082 
L 323.345455 311.415868 
L 325.881818 327.635838 
L 327.15 299.913171 
L 328.418182 261.911116 
L 329.686364 268.054818 
L 330.954545 248.448528 
L 332.222727 255.019715 
L 333.490909 247.977631 
L 334.759091 269.663707 
L 336.027273 270.261396 
L 337.295455 296.683852 
L 338.563636 316.570908 
L 339.831818 328.414345 
L 341.1 337.724185 
L 342.368182 338.919368 
L 343.636364 337.328672 
L 344.904545 314.641412 
L 346.172727 338.87448 
L 347.440909 336.454869 
L 348.709091 330.596157 
L 349.977273 333.967297 
L 351.245455 321.869071 
L 352.513636 327.753818 
L 353.781818 323.351584 
L 355.05 316.119036 
L 356.318182 315.734962 
L 357.586364 323.773355 
L 360.122727 304.71997 
L 361.390909 320.700928 
L 362.659091 277.290993 
L 363.927273 264.2769 
L 365.195455 296.376141 
L 366.463636 311.074411 
L 367.731818 323.403406 
L 369 329.164838 
L 370.268182 308.320049 
L 371.536364 305.396656 
L 372.804545 317.270574 
L 374.072727 316.197755 
L 375.340909 316.376052 
L 376.609091 295.805913 
L 377.877273 288.8219 
L 379.145455 288.747514 
L 380.413636 299.968512 
L 381.681818 306.097728 
L 382.95 295.819682 
L 384.218182 289.157382 
L 385.486364 283.723582 
L 386.754545 255.0217 
L 388.022727 255.512937 
L 390.559091 313.856037 
L 391.827273 299.995454 
L 393.095455 309.135927 
L 394.363636 332.195178 
L 395.631818 349.619844 
L 396.9 355.956641 
L 398.168182 352.614823 
L 399.436364 352.897722 
L 400.704545 348.726206 
L 401.972727 325.850779 
L 403.240909 323.349519 
L 404.509091 306.092677 
L 405.777273 305.774925 
L 407.045455 315.490562 
L 408.313636 330.495476 
L 409.581818 319.98568 
L 410.85 319.684008 
L 412.118182 319.577682 
L 413.386364 319.008652 
L 414.654545 327.497494 
L 415.922727 317.766523 
L 417.190909 302.130339 
L 418.459091 254.458928 
L 419.727273 268.546528 
L 420.995455 277.888459 
L 422.263636 290.702229 
L 423.531818 290.997958 
L 424.8 297.661388 
L 426.068182 306.581847 
L 427.336364 325.306031 
L 428.604545 309.598319 
L 429.872727 307.098216 
L 431.140909 309.408594 
L 432.409091 317.75552 
L 433.677273 311.17004 
L 434.945455 298.644365 
L 436.213636 315.216376 
L 437.481818 320.707836 
L 438.75 335.602051 
L 440.018182 333.688037 
L 441.286364 324.918505 
L 442.554545 311.880235 
L 443.822727 311.152855 
L 445.090909 315.457561 
L 446.359091 326.861068 
L 447.627273 324.641825 
L 448.895455 327.015397 
L 450.163636 339.493597 
L 451.431818 318.527593 
L 452.7 288.966878 
L 453.968182 289.438864 
L 455.236364 291.830898 
L 456.504545 307.750796 
L 457.772727 310.336517 
L 459.040909 329.639466 
L 460.309091 328.819619 
L 461.577273 318.592701 
L 462.845455 320.577287 
L 464.113636 314.534449 
L 465.381818 311.573059 
L 466.65 291.336448 
L 467.918182 295.234644 
L 469.186364 305.163345 
L 471.722727 277.11444 
L 472.990909 299.004464 
L 474.259091 309.18308 
L 475.527273 328.397462 
L 476.795455 331.936621 
L 478.063636 289.15784 
L 479.331818 275.561065 
L 480.6 289.655206 
L 481.868182 302.298717 
L 483.136364 304.215852 
L 485.672727 340.122759 
L 486.940909 344.784164 
L 488.209091 340.059463 
L 489.477273 340.483466 
L 490.745455 340.602596 
L 492.013636 344.117359 
L 493.281818 335.817977 
L 494.55 320.944173 
L 495.818182 299.628241 
L 497.086364 310.217883 
L 498.354545 322.882632 
L 499.622727 339.977338 
L 500.890909 339.064253 
L 502.159091 337.478838 
L 503.427273 303.073632 
L 504.695455 315.610277 
L 505.963636 309.38155 
L 507.231818 300.25842 
L 508.5 301.223539 
L 509.768182 321.067498 
L 511.036364 336.611532 
L 512.304545 338.075054 
L 513.572727 332.095163 
L 514.840909 341.161851 
L 516.109091 330.735592 
L 517.377273 307.774201 
L 518.645455 307.516805 
L 519.913636 334.62361 
L 521.181818 312.063316 
L 522.45 319.384197 
L 523.718182 315.47603 
L 524.986364 314.868385 
L 526.254545 315.815571 
L 527.522727 309.087199 
L 528.790909 284.56235 
L 530.059091 297.864482 
L 531.327273 319.656228 
L 532.595455 320.296199 
L 533.863636 336.721411 
L 535.131818 348.787751 
L 536.4 339.236133 
L 537.668182 352.34991 
L 538.936364 357.907353 
L 540.204545 356.807815 
L 541.472727 350.005992 
L 542.740909 346.71924 
L 544.009091 345.544261 
L 545.277273 342.742541 
L 546.545455 346.639707 
L 547.813636 346.065905 
L 549.081818 327.701518 
L 550.35 326.504714 
L 551.618182 323.696076 
L 552.886364 331.703819 
L 554.154545 317.348868 
L 555.422727 300.304124 
L 556.690909 295.249732 
L 557.959091 314.330986 
L 559.227273 307.21051 
L 560.495455 303.556722 
L 561.763636 322.279328 
L 563.031818 331.309313 
L 564.3 327.550229 
L 565.568182 340.882223 
L 566.836364 317.622226 
L 568.104545 286.144998 
L 569.372727 317.540569 
L 570.640909 342.806649 
L 571.909091 332.430882 
L 573.177273 333.107491 
L 574.445455 335.212206 
L 575.713636 332.012055 
L 576.981818 342.646447 
L 578.25 357.593209 
L 579.518182 341.718585 
L 580.786364 331.931104 
L 583.322727 265.471174 
L 584.590909 270.847475 
L 585.859091 274.933521 
L 587.127273 292.380472 
L 588.395455 317.918215 
L 589.663636 332.365608 
L 590.931818 340.298256 
L 592.2 360.623866 
L 593.468182 369.36 
L 594.736364 362.925866 
L 596.004545 369.128341 
L 597.272727 364.373621 
L 598.540909 363.403774 
L 599.809091 360.449758 
L 601.077273 354.09586 
L 602.345455 344.11091 
L 603.613636 342.316256 
L 604.881818 348.923261 
L 606.15 361.738594 
L 607.418182 355.012546 
L 608.686364 332.483267 
L 609.954545 334.834692 
L 611.222727 338.383345 
L 612.490909 342.685661 
L 613.759091 337.190009 
L 615.027273 337.084698 
L 616.295455 350.543098 
L 617.563636 355.875697 
L 618.831818 340.607312 
L 620.1 339.241909 
L 621.368182 352.390061 
L 622.636364 334.026041 
L 622.636364 334.026041 
" clip-path="url(#p1c4687567e)" style="fill: none; stroke: #0000ff; stroke-width: 1.5; stroke-linecap: square"/>
   </g>
   <g id="line2d_102">
    <path d="M 115.363636 130.583455 
L 116.631818 172.441442 
L 117.9 188.539819 
L 119.168182 198.690431 
L 120.436364 206.907636 
L 121.704545 223.335382 
L 122.972727 224.404433 
L 124.240909 237.526061 
L 125.509091 244.973557 
L 126.777273 243.306759 
L 128.045455 252.034105 
L 129.313636 256.324471 
L 130.581818 255.384768 
L 131.85 258.964507 
L 133.118182 265.274727 
L 134.386364 268.211296 
L 135.654545 259.586901 
L 136.922727 260.273192 
L 138.190909 261.51561 
L 139.459091 266.963752 
L 140.727273 270.483351 
L 141.995455 269.154684 
L 143.263636 261.841139 
L 144.531818 263.132451 
L 145.8 257.422356 
L 147.068182 262.424872 
L 148.336364 264.220834 
L 149.604545 253.583564 
L 150.872727 260.978575 
L 152.140909 263.859225 
L 153.409091 283.54607 
L 154.677273 274.351616 
L 155.945455 280.159851 
L 157.213636 268.76992 
L 158.481818 279.00275 
L 159.75 254.536111 
L 161.018182 257.373079 
L 162.286364 230.065123 
L 163.554545 269.4171 
L 164.822727 270.577014 
L 166.090909 283.053983 
L 167.359091 272.969331 
L 168.627273 271.79905 
L 169.895455 244.347168 
L 171.163636 273.116151 
L 172.431818 283.513789 
L 173.7 280.893828 
L 174.968182 279.425922 
L 176.236364 277.161208 
L 177.504545 263.246284 
L 178.772727 276.361314 
L 180.040909 251.741487 
L 181.309091 249.79164 
L 182.577273 280.71995 
L 183.845455 283.838469 
L 185.113636 296.778186 
L 187.65 248.359205 
L 188.918182 280.161676 
L 190.186364 276.02438 
L 191.454545 289.855531 
L 192.722727 284.27171 
L 193.990909 271.413439 
L 195.259091 277.376275 
L 196.527273 271.167101 
L 197.795455 274.90178 
L 199.063636 286.250684 
L 200.331818 298.832077 
L 201.6 299.248016 
L 202.868182 295.768795 
L 204.136364 296.374838 
L 205.404545 271.211943 
L 206.672727 292.399543 
L 207.940909 291.796498 
L 209.209091 274.664874 
L 210.477273 278.868485 
L 211.745455 285.908133 
L 213.013636 280.078838 
L 214.281818 278.551197 
L 215.55 261.599668 
L 216.818182 284.436434 
L 218.086364 300.710846 
L 219.354545 276.703381 
L 220.622727 279.012221 
L 221.890909 301.755885 
L 223.159091 307.864011 
L 224.427273 299.609805 
L 225.695455 234.599707 
L 226.963636 273.387228 
L 228.231818 267.727006 
L 229.5 254.494613 
L 230.768182 252.489535 
L 232.036364 275.801593 
L 233.304545 289.173256 
L 234.572727 311.324121 
L 235.840909 315.907204 
L 237.109091 304.644482 
L 238.377273 307.512468 
L 239.645455 289.813795 
L 240.913636 302.693537 
L 242.181818 290.353813 
L 243.45 290.795954 
L 244.718182 273.039493 
L 245.986364 215.159801 
L 247.254545 248.003215 
L 248.522727 274.114302 
L 249.790909 276.361252 
L 251.059091 277.108786 
L 252.327273 297.727877 
L 253.595455 307.702616 
L 254.863636 293.376458 
L 256.131818 310.397534 
L 257.4 304.385623 
L 258.668182 318.193152 
L 259.936364 285.710771 
L 261.204545 278.28771 
L 262.472727 311.470092 
L 263.740909 308.716502 
L 265.009091 293.261415 
L 266.277273 244.935679 
L 267.545455 287.343525 
L 268.813636 302.267599 
L 270.081818 305.418352 
L 271.35 320.817697 
L 272.618182 306.576467 
L 273.886364 312.50195 
L 275.154545 314.714996 
L 276.422727 307.67348 
L 277.690909 299.045699 
L 278.959091 254.940513 
L 280.227273 288.548676 
L 281.495455 262.973875 
L 282.763636 254.266045 
L 284.031818 275.356631 
L 285.3 274.028805 
L 286.568182 284.972164 
L 287.836364 290.913989 
L 289.104545 295.554606 
L 290.372727 291.895892 
L 291.640909 315.44552 
L 292.909091 307.381172 
L 294.177273 274.876191 
L 295.445455 290.156099 
L 296.713636 297.648303 
L 297.981818 293.238111 
L 299.25 268.214736 
L 300.518182 221.429551 
L 301.786364 277.913792 
L 303.054545 296.024558 
L 304.322727 303.171106 
L 305.590909 325.026459 
L 306.859091 311.353809 
L 308.127273 315.983305 
L 309.395455 327.152499 
L 310.663636 332.549168 
L 311.931818 325.627099 
L 313.2 319.398388 
L 314.468182 313.764559 
L 315.736364 332.131761 
L 317.004545 309.619986 
L 318.272727 324.824895 
L 319.540909 316.742594 
L 320.809091 307.70814 
L 322.077273 318.446634 
L 323.345455 294.266019 
L 324.613636 324.784424 
L 325.881818 293.367409 
L 327.15 248.591324 
L 328.418182 258.719214 
L 329.686364 266.535119 
L 330.954545 244.744211 
L 332.222727 230.093977 
L 333.490909 258.496378 
L 334.759091 247.405435 
L 336.027273 279.752306 
L 337.295455 305.846891 
L 338.563636 313.708843 
L 339.831818 323.349111 
L 341.1 335.695329 
L 342.368182 332.599481 
L 343.636364 299.924017 
L 344.904545 325.301541 
L 346.172727 331.634007 
L 347.440909 323.190537 
L 348.709091 334.953781 
L 349.977273 306.051864 
L 351.245455 314.997869 
L 352.513636 311.650764 
L 353.781818 317.256531 
L 355.05 302.333588 
L 356.318182 320.488102 
L 357.586364 320.17264 
L 358.854545 312.780151 
L 360.122727 311.076474 
L 361.390909 288.671749 
L 362.659091 238.282728 
L 363.927273 278.105244 
L 365.195455 309.400889 
L 366.463636 316.52013 
L 367.731818 333.427027 
L 369 324.35914 
L 370.268182 300.583871 
L 371.536364 310.104802 
L 372.804545 304.959367 
L 374.072727 328.122703 
L 375.340909 310.162287 
L 376.609091 301.793431 
L 377.877273 279.239982 
L 379.145455 298.649172 
L 380.413636 298.274765 
L 381.681818 293.107519 
L 382.95 293.734439 
L 384.218182 279.572061 
L 385.486364 247.37686 
L 386.754545 240.128486 
L 389.290909 296.126137 
L 390.559091 313.224124 
L 391.827273 300.72771 
L 393.095455 312.774995 
L 394.363636 336.605143 
L 395.631818 340.699489 
L 396.9 344.410877 
L 398.168182 343.409627 
L 399.436364 335.900634 
L 400.704545 334.13254 
L 401.972727 308.493969 
L 403.240909 299.590798 
L 404.509091 276.745137 
L 405.777273 298.328546 
L 407.045455 311.827615 
L 408.313636 309.168689 
L 409.581818 307.402134 
L 410.85 321.763471 
L 412.118182 314.028458 
L 413.386364 320.536195 
L 414.654545 307.353767 
L 415.922727 314.753228 
L 417.190909 302.755977 
L 418.459091 249.022939 
L 419.727273 271.134311 
L 420.995455 269.466619 
L 422.263636 279.262838 
L 423.531818 293.372189 
L 424.8 318.549758 
L 426.068182 315.518531 
L 427.336364 308.765773 
L 428.604545 300.788367 
L 429.872727 311.548911 
L 431.140909 300.317052 
L 432.409091 310.229098 
L 433.677273 301.777247 
L 434.945455 299.598552 
L 436.213636 300.218869 
L 437.481818 332.270746 
L 438.75 324.531076 
L 440.018182 316.05401 
L 441.286364 320.231815 
L 442.554545 306.673256 
L 443.822727 301.309687 
L 445.090909 321.578562 
L 446.359091 329.436075 
L 447.627273 305.876469 
L 448.895455 342.667614 
L 450.163636 338.042325 
L 451.431818 302.848758 
L 452.7 286.034215 
L 455.236364 310.130445 
L 456.504545 315.585408 
L 457.772727 317.0217 
L 459.040909 324.333685 
L 460.309091 314.30427 
L 461.577273 323.876868 
L 462.845455 303.878586 
L 464.113636 304.731946 
L 465.381818 294.453824 
L 466.65 259.42515 
L 467.918182 281.673188 
L 469.186364 299.350576 
L 470.454545 258.284788 
L 471.722727 285.909542 
L 472.990909 310.180433 
L 474.259091 316.932643 
L 475.527273 325.981424 
L 478.063636 251.576656 
L 479.331818 288.064106 
L 480.6 288.710165 
L 481.868182 293.551948 
L 483.136364 311.564295 
L 484.404545 314.836568 
L 485.672727 345.428656 
L 486.940909 334.081313 
L 488.209091 337.507084 
L 489.477273 334.201243 
L 490.745455 341.463177 
L 492.013636 327.051979 
L 493.281818 324.356806 
L 494.55 312.159011 
L 495.818182 301.04694 
L 497.086364 307.501127 
L 498.354545 323.001257 
L 499.622727 341.079107 
L 500.890909 334.138692 
L 502.159091 305.031107 
L 503.427273 316.795878 
L 504.695455 309.164855 
L 505.963636 319.950893 
L 507.231818 287.167446 
L 508.5 311.457911 
L 509.768182 325.971177 
L 511.036364 329.234172 
L 512.304545 334.467002 
L 513.572727 339.193701 
L 514.840909 331.095636 
L 516.109091 307.228227 
L 517.377273 309.068264 
L 518.645455 318.034748 
L 519.913636 328.473986 
L 521.181818 303.124425 
L 522.45 319.022393 
L 523.718182 314.354678 
L 524.986364 306.742 
L 526.254545 308.691496 
L 527.522727 303.50337 
L 528.790909 292.786799 
L 530.059091 308.236605 
L 531.327273 305.475212 
L 532.595455 324.500979 
L 533.863636 336.44265 
L 535.131818 333.517228 
L 536.4 332.272875 
L 537.668182 350.01212 
L 538.936364 347.233807 
L 540.204545 330.942802 
L 541.472727 344.738772 
L 542.740909 337.323417 
L 544.009091 340.500126 
L 545.277273 336.724399 
L 546.545455 334.47792 
L 547.813636 332.715276 
L 549.081818 319.368741 
L 550.35 323.692118 
L 551.618182 317.182265 
L 552.886364 304.922616 
L 554.154545 320.382 
L 555.422727 281.442009 
L 556.690909 310.532012 
L 557.959091 287.697331 
L 559.227273 299.163358 
L 560.495455 314.275168 
L 561.763636 334.040759 
L 563.031818 308.205976 
L 564.3 336.822095 
L 565.568182 330.1404 
L 566.836364 290.255728 
L 568.104545 290.847299 
L 569.372727 330.414716 
L 570.640909 330.734861 
L 571.909091 314.484537 
L 573.177273 337.682513 
L 575.713636 325.850325 
L 576.981818 331.431879 
L 578.25 342.039624 
L 579.518182 332.051253 
L 580.786364 316.797244 
L 582.054545 268.677788 
L 583.322727 248.346648 
L 584.590909 267.381341 
L 585.859091 283.069251 
L 587.127273 308.454606 
L 588.395455 318.998596 
L 590.931818 334.70201 
L 592.2 354.264645 
L 593.468182 352.66685 
L 594.736364 349.638379 
L 596.004545 344.276893 
L 597.272727 346.598524 
L 598.540909 342.48913 
L 599.809091 341.375333 
L 601.077273 341.791313 
L 602.345455 337.967949 
L 603.613636 338.260576 
L 604.881818 348.982809 
L 606.15 353.4201 
L 607.418182 319.665704 
L 608.686364 340.626364 
L 609.954545 331.200262 
L 611.222727 332.00245 
L 612.490909 341.978674 
L 613.759091 319.981305 
L 615.027273 335.527569 
L 616.295455 339.695285 
L 617.563636 331.694596 
L 618.831818 325.228962 
L 620.1 336.638458 
L 621.368182 338.395486 
L 622.636364 282.484736 
L 622.636364 282.484736 
" clip-path="url(#p1c4687567e)" style="fill: none; stroke: #ff0000; stroke-width: 1.5; stroke-linecap: square"/>
   </g>
   <g id="patch_3">
    <path d="M 90 384.48 
L 90 51.84 
" style="fill: none; stroke: #000000; stroke-width: 0.8; stroke-linejoin: miter; stroke-linecap: square"/>
   </g>
   <g id="patch_4">
    <path d="M 648 384.48 
L 648 51.84 
" style="fill: none; stroke: #000000; stroke-width: 0.8; stroke-linejoin: miter; stroke-linecap: square"/>
   </g>
   <g id="patch_5">
    <path d="M 90 384.48 
L 648 384.48 
" style="fill: none; stroke: #000000; stroke-width: 0.8; stroke-linejoin: miter; stroke-linecap: square"/>
   </g>
   <g id="patch_6">
    <path d="M 90 51.84 
L 648 51.84 
" style="fill: none; stroke: #000000; stroke-width: 0.8; stroke-linejoin: miter; stroke-linecap: square"/>
   </g>
   <g id="text_17">
    <!-- Training and Validation Loss Over Time -->
    <g transform="translate(252.60375 45.84) scale(0.12 -0.12)">
     <defs>
      <path id="DejaVuSans-54" d="M -19 4666 
L 3928 4666 
L 3928 4134 
L 2272 4134 
L 2272 0 
L 1638 0 
L 1638 4134 
L -19 4134 
L -19 4666 
z
" transform="scale(0.015625)"/>
      <path id="DejaVuSans-6e" d="M 3513 2113 
L 3513 0 
L 2938 0 
L 2938 2094 
Q 2938 2591 2744 2837 
Q 2550 3084 2163 3084 
Q 1697 3084 1428 2787 
Q 1159 2491 1159 1978 
L 1159 0 
L 581 0 
L 581 3500 
L 1159 3500 
L 1159 2956 
Q 1366 3272 1645 3428 
Q 1925 3584 2291 3584 
Q 2894 3584 3203 3211 
Q 3513 2838 3513 2113 
z
" transform="scale(0.015625)"/>
      <path id="DejaVuSans-67" d="M 2906 1791 
Q 2906 2416 2648 2759 
Q 2391 3103 1925 3103 
Q 1463 3103 1205 2759 
Q 947 2416 947 1791 
Q 947 1169 1205 825 
Q 1463 481 1925 481 
Q 2391 481 2648 825 
Q 2906 1169 2906 1791 
z
M 3481 434 
Q 3481 -459 3084 -895 
Q 2688 -1331 1869 -1331 
Q 1566 -1331 1297 -1286 
Q 1028 -1241 775 -1147 
L 775 -588 
Q 1028 -725 1275 -790 
Q 1522 -856 1778 -856 
Q 2344 -856 2625 -561 
Q 2906 -266 2906 331 
L 2906 616 
Q 2728 306 2450 153 
Q 2172 0 1784 0 
Q 1141 0 747 490 
Q 353 981 353 1791 
Q 353 2603 747 3093 
Q 1141 3584 1784 3584 
Q 2172 3584 2450 3431 
Q 2728 3278 2906 2969 
L 2906 3500 
L 3481 3500 
L 3481 434 
z
" transform="scale(0.015625)"/>
      <path id="DejaVuSans-56" d="M 1831 0 
L 50 4666 
L 709 4666 
L 2188 738 
L 3669 4666 
L 4325 4666 
L 2547 0 
L 1831 0 
z
" transform="scale(0.015625)"/>
      <path id="DejaVuSans-74" d="M 1172 4494 
L 1172 3500 
L 2356 3500 
L 2356 3053 
L 1172 3053 
L 1172 1153 
Q 1172 725 1289 603 
Q 1406 481 1766 481 
L 2356 481 
L 2356 0 
L 1766 0 
Q 1100 0 847 248 
Q 594 497 594 1153 
L 594 3053 
L 172 3053 
L 172 3500 
L 594 3500 
L 594 4494 
L 1172 4494 
z
" transform="scale(0.015625)"/>
      <path id="DejaVuSans-4f" d="M 2522 4238 
Q 1834 4238 1429 3725 
Q 1025 3213 1025 2328 
Q 1025 1447 1429 934 
Q 1834 422 2522 422 
Q 3209 422 3611 934 
Q 4013 1447 4013 2328 
Q 4013 3213 3611 3725 
Q 3209 4238 2522 4238 
z
M 2522 4750 
Q 3503 4750 4090 4092 
Q 4678 3434 4678 2328 
Q 4678 1225 4090 567 
Q 3503 -91 2522 -91 
Q 1538 -91 948 565 
Q 359 1222 359 2328 
Q 359 3434 948 4092 
Q 1538 4750 2522 4750 
z
" transform="scale(0.015625)"/>
      <path id="DejaVuSans-76" d="M 191 3500 
L 800 3500 
L 1894 563 
L 2988 3500 
L 3597 3500 
L 2284 0 
L 1503 0 
L 191 3500 
z
" transform="scale(0.015625)"/>
     </defs>
     <use xlink:href="#DejaVuSans-54"/>
     <use xlink:href="#DejaVuSans-72" transform="translate(46.333984 0)"/>
     <use xlink:href="#DejaVuSans-61" transform="translate(87.447266 0)"/>
     <use xlink:href="#DejaVuSans-69" transform="translate(148.726562 0)"/>
     <use xlink:href="#DejaVuSans-6e" transform="translate(176.509766 0)"/>
     <use xlink:href="#DejaVuSans-69" transform="translate(239.888672 0)"/>
     <use xlink:href="#DejaVuSans-6e" transform="translate(267.671875 0)"/>
     <use xlink:href="#DejaVuSans-67" transform="translate(331.050781 0)"/>
     <use xlink:href="#DejaVuSans-20" transform="translate(394.527344 0)"/>
     <use xlink:href="#DejaVuSans-61" transform="translate(426.314453 0)"/>
     <use xlink:href="#DejaVuSans-6e" transform="translate(487.59375 0)"/>
     <use xlink:href="#DejaVuSans-64" transform="translate(550.972656 0)"/>
     <use xlink:href="#DejaVuSans-20" transform="translate(614.449219 0)"/>
     <use xlink:href="#DejaVuSans-56" transform="translate(646.236328 0)"/>
     <use xlink:href="#DejaVuSans-61" transform="translate(706.894531 0)"/>
     <use xlink:href="#DejaVuSans-6c" transform="translate(768.173828 0)"/>
     <use xlink:href="#DejaVuSans-69" transform="translate(795.957031 0)"/>
     <use xlink:href="#DejaVuSans-64" transform="translate(823.740234 0)"/>
     <use xlink:href="#DejaVuSans-61" transform="translate(887.216797 0)"/>
     <use xlink:href="#DejaVuSans-74" transform="translate(948.496094 0)"/>
     <use xlink:href="#DejaVuSans-69" transform="translate(987.705078 0)"/>
     <use xlink:href="#DejaVuSans-6f" transform="translate(1015.488281 0)"/>
     <use xlink:href="#DejaVuSans-6e" transform="translate(1076.669922 0)"/>
     <use xlink:href="#DejaVuSans-20" transform="translate(1140.048828 0)"/>
     <use xlink:href="#DejaVuSans-4c" transform="translate(1171.835938 0)"/>
     <use xlink:href="#DejaVuSans-6f" transform="translate(1225.798828 0)"/>
     <use xlink:href="#DejaVuSans-73" transform="translate(1286.980469 0)"/>
     <use xlink:href="#DejaVuSans-73" transform="translate(1339.080078 0)"/>
     <use xlink:href="#DejaVuSans-20" transform="translate(1391.179688 0)"/>
     <use xlink:href="#DejaVuSans-4f" transform="translate(1422.966797 0)"/>
     <use xlink:href="#DejaVuSans-76" transform="translate(1501.677734 0)"/>
     <use xlink:href="#DejaVuSans-65" transform="translate(1560.857422 0)"/>
     <use xlink:href="#DejaVuSans-72" transform="translate(1622.380859 0)"/>
     <use xlink:href="#DejaVuSans-20" transform="translate(1663.494141 0)"/>
     <use xlink:href="#DejaVuSans-54" transform="translate(1695.28125 0)"/>
     <use xlink:href="#DejaVuSans-69" transform="translate(1753.240234 0)"/>
     <use xlink:href="#DejaVuSans-6d" transform="translate(1781.023438 0)"/>
     <use xlink:href="#DejaVuSans-65" transform="translate(1878.435547 0)"/>
    </g>
   </g>
   <g id="legend_1">
    <g id="patch_7">
     <path d="M 534.50625 89.19625 
L 641 89.19625 
Q 643 89.19625 643 87.19625 
L 643 58.84 
Q 643 56.84 641 56.84 
L 534.50625 56.84 
Q 532.50625 56.84 532.50625 58.84 
L 532.50625 87.19625 
Q 532.50625 89.19625 534.50625 89.19625 
z
" style="fill: #ffffff; opacity: 0.8; stroke: #cccccc; stroke-linejoin: miter"/>
    </g>
    <g id="line2d_103">
     <path d="M 536.50625 64.938437 
L 546.50625 64.938437 
L 556.50625 64.938437 
" style="fill: none; stroke: #0000ff; stroke-width: 1.5; stroke-linecap: square"/>
    </g>
    <g id="text_18">
     <!-- Training Loss -->
     <g transform="translate(564.50625 68.438437) scale(0.1 -0.1)">
      <use xlink:href="#DejaVuSans-54"/>
      <use xlink:href="#DejaVuSans-72" transform="translate(46.333984 0)"/>
      <use xlink:href="#DejaVuSans-61" transform="translate(87.447266 0)"/>
      <use xlink:href="#DejaVuSans-69" transform="translate(148.726562 0)"/>
      <use xlink:href="#DejaVuSans-6e" transform="translate(176.509766 0)"/>
      <use xlink:href="#DejaVuSans-69" transform="translate(239.888672 0)"/>
      <use xlink:href="#DejaVuSans-6e" transform="translate(267.671875 0)"/>
      <use xlink:href="#DejaVuSans-67" transform="translate(331.050781 0)"/>
      <use xlink:href="#DejaVuSans-20" transform="translate(394.527344 0)"/>
      <use xlink:href="#DejaVuSans-4c" transform="translate(426.314453 0)"/>
      <use xlink:href="#DejaVuSans-6f" transform="translate(480.277344 0)"/>
      <use xlink:href="#DejaVuSans-73" transform="translate(541.458984 0)"/>
      <use xlink:href="#DejaVuSans-73" transform="translate(593.558594 0)"/>
     </g>
    </g>
    <g id="line2d_104">
     <path d="M 536.50625 79.616562 
L 546.50625 79.616562 
L 556.50625 79.616562 
" style="fill: none; stroke: #ff0000; stroke-width: 1.5; stroke-linecap: square"/>
    </g>
    <g id="text_19">
     <!-- Validation Loss -->
     <g transform="translate(564.50625 83.116562) scale(0.1 -0.1)">
      <use xlink:href="#DejaVuSans-56"/>
      <use xlink:href="#DejaVuSans-61" transform="translate(60.658203 0)"/>
      <use xlink:href="#DejaVuSans-6c" transform="translate(121.9375 0)"/>
      <use xlink:href="#DejaVuSans-69" transform="translate(149.720703 0)"/>
      <use xlink:href="#DejaVuSans-64" transform="translate(177.503906 0)"/>
      <use xlink:href="#DejaVuSans-61" transform="translate(240.980469 0)"/>
      <use xlink:href="#DejaVuSans-74" transform="translate(302.259766 0)"/>
      <use xlink:href="#DejaVuSans-69" transform="translate(341.46875 0)"/>
      <use xlink:href="#DejaVuSans-6f" transform="translate(369.251953 0)"/>
      <use xlink:href="#DejaVuSans-6e" transform="translate(430.433594 0)"/>
      <use xlink:href="#DejaVuSans-20" transform="translate(493.8125 0)"/>
      <use xlink:href="#DejaVuSans-4c" transform="translate(525.599609 0)"/>
      <use xlink:href="#DejaVuSans-6f" transform="translate(579.5625 0)"/>
      <use xlink:href="#DejaVuSans-73" transform="translate(640.744141 0)"/>
      <use xlink:href="#DejaVuSans-73" transform="translate(692.84375 0)"/>
     </g>
    </g>
   </g>
  </g>
 </g>
 <defs>
  <clipPath id="p1c4687567e">
   <rect x="90" y="51.84" width="558" height="332.64"/>
  </clipPath>
 </defs>
</svg>
