<?xml version="1.0" encoding="utf-8" standalone="no"?>
<!DOCTYPE svg PUBLIC "-//W3C//DTD SVG 1.1//EN"
  "http://www.w3.org/Graphics/SVG/1.1/DTD/svg11.dtd">
<svg xmlns:xlink="http://www.w3.org/1999/xlink" width="720pt" height="432pt" viewBox="0 0 720 432" xmlns="http://www.w3.org/2000/svg" version="1.1">
 <metadata>
  <rdf:RDF xmlns:dc="http://purl.org/dc/elements/1.1/" xmlns:cc="http://creativecommons.org/ns#" xmlns:rdf="http://www.w3.org/1999/02/22-rdf-syntax-ns#">
   <cc:Work>
    <dc:type rdf:resource="http://purl.org/dc/dcmitype/StillImage"/>
    <dc:date>2026-04-01T00:51:29.660784</dc:date>
    <dc:format>image/svg+xml</dc:format>
    <dc:creator>
     <cc:Agent>
      <dc:title>Matplotlib v3.10.3, https://matplotlib.org/</dc:title>
     </cc:Agent>
    </dc:creator>
   </cc:Work>
  </rdf:RDF>
 </metadata>
 <defs>
  <style type="text/css">*{stroke-linejoin: round; stroke-linecap: butt}</style>
 </defs>
 <g id="figure_1">
  <g id="patch_1">
   <path d="M 0 432 
L 720 432 
L 720 0 
L 0 0 
z
" style="fill: #ffffff"/>
  </g>
  <g id="axes_1">
   <g id="patch_2">
    <path d="M 90 384.48 
L 648 384.48 
L 648 51.84 
L 90 51.84 
z
" style="fill: #ffffff"/>
   </g>
   <g id="matplotlib.axis_1">
    <g id="xtick_1">
     <g id="line2d_1">
      <path d="M 115.363636 384.48 
L 115.363636 51.84 
" clip-path="url(#p1cb21245fd)" style="fill: none; stroke-dasharray: 2.96,1.28; stroke-dashoffset: 0; stroke: #b0b0b0; stroke-width: 0.8"/>
     </g>
     <g id="line2d_2">
      <defs>
       <path id="me7f5653d99" d="M 0 0 
L 0 3.5 
" style="stroke: #000000; stroke-width: 0.8"/>
      </defs>
      <g>
       <use xlink:href="#me7f5653d99" x="115.363636" y="384.48" style="stroke: #000000; stroke-width: 0.8"/>
      </g>
     </g>
     <g id="text_1">
      <!-- 0 -->
      <g transform="translate(112.182386 399.078438) scale(0.1 -0.1)">
       <defs>
        <path id="DejaVuSans-30" d="M 2034 4250 
Q 1547 4250 1301 3770 
Q 1056 3291 1056 2328 
Q 1056 1369 1301 889 
Q 1547 409 2034 409 
Q 2525 409 2770 889 
Q 3016 1369 3016 2328 
Q 3016 3291 2770 3770 
Q 2525 4250 2034 4250 
z
M 2034 4750 
Q 2819 4750 3233 4129 
Q 3647 3509 3647 2328 
Q 3647 1150 3233 529 
Q 2819 -91 2034 -91 
Q 1250 -91 836 529 
Q 422 1150 422 2328 
Q 422 3509 836 4129 
Q 1250 4750 2034 4750 
z
" transform="scale(0.015625)"/>
       </defs>
       <use xlink:href="#DejaVuSans-30"/>
      </g>
     </g>
    </g>
    <g id="xtick_2">
     <g id="line2d_3">
      <path d="M 199.909091 384.48 
L 199.909091 51.84 
" clip-path="url(#p1cb21245fd)" style="fill: none; stroke-dasharray: 2.96,1.28; stroke-dashoffset: 0; stroke: #b0b0b0; stroke-width: 0.8"/>
     </g>
     <g id="line2d_4">
      <g>
       <use xlink:href="#me7f5653d99" x="199.909091" y="384.48" style="stroke: #000000; stroke-width: 0.8"/>
      </g>
     </g>
     <g id="text_2">
      <!-- 100 -->
      <g transform="translate(190.365341 399.078438) scale(0.1 -0.1)">
       <defs>
        <path id="DejaVuSans-31" d="M 794 531 
L 1825 531 
L 1825 4091 
L 703 3866 
L 703 4441 
L 1819 4666 
L 2450 4666 
L 2450 531 
L 3481 531 
L 3481 0 
L 794 0 
L 794 531 
z
" transform="scale(0.015625)"/>
       </defs>
       <use xlink:href="#DejaVuSans-31"/>
       <use xlink:href="#DejaVuSans-30" transform="translate(63.623047 0)"/>
       <use xlink:href="#DejaVuSans-30" transform="translate(127.246094 0)"/>
      </g>
     </g>
    </g>
    <g id="xtick_3">
     <g id="line2d_5">
      <path d="M 284.454545 384.48 
L 284.454545 51.84 
" clip-path="url(#p1cb21245fd)" style="fill: none; stroke-dasharray: 2.96,1.28; stroke-dashoffset: 0; stroke: #b0b0b0; stroke-width: 0.8"/>
     </g>
     <g id="line2d_6">
      <g>
       <use xlink:href="#me7f5653d99" x="284.454545" y="384.48" style="stroke: #000000; stroke-width: 0.8"/>
      </g>
     </g>
     <g id="text_3">
      <!-- 200 -->
      <g transform="translate(274.910795 399.078438) scale(0.1 -0.1)">
       <defs>
        <path id="DejaVuSans-32" d="M 1228 531 
L 3431 531 
L 3431 0 
L 469 0 
L 469 531 
Q 828 903 1448 1529 
Q 2069 2156 2228 2338 
Q 2531 2678 2651 2914 
Q 2772 3150 2772 3378 
Q 2772 3750 2511 3984 
Q 2250 4219 1831 4219 
Q 1534 4219 1204 4116 
Q 875 4013 500 3803 
L 500 4441 
Q 881 4594 1212 4672 
Q 1544 4750 1819 4750 
Q 2544 4750 2975 4387 
Q 3406 4025 3406 3419 
Q 3406 3131 3298 2873 
Q 3191 2616 2906 2266 
Q 2828 2175 2409 1742 
Q 1991 1309 1228 531 
z
" transform="scale(0.015625)"/>
       </defs>
       <use xlink:href="#DejaVuSans-32"/>
       <use xlink:href="#DejaVuSans-30" transform="translate(63.623047 0)"/>
       <use xlink:href="#DejaVuSans-30" transform="translate(127.246094 0)"/>
      </g>
     </g>
    </g>
    <g id="xtick_4">
     <g id="line2d_7">
      <path d="M 369 384.48 
L 369 51.84 
" clip-path="url(#p1cb21245fd)" style="fill: none; stroke-dasharray: 2.96,1.28; stroke-dashoffset: 0; stroke: #b0b0b0; stroke-width: 0.8"/>
     </g>
     <g id="line2d_8">
      <g>
       <use xlink:href="#me7f5653d99" x="369" y="384.48" style="stroke: #000000; stroke-width: 0.8"/>
      </g>
     </g>
     <g id="text_4">
      <!-- 300 -->
      <g transform="translate(359.45625 399.078438) scale(0.1 -0.1)">
       <defs>
        <path id="DejaVuSans-33" d="M 2597 2516 
Q 3050 2419 3304 2112 
Q 3559 1806 3559 1356 
Q 3559 666 3084 287 
Q 2609 -91 1734 -91 
Q 1441 -91 1130 -33 
Q 819 25 488 141 
L 488 750 
Q 750 597 1062 519 
Q 1375 441 1716 441 
Q 2309 441 2620 675 
Q 2931 909 2931 1356 
Q 2931 1769 2642 2001 
Q 2353 2234 1838 2234 
L 1294 2234 
L 1294 2753 
L 1863 2753 
Q 2328 2753 2575 2939 
Q 2822 3125 2822 3475 
Q 2822 3834 2567 4026 
Q 2313 4219 1838 4219 
Q 1578 4219 1281 4162 
Q 984 4106 628 3988 
L 628 4550 
Q 988 4650 1302 4700 
Q 1616 4750 1894 4750 
Q 2613 4750 3031 4423 
Q 3450 4097 3450 3541 
Q 3450 3153 3228 2886 
Q 3006 2619 2597 2516 
z
" transform="scale(0.015625)"/>
       </defs>
       <use xlink:href="#DejaVuSans-33"/>
       <use xlink:href="#DejaVuSans-30" transform="translate(63.623047 0)"/>
       <use xlink:href="#DejaVuSans-30" transform="translate(127.246094 0)"/>
      </g>
     </g>
    </g>
    <g id="xtick_5">
     <g id="line2d_9">
      <path d="M 453.545455 384.48 
L 453.545455 51.84 
" clip-path="url(#p1cb21245fd)" style="fill: none; stroke-dasharray: 2.96,1.28; stroke-dashoffset: 0; stroke: #b0b0b0; stroke-width: 0.8"/>
     </g>
     <g id="line2d_10">
      <g>
       <use xlink:href="#me7f5653d99" x="453.545455" y="384.48" style="stroke: #000000; stroke-width: 0.8"/>
      </g>
     </g>
     <g id="text_5">
      <!-- 400 -->
      <g transform="translate(444.001705 399.078438) scale(0.1 -0.1)">
       <defs>
        <path id="DejaVuSans-34" d="M 2419 4116 
L 825 1625 
L 2419 1625 
L 2419 4116 
z
M 2253 4666 
L 3047 4666 
L 3047 1625 
L 3713 1625 
L 3713 1100 
L 3047 1100 
L 3047 0 
L 2419 0 
L 2419 1100 
L 313 1100 
L 313 1709 
L 2253 4666 
z
" transform="scale(0.015625)"/>
       </defs>
       <use xlink:href="#DejaVuSans-34"/>
       <use xlink:href="#DejaVuSans-30" transform="translate(63.623047 0)"/>
       <use xlink:href="#DejaVuSans-30" transform="translate(127.246094 0)"/>
      </g>
     </g>
    </g>
    <g id="xtick_6">
     <g id="line2d_11">
      <path d="M 538.090909 384.48 
L 538.090909 51.84 
" clip-path="url(#p1cb21245fd)" style="fill: none; stroke-dasharray: 2.96,1.28; stroke-dashoffset: 0; stroke: #b0b0b0; stroke-width: 0.8"/>
     </g>
     <g id="line2d_12">
      <g>
       <use xlink:href="#me7f5653d99" x="538.090909" y="384.48" style="stroke: #000000; stroke-width: 0.8"/>
      </g>
     </g>
     <g id="text_6">
      <!-- 500 -->
      <g transform="translate(528.547159 399.078438) scale(0.1 -0.1)">
       <defs>
        <path id="DejaVuSans-35" d="M 691 4666 
L 3169 4666 
L 3169 4134 
L 1269 4134 
L 1269 2991 
Q 1406 3038 1543 3061 
Q 1681 3084 1819 3084 
Q 2600 3084 3056 2656 
Q 3513 2228 3513 1497 
Q 3513 744 3044 326 
Q 2575 -91 1722 -91 
Q 1428 -91 1123 -41 
Q 819 9 494 109 
L 494 744 
Q 775 591 1075 516 
Q 1375 441 1709 441 
Q 2250 441 2565 725 
Q 2881 1009 2881 1497 
Q 2881 1984 2565 2268 
Q 2250 2553 1709 2553 
Q 1456 2553 1204 2497 
Q 953 2441 691 2322 
L 691 4666 
z
" transform="scale(0.015625)"/>
       </defs>
       <use xlink:href="#DejaVuSans-35"/>
       <use xlink:href="#DejaVuSans-30" transform="translate(63.623047 0)"/>
       <use xlink:href="#DejaVuSans-30" transform="translate(127.246094 0)"/>
      </g>
     </g>
    </g>
    <g id="xtick_7">
     <g id="line2d_13">
      <path d="M 622.636364 384.48 
L 622.636364 51.84 
" clip-path="url(#p1cb21245fd)" style="fill: none; stroke-dasharray: 2.96,1.28; stroke-dashoffset: 0; stroke: #b0b0b0; stroke-width: 0.8"/>
     </g>
     <g id="line2d_14">
      <g>
       <use xlink:href="#me7f5653d99" x="622.636364" y="384.48" style="stroke: #000000; stroke-width: 0.8"/>
      </g>
     </g>
     <g id="text_7">
      <!-- 600 -->
      <g transform="translate(613.092614 399.078438) scale(0.1 -0.1)">
       <defs>
        <path id="DejaVuSans-36" d="M 2113 2584 
Q 1688 2584 1439 2293 
Q 1191 2003 1191 1497 
Q 1191 994 1439 701 
Q 1688 409 2113 409 
Q 2538 409 2786 701 
Q 3034 994 3034 1497 
Q 3034 2003 2786 2293 
Q 2538 2584 2113 2584 
z
M 3366 4563 
L 3366 3988 
Q 3128 4100 2886 4159 
Q 2644 4219 2406 4219 
Q 1781 4219 1451 3797 
Q 1122 3375 1075 2522 
Q 1259 2794 1537 2939 
Q 1816 3084 2150 3084 
Q 2853 3084 3261 2657 
Q 3669 2231 3669 1497 
Q 3669 778 3244 343 
Q 2819 -91 2113 -91 
Q 1303 -91 875 529 
Q 447 1150 447 2328 
Q 447 3434 972 4092 
Q 1497 4750 2381 4750 
Q 2619 4750 2861 4703 
Q 3103 4656 3366 4563 
z
" transform="scale(0.015625)"/>
       </defs>
       <use xlink:href="#DejaVuSans-36"/>
       <use xlink:href="#DejaVuSans-30" transform="translate(63.623047 0)"/>
       <use xlink:href="#DejaVuSans-30" transform="translate(127.246094 0)"/>
      </g>
     </g>
    </g>
    <g id="text_8">
     <!-- Epoch -->
     <g transform="translate(353.689062 412.756563) scale(0.1 -0.1)">
      <defs>
       <path id="DejaVuSans-45" d="M 628 4666 
L 3578 4666 
L 3578 4134 
L 1259 4134 
L 1259 2753 
L 3481 2753 
L 3481 2222 
L 1259 2222 
L 1259 531 
L 3634 531 
L 3634 0 
L 628 0 
L 628 4666 
z
" transform="scale(0.015625)"/>
       <path id="DejaVuSans-70" d="M 1159 525 
L 1159 -1331 
L 581 -1331 
L 581 3500 
L 1159 3500 
L 1159 2969 
Q 1341 3281 1617 3432 
Q 1894 3584 2278 3584 
Q 2916 3584 3314 3078 
Q 3713 2572 3713 1747 
Q 3713 922 3314 415 
Q 2916 -91 2278 -91 
Q 1894 -91 1617 61 
Q 1341 213 1159 525 
z
M 3116 1747 
Q 3116 2381 2855 2742 
Q 2594 3103 2138 3103 
Q 1681 3103 1420 2742 
Q 1159 2381 1159 1747 
Q 1159 1113 1420 752 
Q 1681 391 2138 391 
Q 2594 391 2855 752 
Q 3116 1113 3116 1747 
z
" transform="scale(0.015625)"/>
       <path id="DejaVuSans-6f" d="M 1959 3097 
Q 1497 3097 1228 2736 
Q 959 2375 959 1747 
Q 959 1119 1226 758 
Q 1494 397 1959 397 
Q 2419 397 2687 759 
Q 2956 1122 2956 1747 
Q 2956 2369 2687 2733 
Q 2419 3097 1959 3097 
z
M 1959 3584 
Q 2709 3584 3137 3096 
Q 3566 2609 3566 1747 
Q 3566 888 3137 398 
Q 2709 -91 1959 -91 
Q 1206 -91 779 398 
Q 353 888 353 1747 
Q 353 2609 779 3096 
Q 1206 3584 1959 3584 
z
" transform="scale(0.015625)"/>
       <path id="DejaVuSans-63" d="M 3122 3366 
L 3122 2828 
Q 2878 2963 2633 3030 
Q 2388 3097 2138 3097 
Q 1578 3097 1268 2742 
Q 959 2388 959 1747 
Q 959 1106 1268 751 
Q 1578 397 2138 397 
Q 2388 397 2633 464 
Q 2878 531 3122 666 
L 3122 134 
Q 2881 22 2623 -34 
Q 2366 -91 2075 -91 
Q 1284 -91 818 406 
Q 353 903 353 1747 
Q 353 2603 823 3093 
Q 1294 3584 2113 3584 
Q 2378 3584 2631 3529 
Q 2884 3475 3122 3366 
z
" transform="scale(0.015625)"/>
       <path id="DejaVuSans-68" d="M 3513 2113 
L 3513 0 
L 2938 0 
L 2938 2094 
Q 2938 2591 2744 2837 
Q 2550 3084 2163 3084 
Q 1697 3084 1428 2787 
Q 1159 2491 1159 1978 
L 1159 0 
L 581 0 
L 581 4863 
L 1159 4863 
L 1159 2956 
Q 1366 3272 1645 3428 
Q 1925 3584 2291 3584 
Q 2894 3584 3203 3211 
Q 3513 2838 3513 2113 
z
" transform="scale(0.015625)"/>
      </defs>
      <use xlink:href="#DejaVuSans-45"/>
      <use xlink:href="#DejaVuSans-70" transform="translate(63.183594 0)"/>
      <use xlink:href="#DejaVuSans-6f" transform="translate(126.660156 0)"/>
      <use xlink:href="#DejaVuSans-63" transform="translate(187.841797 0)"/>
      <use xlink:href="#DejaVuSans-68" transform="translate(242.822266 0)"/>
     </g>
    </g>
   </g>
   <g id="matplotlib.axis_2">
    <g id="ytick_1">
     <g id="line2d_15">
      <path d="M 90 332.379428 
L 648 332.379428 
" clip-path="url(#p1cb21245fd)" style="fill: none; stroke-dasharray: 2.96,1.28; stroke-dashoffset: 0; stroke: #b0b0b0; stroke-width: 0.8"/>
     </g>
     <g id="line2d_16">
      <defs>
       <path id="mdc2aa34035" d="M 0 0 
L -3.5 0 
" style="stroke: #000000; stroke-width: 0.8"/>
      </defs>
      <g>
       <use xlink:href="#mdc2aa34035" x="90" y="332.379428" style="stroke: #000000; stroke-width: 0.8"/>
      </g>
     </g>
     <g id="text_9">
      <!-- $\mathdefault{10^{-5}}$ -->
      <g transform="translate(59.5 336.178647) scale(0.1 -0.1)">
       <defs>
        <path id="DejaVuSans-2212" d="M 678 2272 
L 4684 2272 
L 4684 1741 
L 678 1741 
L 678 2272 
z
" transform="scale(0.015625)"/>
       </defs>
       <use xlink:href="#DejaVuSans-31" transform="translate(0 0.684375)"/>
       <use xlink:href="#DejaVuSans-30" transform="translate(63.623047 0.684375)"/>
       <use xlink:href="#DejaVuSans-2212" transform="translate(128.203125 38.965625) scale(0.7)"/>
       <use xlink:href="#DejaVuSans-35" transform="translate(186.855469 38.965625) scale(0.7)"/>
      </g>
     </g>
    </g>
    <g id="ytick_2">
     <g id="line2d_17">
      <path d="M 90 268.497784 
L 648 268.497784 
" clip-path="url(#p1cb21245fd)" style="fill: none; stroke-dasharray: 2.96,1.28; stroke-dashoffset: 0; stroke: #b0b0b0; stroke-width: 0.8"/>
     </g>
     <g id="line2d_18">
      <g>
       <use xlink:href="#mdc2aa34035" x="90" y="268.497784" style="stroke: #000000; stroke-width: 0.8"/>
      </g>
     </g>
     <g id="text_10">
      <!-- $\mathdefault{10^{-4}}$ -->
      <g transform="translate(59.5 272.297003) scale(0.1 -0.1)">
       <use xlink:href="#DejaVuSans-31" transform="translate(0 0.684375)"/>
       <use xlink:href="#DejaVuSans-30" transform="translate(63.623047 0.684375)"/>
       <use xlink:href="#DejaVuSans-2212" transform="translate(128.203125 38.965625) scale(0.7)"/>
       <use xlink:href="#DejaVuSans-34" transform="translate(186.855469 38.965625) scale(0.7)"/>
      </g>
     </g>
    </g>
    <g id="ytick_3">
     <g id="line2d_19">
      <path d="M 90 204.61614 
L 648 204.61614 
" clip-path="url(#p1cb21245fd)" style="fill: none; stroke-dasharray: 2.96,1.28; stroke-dashoffset: 0; stroke: #b0b0b0; stroke-width: 0.8"/>
     </g>
     <g id="line2d_20">
      <g>
       <use xlink:href="#mdc2aa34035" x="90" y="204.61614" style="stroke: #000000; stroke-width: 0.8"/>
      </g>
     </g>
     <g id="text_11">
      <!-- $\mathdefault{10^{-3}}$ -->
      <g transform="translate(59.5 208.415359) scale(0.1 -0.1)">
       <use xlink:href="#DejaVuSans-31" transform="translate(0 0.765625)"/>
       <use xlink:href="#DejaVuSans-30" transform="translate(63.623047 0.765625)"/>
       <use xlink:href="#DejaVuSans-2212" transform="translate(128.203125 39.046875) scale(0.7)"/>
       <use xlink:href="#DejaVuSans-33" transform="translate(186.855469 39.046875) scale(0.7)"/>
      </g>
     </g>
    </g>
    <g id="ytick_4">
     <g id="line2d_21">
      <path d="M 90 140.734496 
L 648 140.734496 
" clip-path="url(#p1cb21245fd)" style="fill: none; stroke-dasharray: 2.96,1.28; stroke-dashoffset: 0; stroke: #b0b0b0; stroke-width: 0.8"/>
     </g>
     <g id="line2d_22">
      <g>
       <use xlink:href="#mdc2aa34035" x="90" y="140.734496" style="stroke: #000000; stroke-width: 0.8"/>
      </g>
     </g>
     <g id="text_12">
      <!-- $\mathdefault{10^{-2}}$ -->
      <g transform="translate(59.5 144.533715) scale(0.1 -0.1)">
       <use xlink:href="#DejaVuSans-31" transform="translate(0 0.765625)"/>
       <use xlink:href="#DejaVuSans-30" transform="translate(63.623047 0.765625)"/>
       <use xlink:href="#DejaVuSans-2212" transform="translate(128.203125 39.046875) scale(0.7)"/>
       <use xlink:href="#DejaVuSans-32" transform="translate(186.855469 39.046875) scale(0.7)"/>
      </g>
     </g>
    </g>
    <g id="ytick_5">
     <g id="line2d_23">
      <path d="M 90 76.852852 
L 648 76.852852 
" clip-path="url(#p1cb21245fd)" style="fill: none; stroke-dasharray: 2.96,1.28; stroke-dashoffset: 0; stroke: #b0b0b0; stroke-width: 0.8"/>
     </g>
     <g id="line2d_24">
      <g>
       <use xlink:href="#mdc2aa34035" x="90" y="76.852852" style="stroke: #000000; stroke-width: 0.8"/>
      </g>
     </g>
     <g id="text_13">
      <!-- $\mathdefault{10^{-1}}$ -->
      <g transform="translate(59.5 80.652071) scale(0.1 -0.1)">
       <use xlink:href="#DejaVuSans-31" transform="translate(0 0.684375)"/>
       <use xlink:href="#DejaVuSans-30" transform="translate(63.623047 0.684375)"/>
       <use xlink:href="#DejaVuSans-2212" transform="translate(128.203125 38.965625) scale(0.7)"/>
       <use xlink:href="#DejaVuSans-31" transform="translate(186.855469 38.965625) scale(0.7)"/>
      </g>
     </g>
    </g>
    <g id="ytick_6">
     <g id="line2d_25">
      <path d="M 90 377.030781 
L 648 377.030781 
" clip-path="url(#p1cb21245fd)" style="fill: none; stroke-dasharray: 2.96,1.28; stroke-dashoffset: 0; stroke: #b0b0b0; stroke-width: 0.8"/>
     </g>
     <g id="line2d_26">
      <defs>
       <path id="m86bcd35ecd" d="M 0 0 
L -2 0 
" style="stroke: #000000; stroke-width: 0.6"/>
      </defs>
      <g>
       <use xlink:href="#m86bcd35ecd" x="90" y="377.030781" style="stroke: #000000; stroke-width: 0.6"/>
      </g>
     </g>
    </g>
    <g id="ytick_7">
     <g id="line2d_27">
      <path d="M 90 365.781782 
L 648 365.781782 
" clip-path="url(#p1cb21245fd)" style="fill: none; stroke-dasharray: 2.96,1.28; stroke-dashoffset: 0; stroke: #b0b0b0; stroke-width: 0.8"/>
     </g>
     <g id="line2d_28">
      <g>
       <use xlink:href="#m86bcd35ecd" x="90" y="365.781782" style="stroke: #000000; stroke-width: 0.6"/>
      </g>
     </g>
    </g>
    <g id="ytick_8">
     <g id="line2d_29">
      <path d="M 90 357.80049 
L 648 357.80049 
" clip-path="url(#p1cb21245fd)" style="fill: none; stroke-dasharray: 2.96,1.28; stroke-dashoffset: 0; stroke: #b0b0b0; stroke-width: 0.8"/>
     </g>
     <g id="line2d_30">
      <g>
       <use xlink:href="#m86bcd35ecd" x="90" y="357.80049" style="stroke: #000000; stroke-width: 0.6"/>
      </g>
     </g>
    </g>
    <g id="ytick_9">
     <g id="line2d_31">
      <path d="M 90 351.609719 
L 648 351.609719 
" clip-path="url(#p1cb21245fd)" style="fill: none; stroke-dasharray: 2.96,1.28; stroke-dashoffset: 0; stroke: #b0b0b0; stroke-width: 0.8"/>
     </g>
     <g id="line2d_32">
      <g>
       <use xlink:href="#m86bcd35ecd" x="90" y="351.609719" style="stroke: #000000; stroke-width: 0.6"/>
      </g>
     </g>
    </g>
    <g id="ytick_10">
     <g id="line2d_33">
      <path d="M 90 346.551491 
L 648 346.551491 
" clip-path="url(#p1cb21245fd)" style="fill: none; stroke-dasharray: 2.96,1.28; stroke-dashoffset: 0; stroke: #b0b0b0; stroke-width: 0.8"/>
     </g>
     <g id="line2d_34">
      <g>
       <use xlink:href="#m86bcd35ecd" x="90" y="346.551491" style="stroke: #000000; stroke-width: 0.6"/>
      </g>
     </g>
    </g>
    <g id="ytick_11">
     <g id="line2d_35">
      <path d="M 90 342.27482 
L 648 342.27482 
" clip-path="url(#p1cb21245fd)" style="fill: none; stroke-dasharray: 2.96,1.28; stroke-dashoffset: 0; stroke: #b0b0b0; stroke-width: 0.8"/>
     </g>
     <g id="line2d_36">
      <g>
       <use xlink:href="#m86bcd35ecd" x="90" y="342.27482" style="stroke: #000000; stroke-width: 0.6"/>
      </g>
     </g>
    </g>
    <g id="ytick_12">
     <g id="line2d_37">
      <path d="M 90 338.570199 
L 648 338.570199 
" clip-path="url(#p1cb21245fd)" style="fill: none; stroke-dasharray: 2.96,1.28; stroke-dashoffset: 0; stroke: #b0b0b0; stroke-width: 0.8"/>
     </g>
     <g id="line2d_38">
      <g>
       <use xlink:href="#m86bcd35ecd" x="90" y="338.570199" style="stroke: #000000; stroke-width: 0.6"/>
      </g>
     </g>
    </g>
    <g id="ytick_13">
     <g id="line2d_39">
      <path d="M 90 335.302492 
L 648 335.302492 
" clip-path="url(#p1cb21245fd)" style="fill: none; stroke-dasharray: 2.96,1.28; stroke-dashoffset: 0; stroke: #b0b0b0; stroke-width: 0.8"/>
     </g>
     <g id="line2d_40">
      <g>
       <use xlink:href="#m86bcd35ecd" x="90" y="335.302492" style="stroke: #000000; stroke-width: 0.6"/>
      </g>
     </g>
    </g>
    <g id="ytick_14">
     <g id="line2d_41">
      <path d="M 90 313.149137 
L 648 313.149137 
" clip-path="url(#p1cb21245fd)" style="fill: none; stroke-dasharray: 2.96,1.28; stroke-dashoffset: 0; stroke: #b0b0b0; stroke-width: 0.8"/>
     </g>
     <g id="line2d_42">
      <g>
       <use xlink:href="#m86bcd35ecd" x="90" y="313.149137" style="stroke: #000000; stroke-width: 0.6"/>
      </g>
     </g>
    </g>
    <g id="ytick_15">
     <g id="line2d_43">
      <path d="M 90 301.900138 
L 648 301.900138 
" clip-path="url(#p1cb21245fd)" style="fill: none; stroke-dasharray: 2.96,1.28; stroke-dashoffset: 0; stroke: #b0b0b0; stroke-width: 0.8"/>
     </g>
     <g id="line2d_44">
      <g>
       <use xlink:href="#m86bcd35ecd" x="90" y="301.900138" style="stroke: #000000; stroke-width: 0.6"/>
      </g>
     </g>
    </g>
    <g id="ytick_16">
     <g id="line2d_45">
      <path d="M 90 293.918846 
L 648 293.918846 
" clip-path="url(#p1cb21245fd)" style="fill: none; stroke-dasharray: 2.96,1.28; stroke-dashoffset: 0; stroke: #b0b0b0; stroke-width: 0.8"/>
     </g>
     <g id="line2d_46">
      <g>
       <use xlink:href="#m86bcd35ecd" x="90" y="293.918846" style="stroke: #000000; stroke-width: 0.6"/>
      </g>
     </g>
    </g>
    <g id="ytick_17">
     <g id="line2d_47">
      <path d="M 90 287.728075 
L 648 287.728075 
" clip-path="url(#p1cb21245fd)" style="fill: none; stroke-dasharray: 2.96,1.28; stroke-dashoffset: 0; stroke: #b0b0b0; stroke-width: 0.8"/>
     </g>
     <g id="line2d_48">
      <g>
       <use xlink:href="#m86bcd35ecd" x="90" y="287.728075" style="stroke: #000000; stroke-width: 0.6"/>
      </g>
     </g>
    </g>
    <g id="ytick_18">
     <g id="line2d_49">
      <path d="M 90 282.669847 
L 648 282.669847 
" clip-path="url(#p1cb21245fd)" style="fill: none; stroke-dasharray: 2.96,1.28; stroke-dashoffset: 0; stroke: #b0b0b0; stroke-width: 0.8"/>
     </g>
     <g id="line2d_50">
      <g>
       <use xlink:href="#m86bcd35ecd" x="90" y="282.669847" style="stroke: #000000; stroke-width: 0.6"/>
      </g>
     </g>
    </g>
    <g id="ytick_19">
     <g id="line2d_51">
      <path d="M 90 278.393176 
L 648 278.393176 
" clip-path="url(#p1cb21245fd)" style="fill: none; stroke-dasharray: 2.96,1.28; stroke-dashoffset: 0; stroke: #b0b0b0; stroke-width: 0.8"/>
     </g>
     <g id="line2d_52">
      <g>
       <use xlink:href="#m86bcd35ecd" x="90" y="278.393176" style="stroke: #000000; stroke-width: 0.6"/>
      </g>
     </g>
    </g>
    <g id="ytick_20">
     <g id="line2d_53">
      <path d="M 90 274.688555 
L 648 274.688555 
" clip-path="url(#p1cb21245fd)" style="fill: none; stroke-dasharray: 2.96,1.28; stroke-dashoffset: 0; stroke: #b0b0b0; stroke-width: 0.8"/>
     </g>
     <g id="line2d_54">
      <g>
       <use xlink:href="#m86bcd35ecd" x="90" y="274.688555" style="stroke: #000000; stroke-width: 0.6"/>
      </g>
     </g>
    </g>
    <g id="ytick_21">
     <g id="line2d_55">
      <path d="M 90 271.420848 
L 648 271.420848 
" clip-path="url(#p1cb21245fd)" style="fill: none; stroke-dasharray: 2.96,1.28; stroke-dashoffset: 0; stroke: #b0b0b0; stroke-width: 0.8"/>
     </g>
     <g id="line2d_56">
      <g>
       <use xlink:href="#m86bcd35ecd" x="90" y="271.420848" style="stroke: #000000; stroke-width: 0.6"/>
      </g>
     </g>
    </g>
    <g id="ytick_22">
     <g id="line2d_57">
      <path d="M 90 249.267493 
L 648 249.267493 
" clip-path="url(#p1cb21245fd)" style="fill: none; stroke-dasharray: 2.96,1.28; stroke-dashoffset: 0; stroke: #b0b0b0; stroke-width: 0.8"/>
     </g>
     <g id="line2d_58">
      <g>
       <use xlink:href="#m86bcd35ecd" x="90" y="249.267493" style="stroke: #000000; stroke-width: 0.6"/>
      </g>
     </g>
    </g>
    <g id="ytick_23">
     <g id="line2d_59">
      <path d="M 90 238.018494 
L 648 238.018494 
" clip-path="url(#p1cb21245fd)" style="fill: none; stroke-dasharray: 2.96,1.28; stroke-dashoffset: 0; stroke: #b0b0b0; stroke-width: 0.8"/>
     </g>
     <g id="line2d_60">
      <g>
       <use xlink:href="#m86bcd35ecd" x="90" y="238.018494" style="stroke: #000000; stroke-width: 0.6"/>
      </g>
     </g>
    </g>
    <g id="ytick_24">
     <g id="line2d_61">
      <path d="M 90 230.037202 
L 648 230.037202 
" clip-path="url(#p1cb21245fd)" style="fill: none; stroke-dasharray: 2.96,1.28; stroke-dashoffset: 0; stroke: #b0b0b0; stroke-width: 0.8"/>
     </g>
     <g id="line2d_62">
      <g>
       <use xlink:href="#m86bcd35ecd" x="90" y="230.037202" style="stroke: #000000; stroke-width: 0.6"/>
      </g>
     </g>
    </g>
    <g id="ytick_25">
     <g id="line2d_63">
      <path d="M 90 223.846431 
L 648 223.846431 
" clip-path="url(#p1cb21245fd)" style="fill: none; stroke-dasharray: 2.96,1.28; stroke-dashoffset: 0; stroke: #b0b0b0; stroke-width: 0.8"/>
     </g>
     <g id="line2d_64">
      <g>
       <use xlink:href="#m86bcd35ecd" x="90" y="223.846431" style="stroke: #000000; stroke-width: 0.6"/>
      </g>
     </g>
    </g>
    <g id="ytick_26">
     <g id="line2d_65">
      <path d="M 90 218.788203 
L 648 218.788203 
" clip-path="url(#p1cb21245fd)" style="fill: none; stroke-dasharray: 2.96,1.28; stroke-dashoffset: 0; stroke: #b0b0b0; stroke-width: 0.8"/>
     </g>
     <g id="line2d_66">
      <g>
       <use xlink:href="#m86bcd35ecd" x="90" y="218.788203" style="stroke: #000000; stroke-width: 0.6"/>
      </g>
     </g>
    </g>
    <g id="ytick_27">
     <g id="line2d_67">
      <path d="M 90 214.511532 
L 648 214.511532 
" clip-path="url(#p1cb21245fd)" style="fill: none; stroke-dasharray: 2.96,1.28; stroke-dashoffset: 0; stroke: #b0b0b0; stroke-width: 0.8"/>
     </g>
     <g id="line2d_68">
      <g>
       <use xlink:href="#m86bcd35ecd" x="90" y="214.511532" style="stroke: #000000; stroke-width: 0.6"/>
      </g>
     </g>
    </g>
    <g id="ytick_28">
     <g id="line2d_69">
      <path d="M 90 210.806911 
L 648 210.806911 
" clip-path="url(#p1cb21245fd)" style="fill: none; stroke-dasharray: 2.96,1.28; stroke-dashoffset: 0; stroke: #b0b0b0; stroke-width: 0.8"/>
     </g>
     <g id="line2d_70">
      <g>
       <use xlink:href="#m86bcd35ecd" x="90" y="210.806911" style="stroke: #000000; stroke-width: 0.6"/>
      </g>
     </g>
    </g>
    <g id="ytick_29">
     <g id="line2d_71">
      <path d="M 90 207.539204 
L 648 207.539204 
" clip-path="url(#p1cb21245fd)" style="fill: none; stroke-dasharray: 2.96,1.28; stroke-dashoffset: 0; stroke: #b0b0b0; stroke-width: 0.8"/>
     </g>
     <g id="line2d_72">
      <g>
       <use xlink:href="#m86bcd35ecd" x="90" y="207.539204" style="stroke: #000000; stroke-width: 0.6"/>
      </g>
     </g>
    </g>
    <g id="ytick_30">
     <g id="line2d_73">
      <path d="M 90 185.385849 
L 648 185.385849 
" clip-path="url(#p1cb21245fd)" style="fill: none; stroke-dasharray: 2.96,1.28; stroke-dashoffset: 0; stroke: #b0b0b0; stroke-width: 0.8"/>
     </g>
     <g id="line2d_74">
      <g>
       <use xlink:href="#m86bcd35ecd" x="90" y="185.385849" style="stroke: #000000; stroke-width: 0.6"/>
      </g>
     </g>
    </g>
    <g id="ytick_31">
     <g id="line2d_75">
      <path d="M 90 174.13685 
L 648 174.13685 
" clip-path="url(#p1cb21245fd)" style="fill: none; stroke-dasharray: 2.96,1.28; stroke-dashoffset: 0; stroke: #b0b0b0; stroke-width: 0.8"/>
     </g>
     <g id="line2d_76">
      <g>
       <use xlink:href="#m86bcd35ecd" x="90" y="174.13685" style="stroke: #000000; stroke-width: 0.6"/>
      </g>
     </g>
    </g>
    <g id="ytick_32">
     <g id="line2d_77">
      <path d="M 90 166.155558 
L 648 166.155558 
" clip-path="url(#p1cb21245fd)" style="fill: none; stroke-dasharray: 2.96,1.28; stroke-dashoffset: 0; stroke: #b0b0b0; stroke-width: 0.8"/>
     </g>
     <g id="line2d_78">
      <g>
       <use xlink:href="#m86bcd35ecd" x="90" y="166.155558" style="stroke: #000000; stroke-width: 0.6"/>
      </g>
     </g>
    </g>
    <g id="ytick_33">
     <g id="line2d_79">
      <path d="M 90 159.964787 
L 648 159.964787 
" clip-path="url(#p1cb21245fd)" style="fill: none; stroke-dasharray: 2.96,1.28; stroke-dashoffset: 0; stroke: #b0b0b0; stroke-width: 0.8"/>
     </g>
     <g id="line2d_80">
      <g>
       <use xlink:href="#m86bcd35ecd" x="90" y="159.964787" style="stroke: #000000; stroke-width: 0.6"/>
      </g>
     </g>
    </g>
    <g id="ytick_34">
     <g id="line2d_81">
      <path d="M 90 154.906559 
L 648 154.906559 
" clip-path="url(#p1cb21245fd)" style="fill: none; stroke-dasharray: 2.96,1.28; stroke-dashoffset: 0; stroke: #b0b0b0; stroke-width: 0.8"/>
     </g>
     <g id="line2d_82">
      <g>
       <use xlink:href="#m86bcd35ecd" x="90" y="154.906559" style="stroke: #000000; stroke-width: 0.6"/>
      </g>
     </g>
    </g>
    <g id="ytick_35">
     <g id="line2d_83">
      <path d="M 90 150.629888 
L 648 150.629888 
" clip-path="url(#p1cb21245fd)" style="fill: none; stroke-dasharray: 2.96,1.28; stroke-dashoffset: 0; stroke: #b0b0b0; stroke-width: 0.8"/>
     </g>
     <g id="line2d_84">
      <g>
       <use xlink:href="#m86bcd35ecd" x="90" y="150.629888" style="stroke: #000000; stroke-width: 0.6"/>
      </g>
     </g>
    </g>
    <g id="ytick_36">
     <g id="line2d_85">
      <path d="M 90 146.925267 
L 648 146.925267 
" clip-path="url(#p1cb21245fd)" style="fill: none; stroke-dasharray: 2.96,1.28; stroke-dashoffset: 0; stroke: #b0b0b0; stroke-width: 0.8"/>
     </g>
     <g id="line2d_86">
      <g>
       <use xlink:href="#m86bcd35ecd" x="90" y="146.925267" style="stroke: #000000; stroke-width: 0.6"/>
      </g>
     </g>
    </g>
    <g id="ytick_37">
     <g id="line2d_87">
      <path d="M 90 143.65756 
L 648 143.65756 
" clip-path="url(#p1cb21245fd)" style="fill: none; stroke-dasharray: 2.96,1.28; stroke-dashoffset: 0; stroke: #b0b0b0; stroke-width: 0.8"/>
     </g>
     <g id="line2d_88">
      <g>
       <use xlink:href="#m86bcd35ecd" x="90" y="143.65756" style="stroke: #000000; stroke-width: 0.6"/>
      </g>
     </g>
    </g>
    <g id="ytick_38">
     <g id="line2d_89">
      <path d="M 90 121.504205 
L 648 121.504205 
" clip-path="url(#p1cb21245fd)" style="fill: none; stroke-dasharray: 2.96,1.28; stroke-dashoffset: 0; stroke: #b0b0b0; stroke-width: 0.8"/>
     </g>
     <g id="line2d_90">
      <g>
       <use xlink:href="#m86bcd35ecd" x="90" y="121.504205" style="stroke: #000000; stroke-width: 0.6"/>
      </g>
     </g>
    </g>
    <g id="ytick_39">
     <g id="line2d_91">
      <path d="M 90 110.255206 
L 648 110.255206 
" clip-path="url(#p1cb21245fd)" style="fill: none; stroke-dasharray: 2.96,1.28; stroke-dashoffset: 0; stroke: #b0b0b0; stroke-width: 0.8"/>
     </g>
     <g id="line2d_92">
      <g>
       <use xlink:href="#m86bcd35ecd" x="90" y="110.255206" style="stroke: #000000; stroke-width: 0.6"/>
      </g>
     </g>
    </g>
    <g id="ytick_40">
     <g id="line2d_93">
      <path d="M 90 102.273914 
L 648 102.273914 
" clip-path="url(#p1cb21245fd)" style="fill: none; stroke-dasharray: 2.96,1.28; stroke-dashoffset: 0; stroke: #b0b0b0; stroke-width: 0.8"/>
     </g>
     <g id="line2d_94">
      <g>
       <use xlink:href="#m86bcd35ecd" x="90" y="102.273914" style="stroke: #000000; stroke-width: 0.6"/>
      </g>
     </g>
    </g>
    <g id="ytick_41">
     <g id="line2d_95">
      <path d="M 90 96.083143 
L 648 96.083143 
" clip-path="url(#p1cb21245fd)" style="fill: none; stroke-dasharray: 2.96,1.28; stroke-dashoffset: 0; stroke: #b0b0b0; stroke-width: 0.8"/>
     </g>
     <g id="line2d_96">
      <g>
       <use xlink:href="#m86bcd35ecd" x="90" y="96.083143" style="stroke: #000000; stroke-width: 0.6"/>
      </g>
     </g>
    </g>
    <g id="ytick_42">
     <g id="line2d_97">
      <path d="M 90 91.024915 
L 648 91.024915 
" clip-path="url(#p1cb21245fd)" style="fill: none; stroke-dasharray: 2.96,1.28; stroke-dashoffset: 0; stroke: #b0b0b0; stroke-width: 0.8"/>
     </g>
     <g id="line2d_98">
      <g>
       <use xlink:href="#m86bcd35ecd" x="90" y="91.024915" style="stroke: #000000; stroke-width: 0.6"/>
      </g>
     </g>
    </g>
    <g id="ytick_43">
     <g id="line2d_99">
      <path d="M 90 86.748244 
L 648 86.748244 
" clip-path="url(#p1cb21245fd)" style="fill: none; stroke-dasharray: 2.96,1.28; stroke-dashoffset: 0; stroke: #b0b0b0; stroke-width: 0.8"/>
     </g>
     <g id="line2d_100">
      <g>
       <use xlink:href="#m86bcd35ecd" x="90" y="86.748244" style="stroke: #000000; stroke-width: 0.6"/>
      </g>
     </g>
    </g>
    <g id="ytick_44">
     <g id="line2d_101">
      <path d="M 90 83.043623 
L 648 83.043623 
" clip-path="url(#p1cb21245fd)" style="fill: none; stroke-dasharray: 2.96,1.28; stroke-dashoffset: 0; stroke: #b0b0b0; stroke-width: 0.8"/>
     </g>
     <g id="line2d_102">
      <g>
       <use xlink:href="#m86bcd35ecd" x="90" y="83.043623" style="stroke: #000000; stroke-width: 0.6"/>
      </g>
     </g>
    </g>
    <g id="ytick_45">
     <g id="line2d_103">
      <path d="M 90 79.775916 
L 648 79.775916 
" clip-path="url(#p1cb21245fd)" style="fill: none; stroke-dasharray: 2.96,1.28; stroke-dashoffset: 0; stroke: #b0b0b0; stroke-width: 0.8"/>
     </g>
     <g id="line2d_104">
      <g>
       <use xlink:href="#m86bcd35ecd" x="90" y="79.775916" style="stroke: #000000; stroke-width: 0.6"/>
      </g>
     </g>
    </g>
    <g id="ytick_46">
     <g id="line2d_105">
      <path d="M 90 57.622561 
L 648 57.622561 
" clip-path="url(#p1cb21245fd)" style="fill: none; stroke-dasharray: 2.96,1.28; stroke-dashoffset: 0; stroke: #b0b0b0; stroke-width: 0.8"/>
     </g>
     <g id="line2d_106">
      <g>
       <use xlink:href="#m86bcd35ecd" x="90" y="57.622561" style="stroke: #000000; stroke-width: 0.6"/>
      </g>
     </g>
    </g>
    <g id="text_14">
     <!-- Huber Loss (Normalized) -->
     <g transform="translate(53.420312 279.7975) rotate(-90) scale(0.1 -0.1)">
      <defs>
       <path id="DejaVuSans-48" d="M 628 4666 
L 1259 4666 
L 1259 2753 
L 3553 2753 
L 3553 4666 
L 4184 4666 
L 4184 0 
L 3553 0 
L 3553 2222 
L 1259 2222 
L 1259 0 
L 628 0 
L 628 4666 
z
" transform="scale(0.015625)"/>
       <path id="DejaVuSans-75" d="M 544 1381 
L 544 3500 
L 1119 3500 
L 1119 1403 
Q 1119 906 1312 657 
Q 1506 409 1894 409 
Q 2359 409 2629 706 
Q 2900 1003 2900 1516 
L 2900 3500 
L 3475 3500 
L 3475 0 
L 2900 0 
L 2900 538 
Q 2691 219 2414 64 
Q 2138 -91 1772 -91 
Q 1169 -91 856 284 
Q 544 659 544 1381 
z
M 1991 3584 
L 1991 3584 
z
" transform="scale(0.015625)"/>
       <path id="DejaVuSans-62" d="M 3116 1747 
Q 3116 2381 2855 2742 
Q 2594 3103 2138 3103 
Q 1681 3103 1420 2742 
Q 1159 2381 1159 1747 
Q 1159 1113 1420 752 
Q 1681 391 2138 391 
Q 2594 391 2855 752 
Q 3116 1113 3116 1747 
z
M 1159 2969 
Q 1341 3281 1617 3432 
Q 1894 3584 2278 3584 
Q 2916 3584 3314 3078 
Q 3713 2572 3713 1747 
Q 3713 922 3314 415 
Q 2916 -91 2278 -91 
Q 1894 -91 1617 61 
Q 1341 213 1159 525 
L 1159 0 
L 581 0 
L 581 4863 
L 1159 4863 
L 1159 2969 
z
" transform="scale(0.015625)"/>
       <path id="DejaVuSans-65" d="M 3597 1894 
L 3597 1613 
L 953 1613 
Q 991 1019 1311 708 
Q 1631 397 2203 397 
Q 2534 397 2845 478 
Q 3156 559 3463 722 
L 3463 178 
Q 3153 47 2828 -22 
Q 2503 -91 2169 -91 
Q 1331 -91 842 396 
Q 353 884 353 1716 
Q 353 2575 817 3079 
Q 1281 3584 2069 3584 
Q 2775 3584 3186 3129 
Q 3597 2675 3597 1894 
z
M 3022 2063 
Q 3016 2534 2758 2815 
Q 2500 3097 2075 3097 
Q 1594 3097 1305 2825 
Q 1016 2553 972 2059 
L 3022 2063 
z
" transform="scale(0.015625)"/>
       <path id="DejaVuSans-72" d="M 2631 2963 
Q 2534 3019 2420 3045 
Q 2306 3072 2169 3072 
Q 1681 3072 1420 2755 
Q 1159 2438 1159 1844 
L 1159 0 
L 581 0 
L 581 3500 
L 1159 3500 
L 1159 2956 
Q 1341 3275 1631 3429 
Q 1922 3584 2338 3584 
Q 2397 3584 2469 3576 
Q 2541 3569 2628 3553 
L 2631 2963 
z
" transform="scale(0.015625)"/>
       <path id="DejaVuSans-20" transform="scale(0.015625)"/>
       <path id="DejaVuSans-4c" d="M 628 4666 
L 1259 4666 
L 1259 531 
L 3531 531 
L 3531 0 
L 628 0 
L 628 4666 
z
" transform="scale(0.015625)"/>
       <path id="DejaVuSans-73" d="M 2834 3397 
L 2834 2853 
Q 2591 2978 2328 3040 
Q 2066 3103 1784 3103 
Q 1356 3103 1142 2972 
Q 928 2841 928 2578 
Q 928 2378 1081 2264 
Q 1234 2150 1697 2047 
L 1894 2003 
Q 2506 1872 2764 1633 
Q 3022 1394 3022 966 
Q 3022 478 2636 193 
Q 2250 -91 1575 -91 
Q 1294 -91 989 -36 
Q 684 19 347 128 
L 347 722 
Q 666 556 975 473 
Q 1284 391 1588 391 
Q 1994 391 2212 530 
Q 2431 669 2431 922 
Q 2431 1156 2273 1281 
Q 2116 1406 1581 1522 
L 1381 1569 
Q 847 1681 609 1914 
Q 372 2147 372 2553 
Q 372 3047 722 3315 
Q 1072 3584 1716 3584 
Q 2034 3584 2315 3537 
Q 2597 3491 2834 3397 
z
" transform="scale(0.015625)"/>
       <path id="DejaVuSans-28" d="M 1984 4856 
Q 1566 4138 1362 3434 
Q 1159 2731 1159 2009 
Q 1159 1288 1364 580 
Q 1569 -128 1984 -844 
L 1484 -844 
Q 1016 -109 783 600 
Q 550 1309 550 2009 
Q 550 2706 781 3412 
Q 1013 4119 1484 4856 
L 1984 4856 
z
" transform="scale(0.015625)"/>
       <path id="DejaVuSans-4e" d="M 628 4666 
L 1478 4666 
L 3547 763 
L 3547 4666 
L 4159 4666 
L 4159 0 
L 3309 0 
L 1241 3903 
L 1241 0 
L 628 0 
L 628 4666 
z
" transform="scale(0.015625)"/>
       <path id="DejaVuSans-6d" d="M 3328 2828 
Q 3544 3216 3844 3400 
Q 4144 3584 4550 3584 
Q 5097 3584 5394 3201 
Q 5691 2819 5691 2113 
L 5691 0 
L 5113 0 
L 5113 2094 
Q 5113 2597 4934 2840 
Q 4756 3084 4391 3084 
Q 3944 3084 3684 2787 
Q 3425 2491 3425 1978 
L 3425 0 
L 2847 0 
L 2847 2094 
Q 2847 2600 2669 2842 
Q 2491 3084 2119 3084 
Q 1678 3084 1418 2786 
Q 1159 2488 1159 1978 
L 1159 0 
L 581 0 
L 581 3500 
L 1159 3500 
L 1159 2956 
Q 1356 3278 1631 3431 
Q 1906 3584 2284 3584 
Q 2666 3584 2933 3390 
Q 3200 3197 3328 2828 
z
" transform="scale(0.015625)"/>
       <path id="DejaVuSans-61" d="M 2194 1759 
Q 1497 1759 1228 1600 
Q 959 1441 959 1056 
Q 959 750 1161 570 
Q 1363 391 1709 391 
Q 2188 391 2477 730 
Q 2766 1069 2766 1631 
L 2766 1759 
L 2194 1759 
z
M 3341 1997 
L 3341 0 
L 2766 0 
L 2766 531 
Q 2569 213 2275 61 
Q 1981 -91 1556 -91 
Q 1019 -91 701 211 
Q 384 513 384 1019 
Q 384 1609 779 1909 
Q 1175 2209 1959 2209 
L 2766 2209 
L 2766 2266 
Q 2766 2663 2505 2880 
Q 2244 3097 1772 3097 
Q 1472 3097 1187 3025 
Q 903 2953 641 2809 
L 641 3341 
Q 956 3463 1253 3523 
Q 1550 3584 1831 3584 
Q 2591 3584 2966 3190 
Q 3341 2797 3341 1997 
z
" transform="scale(0.015625)"/>
       <path id="DejaVuSans-6c" d="M 603 4863 
L 1178 4863 
L 1178 0 
L 603 0 
L 603 4863 
z
" transform="scale(0.015625)"/>
       <path id="DejaVuSans-69" d="M 603 3500 
L 1178 3500 
L 1178 0 
L 603 0 
L 603 3500 
z
M 603 4863 
L 1178 4863 
L 1178 4134 
L 603 4134 
L 603 4863 
z
" transform="scale(0.015625)"/>
       <path id="DejaVuSans-7a" d="M 353 3500 
L 3084 3500 
L 3084 2975 
L 922 459 
L 3084 459 
L 3084 0 
L 275 0 
L 275 525 
L 2438 3041 
L 353 3041 
L 353 3500 
z
" transform="scale(0.015625)"/>
       <path id="DejaVuSans-64" d="M 2906 2969 
L 2906 4863 
L 3481 4863 
L 3481 0 
L 2906 0 
L 2906 525 
Q 2725 213 2448 61 
Q 2172 -91 1784 -91 
Q 1150 -91 751 415 
Q 353 922 353 1747 
Q 353 2572 751 3078 
Q 1150 3584 1784 3584 
Q 2172 3584 2448 3432 
Q 2725 3281 2906 2969 
z
M 947 1747 
Q 947 1113 1208 752 
Q 1469 391 1925 391 
Q 2381 391 2643 752 
Q 2906 1113 2906 1747 
Q 2906 2381 2643 2742 
Q 2381 3103 1925 3103 
Q 1469 3103 1208 2742 
Q 947 2381 947 1747 
z
" transform="scale(0.015625)"/>
       <path id="DejaVuSans-29" d="M 513 4856 
L 1013 4856 
Q 1481 4119 1714 3412 
Q 1947 2706 1947 2009 
Q 1947 1309 1714 600 
Q 1481 -109 1013 -844 
L 513 -844 
Q 928 -128 1133 580 
Q 1338 1288 1338 2009 
Q 1338 2731 1133 3434 
Q 928 4138 513 4856 
z
" transform="scale(0.015625)"/>
      </defs>
      <use xlink:href="#DejaVuSans-48"/>
      <use xlink:href="#DejaVuSans-75" transform="translate(75.195312 0)"/>
      <use xlink:href="#DejaVuSans-62" transform="translate(138.574219 0)"/>
      <use xlink:href="#DejaVuSans-65" transform="translate(202.050781 0)"/>
      <use xlink:href="#DejaVuSans-72" transform="translate(263.574219 0)"/>
      <use xlink:href="#DejaVuSans-20" transform="translate(304.6875 0)"/>
      <use xlink:href="#DejaVuSans-4c" transform="translate(336.474609 0)"/>
      <use xlink:href="#DejaVuSans-6f" transform="translate(390.4375 0)"/>
      <use xlink:href="#DejaVuSans-73" transform="translate(451.619141 0)"/>
      <use xlink:href="#DejaVuSans-73" transform="translate(503.71875 0)"/>
      <use xlink:href="#DejaVuSans-20" transform="translate(555.818359 0)"/>
      <use xlink:href="#DejaVuSans-28" transform="translate(587.605469 0)"/>
      <use xlink:href="#DejaVuSans-4e" transform="translate(626.619141 0)"/>
      <use xlink:href="#DejaVuSans-6f" transform="translate(701.423828 0)"/>
      <use xlink:href="#DejaVuSans-72" transform="translate(762.605469 0)"/>
      <use xlink:href="#DejaVuSans-6d" transform="translate(801.96875 0)"/>
      <use xlink:href="#DejaVuSans-61" transform="translate(899.380859 0)"/>
      <use xlink:href="#DejaVuSans-6c" transform="translate(960.660156 0)"/>
      <use xlink:href="#DejaVuSans-69" transform="translate(988.443359 0)"/>
      <use xlink:href="#DejaVuSans-7a" transform="translate(1016.226562 0)"/>
      <use xlink:href="#DejaVuSans-65" transform="translate(1068.716797 0)"/>
      <use xlink:href="#DejaVuSans-64" transform="translate(1130.240234 0)"/>
      <use xlink:href="#DejaVuSans-29" transform="translate(1193.716797 0)"/>
     </g>
    </g>
   </g>
   <g id="line2d_107">
    <path d="M 115.363636 66.96 
L 116.209091 141.996188 
L 117.054545 167.219003 
L 117.9 179.887809 
L 118.745455 190.780608 
L 119.590909 197.230338 
L 120.436364 206.280271 
L 122.127273 221.603422 
L 122.972727 225.374236 
L 123.818182 226.402569 
L 125.509091 233.823938 
L 126.354545 233.640324 
L 127.2 239.064065 
L 128.045455 243.067624 
L 128.890909 240.794547 
L 129.736364 242.252429 
L 130.581818 240.732678 
L 131.427273 245.069259 
L 132.272727 244.515227 
L 133.118182 241.772676 
L 133.963636 240.335982 
L 134.809091 236.9646 
L 135.654545 230.696458 
L 136.5 241.644012 
L 137.345455 246.326206 
L 138.190909 230.037022 
L 139.036364 239.586464 
L 139.881818 245.967264 
L 140.727273 251.089371 
L 141.572727 252.232861 
L 143.263636 257.168227 
L 144.109091 245.54049 
L 144.954545 251.043818 
L 145.8 244.528499 
L 147.490909 226.839553 
L 148.336364 248.264283 
L 149.181818 262.229164 
L 150.027273 253.573259 
L 150.872727 242.079543 
L 151.718182 237.546099 
L 152.563636 240.97497 
L 153.409091 250.976578 
L 154.254545 259.570471 
L 155.1 256.814288 
L 155.945455 259.235551 
L 156.790909 262.037604 
L 157.636364 243.74789 
L 158.481818 250.319524 
L 159.327273 238.325356 
L 160.172727 242.873249 
L 161.018182 250.186662 
L 161.863636 268.521801 
L 162.709091 269.948079 
L 163.554545 248.154341 
L 164.4 244.663899 
L 165.245455 248.546181 
L 166.090909 254.274642 
L 166.936364 265.207558 
L 167.781818 258.460943 
L 168.627273 240.05557 
L 169.472727 248.634744 
L 170.318182 256.033893 
L 171.163636 266.61679 
L 172.009091 273.984172 
L 172.854545 276.373578 
L 173.7 275.924748 
L 174.545455 274.858651 
L 175.390909 254.788772 
L 176.236364 252.291223 
L 177.081818 267.77713 
L 177.927273 258.048502 
L 178.772727 238.025234 
L 179.618182 257.061655 
L 180.463636 256.60551 
L 181.309091 257.80566 
L 182.154545 244.820467 
L 183 246.533212 
L 183.845455 265.472163 
L 184.690909 272.908078 
L 185.536364 250.24442 
L 186.381818 266.630914 
L 187.227273 275.554015 
L 188.072727 276.102163 
L 188.918182 246.831597 
L 189.763636 237.720268 
L 190.609091 246.971521 
L 191.454545 232.58399 
L 192.3 220.60945 
L 193.145455 240.527121 
L 193.990909 263.645383 
L 194.836364 279.227117 
L 195.681818 284.773837 
L 196.527273 287.322063 
L 197.372727 281.64798 
L 198.218182 286.916825 
L 199.063636 266.766642 
L 199.909091 265.703137 
L 200.754545 262.735865 
L 201.6 256.581978 
L 202.445455 221.279695 
L 203.290909 209.673858 
L 204.136364 241.872663 
L 204.981818 252.488638 
L 205.827273 259.727939 
L 206.672727 262.614404 
L 207.518182 274.65832 
L 208.363636 276.461707 
L 209.209091 281.194755 
L 210.054545 289.275114 
L 210.9 289.617601 
L 211.745455 281.859931 
L 212.590909 248.613378 
L 213.436364 273.030053 
L 214.281818 271.127904 
L 215.127273 276.638834 
L 215.972727 227.392732 
L 216.818182 247.81385 
L 217.663636 263.225626 
L 218.509091 282.121741 
L 219.354545 287.029831 
L 220.2 290.529057 
L 221.045455 283.45781 
L 221.890909 291.296678 
L 222.736364 290.188135 
L 223.581818 267.362087 
L 224.427273 252.798834 
L 225.272727 255.944772 
L 226.118182 257.887288 
L 226.963636 250.959773 
L 228.654545 253.266822 
L 229.5 257.387568 
L 230.345455 262.964614 
L 231.190909 272.750693 
L 232.036364 258.006628 
L 232.881818 280.393197 
L 233.727273 278.769555 
L 234.572727 276.262288 
L 235.418182 270.952998 
L 236.263636 262.425382 
L 237.109091 282.970516 
L 237.954545 269.959108 
L 238.8 204.760315 
L 239.645455 220.657377 
L 240.490909 262.339166 
L 241.336364 272.593134 
L 242.181818 289.105238 
L 243.027273 288.708956 
L 244.718182 298.747455 
L 245.563636 304.457766 
L 246.409091 304.361021 
L 247.254545 302.489291 
L 248.1 296.624745 
L 248.945455 297.43224 
L 249.790909 296.457745 
L 250.636364 293.34735 
L 251.481818 295.217278 
L 252.327273 291.309267 
L 253.172727 290.645058 
L 254.018182 281.675267 
L 255.709091 295.921908 
L 256.554545 271.571992 
L 257.4 238.193283 
L 258.245455 243.58954 
L 259.090909 226.368559 
L 259.936364 232.140293 
L 260.781818 225.954951 
L 261.627273 245.002691 
L 262.472727 245.527664 
L 263.318182 268.735554 
L 264.163636 286.203142 
L 265.009091 296.605702 
L 265.854545 304.782903 
L 266.7 305.83268 
L 267.545455 304.435508 
L 268.390909 284.50839 
L 269.236364 305.793253 
L 270.081818 303.668012 
L 270.927273 298.522074 
L 271.772727 301.483079 
L 272.618182 290.856729 
L 273.463636 296.025535 
L 274.309091 292.158878 
L 275.154545 285.806246 
L 276 285.468898 
L 276.845455 292.529336 
L 278.536364 275.793994 
L 279.381818 289.830703 
L 280.227273 251.702038 
L 281.072727 240.271245 
L 281.918182 268.465279 
L 282.763636 281.375351 
L 283.609091 292.204396 
L 284.454545 297.26489 
L 285.3 278.956086 
L 286.145455 276.388355 
L 286.990909 286.817687 
L 287.836364 285.875387 
L 288.681818 286.031993 
L 289.527273 267.964425 
L 290.372727 261.83009 
L 291.218182 261.764754 
L 292.063636 271.6206 
L 292.909091 277.004134 
L 293.754545 267.976519 
L 294.6 262.124757 
L 295.445455 257.352035 
L 296.290909 232.142036 
L 297.136364 232.573509 
L 298.827273 283.818563 
L 299.672727 271.644265 
L 300.518182 279.672704 
L 301.363636 299.926558 
L 302.209091 315.231331 
L 303.054545 320.797191 
L 303.9 317.86194 
L 304.745455 318.110422 
L 305.590909 314.446414 
L 306.436364 294.35402 
L 307.281818 292.157064 
L 308.127273 276.999698 
L 308.972727 276.720603 
L 309.818182 285.254232 
L 310.663636 298.433642 
L 311.509091 289.202472 
L 312.354545 288.937502 
L 313.2 288.844111 
L 314.045455 288.34431 
L 314.890909 295.800395 
L 315.736364 287.253298 
L 316.581818 273.519419 
L 317.427273 231.647731 
L 318.272727 244.021429 
L 319.118182 252.226816 
L 319.963636 263.481658 
L 320.809091 263.741408 
L 321.654545 269.594162 
L 322.5 277.429355 
L 323.345455 293.875547 
L 324.190909 280.078842 
L 325.036364 277.882902 
L 325.881818 279.912198 
L 326.727273 287.243634 
L 327.572727 281.459346 
L 328.418182 270.45755 
L 329.263636 285.013404 
L 330.109091 289.83677 
L 330.954545 302.918949 
L 331.8 301.237794 
L 332.645455 293.535168 
L 333.490909 282.083139 
L 334.336364 281.444252 
L 335.181818 285.225245 
L 336.027273 295.241398 
L 336.872727 293.292148 
L 337.718182 295.37695 
L 338.563636 306.337048 
L 339.409091 287.921776 
L 340.254545 261.95743 
L 341.1 262.371994 
L 341.945455 264.473012 
L 342.790909 278.456088 
L 343.636364 280.72723 
L 344.481818 297.681774 
L 345.327273 296.96167 
L 346.172727 287.978963 
L 347.018182 289.722103 
L 347.863636 284.41444 
L 348.709091 281.813334 
L 349.554545 264.038717 
L 350.4 267.462657 
L 351.245455 276.183428 
L 352.936364 251.546964 
L 353.781818 270.773839 
L 354.627273 279.71412 
L 355.472727 296.590873 
L 356.318182 299.699456 
L 357.163636 262.125159 
L 358.009091 250.182573 
L 359.7 273.667312 
L 360.545455 275.351208 
L 362.236364 306.889666 
L 363.081818 310.983962 
L 363.927273 306.83407 
L 364.772727 307.206488 
L 365.618182 307.311126 
L 366.463636 310.398281 
L 367.309091 303.108605 
L 368.154545 290.044354 
L 369 271.321727 
L 369.845455 280.623029 
L 370.690909 291.746979 
L 371.536364 306.761937 
L 372.381818 305.959938 
L 373.227273 304.567405 
L 374.072727 274.34795 
L 374.918182 285.359382 
L 375.763636 279.888445 
L 376.609091 271.875239 
L 377.454545 272.722941 
L 378.3 290.152676 
L 379.145455 303.805616 
L 379.990909 305.091085 
L 380.836364 299.83871 
L 381.681818 307.802341 
L 382.527273 298.644545 
L 383.372727 278.476647 
L 384.218182 278.250565 
L 385.063636 302.059545 
L 385.909091 282.243946 
L 386.754545 288.674166 
L 387.6 285.241468 
L 388.445455 284.707749 
L 389.290909 285.5397 
L 390.136364 279.629904 
L 390.981818 258.088759 
L 391.827273 269.772548 
L 392.672727 288.913101 
L 393.518182 289.475213 
L 394.363636 303.902126 
L 395.209091 314.500471 
L 396.054545 306.110907 
L 396.9 317.629256 
L 397.745455 322.510579 
L 398.590909 321.544811 
L 399.436364 315.5705 
L 400.281818 312.683616 
L 401.127273 311.651585 
L 401.972727 309.190724 
L 402.818182 312.613759 
L 403.663636 312.109766 
L 404.509091 295.979598 
L 405.354545 294.928397 
L 406.2 292.461459 
L 407.045455 299.494977 
L 407.890909 286.886456 
L 408.736364 271.915382 
L 409.581818 267.47591 
L 410.427273 284.235731 
L 411.272727 277.981535 
L 412.118182 274.772267 
L 412.963636 291.217074 
L 413.809091 299.148467 
L 414.654545 295.846715 
L 415.5 307.556732 
L 416.345455 287.126557 
L 417.190909 259.478861 
L 418.036364 287.054834 
L 418.881818 309.247032 
L 419.727273 300.133585 
L 420.572727 300.727878 
L 421.418182 302.576532 
L 422.263636 299.765713 
L 423.109091 309.10632 
L 423.954545 322.234654 
L 424.8 308.291343 
L 425.645455 299.69461 
L 427.336364 241.320223 
L 428.181818 246.042441 
L 429.027273 249.631377 
L 429.872727 264.955725 
L 430.718182 287.386535 
L 431.563636 300.076252 
L 432.409091 307.043811 
L 433.254545 324.896599 
L 434.1 332.569892 
L 434.945455 326.918537 
L 435.790909 332.366417 
L 436.636364 328.190157 
L 437.481818 327.338303 
L 438.327273 324.743674 
L 439.172727 319.162793 
L 440.018182 310.392616 
L 440.863636 308.816301 
L 441.709091 314.619495 
L 442.554545 325.875709 
L 443.4 319.967955 
L 444.245455 300.179597 
L 445.090909 302.244947 
L 445.936364 305.361869 
L 446.781818 309.140764 
L 447.627273 304.313715 
L 448.472727 304.221216 
L 449.318182 316.042262 
L 450.163636 320.726095 
L 451.009091 307.315268 
L 451.854545 306.11598 
L 452.7 317.664522 
L 453.545455 301.534677 
L 454.390909 274.233778 
L 455.236364 286.823873 
L 456.081818 285.112452 
L 456.927273 287.524403 
L 458.618182 313.458629 
L 459.463636 315.265515 
L 460.309091 319.001863 
L 461.154545 291.562998 
L 462 295.728001 
L 462.845455 308.051363 
L 463.690909 315.543111 
L 464.536364 330.380835 
L 465.381818 330.989389 
L 466.227273 336.982777 
L 467.072727 328.250911 
L 467.918182 323.403027 
L 468.763636 320.545445 
L 469.609091 313.415573 
L 470.454545 323.673352 
L 471.3 300.099473 
L 472.990909 328.33167 
L 473.836364 324.506377 
L 474.681818 300.35629 
L 476.372727 336.04011 
L 477.218182 313.653305 
L 478.063636 301.493396 
L 478.909091 297.977399 
L 479.754545 303.751435 
L 480.6 311.131106 
L 481.445455 313.807219 
L 483.136364 252.472441 
L 483.981818 258.31234 
L 484.827273 259.167032 
L 485.672727 262.459244 
L 486.518182 286.792098 
L 488.209091 320.300064 
L 489.054545 321.09924 
L 489.9 318.648626 
L 490.745455 300.293545 
L 491.590909 312.937573 
L 492.436364 314.932909 
L 493.281818 320.784372 
L 494.127273 328.231507 
L 494.972727 337.179259 
L 496.663636 352.543119 
L 497.509091 347.792845 
L 498.354545 340.650099 
L 499.2 343.898466 
L 500.045455 348.362397 
L 500.890909 341.102114 
L 501.736364 307.287393 
L 503.427273 284.394224 
L 504.272727 284.558694 
L 505.118182 281.440441 
L 505.963636 291.208366 
L 506.809091 298.444641 
L 507.654545 312.976621 
L 509.345455 322.839061 
L 510.190909 316.361751 
L 511.036364 311.04397 
L 511.881818 316.029037 
L 512.727273 303.899785 
L 513.572727 303.447851 
L 514.418182 316.990718 
L 515.263636 308.530657 
L 516.109091 330.535452 
L 516.954545 343.630756 
L 517.8 342.351519 
L 518.645455 340.353757 
L 519.490909 329.287182 
L 520.336364 340.829772 
L 522.027273 322.187028 
L 522.872727 330.810029 
L 523.718182 337.735596 
L 524.563636 333.73027 
L 525.409091 319.584693 
L 527.1 328.758229 
L 527.945455 324.858737 
L 528.790909 316.175012 
L 529.636364 294.993376 
L 530.481818 292.658349 
L 531.327273 281.726147 
L 532.172727 292.777229 
L 533.018182 309.127986 
L 533.863636 315.308721 
L 534.709091 323.013236 
L 536.4 342.245572 
L 537.245455 342.522578 
L 538.090909 344.682237 
L 538.936364 348.45755 
L 539.781818 336.386666 
L 540.627273 334.49243 
L 541.472727 336.676886 
L 542.318182 332.545802 
L 543.163636 331.085291 
L 544.009091 323.985451 
L 544.854545 322.939646 
L 545.7 323.397722 
L 546.545455 312.16538 
L 547.390909 318.15674 
L 548.236364 297.390242 
L 549.081818 292.95113 
L 549.927273 277.599142 
L 550.772727 288.77585 
L 551.618182 279.300275 
L 553.309091 318.729295 
L 554.154545 331.25633 
L 555 333.052026 
L 555.845455 348.971879 
L 556.690909 344.481689 
L 557.536364 345.967255 
L 558.381818 342.081588 
L 560.072727 349.625251 
L 560.918182 347.440753 
L 561.763636 354.546092 
L 562.609091 354.259724 
L 563.454545 349.028319 
L 564.3 346.636065 
L 565.145455 334.479934 
L 565.990909 343.26242 
L 566.836364 341.886999 
L 567.681818 352.607672 
L 568.527273 356.034907 
L 569.372727 331.611189 
L 570.218182 332.45277 
L 571.063636 303.755968 
L 571.909091 297.384593 
L 572.754545 305.84872 
L 573.6 305.030177 
L 574.445455 318.176717 
L 575.290909 325.894695 
L 576.136364 315.88356 
L 576.981818 322.604625 
L 577.827273 326.207008 
L 578.672727 330.544833 
L 579.518182 351.174258 
L 580.363636 353.828411 
L 581.209091 346.363312 
L 582.054545 351.593331 
L 582.9 345.20674 
L 583.745455 352.932988 
L 584.590909 345.749258 
L 585.436364 329.120477 
L 586.281818 327.247264 
L 587.127273 338.603536 
L 588.818182 332.887312 
L 589.663636 341.371262 
L 590.509091 340.566683 
L 591.354545 343.400527 
L 592.2 341.392975 
L 593.045455 329.644355 
L 593.890909 340.914191 
L 594.736364 335.753236 
L 595.581818 322.243825 
L 596.427273 332.613556 
L 597.272727 337.062973 
L 598.963636 326.161977 
L 599.809091 343.472003 
L 600.654545 330.855401 
L 601.5 313.307811 
L 602.345455 313.646805 
L 603.190909 300.94267 
L 604.036364 310.349542 
L 604.881818 309.431465 
L 605.727273 297.766241 
L 606.572727 291.833333 
L 607.418182 309.231441 
L 608.263636 331.575427 
L 609.954545 367.075797 
L 610.8 364.326311 
L 611.645455 365.081682 
L 613.336364 362.089962 
L 614.181818 361.342084 
L 615.027273 368.389154 
L 615.872727 367.648182 
L 616.718182 369.36 
L 617.563636 365.382411 
L 618.409091 359.388901 
L 619.254545 347.261479 
L 620.1 333.036806 
L 620.945455 347.993943 
L 621.790909 350.012102 
L 622.636364 345.757053 
L 622.636364 345.757053 
" clip-path="url(#p1cb21245fd)" style="fill: none; stroke: #0000ff; stroke-width: 1.5; stroke-linecap: square"/>
   </g>
   <g id="line2d_108">
    <path d="M 115.363636 122.842999 
L 116.209091 159.608526 
L 117.054545 173.748369 
L 117.9 182.664053 
L 118.745455 189.881549 
L 119.590909 204.310688 
L 120.436364 205.249679 
L 121.281818 216.774924 
L 122.127273 223.316355 
L 122.972727 221.85234 
L 123.818182 229.517913 
L 124.663636 233.286312 
L 125.509091 232.460933 
L 126.354545 235.60516 
L 127.2 241.147676 
L 128.045455 243.726981 
L 128.890909 236.151833 
L 129.736364 236.75463 
L 130.581818 237.845894 
L 131.427273 242.631213 
L 132.272727 245.722617 
L 133.118182 244.555596 
L 133.963636 238.13182 
L 134.809091 239.26603 
L 135.654545 234.250628 
L 136.5 238.644536 
L 137.345455 240.222 
L 138.190909 230.878865 
L 139.036364 237.374196 
L 139.881818 239.904385 
L 140.727273 257.19612 
L 141.572727 249.120267 
L 142.418182 254.221869 
L 143.263636 244.217642 
L 144.109091 253.205542 
L 144.954545 231.715525 
L 145.8 234.207345 
L 146.645455 210.221687 
L 147.490909 244.786086 
L 148.336364 245.804884 
L 149.181818 256.763901 
L 150.027273 247.906151 
L 150.872727 246.878247 
L 151.718182 222.766172 
L 152.563636 248.035109 
L 153.409091 257.167766 
L 154.254545 254.866551 
L 155.1 253.577231 
L 155.945455 251.588042 
L 156.790909 239.366014 
L 157.636364 250.885464 
L 158.481818 229.260896 
L 159.327273 227.548268 
L 160.172727 254.713827 
L 161.018182 257.452945 
L 161.863636 268.818411 
L 163.554545 226.290104 
L 164.4 254.223472 
L 165.245455 250.589522 
L 166.090909 262.737969 
L 166.936364 257.833478 
L 167.781818 246.53955 
L 168.627273 251.776945 
L 169.472727 246.323181 
L 170.318182 249.603498 
L 172.009091 270.622424 
L 172.854545 270.987761 
L 173.7 267.931823 
L 174.545455 268.464135 
L 175.390909 246.362568 
L 176.236364 264.972475 
L 177.081818 264.442797 
L 177.927273 249.395414 
L 178.772727 253.087611 
L 179.618182 259.270813 
L 180.463636 254.150713 
L 181.309091 252.808925 
L 182.154545 237.919726 
L 183 257.978162 
L 183.845455 272.272622 
L 184.690909 251.185915 
L 185.536364 253.213861 
L 186.381818 273.190521 
L 187.227273 278.55553 
L 188.072727 271.305534 
L 188.918182 214.204592 
L 189.763636 248.273207 
L 190.609091 243.301609 
L 191.454545 231.679075 
L 192.3 229.917936 
L 193.145455 250.393839 
L 193.990909 262.1387 
L 194.836364 281.594682 
L 195.681818 285.620184 
L 196.527273 275.72769 
L 197.372727 278.246756 
L 198.218182 262.701311 
L 199.063636 274.014098 
L 199.909091 263.17563 
L 200.754545 263.56398 
L 201.6 247.967777 
L 202.445455 197.129752 
L 203.290909 225.977423 
L 204.136364 248.911825 
L 204.981818 250.88541 
L 205.827273 251.541998 
L 206.672727 269.652562 
L 207.518182 278.413771 
L 208.363636 265.830539 
L 209.209091 280.780824 
L 210.054545 275.500324 
L 210.9 287.628023 
L 211.745455 259.097462 
L 212.590909 252.577494 
L 213.436364 281.722893 
L 214.281818 279.304306 
L 215.127273 265.729492 
L 215.972727 223.283085 
L 216.818182 260.531575 
L 217.663636 273.63998 
L 218.509091 276.407411 
L 219.354545 289.933265 
L 220.2 277.424629 
L 221.045455 282.629216 
L 221.890909 284.573021 
L 222.736364 278.388179 
L 223.581818 270.810058 
L 224.427273 232.070727 
L 225.272727 261.590107 
L 226.118182 239.126746 
L 226.963636 231.478315 
L 227.809091 250.003011 
L 228.654545 248.836729 
L 229.5 258.448714 
L 230.345455 263.667654 
L 231.190909 267.743692 
L 232.036364 264.530099 
L 232.881818 285.214669 
L 233.727273 278.131433 
L 234.572727 249.581021 
L 235.418182 263.00197 
L 236.263636 269.582669 
L 237.109091 265.709023 
L 237.954545 243.730002 
L 238.8 202.636722 
L 239.645455 252.249067 
L 240.490909 268.15647 
L 241.336364 274.433565 
L 242.181818 293.629988 
L 243.027273 281.620758 
L 243.872727 285.687027 
L 244.718182 295.497372 
L 245.563636 300.237481 
L 247.254545 288.68663 
L 248.1 283.738215 
L 248.945455 299.870856 
L 249.790909 280.097873 
L 250.636364 293.452946 
L 252.327273 278.418623 
L 253.172727 287.850667 
L 254.018182 266.611875 
L 254.863636 293.417398 
L 255.709091 265.82259 
L 256.554545 226.493983 
L 257.4 235.389709 
L 258.245455 242.254728 
L 259.090909 223.114911 
L 259.936364 210.24703 
L 260.781818 235.193984 
L 261.627273 225.452369 
L 262.472727 253.863906 
L 263.318182 276.783814 
L 264.163636 283.689278 
L 265.009091 292.156707 
L 265.854545 303.000879 
L 266.7 300.281673 
L 267.545455 271.581519 
L 268.390909 293.871603 
L 269.236364 299.433658 
L 270.081818 292.017424 
L 270.927273 302.349547 
L 271.772727 276.963849 
L 272.618182 284.82148 
L 273.463636 281.881585 
L 274.309091 286.805352 
L 275.154545 273.69794 
L 276 289.643769 
L 276.845455 289.366686 
L 277.690909 282.87357 
L 278.536364 281.377163 
L 279.381818 261.698207 
L 280.227273 217.439535 
L 281.072727 252.417227 
L 281.918182 279.905431 
L 282.763636 286.158542 
L 283.609091 301.008539 
L 284.454545 293.043855 
L 285.3 272.161095 
L 286.145455 280.523706 
L 286.990909 276.004266 
L 287.836364 296.349541 
L 288.681818 280.574197 
L 289.527273 273.223499 
L 290.372727 253.413912 
L 291.218182 270.461772 
L 292.063636 270.132916 
L 292.909091 265.594319 
L 293.754545 266.144968 
L 294.6 253.705591 
L 295.445455 225.42727 
L 296.290909 219.060737 
L 297.981818 268.245691 
L 298.827273 283.263529 
L 299.672727 272.287434 
L 300.518182 282.869042 
L 301.363636 303.800004 
L 303.054545 310.65609 
L 303.9 309.776652 
L 304.745455 303.181206 
L 305.590909 301.628219 
L 306.436364 279.108847 
L 307.281818 271.28884 
L 308.127273 251.222591 
L 308.972727 270.180153 
L 309.818182 282.03692 
L 310.663636 279.701481 
L 311.509091 278.149845 
L 312.354545 290.763976 
L 313.2 283.970008 
L 314.045455 289.686011 
L 314.890909 278.107362 
L 315.736364 284.606602 
L 316.581818 274.068942 
L 317.427273 226.873087 
L 318.272727 246.294381 
L 319.118182 244.829581 
L 319.963636 253.433987 
L 320.809091 265.826789 
L 321.654545 287.941244 
L 322.5 285.278798 
L 323.345455 279.347584 
L 324.190909 272.340712 
L 325.036364 281.792123 
L 325.881818 271.926737 
L 326.727273 280.632879 
L 327.572727 273.209285 
L 328.418182 271.29565 
L 329.263636 271.840499 
L 330.109091 299.992932 
L 331.8 285.74913 
L 332.645455 289.418662 
L 333.490909 277.509643 
L 334.336364 272.798608 
L 335.181818 290.601563 
L 336.027273 297.503128 
L 336.872727 276.809793 
L 337.718182 309.124912 
L 338.563636 305.062338 
L 339.409091 274.150434 
L 340.254545 259.381556 
L 341.945455 280.546228 
L 342.790909 285.337539 
L 343.636364 286.599091 
L 344.481818 293.021496 
L 345.327273 284.212265 
L 346.172727 292.620257 
L 347.018182 275.054973 
L 347.863636 275.804513 
L 348.709091 266.776832 
L 349.554545 236.009761 
L 350.4 255.551094 
L 351.245455 271.077843 
L 352.090909 235.008136 
L 353.781818 280.590135 
L 354.627273 286.520869 
L 355.472727 294.468771 
L 357.163636 229.116118 
L 358.009091 261.16449 
L 358.854545 261.731949 
L 359.7 265.984678 
L 360.545455 281.805636 
L 361.390909 284.679803 
L 362.236364 311.550045 
L 363.081818 301.583225 
L 363.927273 304.592214 
L 364.772727 301.688564 
L 365.618182 308.067008 
L 366.463636 295.409082 
L 367.309091 293.041805 
L 369 272.567827 
L 369.845455 278.236794 
L 370.690909 291.851173 
L 371.536364 307.729664 
L 372.381818 301.633622 
L 373.227273 276.067278 
L 374.072727 286.400742 
L 374.918182 279.698113 
L 375.763636 289.171917 
L 376.609091 260.376917 
L 377.454545 281.712195 
L 378.3 294.459771 
L 379.145455 297.325788 
L 380.836364 306.073637 
L 381.681818 298.960786 
L 382.527273 277.997095 
L 383.372727 279.613273 
L 384.218182 287.488891 
L 385.063636 296.658087 
L 385.909091 274.392564 
L 386.754545 288.356379 
L 387.6 284.25654 
L 388.445455 277.570024 
L 389.290909 279.282343 
L 390.136364 274.725407 
L 390.981818 265.312618 
L 391.827273 278.882794 
L 392.672727 276.457353 
L 393.518182 293.168438 
L 394.363636 303.65728 
L 395.209091 301.087766 
L 396.054545 299.994801 
L 396.9 315.575883 
L 397.745455 313.135581 
L 398.590909 298.826546 
L 399.436364 310.944093 
L 400.281818 304.430893 
L 401.127273 307.221122 
L 401.972727 303.904752 
L 402.818182 301.93158 
L 403.663636 300.38338 
L 404.509091 288.660589 
L 405.354545 292.457983 
L 406.2 286.740121 
L 407.045455 275.971986 
L 407.890909 289.550575 
L 408.736364 255.34804 
L 409.581818 280.898941 
L 410.427273 260.842337 
L 411.272727 270.913402 
L 412.118182 284.186703 
L 412.963636 301.547604 
L 413.809091 278.855891 
L 414.654545 303.990562 
L 415.5 298.121765 
L 416.345455 263.089478 
L 417.190909 263.609078 
L 418.036364 298.362707 
L 418.881818 298.643903 
L 419.727273 284.3706 
L 420.572727 304.746301 
L 422.263636 294.353621 
L 423.109091 299.256122 
L 423.954545 308.573324 
L 424.8 299.800142 
L 425.645455 286.401942 
L 426.490909 244.136719 
L 427.336364 226.279074 
L 428.181818 242.997998 
L 429.027273 256.777311 
L 429.872727 279.074273 
L 430.718182 288.335477 
L 432.409091 302.128407 
L 433.254545 319.311044 
L 434.1 317.907637 
L 434.945455 315.247611 
L 435.790909 310.538406 
L 436.636364 312.577586 
L 437.481818 308.968143 
L 438.327273 307.989851 
L 439.172727 308.355222 
L 440.018182 304.997011 
L 440.863636 305.254037 
L 441.709091 314.671798 
L 442.554545 318.569247 
L 443.4 288.921424 
L 444.245455 307.332002 
L 445.090909 299.052683 
L 445.936364 299.757277 
L 446.781818 308.51979 
L 447.627273 289.198629 
L 448.472727 302.853528 
L 449.318182 306.514198 
L 450.163636 299.486876 
L 451.009091 293.807854 
L 451.854545 303.829266 
L 452.7 305.372533 
L 453.545455 256.263908 
L 454.390909 273.631999 
L 455.236364 283.835339 
L 456.081818 289.242663 
L 456.927273 286.51379 
L 457.772727 301.458505 
L 458.618182 287.793729 
L 459.463636 316.228414 
L 460.309091 291.457377 
L 461.154545 292.763922 
L 462 293.044329 
L 462.845455 302.275653 
L 463.690909 318.212542 
L 464.536364 315.279175 
L 465.381818 317.369683 
L 466.227273 314.152608 
L 467.072727 308.542417 
L 467.918182 297.634298 
L 468.763636 308.573557 
L 469.609091 303.52133 
L 470.454545 300.329884 
L 471.3 291.550784 
L 472.145455 309.737659 
L 472.990909 315.162897 
L 473.836364 293.619494 
L 474.681818 301.250364 
L 475.527273 316.587665 
L 476.372727 306.416429 
L 477.218182 306.537083 
L 478.063636 286.134992 
L 478.909091 295.93891 
L 479.754545 297.675598 
L 480.6 306.592331 
L 481.445455 292.545759 
L 482.290909 260.728071 
L 483.136364 247.028821 
L 483.981818 259.279129 
L 484.827273 261.86573 
L 485.672727 278.021246 
L 486.518182 290.907193 
L 487.363636 308.093339 
L 488.209091 314.113224 
L 489.054545 299.371739 
L 489.9 294.716496 
L 490.745455 306.880242 
L 491.590909 302.656901 
L 492.436364 312.013168 
L 493.281818 303.94329 
L 494.127273 321.064426 
L 494.972727 324.352302 
L 495.818182 326.786407 
L 496.663636 325.584181 
L 497.509091 310.629015 
L 498.354545 319.53653 
L 499.2 323.652732 
L 500.045455 321.644891 
L 500.890909 321.282594 
L 501.736364 281.013236 
L 502.581818 278.577657 
L 503.427273 271.481309 
L 504.272727 282.540332 
L 505.118182 276.065523 
L 505.963636 280.657343 
L 506.809091 309.467438 
L 507.654545 306.483439 
L 508.5 304.969897 
L 509.345455 315.778211 
L 510.190909 305.449832 
L 511.036364 311.103504 
L 511.881818 301.723903 
L 512.727273 303.595089 
L 513.572727 301.343106 
L 514.418182 301.928606 
L 515.263636 304.257526 
L 516.109091 320.951661 
L 516.954545 324.10434 
L 517.8 327.956626 
L 518.645455 319.907488 
L 519.490909 320.926258 
L 520.336364 325.834833 
L 521.181818 314.813176 
L 522.027273 313.735862 
L 522.872727 317.332125 
L 523.718182 324.774768 
L 524.563636 308.867446 
L 525.409091 303.899063 
L 526.254545 321.787442 
L 527.1 312.250273 
L 527.945455 307.573169 
L 528.790909 295.591399 
L 529.636364 292.2631 
L 530.481818 266.242384 
L 531.327273 277.930276 
L 533.018182 306.528334 
L 533.863636 310.472159 
L 534.709091 319.39688 
L 535.554545 321.233587 
L 536.4 324.034942 
L 537.245455 322.805488 
L 538.090909 329.69858 
L 538.936364 326.365293 
L 539.781818 320.533853 
L 540.627273 318.80868 
L 541.472727 308.521729 
L 542.318182 327.117214 
L 543.163636 313.198547 
L 544.009091 314.917723 
L 544.854545 310.564367 
L 545.7 324.214074 
L 546.545455 309.534744 
L 547.390909 322.195793 
L 548.236364 281.861277 
L 549.081818 296.572192 
L 549.927273 285.554681 
L 550.772727 294.446231 
L 551.618182 294.647737 
L 552.463636 313.504837 
L 553.309091 316.932397 
L 554.154545 317.6045 
L 555 324.919943 
L 555.845455 329.162343 
L 556.690909 317.092516 
L 557.536364 320.371685 
L 558.381818 329.307238 
L 559.227273 328.318524 
L 560.072727 320.731989 
L 560.918182 326.612101 
L 561.763636 328.55421 
L 562.609091 335.56761 
L 563.454545 326.855509 
L 564.3 304.721034 
L 565.145455 327.974374 
L 565.990909 316.359403 
L 566.836364 319.094702 
L 567.681818 334.928037 
L 568.527273 329.722379 
L 569.372727 321.700844 
L 570.218182 321.869837 
L 571.063636 279.81274 
L 571.909091 288.372768 
L 572.754545 307.44732 
L 573.6 293.967107 
L 574.445455 315.821351 
L 575.290909 316.951441 
L 576.136364 295.466716 
L 576.981818 314.833127 
L 577.827273 313.243706 
L 578.672727 325.032871 
L 579.518182 329.872354 
L 580.363636 332.551178 
L 581.209091 330.322309 
L 582.054545 326.580371 
L 582.9 325.79182 
L 583.745455 333.145674 
L 584.590909 324.021185 
L 585.436364 301.707998 
L 586.281818 325.245305 
L 587.127273 323.517985 
L 587.972727 314.948342 
L 589.663636 330.718817 
L 590.509091 329.604297 
L 591.354545 327.069526 
L 592.2 325.333481 
L 593.045455 325.885729 
L 593.890909 317.531834 
L 594.736364 318.966642 
L 595.581818 316.046302 
L 596.427273 318.84009 
L 597.272727 318.670959 
L 598.118182 303.270135 
L 598.963636 328.055151 
L 599.809091 328.753143 
L 600.654545 308.656659 
L 601.5 308.955561 
L 603.190909 292.853415 
L 604.036364 306.725791 
L 604.881818 284.817735 
L 605.727273 295.907992 
L 606.572727 276.788751 
L 607.418182 308.669703 
L 608.263636 324.975481 
L 609.954545 336.097299 
L 610.8 336.419108 
L 611.645455 333.157763 
L 612.490909 341.485393 
L 613.336364 333.207063 
L 614.181818 339.493563 
L 615.027273 335.119433 
L 615.872727 339.586354 
L 617.563636 340.824967 
L 619.254545 319.271863 
L 620.1 318.360569 
L 620.945455 327.051981 
L 621.790909 327.913441 
L 622.636364 338.206582 
L 622.636364 338.206582 
" clip-path="url(#p1cb21245fd)" style="fill: none; stroke: #ff0000; stroke-width: 1.5; stroke-linecap: square"/>
   </g>
   <g id="patch_3">
    <path d="M 90 384.48 
L 90 51.84 
" style="fill: none; stroke: #000000; stroke-width: 0.8; stroke-linejoin: miter; stroke-linecap: square"/>
   </g>
   <g id="patch_4">
    <path d="M 648 384.48 
L 648 51.84 
" style="fill: none; stroke: #000000; stroke-width: 0.8; stroke-linejoin: miter; stroke-linecap: square"/>
   </g>
   <g id="patch_5">
    <path d="M 90 384.48 
L 648 384.48 
" style="fill: none; stroke: #000000; stroke-width: 0.8; stroke-linejoin: miter; stroke-linecap: square"/>
   </g>
   <g id="patch_6">
    <path d="M 90 51.84 
L 648 51.84 
" style="fill: none; stroke: #000000; stroke-width: 0.8; stroke-linejoin: miter; stroke-linecap: square"/>
   </g>
   <g id="text_15">
    <!-- Training and Validation Loss Over Time -->
    <g transform="translate(252.60375 45.84) scale(0.12 -0.12)">
     <defs>
      <path id="DejaVuSans-54" d="M -19 4666 
L 3928 4666 
L 3928 4134 
L 2272 4134 
L 2272 0 
L 1638 0 
L 1638 4134 
L -19 4134 
L -19 4666 
z
" transform="scale(0.015625)"/>
      <path id="DejaVuSans-6e" d="M 3513 2113 
L 3513 0 
L 2938 0 
L 2938 2094 
Q 2938 2591 2744 2837 
Q 2550 3084 2163 3084 
Q 1697 3084 1428 2787 
Q 1159 2491 1159 1978 
L 1159 0 
L 581 0 
L 581 3500 
L 1159 3500 
L 1159 2956 
Q 1366 3272 1645 3428 
Q 1925 3584 2291 3584 
Q 2894 3584 3203 3211 
Q 3513 2838 3513 2113 
z
" transform="scale(0.015625)"/>
      <path id="DejaVuSans-67" d="M 2906 1791 
Q 2906 2416 2648 2759 
Q 2391 3103 1925 3103 
Q 1463 3103 1205 2759 
Q 947 2416 947 1791 
Q 947 1169 1205 825 
Q 1463 481 1925 481 
Q 2391 481 2648 825 
Q 2906 1169 2906 1791 
z
M 3481 434 
Q 3481 -459 3084 -895 
Q 2688 -1331 1869 -1331 
Q 1566 -1331 1297 -1286 
Q 1028 -1241 775 -1147 
L 775 -588 
Q 1028 -725 1275 -790 
Q 1522 -856 1778 -856 
Q 2344 -856 2625 -561 
Q 2906 -266 2906 331 
L 2906 616 
Q 2728 306 2450 153 
Q 2172 0 1784 0 
Q 1141 0 747 490 
Q 353 981 353 1791 
Q 353 2603 747 3093 
Q 1141 3584 1784 3584 
Q 2172 3584 2450 3431 
Q 2728 3278 2906 2969 
L 2906 3500 
L 3481 3500 
L 3481 434 
z
" transform="scale(0.015625)"/>
      <path id="DejaVuSans-56" d="M 1831 0 
L 50 4666 
L 709 4666 
L 2188 738 
L 3669 4666 
L 4325 4666 
L 2547 0 
L 1831 0 
z
" transform="scale(0.015625)"/>
      <path id="DejaVuSans-74" d="M 1172 4494 
L 1172 3500 
L 2356 3500 
L 2356 3053 
L 1172 3053 
L 1172 1153 
Q 1172 725 1289 603 
Q 1406 481 1766 481 
L 2356 481 
L 2356 0 
L 1766 0 
Q 1100 0 847 248 
Q 594 497 594 1153 
L 594 3053 
L 172 3053 
L 172 3500 
L 594 3500 
L 594 4494 
L 1172 4494 
z
" transform="scale(0.015625)"/>
      <path id="DejaVuSans-4f" d="M 2522 4238 
Q 1834 4238 1429 3725 
Q 1025 3213 1025 2328 
Q 1025 1447 1429 934 
Q 1834 422 2522 422 
Q 3209 422 3611 934 
Q 4013 1447 4013 2328 
Q 4013 3213 3611 3725 
Q 3209 4238 2522 4238 
z
M 2522 4750 
Q 3503 4750 4090 4092 
Q 4678 3434 4678 2328 
Q 4678 1225 4090 567 
Q 3503 -91 2522 -91 
Q 1538 -91 948 565 
Q 359 1222 359 2328 
Q 359 3434 948 4092 
Q 1538 4750 2522 4750 
z
" transform="scale(0.015625)"/>
      <path id="DejaVuSans-76" d="M 191 3500 
L 800 3500 
L 1894 563 
L 2988 3500 
L 3597 3500 
L 2284 0 
L 1503 0 
L 191 3500 
z
" transform="scale(0.015625)"/>
     </defs>
     <use xlink:href="#DejaVuSans-54"/>
     <use xlink:href="#DejaVuSans-72" transform="translate(46.333984 0)"/>
     <use xlink:href="#DejaVuSans-61" transform="translate(87.447266 0)"/>
     <use xlink:href="#DejaVuSans-69" transform="translate(148.726562 0)"/>
     <use xlink:href="#DejaVuSans-6e" transform="translate(176.509766 0)"/>
     <use xlink:href="#DejaVuSans-69" transform="translate(239.888672 0)"/>
     <use xlink:href="#DejaVuSans-6e" transform="translate(267.671875 0)"/>
     <use xlink:href="#DejaVuSans-67" transform="translate(331.050781 0)"/>
     <use xlink:href="#DejaVuSans-20" transform="translate(394.527344 0)"/>
     <use xlink:href="#DejaVuSans-61" transform="translate(426.314453 0)"/>
     <use xlink:href="#DejaVuSans-6e" transform="translate(487.59375 0)"/>
     <use xlink:href="#DejaVuSans-64" transform="translate(550.972656 0)"/>
     <use xlink:href="#DejaVuSans-20" transform="translate(614.449219 0)"/>
     <use xlink:href="#DejaVuSans-56" transform="translate(646.236328 0)"/>
     <use xlink:href="#DejaVuSans-61" transform="translate(706.894531 0)"/>
     <use xlink:href="#DejaVuSans-6c" transform="translate(768.173828 0)"/>
     <use xlink:href="#DejaVuSans-69" transform="translate(795.957031 0)"/>
     <use xlink:href="#DejaVuSans-64" transform="translate(823.740234 0)"/>
     <use xlink:href="#DejaVuSans-61" transform="translate(887.216797 0)"/>
     <use xlink:href="#DejaVuSans-74" transform="translate(948.496094 0)"/>
     <use xlink:href="#DejaVuSans-69" transform="translate(987.705078 0)"/>
     <use xlink:href="#DejaVuSans-6f" transform="translate(1015.488281 0)"/>
     <use xlink:href="#DejaVuSans-6e" transform="translate(1076.669922 0)"/>
     <use xlink:href="#DejaVuSans-20" transform="translate(1140.048828 0)"/>
     <use xlink:href="#DejaVuSans-4c" transform="translate(1171.835938 0)"/>
     <use xlink:href="#DejaVuSans-6f" transform="translate(1225.798828 0)"/>
     <use xlink:href="#DejaVuSans-73" transform="translate(1286.980469 0)"/>
     <use xlink:href="#DejaVuSans-73" transform="translate(1339.080078 0)"/>
     <use xlink:href="#DejaVuSans-20" transform="translate(1391.179688 0)"/>
     <use xlink:href="#DejaVuSans-4f" transform="translate(1422.966797 0)"/>
     <use xlink:href="#DejaVuSans-76" transform="translate(1501.677734 0)"/>
     <use xlink:href="#DejaVuSans-65" transform="translate(1560.857422 0)"/>
     <use xlink:href="#DejaVuSans-72" transform="translate(1622.380859 0)"/>
     <use xlink:href="#DejaVuSans-20" transform="translate(1663.494141 0)"/>
     <use xlink:href="#DejaVuSans-54" transform="translate(1695.28125 0)"/>
     <use xlink:href="#DejaVuSans-69" transform="translate(1753.240234 0)"/>
     <use xlink:href="#DejaVuSans-6d" transform="translate(1781.023438 0)"/>
     <use xlink:href="#DejaVuSans-65" transform="translate(1878.435547 0)"/>
    </g>
   </g>
   <g id="legend_1">
    <g id="patch_7">
     <path d="M 534.50625 89.19625 
L 641 89.19625 
Q 643 89.19625 643 87.19625 
L 643 58.84 
Q 643 56.84 641 56.84 
L 534.50625 56.84 
Q 532.50625 56.84 532.50625 58.84 
L 532.50625 87.19625 
Q 532.50625 89.19625 534.50625 89.19625 
z
" style="fill: #ffffff; opacity: 0.8; stroke: #cccccc; stroke-linejoin: miter"/>
    </g>
    <g id="line2d_109">
     <path d="M 536.50625 64.938437 
L 546.50625 64.938437 
L 556.50625 64.938437 
" style="fill: none; stroke: #0000ff; stroke-width: 1.5; stroke-linecap: square"/>
    </g>
    <g id="text_16">
     <!-- Training Loss -->
     <g transform="translate(564.50625 68.438437) scale(0.1 -0.1)">
      <use xlink:href="#DejaVuSans-54"/>
      <use xlink:href="#DejaVuSans-72" transform="translate(46.333984 0)"/>
      <use xlink:href="#DejaVuSans-61" transform="translate(87.447266 0)"/>
      <use xlink:href="#DejaVuSans-69" transform="translate(148.726562 0)"/>
      <use xlink:href="#DejaVuSans-6e" transform="translate(176.509766 0)"/>
      <use xlink:href="#DejaVuSans-69" transform="translate(239.888672 0)"/>
      <use xlink:href="#DejaVuSans-6e" transform="translate(267.671875 0)"/>
      <use xlink:href="#DejaVuSans-67" transform="translate(331.050781 0)"/>
      <use xlink:href="#DejaVuSans-20" transform="translate(394.527344 0)"/>
      <use xlink:href="#DejaVuSans-4c" transform="translate(426.314453 0)"/>
      <use xlink:href="#DejaVuSans-6f" transform="translate(480.277344 0)"/>
      <use xlink:href="#DejaVuSans-73" transform="translate(541.458984 0)"/>
      <use xlink:href="#DejaVuSans-73" transform="translate(593.558594 0)"/>
     </g>
    </g>
    <g id="line2d_110">
     <path d="M 536.50625 79.616562 
L 546.50625 79.616562 
L 556.50625 79.616562 
" style="fill: none; stroke: #ff0000; stroke-width: 1.5; stroke-linecap: square"/>
    </g>
    <g id="text_17">
     <!-- Validation Loss -->
     <g transform="translate(564.50625 83.116562) scale(0.1 -0.1)">
      <use xlink:href="#DejaVuSans-56"/>
      <use xlink:href="#DejaVuSans-61" transform="translate(60.658203 0)"/>
      <use xlink:href="#DejaVuSans-6c" transform="translate(121.9375 0)"/>
      <use xlink:href="#DejaVuSans-69" transform="translate(149.720703 0)"/>
      <use xlink:href="#DejaVuSans-64" transform="translate(177.503906 0)"/>
      <use xlink:href="#DejaVuSans-61" transform="translate(240.980469 0)"/>
      <use xlink:href="#DejaVuSans-74" transform="translate(302.259766 0)"/>
      <use xlink:href="#DejaVuSans-69" transform="translate(341.46875 0)"/>
      <use xlink:href="#DejaVuSans-6f" transform="translate(369.251953 0)"/>
      <use xlink:href="#DejaVuSans-6e" transform="translate(430.433594 0)"/>
      <use xlink:href="#DejaVuSans-20" transform="translate(493.8125 0)"/>
      <use xlink:href="#DejaVuSans-4c" transform="translate(525.599609 0)"/>
      <use xlink:href="#DejaVuSans-6f" transform="translate(579.5625 0)"/>
      <use xlink:href="#DejaVuSans-73" transform="translate(640.744141 0)"/>
      <use xlink:href="#DejaVuSans-73" transform="translate(692.84375 0)"/>
     </g>
    </g>
   </g>
  </g>
 </g>
 <defs>
  <clipPath id="p1cb21245fd">
   <rect x="90" y="51.84" width="558" height="332.64"/>
  </clipPath>
 </defs>
</svg>
